%TF.GenerationSoftware,KiCad,Pcbnew,8.0.4*%
%TF.CreationDate,2024-12-03T19:18:34-08:00*%
%TF.ProjectId,USBC_UART_Dock_Prototype,55534243-5f55-4415-9254-5f446f636b5f,rev?*%
%TF.SameCoordinates,Original*%
%TF.FileFunction,Copper,L1,Top*%
%TF.FilePolarity,Positive*%
%FSLAX46Y46*%
G04 Gerber Fmt 4.6, Leading zero omitted, Abs format (unit mm)*
G04 Created by KiCad (PCBNEW 8.0.4) date 2024-12-03 19:18:34*
%MOMM*%
%LPD*%
G01*
G04 APERTURE LIST*
G04 Aperture macros list*
%AMRoundRect*
0 Rectangle with rounded corners*
0 $1 Rounding radius*
0 $2 $3 $4 $5 $6 $7 $8 $9 X,Y pos of 4 corners*
0 Add a 4 corners polygon primitive as box body*
4,1,4,$2,$3,$4,$5,$6,$7,$8,$9,$2,$3,0*
0 Add four circle primitives for the rounded corners*
1,1,$1+$1,$2,$3*
1,1,$1+$1,$4,$5*
1,1,$1+$1,$6,$7*
1,1,$1+$1,$8,$9*
0 Add four rect primitives between the rounded corners*
20,1,$1+$1,$2,$3,$4,$5,0*
20,1,$1+$1,$4,$5,$6,$7,0*
20,1,$1+$1,$6,$7,$8,$9,0*
20,1,$1+$1,$8,$9,$2,$3,0*%
G04 Aperture macros list end*
%TA.AperFunction,SMDPad,CuDef*%
%ADD10RoundRect,0.250000X-0.625000X0.400000X-0.625000X-0.400000X0.625000X-0.400000X0.625000X0.400000X0*%
%TD*%
%TA.AperFunction,SMDPad,CuDef*%
%ADD11RoundRect,0.162500X-0.162500X0.617500X-0.162500X-0.617500X0.162500X-0.617500X0.162500X0.617500X0*%
%TD*%
%TA.AperFunction,SMDPad,CuDef*%
%ADD12RoundRect,0.250000X-0.412500X-0.650000X0.412500X-0.650000X0.412500X0.650000X-0.412500X0.650000X0*%
%TD*%
%TA.AperFunction,SMDPad,CuDef*%
%ADD13RoundRect,0.250000X0.650000X-0.412500X0.650000X0.412500X-0.650000X0.412500X-0.650000X-0.412500X0*%
%TD*%
%TA.AperFunction,SMDPad,CuDef*%
%ADD14RoundRect,0.250000X-0.650000X0.412500X-0.650000X-0.412500X0.650000X-0.412500X0.650000X0.412500X0*%
%TD*%
%TA.AperFunction,ComponentPad*%
%ADD15C,10.160000*%
%TD*%
%TA.AperFunction,ComponentPad*%
%ADD16C,0.700000*%
%TD*%
%TA.AperFunction,ComponentPad*%
%ADD17O,2.400000X0.900000*%
%TD*%
%TA.AperFunction,ComponentPad*%
%ADD18O,1.700000X0.900000*%
%TD*%
%TA.AperFunction,SMDPad,CuDef*%
%ADD19RoundRect,0.250000X0.412500X0.650000X-0.412500X0.650000X-0.412500X-0.650000X0.412500X-0.650000X0*%
%TD*%
%TA.AperFunction,SMDPad,CuDef*%
%ADD20RoundRect,0.250000X0.450000X-0.325000X0.450000X0.325000X-0.450000X0.325000X-0.450000X-0.325000X0*%
%TD*%
%TA.AperFunction,SMDPad,CuDef*%
%ADD21RoundRect,0.237500X-0.237500X0.300000X-0.237500X-0.300000X0.237500X-0.300000X0.237500X0.300000X0*%
%TD*%
%TA.AperFunction,SMDPad,CuDef*%
%ADD22RoundRect,0.250000X-0.400000X-0.625000X0.400000X-0.625000X0.400000X0.625000X-0.400000X0.625000X0*%
%TD*%
%TA.AperFunction,SMDPad,CuDef*%
%ADD23RoundRect,0.125000X-0.625000X-0.125000X0.625000X-0.125000X0.625000X0.125000X-0.625000X0.125000X0*%
%TD*%
%TA.AperFunction,SMDPad,CuDef*%
%ADD24RoundRect,0.125000X-0.125000X-0.625000X0.125000X-0.625000X0.125000X0.625000X-0.125000X0.625000X0*%
%TD*%
%TA.AperFunction,SMDPad,CuDef*%
%ADD25RoundRect,0.237500X0.237500X-0.300000X0.237500X0.300000X-0.237500X0.300000X-0.237500X-0.300000X0*%
%TD*%
%TA.AperFunction,SMDPad,CuDef*%
%ADD26RoundRect,0.050000X0.362500X0.050000X-0.362500X0.050000X-0.362500X-0.050000X0.362500X-0.050000X0*%
%TD*%
%TA.AperFunction,SMDPad,CuDef*%
%ADD27RoundRect,0.050000X0.050000X0.362500X-0.050000X0.362500X-0.050000X-0.362500X0.050000X-0.362500X0*%
%TD*%
%TA.AperFunction,HeatsinkPad*%
%ADD28C,0.500000*%
%TD*%
%TA.AperFunction,HeatsinkPad*%
%ADD29R,1.700000X1.700000*%
%TD*%
%TA.AperFunction,SMDPad,CuDef*%
%ADD30R,2.000000X4.500000*%
%TD*%
%TA.AperFunction,ComponentPad*%
%ADD31R,1.700000X1.700000*%
%TD*%
%TA.AperFunction,ComponentPad*%
%ADD32O,1.700000X1.700000*%
%TD*%
%TA.AperFunction,SMDPad,CuDef*%
%ADD33RoundRect,0.237500X-0.300000X-0.237500X0.300000X-0.237500X0.300000X0.237500X-0.300000X0.237500X0*%
%TD*%
%TA.AperFunction,SMDPad,CuDef*%
%ADD34RoundRect,0.250000X0.625000X-0.400000X0.625000X0.400000X-0.625000X0.400000X-0.625000X-0.400000X0*%
%TD*%
%TA.AperFunction,SMDPad,CuDef*%
%ADD35O,0.599999X0.200000*%
%TD*%
%TA.AperFunction,SMDPad,CuDef*%
%ADD36O,0.200000X0.599999*%
%TD*%
%TA.AperFunction,SMDPad,CuDef*%
%ADD37R,1.599999X2.600000*%
%TD*%
%TA.AperFunction,ComponentPad*%
%ADD38C,0.499999*%
%TD*%
%TA.AperFunction,ViaPad*%
%ADD39C,0.558800*%
%TD*%
%TA.AperFunction,Conductor*%
%ADD40C,0.200000*%
%TD*%
%TA.AperFunction,Conductor*%
%ADD41C,0.500000*%
%TD*%
%TA.AperFunction,Conductor*%
%ADD42C,0.254000*%
%TD*%
%TA.AperFunction,Conductor*%
%ADD43C,0.600000*%
%TD*%
%TA.AperFunction,Conductor*%
%ADD44C,0.289451*%
%TD*%
%TA.AperFunction,Conductor*%
%ADD45C,0.266700*%
%TD*%
%TA.AperFunction,Conductor*%
%ADD46C,0.288536*%
%TD*%
G04 APERTURE END LIST*
D10*
%TO.P,R8,1*%
%TO.N,+3.3V*%
X161900000Y-69760000D03*
%TO.P,R8,2*%
%TO.N,Net-(D5-A)*%
X161900000Y-72860000D03*
%TD*%
D11*
%TO.P,U5,1,IN*%
%TO.N,+5V*%
X128450000Y-82987500D03*
%TO.P,U5,2,GND*%
%TO.N,GND*%
X127500000Y-82987500D03*
%TO.P,U5,3,EN*%
%TO.N,+5V*%
X126550000Y-82987500D03*
%TO.P,U5,4,NC*%
%TO.N,unconnected-(U5-NC-Pad4)*%
X126550000Y-85687500D03*
%TO.P,U5,5,OUT*%
%TO.N,+3.3V*%
X128450000Y-85687500D03*
%TD*%
D12*
%TO.P,C10,1*%
%TO.N,+3.3V*%
X156837500Y-90137500D03*
%TO.P,C10,2*%
%TO.N,GND*%
X159962500Y-90137500D03*
%TD*%
D13*
%TO.P,C8,1*%
%TO.N,/USB_D-*%
X149700000Y-94087500D03*
%TO.P,C8,2*%
%TO.N,GND*%
X149700000Y-90962500D03*
%TD*%
D14*
%TO.P,C4,1*%
%TO.N,+5V*%
X135200000Y-78912500D03*
%TO.P,C4,2*%
%TO.N,GND*%
X135200000Y-82037500D03*
%TD*%
D15*
%TO.P,J1,1,Pin_1*%
%TO.N,+5V*%
X122450000Y-67287500D03*
%TD*%
D16*
%TO.P,J4,A1,GND*%
%TO.N,GND*%
X162825000Y-97312500D03*
%TO.P,J4,A4,VBUS*%
%TO.N,+VUSB*%
X162825000Y-96462500D03*
%TO.P,J4,A5,CC1*%
%TO.N,/CONN_USB_CC1*%
X162825000Y-95612500D03*
%TO.P,J4,A6,D+*%
%TO.N,/CONN_USB_D+*%
X162825000Y-94762500D03*
%TO.P,J4,A7,D-*%
%TO.N,/CONN_USB_D-*%
X162825000Y-93912500D03*
%TO.P,J4,A8,SBU1*%
%TO.N,unconnected-(J4-SBU1-PadA8)*%
X162825000Y-93062500D03*
%TO.P,J4,A9,VBUS*%
%TO.N,+VUSB*%
X162825000Y-92212500D03*
%TO.P,J4,A12,GND*%
%TO.N,GND*%
X162825000Y-91362500D03*
%TO.P,J4,B1,GND*%
X164175000Y-91362500D03*
%TO.P,J4,B4,VBUS*%
%TO.N,+VUSB*%
X164175000Y-92212500D03*
%TO.P,J4,B5,CC2*%
%TO.N,/CONN_USB_CC2*%
X164175000Y-93062500D03*
%TO.P,J4,B6,D+*%
%TO.N,/CONN_USB_D+*%
X164175000Y-93912500D03*
%TO.P,J4,B7,D-*%
%TO.N,/CONN_USB_D-*%
X164175000Y-94762500D03*
%TO.P,J4,B8,SBU2*%
%TO.N,unconnected-(J4-SBU2-PadB8)*%
X164175000Y-95612500D03*
%TO.P,J4,B9,VBUS*%
%TO.N,+VUSB*%
X164175000Y-96462500D03*
%TO.P,J4,B12,GND*%
%TO.N,GND*%
X164175000Y-97312500D03*
D17*
%TO.P,J4,S1,SHIELD*%
X163805000Y-98662500D03*
D18*
X167185000Y-98662500D03*
D17*
X163805000Y-90012500D03*
D18*
X167185000Y-90012500D03*
%TD*%
D19*
%TO.P,C1,1*%
%TO.N,/XTIN*%
X123062500Y-86000000D03*
%TO.P,C1,2*%
%TO.N,GND*%
X119937500Y-86000000D03*
%TD*%
D20*
%TO.P,D4,1,K*%
%TO.N,/nPWR_FLT*%
X158388000Y-78560000D03*
%TO.P,D4,2,A*%
%TO.N,Net-(D4-A)*%
X158388000Y-76510000D03*
%TD*%
D14*
%TO.P,C9,1*%
%TO.N,/USB_D+*%
X149750000Y-95987500D03*
%TO.P,C9,2*%
%TO.N,GND*%
X149750000Y-99112500D03*
%TD*%
D10*
%TO.P,R7,1*%
%TO.N,+3.3V*%
X158650000Y-69760000D03*
%TO.P,R7,2*%
%TO.N,Net-(D4-A)*%
X158650000Y-72860000D03*
%TD*%
%TO.P,R5,1*%
%TO.N,+3.3V*%
X151850000Y-69760000D03*
%TO.P,R5,2*%
%TO.N,Net-(D2-A)*%
X151850000Y-72860000D03*
%TD*%
D15*
%TO.P,J2,1,Pin_1*%
%TO.N,GND*%
X140000000Y-67287500D03*
%TD*%
D10*
%TO.P,R4,1*%
%TO.N,+3.3V*%
X148200000Y-69760000D03*
%TO.P,R4,2*%
%TO.N,Net-(D1-A)*%
X148200000Y-72860000D03*
%TD*%
%TO.P,R6,1*%
%TO.N,+3.3V*%
X155400000Y-69760000D03*
%TO.P,R6,2*%
%TO.N,Net-(D3-A)*%
X155400000Y-72860000D03*
%TD*%
D20*
%TO.P,D1,1,K*%
%TO.N,/nLD_DET*%
X148200000Y-78560000D03*
%TO.P,D1,2,A*%
%TO.N,Net-(D1-A)*%
X148200000Y-76510000D03*
%TD*%
%TO.P,D5,1,K*%
%TO.N,/nUSB_ERROR*%
X161784000Y-78560000D03*
%TO.P,D5,2,A*%
%TO.N,Net-(D5-A)*%
X161784000Y-76510000D03*
%TD*%
D13*
%TO.P,C12,1*%
%TO.N,+VUSB*%
X160300000Y-85662500D03*
%TO.P,C12,2*%
%TO.N,GND*%
X160300000Y-82537500D03*
%TD*%
D19*
%TO.P,C16,1*%
%TO.N,+5V*%
X123275000Y-82837500D03*
%TO.P,C16,2*%
%TO.N,GND*%
X120150000Y-82837500D03*
%TD*%
D20*
%TO.P,D2,1,K*%
%TO.N,/nUFP*%
X151596000Y-78560000D03*
%TO.P,D2,2,A*%
%TO.N,Net-(D2-A)*%
X151596000Y-76510000D03*
%TD*%
D21*
%TO.P,C13,1*%
%TO.N,+3.3V*%
X134500000Y-99237500D03*
%TO.P,C13,2*%
%TO.N,GND*%
X134500000Y-100962500D03*
%TD*%
D12*
%TO.P,C17,1*%
%TO.N,+3.3V*%
X131137500Y-85400000D03*
%TO.P,C17,2*%
%TO.N,GND*%
X134262500Y-85400000D03*
%TD*%
D10*
%TO.P,R9,1*%
%TO.N,+3.3V*%
X165550000Y-69760000D03*
%TO.P,R9,2*%
%TO.N,Net-(D6-A)*%
X165550000Y-72860000D03*
%TD*%
D20*
%TO.P,D3,1,K*%
%TO.N,/nPOL*%
X154992000Y-78560000D03*
%TO.P,D3,2,A*%
%TO.N,Net-(D3-A)*%
X154992000Y-76510000D03*
%TD*%
D14*
%TO.P,C5,1*%
%TO.N,+5V*%
X131850000Y-78912500D03*
%TO.P,C5,2*%
%TO.N,GND*%
X131850000Y-82037500D03*
%TD*%
D22*
%TO.P,R3,1*%
%TO.N,/FT_USB_D-*%
X144150000Y-93850000D03*
%TO.P,R3,2*%
%TO.N,/USB_D-*%
X147250000Y-93850000D03*
%TD*%
D23*
%TO.P,U1,1,GND_1*%
%TO.N,GND*%
X131225000Y-89787500D03*
%TO.P,U1,2,VCC*%
%TO.N,+3.3V*%
X131225000Y-90587500D03*
%TO.P,U1,3,AVCC*%
%TO.N,+1.8 V*%
X131225000Y-91387500D03*
%TO.P,U1,4,XTIN*%
%TO.N,/XTIN*%
X131225000Y-92187500D03*
%TO.P,U1,5,XTOUT*%
%TO.N,/XTOUT*%
X131225000Y-92987500D03*
%TO.P,U1,6,GND_2*%
%TO.N,GND*%
X131225000Y-93787500D03*
%TO.P,U1,7,VREGOUT*%
%TO.N,+1.8 V*%
X131225000Y-94587500D03*
%TO.P,U1,8,TEST1*%
%TO.N,GND*%
X131225000Y-95387500D03*
D24*
%TO.P,U1,9,TEST2*%
%TO.N,+3.3V*%
X132600000Y-96762500D03*
%TO.P,U1,10,RESET#*%
X133400000Y-96762500D03*
%TO.P,U1,11,TEST0*%
%TO.N,unconnected-(U1-TEST0-Pad11)*%
X134200000Y-96762500D03*
%TO.P,U1,12,NC_1*%
%TO.N,unconnected-(U1-NC_1-Pad12)*%
X135000000Y-96762500D03*
%TO.P,U1,13,VCCIO_1*%
%TO.N,+3.3V*%
X135800000Y-96762500D03*
%TO.P,U1,14,GND_3*%
%TO.N,GND*%
X136600000Y-96762500D03*
%TO.P,U1,15,GND_4*%
X137400000Y-96762500D03*
%TO.P,U1,16,GND_5*%
X138200000Y-96762500D03*
D23*
%TO.P,U1,17,USBDP*%
%TO.N,/FT_USB_D+*%
X139575000Y-95387500D03*
%TO.P,U1,18,USBDM*%
%TO.N,/FT_USB_D-*%
X139575000Y-94587500D03*
%TO.P,U1,19,GND_6*%
%TO.N,GND*%
X139575000Y-93787500D03*
%TO.P,U1,20,NC_2*%
%TO.N,unconnected-(U1-NC_2-Pad20)*%
X139575000Y-92987500D03*
%TO.P,U1,21,NC_3*%
%TO.N,unconnected-(U1-NC_3-Pad21)*%
X139575000Y-92187500D03*
%TO.P,U1,22,VCCIO_2*%
%TO.N,+3.3V*%
X139575000Y-91387500D03*
%TO.P,U1,23,TXD*%
%TO.N,/UART_TX*%
X139575000Y-90587500D03*
%TO.P,U1,24,RXD*%
%TO.N,/UART_RX*%
X139575000Y-89787500D03*
D24*
%TO.P,U1,25,RTS#*%
%TO.N,/RTS*%
X138200000Y-88412500D03*
%TO.P,U1,26,CTS#*%
%TO.N,/CTS*%
X137400000Y-88412500D03*
%TO.P,U1,27,GND_7*%
%TO.N,GND*%
X136600000Y-88412500D03*
%TO.P,U1,28,VCCIO_3*%
%TO.N,+3.3V*%
X135800000Y-88412500D03*
%TO.P,U1,29,TX_ACTIVE*%
%TO.N,/TX_ACTIVE*%
X135000000Y-88412500D03*
%TO.P,U1,30,NC_4*%
%TO.N,unconnected-(U1-NC_4-Pad30)*%
X134200000Y-88412500D03*
%TO.P,U1,31,NC_5*%
%TO.N,unconnected-(U1-NC_5-Pad31)*%
X133400000Y-88412500D03*
%TO.P,U1,32,USB_ERROR#*%
%TO.N,/nUSB_ERROR*%
X132600000Y-88412500D03*
%TD*%
D25*
%TO.P,C7,1*%
%TO.N,+5V*%
X145450000Y-85100000D03*
%TO.P,C7,2*%
%TO.N,GND*%
X145450000Y-83375000D03*
%TD*%
D19*
%TO.P,C3,1*%
%TO.N,/XTOUT*%
X122962500Y-102000000D03*
%TO.P,C3,2*%
%TO.N,GND*%
X119837500Y-102000000D03*
%TD*%
D22*
%TO.P,R2,1*%
%TO.N,/FT_USB_D+*%
X144150000Y-96200000D03*
%TO.P,R2,2*%
%TO.N,/USB_D+*%
X147250000Y-96200000D03*
%TD*%
D26*
%TO.P,U3,1,C_SBU1*%
%TO.N,/CONN_USB_D+*%
X159712500Y-94500000D03*
%TO.P,U3,2,C_SBU2*%
%TO.N,/CONN_USB_D-*%
X159712500Y-94100000D03*
%TO.P,U3,3,VBIAS*%
%TO.N,Net-(U3-VBIAS)*%
X159712500Y-93700000D03*
%TO.P,U3,4,C_CC1*%
%TO.N,/CONN_USB_CC1*%
X159712500Y-93300000D03*
%TO.P,U3,5,C_CC2*%
%TO.N,/CONN_USB_CC2*%
X159712500Y-92900000D03*
D27*
%TO.P,U3,6,RPD_G2*%
%TO.N,GND*%
X159050000Y-92237500D03*
%TO.P,U3,7,RPD_G1*%
X158650000Y-92237500D03*
%TO.P,U3,8,GND*%
X158250000Y-92237500D03*
%TO.P,U3,9,~{FLT}*%
%TO.N,/nPWR_FLT*%
X157850000Y-92237500D03*
%TO.P,U3,10,VPWR*%
%TO.N,+3.3V*%
X157450000Y-92237500D03*
D26*
%TO.P,U3,11,CC2*%
%TO.N,/USB_CC1*%
X156787500Y-92900000D03*
%TO.P,U3,12,CC1*%
%TO.N,/USB_CC2*%
X156787500Y-93300000D03*
%TO.P,U3,13,GND*%
%TO.N,GND*%
X156787500Y-93700000D03*
%TO.P,U3,14,SBU2*%
%TO.N,/USB_D-*%
X156787500Y-94100000D03*
%TO.P,U3,15,SBU1*%
%TO.N,/USB_D+*%
X156787500Y-94500000D03*
D27*
%TO.P,U3,16,GND*%
%TO.N,GND*%
X157450000Y-95162500D03*
%TO.P,U3,17,GND*%
X157850000Y-95162500D03*
%TO.P,U3,18,GND*%
X158250000Y-95162500D03*
%TO.P,U3,19,D2*%
X158650000Y-95162500D03*
%TO.P,U3,20,D1*%
X159050000Y-95162500D03*
D28*
%TO.P,U3,21,GND*%
X158850000Y-94300000D03*
X158850000Y-93100000D03*
D29*
X158250000Y-93700000D03*
D28*
X157650000Y-94300000D03*
X157650000Y-93100000D03*
%TD*%
D30*
%TO.P,Y1,1,1*%
%TO.N,/XTIN*%
X123000000Y-89750000D03*
%TO.P,Y1,2,2*%
%TO.N,/XTOUT*%
X123000000Y-98250000D03*
%TD*%
D31*
%TO.P,J3,1,Pin_1*%
%TO.N,/CTS*%
X150380000Y-63387500D03*
D32*
%TO.P,J3,2,Pin_2*%
%TO.N,/RTS*%
X152920000Y-63387500D03*
%TO.P,J3,3,Pin_3*%
%TO.N,/UART_RX*%
X155460000Y-63387500D03*
%TO.P,J3,4,Pin_4*%
%TO.N,/UART_TX*%
X158000000Y-63387500D03*
%TO.P,J3,5,Pin_5*%
%TO.N,GND*%
X160540000Y-63387500D03*
%TD*%
D33*
%TO.P,C11,1*%
%TO.N,Net-(U3-VBIAS)*%
X162587500Y-88037500D03*
%TO.P,C11,2*%
%TO.N,GND*%
X164312500Y-88037500D03*
%TD*%
D20*
%TO.P,D6,1,K*%
%TO.N,/TX_ACTIVE*%
X165180000Y-78560000D03*
%TO.P,D6,2,A*%
%TO.N,Net-(D6-A)*%
X165180000Y-76510000D03*
%TD*%
D14*
%TO.P,C2,1*%
%TO.N,+5V*%
X141900000Y-78912500D03*
%TO.P,C2,2*%
%TO.N,GND*%
X141900000Y-82037500D03*
%TD*%
D34*
%TO.P,R1,1*%
%TO.N,Net-(U2-REF)*%
X145900000Y-91687500D03*
%TO.P,R1,2*%
%TO.N,Net-(U2-REF_RTN)*%
X145900000Y-88587500D03*
%TD*%
D25*
%TO.P,C6,1*%
%TO.N,+1.8 V*%
X128200000Y-91050000D03*
%TO.P,C6,2*%
%TO.N,GND*%
X128200000Y-89325000D03*
%TD*%
D35*
%TO.P,U2,1,FAULT_N*%
%TO.N,/nPWR_FLT*%
X147349999Y-84387501D03*
%TO.P,U2,2,IN1*%
%TO.N,+5V*%
X147349999Y-84887500D03*
%TO.P,U2,3,IN1*%
X147349999Y-85387501D03*
%TO.P,U2,4,IN2*%
X147349999Y-85887501D03*
%TO.P,U2,5,AUX*%
%TO.N,+3.3V*%
X147349999Y-86387502D03*
%TO.P,U2,6,EN*%
X147349999Y-86887501D03*
D36*
%TO.P,U2,7,CHG*%
X147999998Y-87537500D03*
%TO.P,U2,8,CHG_HI*%
X148499999Y-87537500D03*
%TO.P,U2,9,REF_RTN*%
%TO.N,Net-(U2-REF_RTN)*%
X148999999Y-87537500D03*
%TO.P,U2,10,REF*%
%TO.N,Net-(U2-REF)*%
X149500000Y-87537500D03*
D35*
%TO.P,U2,11,CC1*%
%TO.N,/USB_CC2*%
X150149999Y-86887501D03*
%TO.P,U2,12,GND*%
%TO.N,GND*%
X150149999Y-86387502D03*
%TO.P,U2,13,CC2*%
%TO.N,/USB_CC1*%
X150149999Y-85887501D03*
%TO.P,U2,14,OUT*%
%TO.N,+VUSB*%
X150149999Y-85387501D03*
%TO.P,U2,15,OUT*%
X150149999Y-84887500D03*
%TO.P,U2,16,DEBUG_N*%
%TO.N,unconnected-(U2-DEBUG_N-Pad16)*%
X150149999Y-84387501D03*
D36*
%TO.P,U2,17,AUDIO_N*%
%TO.N,unconnected-(U2-AUDIO_N-Pad17)*%
X149500000Y-83737502D03*
%TO.P,U2,18,POL_N*%
%TO.N,/nPOL*%
X148999999Y-83737502D03*
%TO.P,U2,19,UFP_N*%
%TO.N,/nUFP*%
X148499999Y-83737502D03*
%TO.P,U2,20,LD_DET_N*%
%TO.N,/nLD_DET*%
X147999998Y-83737502D03*
D37*
%TO.P,U2,21,PAD*%
%TO.N,GND*%
X148749999Y-85637501D03*
D38*
%TO.P,U2,V*%
X148200000Y-84587501D03*
X148200000Y-85637501D03*
X148200000Y-86687501D03*
X149299998Y-84587501D03*
X149299998Y-85637501D03*
X149299998Y-86687501D03*
%TD*%
D39*
%TO.N,GND*%
X158113632Y-98350000D03*
X118800000Y-82850000D03*
X158940905Y-97200000D03*
X156459090Y-97200000D03*
X141400000Y-93700000D03*
X135200000Y-83600000D03*
X156459090Y-98350000D03*
X158113632Y-97200000D03*
X128200000Y-88237500D03*
X149700000Y-89737500D03*
X157286361Y-98350000D03*
X127500000Y-81287500D03*
X131850000Y-83600000D03*
X157286361Y-97200000D03*
X145450000Y-82237500D03*
X158940905Y-98350000D03*
X136600000Y-86400000D03*
%TO.N,+3.3V*%
X160839086Y-65700000D03*
X158028178Y-65700000D03*
X156850000Y-88700000D03*
X129750000Y-85100000D03*
X155217270Y-65700000D03*
X129750000Y-87000000D03*
X130700000Y-87000000D03*
X135800000Y-85800000D03*
X162244540Y-65700000D03*
X133800000Y-95500000D03*
X131500000Y-87000000D03*
X151000908Y-65700000D03*
X146450000Y-86600000D03*
X159433632Y-65700000D03*
X145750000Y-86600000D03*
X148190000Y-65700000D03*
X149595454Y-65700000D03*
X156622724Y-65700000D03*
X129750000Y-86000000D03*
X141400000Y-91300000D03*
X152406362Y-65700000D03*
X163650000Y-65700000D03*
X135400000Y-95500000D03*
X153811816Y-65700000D03*
X129900000Y-90600000D03*
%TO.N,/nPWR_FLT*%
X147300000Y-83700000D03*
X155000000Y-80700000D03*
%TO.N,/nUSB_ERROR*%
X146400000Y-72200000D03*
X132600000Y-87000000D03*
%TO.N,/TX_ACTIVE*%
X135000000Y-87000000D03*
X164550000Y-82250000D03*
%TO.N,/UART_TX*%
X143700000Y-86150000D03*
%TO.N,/RTS*%
X138500000Y-87000000D03*
%TO.N,/CTS*%
X137500000Y-87000000D03*
%TO.N,/UART_RX*%
X142550000Y-86150000D03*
%TO.N,/CONN_USB_CC1*%
X160658399Y-92882654D03*
%TO.N,+VUSB*%
X152100000Y-82800000D03*
X153250000Y-82800000D03*
X154750000Y-83600000D03*
X153250000Y-83600000D03*
X152100000Y-83600000D03*
X152100000Y-85350000D03*
X155900000Y-82800000D03*
X154750000Y-82800000D03*
X152100000Y-84550000D03*
X153250000Y-85350000D03*
X155900000Y-83600000D03*
X153250000Y-84550000D03*
X158750000Y-85662500D03*
%TD*%
D40*
%TO.N,GND*%
X164312500Y-89505000D02*
X163805000Y-90012500D01*
X164312500Y-88037500D02*
X164312500Y-89505000D01*
D41*
X120150000Y-82837500D02*
X118812500Y-82837500D01*
D42*
X136600000Y-88412500D02*
X136600000Y-86400000D01*
D40*
X156787500Y-93700000D02*
X158250000Y-93700000D01*
D41*
X131850000Y-82037500D02*
X131850000Y-83600000D01*
D43*
X145450000Y-83375000D02*
X145450000Y-82237500D01*
X127500000Y-82987500D02*
X127500000Y-81287500D01*
D42*
X141312500Y-93787500D02*
X141400000Y-93700000D01*
D40*
X150149999Y-86387502D02*
X149599997Y-86387502D01*
D41*
X145250000Y-82037500D02*
X145450000Y-82237500D01*
D40*
X149599997Y-86387502D02*
X149299998Y-86687501D01*
D41*
X135200000Y-82037500D02*
X135200000Y-83600000D01*
X118812500Y-82837500D02*
X118800000Y-82850000D01*
X134262500Y-85400000D02*
X134262500Y-84537500D01*
X141900000Y-82037500D02*
X145250000Y-82037500D01*
X128200000Y-89325000D02*
X128200000Y-88237500D01*
D42*
X139575000Y-93787500D02*
X141312500Y-93787500D01*
D41*
X131225000Y-89787500D02*
X128662500Y-89787500D01*
X128662500Y-89787500D02*
X128200000Y-89325000D01*
D43*
X149700000Y-90962500D02*
X149700000Y-89737500D01*
D41*
X134262500Y-84537500D02*
X135200000Y-83600000D01*
%TO.N,+1.8 V*%
X128537500Y-91387500D02*
X128200000Y-91050000D01*
X132479000Y-94176504D02*
X132479000Y-91579000D01*
X132287500Y-91387500D02*
X131225000Y-91387500D01*
X131225000Y-91387500D02*
X128537500Y-91387500D01*
X131225000Y-94587500D02*
X132068004Y-94587500D01*
X132068004Y-94587500D02*
X132479000Y-94176504D01*
X132479000Y-91579000D02*
X132287500Y-91387500D01*
D40*
%TO.N,/USB_D-*%
X155980111Y-94100000D02*
X155841353Y-94238758D01*
D44*
X150403274Y-94790774D02*
X155289337Y-94790774D01*
X155289337Y-94790774D02*
X155841353Y-94238758D01*
X147250000Y-93850000D02*
X149462500Y-93850000D01*
D40*
X156787500Y-94100000D02*
X155980111Y-94100000D01*
D44*
X149700000Y-94087500D02*
X150403274Y-94790774D01*
X149462500Y-93850000D02*
X149700000Y-94087500D01*
%TO.N,/USB_D+*%
X149537500Y-96200000D02*
X149750000Y-95987500D01*
X149750000Y-95987500D02*
X150403274Y-95334226D01*
D40*
X156348667Y-94500000D02*
X156225631Y-94623036D01*
D44*
X150403274Y-95334226D02*
X155514441Y-95334226D01*
D40*
X156787500Y-94500000D02*
X156348667Y-94500000D01*
D44*
X155514441Y-95334226D02*
X156225631Y-94623036D01*
X147250000Y-96200000D02*
X149537500Y-96200000D01*
D41*
%TO.N,+3.3V*%
X133800000Y-95500000D02*
X132900000Y-95500000D01*
X133800000Y-95500000D02*
X133400000Y-95900000D01*
X129912500Y-90587500D02*
X129900000Y-90600000D01*
X135400000Y-95500000D02*
X135800000Y-95900000D01*
X133400000Y-95900000D02*
X133400000Y-96762500D01*
D42*
X141312500Y-91387500D02*
X141400000Y-91300000D01*
D41*
X133800000Y-95500000D02*
X135400000Y-95500000D01*
D42*
X156850000Y-90125000D02*
X156837500Y-90137500D01*
X157423000Y-90723000D02*
X157423000Y-92210500D01*
D41*
X132600000Y-95800000D02*
X132600000Y-96762500D01*
X131225000Y-90587500D02*
X129912500Y-90587500D01*
X135800000Y-95900000D02*
X135800000Y-96762500D01*
D42*
X139575000Y-91387500D02*
X141312500Y-91387500D01*
D41*
X135800000Y-97937500D02*
X135800000Y-96762500D01*
D42*
X156837500Y-90137500D02*
X157423000Y-90723000D01*
X135800000Y-88412500D02*
X135800000Y-85800000D01*
X156850000Y-88700000D02*
X156850000Y-90125000D01*
D41*
X134500000Y-99237500D02*
X133400000Y-98137500D01*
X132900000Y-95500000D02*
X132600000Y-95800000D01*
X134500000Y-99237500D02*
X135800000Y-97937500D01*
X133400000Y-98137500D02*
X133400000Y-96762500D01*
D40*
%TO.N,Net-(U3-VBIAS)*%
X159712500Y-93700000D02*
X160465101Y-93700000D01*
D42*
X162094000Y-92381000D02*
X160925000Y-93550000D01*
X160925000Y-93550000D02*
X160615101Y-93550000D01*
D40*
X160465101Y-93700000D02*
X160615101Y-93550000D01*
D42*
X162094000Y-88531000D02*
X162094000Y-92381000D01*
X162587500Y-88037500D02*
X162094000Y-88531000D01*
%TO.N,Net-(D1-A)*%
X148200000Y-76510000D02*
X148200000Y-72860000D01*
%TO.N,/nLD_DET*%
X148200000Y-78560000D02*
X147900000Y-78860000D01*
D40*
X147999998Y-83737502D02*
X147999998Y-83000002D01*
D42*
X148000000Y-78760000D02*
X148000000Y-83000000D01*
X148200000Y-78560000D02*
X148000000Y-78760000D01*
D40*
X147999998Y-83000002D02*
X148000000Y-83000000D01*
D42*
X148200000Y-78560000D02*
X147999998Y-78760002D01*
%TO.N,/nUFP*%
X151596000Y-78560000D02*
X151596000Y-79912001D01*
D40*
X148499999Y-83300001D02*
X148499999Y-83000001D01*
X148499999Y-83737502D02*
X148499999Y-83300001D01*
D42*
X151596000Y-79912001D02*
X148508000Y-83000001D01*
%TO.N,Net-(D2-A)*%
X151850000Y-76256000D02*
X151596000Y-76510000D01*
X151850000Y-72860000D02*
X151850000Y-76256000D01*
%TO.N,Net-(D3-A)*%
X155400000Y-76102000D02*
X154992000Y-76510000D01*
X155400000Y-72860000D02*
X155400000Y-76102000D01*
D40*
%TO.N,/nPOL*%
X148999999Y-83300001D02*
X149100000Y-83200000D01*
X148999999Y-83737502D02*
X148999999Y-83300001D01*
D42*
X153740000Y-78560000D02*
X149100000Y-83200000D01*
X154992000Y-78560000D02*
X153740000Y-78560000D01*
%TO.N,Net-(D4-A)*%
X158650000Y-76248000D02*
X158388000Y-76510000D01*
X158650000Y-72860000D02*
X158650000Y-76248000D01*
D40*
%TO.N,/nPWR_FLT*%
X157850000Y-91614088D02*
X158020088Y-91444000D01*
D42*
X158089600Y-91444000D02*
X158020088Y-91444000D01*
X155000000Y-80700000D02*
X157140000Y-78560000D01*
X147349999Y-84387501D02*
X147349999Y-83749999D01*
X147349999Y-83749999D02*
X147300000Y-83700000D01*
X158089600Y-78858400D02*
X158089600Y-91444000D01*
X158388000Y-78560000D02*
X158089600Y-78858400D01*
X157140000Y-78560000D02*
X158388000Y-78560000D01*
D40*
X157850000Y-92237500D02*
X157850000Y-91614088D01*
D42*
%TO.N,Net-(D5-A)*%
X161900000Y-76394000D02*
X161784000Y-76510000D01*
X161900000Y-72860000D02*
X161900000Y-76394000D01*
%TO.N,/nUSB_ERROR*%
X160828000Y-77604000D02*
X147619704Y-77604000D01*
X147619704Y-77604000D02*
X146400000Y-76384296D01*
X132600000Y-88412500D02*
X132600000Y-87000000D01*
X161784000Y-78560000D02*
X160828000Y-77604000D01*
X146400000Y-76384296D02*
X146400000Y-72200000D01*
%TO.N,Net-(D6-A)*%
X165550000Y-76140000D02*
X165180000Y-76510000D01*
X165550000Y-72860000D02*
X165550000Y-76140000D01*
%TO.N,/TX_ACTIVE*%
X164550000Y-82250000D02*
X165180000Y-81620000D01*
X135000000Y-88412500D02*
X135000000Y-87000000D01*
X165180000Y-81620000D02*
X165180000Y-78560000D01*
%TO.N,/UART_TX*%
X140324999Y-90587500D02*
X143700000Y-87212499D01*
X139575000Y-90587500D02*
X140324999Y-90587500D01*
X143700000Y-87212499D02*
X143700000Y-86150000D01*
%TO.N,/RTS*%
X138200000Y-88412500D02*
X138200000Y-87300000D01*
X138200000Y-87300000D02*
X138500000Y-87000000D01*
%TO.N,/CTS*%
X137400000Y-88412500D02*
X137400000Y-87100000D01*
X137400000Y-87100000D02*
X137500000Y-87000000D01*
%TO.N,/UART_RX*%
X142550000Y-86812500D02*
X142550000Y-86150000D01*
X139575000Y-89787500D02*
X142550000Y-86812500D01*
%TO.N,/CONN_USB_CC1*%
X160617346Y-92882654D02*
X160588657Y-92911343D01*
D40*
X159712500Y-93300000D02*
X160241053Y-93300000D01*
X160483955Y-93057098D02*
X160483955Y-92911343D01*
D42*
X160588657Y-92911343D02*
X160506000Y-92911343D01*
X160658399Y-92882654D02*
X160617346Y-92882654D01*
D40*
X160241053Y-93300000D02*
X160483955Y-93057098D01*
D45*
%TO.N,/CONN_USB_D-*%
X162467579Y-94077150D02*
X160713763Y-94077150D01*
X162712350Y-94025150D02*
X162519579Y-94025150D01*
X162825000Y-93912500D02*
X162712350Y-94025150D01*
D40*
X160690913Y-94100000D02*
X160713763Y-94077150D01*
X159712500Y-94100000D02*
X160690913Y-94100000D01*
D45*
X162519579Y-94025150D02*
X162467579Y-94077150D01*
%TO.N,/CONN_USB_D+*%
X162825000Y-94762500D02*
X163132229Y-94762500D01*
X162825000Y-94762500D02*
X162712350Y-94649850D01*
D40*
X159712500Y-94500000D02*
X160615913Y-94500000D01*
X159712500Y-94500000D02*
X159759550Y-94547050D01*
D45*
X162467579Y-94597850D02*
X160713763Y-94597850D01*
X162519579Y-94649850D02*
X162467579Y-94597850D01*
D40*
X160615913Y-94500000D02*
X160713763Y-94597850D01*
D45*
X163132229Y-94762500D02*
X163982229Y-93912500D01*
X162712350Y-94649850D02*
X162519579Y-94649850D01*
X163982229Y-93912500D02*
X164175000Y-93912500D01*
D40*
%TO.N,/CONN_USB_CC2*%
X159712500Y-92687500D02*
X159750000Y-92650000D01*
D42*
X165386000Y-87692228D02*
X164875272Y-87181500D01*
X161123547Y-90992506D02*
X159750000Y-92366053D01*
X162024728Y-87181500D02*
X161123547Y-88082681D01*
D40*
X159712500Y-92900000D02*
X159712500Y-92687500D01*
D42*
X164669974Y-93062500D02*
X165386000Y-92346474D01*
X159750000Y-92366053D02*
X159750000Y-92650000D01*
X164175000Y-93062500D02*
X164669974Y-93062500D01*
X164875272Y-87181500D02*
X162024728Y-87181500D01*
X165386000Y-92346474D02*
X165386000Y-87692228D01*
X161123547Y-88082681D02*
X161123547Y-90992506D01*
%TO.N,Net-(U2-REF_RTN)*%
X145900000Y-88587500D02*
X148330236Y-88587500D01*
X148330236Y-88587500D02*
X148999999Y-87917737D01*
X148999999Y-87917737D02*
X148999999Y-87537500D01*
%TO.N,Net-(U2-REF)*%
X145900000Y-91687500D02*
X145948656Y-91687500D01*
X145948656Y-91687500D02*
X149507999Y-88128157D01*
X149507999Y-88128157D02*
X149507998Y-87537500D01*
D46*
%TO.N,/FT_USB_D+*%
X140700001Y-95387500D02*
X140828733Y-95258768D01*
X139575000Y-95387500D02*
X140700001Y-95387500D01*
X140828733Y-95258768D02*
X143208768Y-95258768D01*
X143208768Y-95258768D02*
X144150000Y-96200000D01*
%TO.N,/FT_USB_D-*%
X139575000Y-94587500D02*
X140700001Y-94587500D01*
X140700001Y-94587500D02*
X140828733Y-94716232D01*
X140828733Y-94716232D02*
X143283768Y-94716232D01*
X143283768Y-94716232D02*
X144150000Y-93850000D01*
D42*
%TO.N,/USB_CC2*%
X155800000Y-93300000D02*
X156240454Y-93300000D01*
X150149999Y-87649999D02*
X155800000Y-93300000D01*
D40*
X156787500Y-93300000D02*
X156240454Y-93300000D01*
D42*
X150149999Y-86887501D02*
X150149999Y-87649999D01*
%TO.N,/USB_CC1*%
X150530235Y-85887501D02*
X156787500Y-92144766D01*
X150149999Y-85887501D02*
X150530235Y-85887501D01*
X156787500Y-92144766D02*
X156787500Y-92819000D01*
D41*
%TO.N,/XTIN*%
X123062500Y-89687500D02*
X123000000Y-89750000D01*
X131225000Y-92187500D02*
X125437500Y-92187500D01*
X125437500Y-92187500D02*
X123000000Y-89750000D01*
X123062500Y-86000000D02*
X123062500Y-89687500D01*
%TO.N,/XTOUT*%
X122962500Y-98287500D02*
X123000000Y-98250000D01*
X122962500Y-102000000D02*
X122962500Y-98287500D01*
X123000000Y-98250000D02*
X123000000Y-97000000D01*
X128262500Y-92987500D02*
X123000000Y-98250000D01*
X131225000Y-92987500D02*
X128262500Y-92987500D01*
%TO.N,+VUSB*%
X158750000Y-85662500D02*
X160300000Y-85662500D01*
%TD*%
%TA.AperFunction,Conductor*%
%TO.N,GND*%
G36*
X161492620Y-81606959D02*
G01*
X161418345Y-81532684D01*
X161269124Y-81440643D01*
X161269119Y-81440641D01*
X161102697Y-81385494D01*
X161102690Y-81385493D01*
X160999986Y-81375000D01*
X160550000Y-81375000D01*
X160550000Y-83699999D01*
X160999972Y-83699999D01*
X160999986Y-83699998D01*
X161102697Y-83689505D01*
X161269119Y-83634358D01*
X161269124Y-83634356D01*
X161418345Y-83542315D01*
X161480129Y-83480530D01*
X161455257Y-87211446D01*
X160871859Y-87794845D01*
X160871858Y-87794845D01*
X160871859Y-87794846D01*
X160818269Y-87848435D01*
X160768046Y-87935426D01*
X160768046Y-87935427D01*
X160742047Y-88032456D01*
X160742047Y-88032458D01*
X160742047Y-88647303D01*
X160722362Y-88714342D01*
X160669558Y-88760097D01*
X160600400Y-88770041D01*
X160579043Y-88765009D01*
X160527697Y-88747994D01*
X160527690Y-88747993D01*
X160424986Y-88737500D01*
X160212500Y-88737500D01*
X160212500Y-90263500D01*
X160192815Y-90330539D01*
X160140011Y-90376294D01*
X160088500Y-90387500D01*
X158800001Y-90387500D01*
X158800001Y-90837486D01*
X158810494Y-90940197D01*
X158865641Y-91106619D01*
X158865643Y-91106624D01*
X158957684Y-91255845D01*
X159081654Y-91379815D01*
X159230875Y-91471856D01*
X159230880Y-91471858D01*
X159397302Y-91527005D01*
X159397309Y-91527006D01*
X159500019Y-91537499D01*
X159739666Y-91537499D01*
X159806706Y-91557183D01*
X159852461Y-91609987D01*
X159862405Y-91679146D01*
X159833380Y-91742701D01*
X159827349Y-91749180D01*
X159746990Y-91829540D01*
X159515753Y-92060777D01*
X159444725Y-92131804D01*
X159444723Y-92131807D01*
X159394499Y-92218798D01*
X159392930Y-92224654D01*
X159368500Y-92315828D01*
X159368500Y-92315830D01*
X159368500Y-92429353D01*
X159348815Y-92496392D01*
X159296011Y-92542147D01*
X159281346Y-92547451D01*
X159174934Y-92594437D01*
X159094437Y-92674934D01*
X159048454Y-92779075D01*
X159045500Y-92804536D01*
X159045500Y-92995463D01*
X159048454Y-93020922D01*
X159048455Y-93020927D01*
X159061255Y-93049918D01*
X159070324Y-93119196D01*
X159061255Y-93150082D01*
X159048455Y-93179072D01*
X159048454Y-93179077D01*
X159045500Y-93204536D01*
X159045500Y-93395463D01*
X159048454Y-93420922D01*
X159048455Y-93420927D01*
X159061255Y-93449918D01*
X159070324Y-93519196D01*
X159061255Y-93550082D01*
X159048455Y-93579072D01*
X159048454Y-93579077D01*
X159045500Y-93604536D01*
X159045500Y-93795463D01*
X159048454Y-93820922D01*
X159048455Y-93820927D01*
X159061255Y-93849918D01*
X159070324Y-93919196D01*
X159061255Y-93950082D01*
X159048455Y-93979072D01*
X159048454Y-93979077D01*
X159045500Y-94004536D01*
X159045500Y-94195463D01*
X159048454Y-94220922D01*
X159048455Y-94220927D01*
X159061255Y-94249918D01*
X159070324Y-94319196D01*
X159061255Y-94350082D01*
X159048455Y-94379072D01*
X159048454Y-94379077D01*
X159045500Y-94404540D01*
X159045500Y-94595460D01*
X159048454Y-94620923D01*
X159094437Y-94725065D01*
X159174935Y-94805563D01*
X159279077Y-94851546D01*
X159304540Y-94854500D01*
X159549845Y-94854500D01*
X159611845Y-94871113D01*
X159622719Y-94877391D01*
X159712879Y-94901550D01*
X159712882Y-94901550D01*
X159806219Y-94901550D01*
X159806221Y-94901550D01*
X159896382Y-94877391D01*
X159907256Y-94871113D01*
X159969256Y-94854500D01*
X160370548Y-94854500D01*
X160437587Y-94874185D01*
X160458229Y-94890819D01*
X160475617Y-94908207D01*
X160564058Y-94959269D01*
X160662702Y-94985700D01*
X160662704Y-94985700D01*
X161445730Y-94985700D01*
X161512769Y-95005385D01*
X161558524Y-95058189D01*
X161569729Y-95109957D01*
X161568599Y-95653683D01*
X161563513Y-98100000D01*
X161550000Y-98100000D01*
X161550000Y-104499500D01*
X130897602Y-104499500D01*
X130897195Y-104499499D01*
X115923593Y-104450405D01*
X115856619Y-104430501D01*
X115811037Y-104377547D01*
X115800000Y-104326406D01*
X115800000Y-102699986D01*
X118675001Y-102699986D01*
X118685494Y-102802697D01*
X118740641Y-102969119D01*
X118740643Y-102969124D01*
X118832684Y-103118345D01*
X118956654Y-103242315D01*
X119105875Y-103334356D01*
X119105880Y-103334358D01*
X119272302Y-103389505D01*
X119272309Y-103389506D01*
X119375019Y-103399999D01*
X119587499Y-103399999D01*
X120087500Y-103399999D01*
X120299972Y-103399999D01*
X120299986Y-103399998D01*
X120402697Y-103389505D01*
X120569119Y-103334358D01*
X120569124Y-103334356D01*
X120718345Y-103242315D01*
X120842315Y-103118345D01*
X120934356Y-102969124D01*
X120934358Y-102969119D01*
X120989505Y-102802697D01*
X120989506Y-102802690D01*
X120999999Y-102699986D01*
X121000000Y-102699973D01*
X121000000Y-102250000D01*
X120087500Y-102250000D01*
X120087500Y-103399999D01*
X119587499Y-103399999D01*
X119587500Y-103399998D01*
X119587500Y-102250000D01*
X118675001Y-102250000D01*
X118675001Y-102699986D01*
X115800000Y-102699986D01*
X115800000Y-101300013D01*
X118675000Y-101300013D01*
X118675000Y-101750000D01*
X119587500Y-101750000D01*
X120087500Y-101750000D01*
X120999999Y-101750000D01*
X120999999Y-101300028D01*
X120999998Y-101300013D01*
X120989505Y-101197302D01*
X120934358Y-101030880D01*
X120934356Y-101030875D01*
X120842315Y-100881654D01*
X120718345Y-100757684D01*
X120569124Y-100665643D01*
X120569119Y-100665641D01*
X120402697Y-100610494D01*
X120402690Y-100610493D01*
X120299986Y-100600000D01*
X120087500Y-100600000D01*
X120087500Y-101750000D01*
X119587500Y-101750000D01*
X119587500Y-100600000D01*
X119375029Y-100600000D01*
X119375012Y-100600001D01*
X119272302Y-100610494D01*
X119105880Y-100665641D01*
X119105875Y-100665643D01*
X118956654Y-100757684D01*
X118832684Y-100881654D01*
X118740643Y-101030875D01*
X118740641Y-101030880D01*
X118685494Y-101197302D01*
X118685493Y-101197309D01*
X118675000Y-101300013D01*
X115800000Y-101300013D01*
X115800000Y-86699986D01*
X118775001Y-86699986D01*
X118785494Y-86802697D01*
X118840641Y-86969119D01*
X118840643Y-86969124D01*
X118932684Y-87118345D01*
X119056654Y-87242315D01*
X119205875Y-87334356D01*
X119205880Y-87334358D01*
X119372302Y-87389505D01*
X119372309Y-87389506D01*
X119475019Y-87399999D01*
X119687499Y-87399999D01*
X119687500Y-87399998D01*
X119687500Y-86250000D01*
X118775001Y-86250000D01*
X118775001Y-86699986D01*
X115800000Y-86699986D01*
X115800000Y-84874000D01*
X115819685Y-84806961D01*
X115872489Y-84761206D01*
X115924000Y-84750000D01*
X118791715Y-84750000D01*
X118858754Y-84769685D01*
X118904509Y-84822489D01*
X118914453Y-84891647D01*
X118897253Y-84939097D01*
X118840646Y-85030869D01*
X118840641Y-85030880D01*
X118785494Y-85197302D01*
X118785493Y-85197309D01*
X118775000Y-85300013D01*
X118775000Y-85750000D01*
X120063500Y-85750000D01*
X120130539Y-85769685D01*
X120176294Y-85822489D01*
X120187500Y-85874000D01*
X120187500Y-87399999D01*
X120399972Y-87399999D01*
X120399986Y-87399998D01*
X120502695Y-87389506D01*
X120654234Y-87339290D01*
X120724063Y-87336888D01*
X120784105Y-87372619D01*
X120815298Y-87435140D01*
X120817236Y-87456206D01*
X120849999Y-92599999D01*
X120849999Y-92600000D01*
X120850000Y-92600000D01*
X125109745Y-92600000D01*
X125171744Y-92616612D01*
X125242771Y-92657620D01*
X125330969Y-92681252D01*
X125330971Y-92681253D01*
X125351025Y-92686626D01*
X125371081Y-92692000D01*
X125371082Y-92692000D01*
X125503919Y-92692000D01*
X127545167Y-92692000D01*
X127612206Y-92711685D01*
X127657961Y-92764489D01*
X127667905Y-92833647D01*
X127638880Y-92897203D01*
X127632848Y-92903681D01*
X124466180Y-96070348D01*
X124404857Y-96103833D01*
X124335165Y-96098849D01*
X124279232Y-96056977D01*
X124254815Y-95991513D01*
X124254499Y-95982667D01*
X124254499Y-95974936D01*
X124254499Y-95974934D01*
X124239734Y-95900699D01*
X124194887Y-95833581D01*
X124183484Y-95816515D01*
X124133019Y-95782796D01*
X124099301Y-95760266D01*
X124099299Y-95760265D01*
X124099296Y-95760264D01*
X124025069Y-95745500D01*
X121974936Y-95745500D01*
X121900698Y-95760266D01*
X121816515Y-95816515D01*
X121760266Y-95900699D01*
X121760264Y-95900703D01*
X121745500Y-95974928D01*
X121745500Y-100525063D01*
X121760266Y-100599301D01*
X121816515Y-100683484D01*
X121850234Y-100706014D01*
X121900699Y-100739734D01*
X121900702Y-100739734D01*
X121900703Y-100739735D01*
X121925666Y-100744700D01*
X121974933Y-100754500D01*
X122131088Y-100754499D01*
X122198126Y-100774183D01*
X122243881Y-100826987D01*
X122253825Y-100896145D01*
X122224800Y-100959701D01*
X122205399Y-100977765D01*
X122189595Y-100989595D01*
X122102660Y-101105730D01*
X122102658Y-101105733D01*
X122051960Y-101241658D01*
X122051959Y-101241662D01*
X122045500Y-101301728D01*
X122045500Y-102698251D01*
X122045501Y-102698257D01*
X122051960Y-102758344D01*
X122102655Y-102894261D01*
X122102656Y-102894264D01*
X122102658Y-102894267D01*
X122131747Y-102933126D01*
X122189595Y-103010404D01*
X122247443Y-103053707D01*
X122305733Y-103097342D01*
X122441658Y-103148040D01*
X122501745Y-103154500D01*
X123423254Y-103154499D01*
X123483342Y-103148040D01*
X123619267Y-103097342D01*
X123735404Y-103010404D01*
X123822342Y-102894267D01*
X123873040Y-102758342D01*
X123875800Y-102732664D01*
X123879499Y-102698271D01*
X123879499Y-102698264D01*
X123879500Y-102698255D01*
X123879499Y-101311654D01*
X133525001Y-101311654D01*
X133535319Y-101412652D01*
X133589546Y-101576300D01*
X133589551Y-101576311D01*
X133680052Y-101723034D01*
X133680055Y-101723038D01*
X133801961Y-101844944D01*
X133801965Y-101844947D01*
X133948688Y-101935448D01*
X133948699Y-101935453D01*
X134112347Y-101989680D01*
X134213352Y-101999999D01*
X134250000Y-101999999D01*
X134750000Y-101999999D01*
X134786640Y-101999999D01*
X134786654Y-101999998D01*
X134887652Y-101989680D01*
X135051300Y-101935453D01*
X135051311Y-101935448D01*
X135198034Y-101844947D01*
X135198038Y-101844944D01*
X135319944Y-101723038D01*
X135319947Y-101723034D01*
X135410448Y-101576311D01*
X135410453Y-101576300D01*
X135464680Y-101412652D01*
X135474999Y-101311654D01*
X135475000Y-101311641D01*
X135475000Y-101212500D01*
X134750000Y-101212500D01*
X134750000Y-101999999D01*
X134250000Y-101999999D01*
X134250000Y-101212500D01*
X133525001Y-101212500D01*
X133525001Y-101311654D01*
X123879499Y-101311654D01*
X123879499Y-101301746D01*
X123873040Y-101241658D01*
X123862165Y-101212500D01*
X123822344Y-101105738D01*
X123822343Y-101105737D01*
X123822342Y-101105733D01*
X123735404Y-100989596D01*
X123719601Y-100977766D01*
X123677731Y-100921833D01*
X123672746Y-100852142D01*
X123706230Y-100790818D01*
X123767553Y-100757333D01*
X123793912Y-100754499D01*
X124025064Y-100754499D01*
X124025066Y-100754499D01*
X124099301Y-100739734D01*
X124183484Y-100683484D01*
X124239734Y-100599301D01*
X124254500Y-100525067D01*
X124254499Y-97760331D01*
X124274184Y-97693293D01*
X124290813Y-97672656D01*
X128435152Y-93528319D01*
X128496475Y-93494834D01*
X128522833Y-93492000D01*
X131305853Y-93492000D01*
X131305861Y-93491999D01*
X131711124Y-93491999D01*
X131778163Y-93511684D01*
X131823918Y-93564488D01*
X131835109Y-93617906D01*
X131829832Y-93960907D01*
X131809119Y-94027636D01*
X131755617Y-94072573D01*
X131705847Y-94083000D01*
X130563988Y-94083000D01*
X130490217Y-94093748D01*
X130376429Y-94149375D01*
X130286875Y-94238929D01*
X130232537Y-94350082D01*
X130231248Y-94352718D01*
X130220500Y-94426487D01*
X130220500Y-94426490D01*
X130220500Y-94426491D01*
X130220500Y-94748511D01*
X130231248Y-94822282D01*
X130286875Y-94936070D01*
X130376429Y-95025624D01*
X130376430Y-95025624D01*
X130376432Y-95025626D01*
X130490218Y-95081252D01*
X130563987Y-95092000D01*
X131144138Y-95091999D01*
X131144148Y-95092000D01*
X131686509Y-95092000D01*
X131753548Y-95111685D01*
X131799303Y-95164489D01*
X131810494Y-95217908D01*
X131799999Y-95899999D01*
X131800000Y-95899999D01*
X131800000Y-95900000D01*
X131974008Y-95903515D01*
X132040632Y-95924549D01*
X132085312Y-95978266D01*
X132095500Y-96027489D01*
X132095500Y-97423511D01*
X132106248Y-97497282D01*
X132161875Y-97611070D01*
X132251429Y-97700624D01*
X132251430Y-97700624D01*
X132251432Y-97700626D01*
X132365218Y-97756252D01*
X132438987Y-97767000D01*
X132761012Y-97766999D01*
X132761017Y-97766999D01*
X132762535Y-97766889D01*
X132763043Y-97766999D01*
X132765499Y-97766999D01*
X132765499Y-97767530D01*
X132830822Y-97781675D01*
X132880275Y-97831033D01*
X132895500Y-97890564D01*
X132895500Y-98203919D01*
X132929881Y-98332230D01*
X132954191Y-98374337D01*
X132996299Y-98447270D01*
X132996301Y-98447272D01*
X133734181Y-99185152D01*
X133767666Y-99246475D01*
X133770500Y-99272833D01*
X133770500Y-99584552D01*
X133770501Y-99584562D01*
X133776800Y-99643159D01*
X133826239Y-99775709D01*
X133826244Y-99775718D01*
X133893120Y-99865054D01*
X133917537Y-99930518D01*
X133902685Y-99998791D01*
X133858952Y-100044901D01*
X133801965Y-100080052D01*
X133801961Y-100080055D01*
X133680055Y-100201961D01*
X133680052Y-100201965D01*
X133589551Y-100348688D01*
X133589546Y-100348699D01*
X133535319Y-100512347D01*
X133525000Y-100613345D01*
X133525000Y-100712500D01*
X135474999Y-100712500D01*
X135474999Y-100613360D01*
X135474998Y-100613345D01*
X135464680Y-100512347D01*
X135410453Y-100348699D01*
X135410448Y-100348688D01*
X135319947Y-100201965D01*
X135319944Y-100201961D01*
X135198038Y-100080055D01*
X135198034Y-100080052D01*
X135141049Y-100044903D01*
X135094324Y-99992955D01*
X135083103Y-99923993D01*
X135106879Y-99865055D01*
X135122548Y-99844124D01*
X135173758Y-99775715D01*
X135223200Y-99643157D01*
X135226685Y-99610734D01*
X135229499Y-99584573D01*
X135229499Y-99584562D01*
X135229500Y-99584557D01*
X135229500Y-99574986D01*
X148350001Y-99574986D01*
X148360494Y-99677697D01*
X148415641Y-99844119D01*
X148415643Y-99844124D01*
X148507684Y-99993345D01*
X148631654Y-100117315D01*
X148780875Y-100209356D01*
X148780880Y-100209358D01*
X148947302Y-100264505D01*
X148947309Y-100264506D01*
X149050019Y-100274999D01*
X149499999Y-100274999D01*
X150000000Y-100274999D01*
X150449972Y-100274999D01*
X150449986Y-100274998D01*
X150552697Y-100264505D01*
X150719119Y-100209358D01*
X150719124Y-100209356D01*
X150868345Y-100117315D01*
X150992315Y-99993345D01*
X151084356Y-99844124D01*
X151084358Y-99844119D01*
X151139505Y-99677697D01*
X151139506Y-99677690D01*
X151149999Y-99574986D01*
X151150000Y-99574973D01*
X151150000Y-99362500D01*
X150000000Y-99362500D01*
X150000000Y-100274999D01*
X149499999Y-100274999D01*
X149500000Y-100274998D01*
X149500000Y-99362500D01*
X148350001Y-99362500D01*
X148350001Y-99574986D01*
X135229500Y-99574986D01*
X135229499Y-99272831D01*
X135249183Y-99205793D01*
X135265813Y-99185156D01*
X135800957Y-98650013D01*
X148350000Y-98650013D01*
X148350000Y-98862500D01*
X149500000Y-98862500D01*
X150000000Y-98862500D01*
X151149999Y-98862500D01*
X151149999Y-98650028D01*
X151149998Y-98650013D01*
X151139505Y-98547302D01*
X151084358Y-98380880D01*
X151084356Y-98380875D01*
X150992315Y-98231654D01*
X150868345Y-98107684D01*
X150719124Y-98015643D01*
X150719119Y-98015641D01*
X150552697Y-97960494D01*
X150552690Y-97960493D01*
X150449986Y-97950000D01*
X150000000Y-97950000D01*
X150000000Y-98862500D01*
X149500000Y-98862500D01*
X149500000Y-97950000D01*
X149050028Y-97950000D01*
X149050012Y-97950001D01*
X148947302Y-97960494D01*
X148780880Y-98015641D01*
X148780875Y-98015643D01*
X148631654Y-98107684D01*
X148507684Y-98231654D01*
X148415643Y-98380875D01*
X148415641Y-98380880D01*
X148360494Y-98547302D01*
X148360493Y-98547309D01*
X148350000Y-98650013D01*
X135800957Y-98650013D01*
X136203701Y-98247270D01*
X136245808Y-98174337D01*
X136270119Y-98132230D01*
X136304500Y-98003919D01*
X136304500Y-96696081D01*
X136304500Y-96117530D01*
X136324185Y-96050491D01*
X136376989Y-96004736D01*
X136431002Y-95993555D01*
X136750000Y-96000000D01*
X139626000Y-96000000D01*
X139693039Y-96019685D01*
X139738794Y-96072489D01*
X139750000Y-96124000D01*
X139750000Y-97500000D01*
X152549999Y-97500000D01*
X152550000Y-97500000D01*
X154350000Y-95950000D01*
X154350000Y-95857451D01*
X154369685Y-95790412D01*
X154422489Y-95744657D01*
X154474000Y-95733451D01*
X155566997Y-95733451D01*
X155567000Y-95733451D01*
X155668537Y-95706245D01*
X155759571Y-95653686D01*
X156522438Y-94890819D01*
X156583761Y-94857334D01*
X156610119Y-94854500D01*
X157195458Y-94854500D01*
X157195460Y-94854500D01*
X157220923Y-94851546D01*
X157325065Y-94805563D01*
X157405563Y-94725065D01*
X157451546Y-94620923D01*
X157454500Y-94595460D01*
X157454500Y-94404540D01*
X157451546Y-94379077D01*
X157438745Y-94350087D01*
X157429673Y-94280811D01*
X157438744Y-94249914D01*
X157451546Y-94220923D01*
X157454500Y-94195460D01*
X157454500Y-94004540D01*
X157451546Y-93979077D01*
X157405563Y-93874935D01*
X157325065Y-93794437D01*
X157318309Y-93787681D01*
X157284824Y-93726358D01*
X157289808Y-93656666D01*
X157318309Y-93612319D01*
X157351556Y-93579072D01*
X157405563Y-93525065D01*
X157451546Y-93420923D01*
X157454500Y-93395460D01*
X157454500Y-93204540D01*
X157451546Y-93179077D01*
X157438745Y-93150087D01*
X157429673Y-93080811D01*
X157438744Y-93049914D01*
X157451546Y-93020923D01*
X157452636Y-93011522D01*
X157479913Y-92947199D01*
X157537636Y-92907832D01*
X157561520Y-92902636D01*
X157570923Y-92901546D01*
X157599912Y-92888745D01*
X157669189Y-92879673D01*
X157700085Y-92888744D01*
X157729077Y-92901546D01*
X157754540Y-92904500D01*
X157754542Y-92904500D01*
X157945458Y-92904500D01*
X157945460Y-92904500D01*
X157970923Y-92901546D01*
X158075065Y-92855563D01*
X158155563Y-92775065D01*
X158201546Y-92670923D01*
X158204500Y-92645460D01*
X158204500Y-91889772D01*
X158224185Y-91822733D01*
X158266499Y-91782385D01*
X158323847Y-91749276D01*
X158394876Y-91678247D01*
X158445101Y-91591254D01*
X158471100Y-91494225D01*
X158471100Y-89437513D01*
X158800000Y-89437513D01*
X158800000Y-89887500D01*
X159712500Y-89887500D01*
X159712500Y-88737500D01*
X159500029Y-88737500D01*
X159500012Y-88737501D01*
X159397302Y-88747994D01*
X159230880Y-88803141D01*
X159230875Y-88803143D01*
X159081654Y-88895184D01*
X158957684Y-89019154D01*
X158865643Y-89168375D01*
X158865641Y-89168380D01*
X158810494Y-89334802D01*
X158810493Y-89334809D01*
X158800000Y-89437513D01*
X158471100Y-89437513D01*
X158471100Y-86305683D01*
X158490785Y-86238644D01*
X158543589Y-86192889D01*
X158611281Y-86182744D01*
X158750000Y-86201007D01*
X158750001Y-86201007D01*
X158815658Y-86192363D01*
X158889376Y-86182658D01*
X158904391Y-86176438D01*
X158951842Y-86167000D01*
X159059771Y-86167000D01*
X159126810Y-86186685D01*
X159172565Y-86239489D01*
X159175941Y-86247639D01*
X159202658Y-86319267D01*
X159216545Y-86337818D01*
X159289595Y-86435404D01*
X159324447Y-86461493D01*
X159405733Y-86522342D01*
X159541658Y-86573040D01*
X159601745Y-86579500D01*
X160998254Y-86579499D01*
X161058342Y-86573040D01*
X161194267Y-86522342D01*
X161310404Y-86435404D01*
X161397342Y-86319267D01*
X161448040Y-86183342D01*
X161453247Y-86134911D01*
X161454499Y-86123271D01*
X161454499Y-86123264D01*
X161454500Y-86123255D01*
X161454499Y-85201746D01*
X161448040Y-85141658D01*
X161409072Y-85037181D01*
X161397344Y-85005738D01*
X161397343Y-85005737D01*
X161397342Y-85005733D01*
X161343772Y-84934171D01*
X161310404Y-84889595D01*
X161200015Y-84806961D01*
X161194267Y-84802658D01*
X161058342Y-84751960D01*
X161058338Y-84751959D01*
X160998262Y-84745500D01*
X159601748Y-84745500D01*
X159601742Y-84745501D01*
X159541655Y-84751960D01*
X159405738Y-84802655D01*
X159405730Y-84802660D01*
X159289595Y-84889595D01*
X159202660Y-85005730D01*
X159202658Y-85005733D01*
X159175950Y-85077336D01*
X159134081Y-85133267D01*
X159068617Y-85157684D01*
X159059771Y-85158000D01*
X158951842Y-85158000D01*
X158904391Y-85148561D01*
X158889376Y-85142342D01*
X158889374Y-85142341D01*
X158750001Y-85123993D01*
X158749999Y-85123993D01*
X158611285Y-85142255D01*
X158542250Y-85131489D01*
X158489994Y-85085109D01*
X158471100Y-85019316D01*
X158471100Y-82999986D01*
X158900001Y-82999986D01*
X158910494Y-83102697D01*
X158965641Y-83269119D01*
X158965643Y-83269124D01*
X159057684Y-83418345D01*
X159181654Y-83542315D01*
X159330875Y-83634356D01*
X159330880Y-83634358D01*
X159497302Y-83689505D01*
X159497309Y-83689506D01*
X159600019Y-83699999D01*
X160049999Y-83699999D01*
X160050000Y-83699998D01*
X160050000Y-82787500D01*
X158900001Y-82787500D01*
X158900001Y-82999986D01*
X158471100Y-82999986D01*
X158471100Y-82075013D01*
X158900000Y-82075013D01*
X158900000Y-82287500D01*
X160050000Y-82287500D01*
X160050000Y-81375000D01*
X159600028Y-81375000D01*
X159600012Y-81375001D01*
X159497302Y-81385494D01*
X159330880Y-81440641D01*
X159330875Y-81440643D01*
X159181654Y-81532684D01*
X159057684Y-81656654D01*
X158965643Y-81805875D01*
X158965641Y-81805880D01*
X158910494Y-81972302D01*
X158910493Y-81972309D01*
X158900000Y-82075013D01*
X158471100Y-82075013D01*
X158471100Y-80674000D01*
X158490785Y-80606961D01*
X158543589Y-80561206D01*
X158595100Y-80550000D01*
X161499666Y-80550000D01*
X161499667Y-80550000D01*
X161492620Y-81606959D01*
G37*
%TD.AperFunction*%
%TD*%
%TA.AperFunction,Conductor*%
%TO.N,+3.3V*%
G36*
X132143039Y-84719685D02*
G01*
X132188794Y-84772489D01*
X132200000Y-84824000D01*
X132200000Y-86261724D01*
X132180315Y-86328763D01*
X132141973Y-86366717D01*
X132110665Y-86386389D01*
X132110662Y-86386391D01*
X131986391Y-86510662D01*
X131892887Y-86659474D01*
X131892886Y-86659476D01*
X131834841Y-86825360D01*
X131834840Y-86825366D01*
X131815165Y-86999996D01*
X131815165Y-87000003D01*
X131834840Y-87174633D01*
X131834841Y-87174638D01*
X131834841Y-87174640D01*
X131834842Y-87174642D01*
X131892888Y-87340527D01*
X131914354Y-87374690D01*
X131933353Y-87441927D01*
X131916092Y-87503780D01*
X131896384Y-87537104D01*
X131896380Y-87537114D01*
X131860506Y-87660595D01*
X131822900Y-87719481D01*
X131759428Y-87748687D01*
X131741430Y-87750000D01*
X128866809Y-87750000D01*
X128799770Y-87730315D01*
X128779128Y-87713682D01*
X128754319Y-87688873D01*
X128689337Y-87623891D01*
X128540527Y-87530388D01*
X128540526Y-87530387D01*
X128540525Y-87530387D01*
X128540523Y-87530386D01*
X128374639Y-87472341D01*
X128374633Y-87472340D01*
X128200004Y-87452665D01*
X128199996Y-87452665D01*
X128137883Y-87459663D01*
X128069061Y-87447608D01*
X128017682Y-87400259D01*
X128000000Y-87336443D01*
X128000000Y-84824000D01*
X128019685Y-84756961D01*
X128072489Y-84711206D01*
X128124000Y-84700000D01*
X132076000Y-84700000D01*
X132143039Y-84719685D01*
G37*
%TD.AperFunction*%
%TD*%
%TA.AperFunction,Conductor*%
%TO.N,+VUSB*%
G36*
X153850000Y-85249999D02*
G01*
X153850000Y-85826000D01*
X153830315Y-85893039D01*
X153777511Y-85938794D01*
X153726000Y-85950000D01*
X151650000Y-85950000D01*
X151183619Y-85950000D01*
X151116580Y-85930315D01*
X151095938Y-85913681D01*
X150764485Y-85582227D01*
X150764480Y-85582224D01*
X150761651Y-85580589D01*
X150761651Y-85580590D01*
X150677489Y-85532000D01*
X150677490Y-85532000D01*
X150653231Y-85525500D01*
X150580460Y-85506001D01*
X150099774Y-85506001D01*
X150014776Y-85528776D01*
X149982683Y-85533001D01*
X149928498Y-85533001D01*
X149861459Y-85513316D01*
X149815704Y-85460512D01*
X149804498Y-85409001D01*
X149804498Y-84866001D01*
X149824183Y-84798962D01*
X149876987Y-84753207D01*
X149928498Y-84742001D01*
X150396667Y-84742001D01*
X150396669Y-84742001D01*
X150486830Y-84717842D01*
X150567666Y-84671172D01*
X150633669Y-84605169D01*
X150680339Y-84524333D01*
X150704498Y-84434172D01*
X150704498Y-84340830D01*
X150680339Y-84250669D01*
X150633669Y-84169833D01*
X150613029Y-84149193D01*
X150579544Y-84087870D01*
X150584528Y-84018178D01*
X150620838Y-83966663D01*
X150699999Y-83900001D01*
X150699999Y-83900000D01*
X150700000Y-83900000D01*
X151032041Y-82002625D01*
X151062987Y-81939982D01*
X151122888Y-81904015D01*
X151154185Y-81900000D01*
X153850000Y-81900000D01*
X153850000Y-85249999D01*
G37*
%TD.AperFunction*%
%TD*%
%TA.AperFunction,Conductor*%
%TO.N,GND*%
G36*
X162141182Y-98119685D02*
G01*
X162186937Y-98172489D01*
X162196881Y-98241647D01*
X162188704Y-98271452D01*
X162141508Y-98385392D01*
X162141506Y-98385399D01*
X162136115Y-98412499D01*
X162136116Y-98412500D01*
X162888012Y-98412500D01*
X162870795Y-98422440D01*
X162814940Y-98478295D01*
X162775444Y-98546704D01*
X162755000Y-98623004D01*
X162755000Y-98701996D01*
X162775444Y-98778296D01*
X162814940Y-98846705D01*
X162870795Y-98902560D01*
X162888012Y-98912500D01*
X162136116Y-98912500D01*
X162141506Y-98939600D01*
X162141507Y-98939603D01*
X162213119Y-99112491D01*
X162213124Y-99112500D01*
X162317086Y-99268089D01*
X162317089Y-99268093D01*
X162449406Y-99400410D01*
X162449410Y-99400413D01*
X162604999Y-99504375D01*
X162605008Y-99504380D01*
X162777894Y-99575991D01*
X162777902Y-99575993D01*
X162961428Y-99612499D01*
X162961431Y-99612500D01*
X163555000Y-99612500D01*
X163555000Y-98962500D01*
X164055000Y-98962500D01*
X164055000Y-99612500D01*
X164648569Y-99612500D01*
X164648571Y-99612499D01*
X164832097Y-99575993D01*
X164832105Y-99575991D01*
X165004991Y-99504380D01*
X165005000Y-99504375D01*
X165160589Y-99400413D01*
X165160593Y-99400410D01*
X165292910Y-99268093D01*
X165292913Y-99268089D01*
X165396875Y-99112500D01*
X165396880Y-99112491D01*
X165468492Y-98939603D01*
X165468493Y-98939600D01*
X165473884Y-98912500D01*
X164721988Y-98912500D01*
X164739205Y-98902560D01*
X164795060Y-98846705D01*
X164834556Y-98778296D01*
X164855000Y-98701996D01*
X164855000Y-98623004D01*
X164834556Y-98546704D01*
X164795060Y-98478295D01*
X164739205Y-98422440D01*
X164721988Y-98412500D01*
X165473884Y-98412500D01*
X165473884Y-98412499D01*
X165468493Y-98385399D01*
X165468491Y-98385392D01*
X165421296Y-98271452D01*
X165413827Y-98201983D01*
X165445102Y-98139504D01*
X165505191Y-98103852D01*
X165535857Y-98100000D01*
X165804143Y-98100000D01*
X165871182Y-98119685D01*
X165916937Y-98172489D01*
X165926881Y-98241647D01*
X165918704Y-98271452D01*
X165871508Y-98385392D01*
X165871506Y-98385399D01*
X165866115Y-98412499D01*
X165866116Y-98412500D01*
X166618012Y-98412500D01*
X166600795Y-98422440D01*
X166544940Y-98478295D01*
X166505444Y-98546704D01*
X166485000Y-98623004D01*
X166485000Y-98701996D01*
X166505444Y-98778296D01*
X166544940Y-98846705D01*
X166600795Y-98902560D01*
X166618012Y-98912500D01*
X165866116Y-98912500D01*
X165871506Y-98939600D01*
X165871507Y-98939603D01*
X165943119Y-99112491D01*
X165943124Y-99112500D01*
X166047086Y-99268089D01*
X166047089Y-99268093D01*
X166179406Y-99400410D01*
X166179410Y-99400413D01*
X166334999Y-99504375D01*
X166335008Y-99504380D01*
X166507894Y-99575991D01*
X166507902Y-99575993D01*
X166691428Y-99612499D01*
X166691431Y-99612500D01*
X166935000Y-99612500D01*
X166935000Y-98962500D01*
X167435000Y-98962500D01*
X167435000Y-99612500D01*
X167678569Y-99612500D01*
X167678571Y-99612499D01*
X167862097Y-99575993D01*
X167862105Y-99575991D01*
X168034991Y-99504380D01*
X168035000Y-99504375D01*
X168190589Y-99400413D01*
X168190593Y-99400410D01*
X168238319Y-99352685D01*
X168299642Y-99319200D01*
X168369334Y-99324184D01*
X168425267Y-99366056D01*
X168449684Y-99431520D01*
X168450000Y-99440366D01*
X168450000Y-104375500D01*
X168430315Y-104442539D01*
X168377511Y-104488294D01*
X168326000Y-104499500D01*
X161550000Y-104499500D01*
X161550000Y-98100000D01*
X161563513Y-98100000D01*
X162074143Y-98100000D01*
X162141182Y-98119685D01*
G37*
%TD.AperFunction*%
%TA.AperFunction,Conductor*%
G36*
X167435000Y-90962500D02*
G01*
X167678569Y-90962500D01*
X167678571Y-90962499D01*
X167862097Y-90925993D01*
X167862105Y-90925991D01*
X168034991Y-90854380D01*
X168035000Y-90854375D01*
X168190589Y-90750413D01*
X168190593Y-90750410D01*
X168238319Y-90702685D01*
X168299642Y-90669200D01*
X168369334Y-90674184D01*
X168425267Y-90716056D01*
X168449684Y-90781520D01*
X168450000Y-90790366D01*
X168450000Y-97884634D01*
X168430315Y-97951673D01*
X168377511Y-97997428D01*
X168308353Y-98007372D01*
X168244797Y-97978347D01*
X168238319Y-97972315D01*
X168190593Y-97924589D01*
X168190589Y-97924586D01*
X168035000Y-97820624D01*
X168034991Y-97820619D01*
X167862105Y-97749008D01*
X167862097Y-97749006D01*
X167678570Y-97712500D01*
X167435000Y-97712500D01*
X167435000Y-98362500D01*
X166935000Y-98362500D01*
X166935000Y-97712500D01*
X166691430Y-97712500D01*
X166507902Y-97749006D01*
X166507894Y-97749008D01*
X166335008Y-97820619D01*
X166334999Y-97820624D01*
X166179410Y-97924586D01*
X166179405Y-97924590D01*
X166160325Y-97943670D01*
X166099002Y-97977154D01*
X166029310Y-97972168D01*
X165973377Y-97930295D01*
X165948962Y-97864830D01*
X165948648Y-97856676D01*
X165910144Y-90925991D01*
X165909335Y-90780386D01*
X165928647Y-90713240D01*
X165981196Y-90667193D01*
X166050298Y-90656865D01*
X166114014Y-90685536D01*
X166121014Y-90692018D01*
X166179406Y-90750410D01*
X166179410Y-90750413D01*
X166334999Y-90854375D01*
X166335008Y-90854380D01*
X166507894Y-90925991D01*
X166507902Y-90925993D01*
X166691428Y-90962499D01*
X166691431Y-90962500D01*
X166935000Y-90962500D01*
X166935000Y-90312500D01*
X167435000Y-90312500D01*
X167435000Y-90962500D01*
G37*
%TD.AperFunction*%
%TA.AperFunction,Conductor*%
G36*
X164675393Y-80522844D02*
G01*
X164742288Y-80543011D01*
X164787662Y-80596142D01*
X164798500Y-80646841D01*
X164798500Y-81410614D01*
X164778815Y-81477653D01*
X164762181Y-81498295D01*
X164578593Y-81681882D01*
X164517270Y-81715367D01*
X164507099Y-81717140D01*
X164410622Y-81729842D01*
X164280751Y-81783636D01*
X164280750Y-81783637D01*
X164280747Y-81783638D01*
X164280747Y-81783639D01*
X164169218Y-81869218D01*
X164118368Y-81935488D01*
X164083637Y-81980750D01*
X164083636Y-81980751D01*
X164029843Y-82110620D01*
X164029841Y-82110625D01*
X164011493Y-82249998D01*
X164011493Y-82250001D01*
X164029841Y-82389374D01*
X164029843Y-82389379D01*
X164083637Y-82519252D01*
X164083639Y-82519255D01*
X164169217Y-82630781D01*
X164169218Y-82630782D01*
X164280744Y-82716360D01*
X164280747Y-82716362D01*
X164362644Y-82750284D01*
X164410624Y-82770158D01*
X164480312Y-82779332D01*
X164549999Y-82788507D01*
X164550000Y-82788507D01*
X164550001Y-82788507D01*
X164596458Y-82782390D01*
X164689376Y-82770158D01*
X164819254Y-82716361D01*
X164930782Y-82630782D01*
X165016361Y-82519254D01*
X165070158Y-82389376D01*
X165082859Y-82292897D01*
X165111124Y-82229004D01*
X165118094Y-82221427D01*
X165404037Y-81935483D01*
X165404042Y-81935480D01*
X165414245Y-81925276D01*
X165414247Y-81925276D01*
X165485276Y-81854247D01*
X165535501Y-81767254D01*
X165535502Y-81767253D01*
X165561501Y-81670225D01*
X165561501Y-81569775D01*
X165561501Y-81562180D01*
X165561500Y-81562162D01*
X165561500Y-80654114D01*
X165581185Y-80587075D01*
X165633989Y-80541320D01*
X165686387Y-80530117D01*
X168326893Y-80549114D01*
X168393788Y-80569281D01*
X168439162Y-80622412D01*
X168450000Y-80673111D01*
X168450000Y-89234634D01*
X168430315Y-89301673D01*
X168377511Y-89347428D01*
X168308353Y-89357372D01*
X168244797Y-89328347D01*
X168238319Y-89322315D01*
X168190593Y-89274589D01*
X168190589Y-89274586D01*
X168035000Y-89170624D01*
X168034991Y-89170619D01*
X167862105Y-89099008D01*
X167862097Y-89099006D01*
X167678570Y-89062500D01*
X167435000Y-89062500D01*
X167435000Y-89712500D01*
X166935000Y-89712500D01*
X166935000Y-89062500D01*
X166691430Y-89062500D01*
X166507902Y-89099006D01*
X166507894Y-89099008D01*
X166335008Y-89170619D01*
X166334999Y-89170624D01*
X166179410Y-89274586D01*
X166112537Y-89341459D01*
X166051213Y-89374943D01*
X165981522Y-89369958D01*
X165925588Y-89328087D01*
X165901172Y-89262622D01*
X165900858Y-89254466D01*
X165900392Y-89170619D01*
X165900000Y-89100000D01*
X165899999Y-89100000D01*
X165899999Y-89099998D01*
X165893130Y-89100089D01*
X165825837Y-89081288D01*
X165779392Y-89029090D01*
X165767500Y-88976100D01*
X165767500Y-87642005D01*
X165767500Y-87642003D01*
X165741501Y-87544974D01*
X165691276Y-87457981D01*
X165620247Y-87386952D01*
X165615916Y-87382621D01*
X165615905Y-87382611D01*
X165109520Y-86876225D01*
X165109519Y-86876224D01*
X165022526Y-86825999D01*
X165022527Y-86825999D01*
X164998268Y-86819499D01*
X164925497Y-86800000D01*
X161974503Y-86800000D01*
X161901731Y-86819499D01*
X161877473Y-86825999D01*
X161790482Y-86876223D01*
X161790479Y-86876225D01*
X161719452Y-86947253D01*
X161719450Y-86947255D01*
X161562356Y-87104348D01*
X161455257Y-87211447D01*
X161499666Y-80549999D01*
X161513001Y-80536753D01*
X161574435Y-80503472D01*
X161601277Y-80500728D01*
X164675393Y-80522844D01*
G37*
%TD.AperFunction*%
%TD*%
%TA.AperFunction,Conductor*%
%TO.N,+VUSB*%
G36*
X156943039Y-81919685D02*
G01*
X156988794Y-81972489D01*
X157000000Y-82024000D01*
X157000000Y-85174016D01*
X156980315Y-85241055D01*
X156927511Y-85286810D01*
X156874032Y-85298000D01*
X153850000Y-85249999D01*
X153850000Y-81900000D01*
X156876000Y-81900000D01*
X156943039Y-81919685D01*
G37*
%TD.AperFunction*%
%TD*%
%TA.AperFunction,Conductor*%
%TO.N,+3.3V*%
G36*
X168343039Y-60219685D02*
G01*
X168388794Y-60272489D01*
X168400000Y-60324000D01*
X168400000Y-71176580D01*
X168380315Y-71243619D01*
X168327511Y-71289374D01*
X168276582Y-71300579D01*
X147224582Y-71399415D01*
X147157451Y-71380045D01*
X147111449Y-71327456D01*
X147100000Y-71275416D01*
X147100000Y-70964424D01*
X147119685Y-70897385D01*
X147172489Y-70851630D01*
X147241647Y-70841686D01*
X147263004Y-70846718D01*
X147422302Y-70899505D01*
X147422309Y-70899506D01*
X147525019Y-70909999D01*
X147949999Y-70909999D01*
X148450000Y-70909999D01*
X148874972Y-70909999D01*
X148874986Y-70909998D01*
X148977697Y-70899505D01*
X149144119Y-70844358D01*
X149144124Y-70844356D01*
X149293345Y-70752315D01*
X149417315Y-70628345D01*
X149509356Y-70479124D01*
X149509358Y-70479119D01*
X149564505Y-70312697D01*
X149564506Y-70312690D01*
X149574999Y-70209986D01*
X150475001Y-70209986D01*
X150485494Y-70312697D01*
X150540641Y-70479119D01*
X150540643Y-70479124D01*
X150632684Y-70628345D01*
X150756654Y-70752315D01*
X150905875Y-70844356D01*
X150905880Y-70844358D01*
X151072302Y-70899505D01*
X151072309Y-70899506D01*
X151175019Y-70909999D01*
X151599999Y-70909999D01*
X152100000Y-70909999D01*
X152524972Y-70909999D01*
X152524986Y-70909998D01*
X152627697Y-70899505D01*
X152794119Y-70844358D01*
X152794124Y-70844356D01*
X152943345Y-70752315D01*
X153067315Y-70628345D01*
X153159356Y-70479124D01*
X153159358Y-70479119D01*
X153214505Y-70312697D01*
X153214506Y-70312690D01*
X153224999Y-70209986D01*
X154025001Y-70209986D01*
X154035494Y-70312697D01*
X154090641Y-70479119D01*
X154090643Y-70479124D01*
X154182684Y-70628345D01*
X154306654Y-70752315D01*
X154455875Y-70844356D01*
X154455880Y-70844358D01*
X154622302Y-70899505D01*
X154622309Y-70899506D01*
X154725019Y-70909999D01*
X155149999Y-70909999D01*
X155650000Y-70909999D01*
X156074972Y-70909999D01*
X156074986Y-70909998D01*
X156177697Y-70899505D01*
X156344119Y-70844358D01*
X156344124Y-70844356D01*
X156493345Y-70752315D01*
X156617315Y-70628345D01*
X156709356Y-70479124D01*
X156709358Y-70479119D01*
X156764505Y-70312697D01*
X156764506Y-70312690D01*
X156774999Y-70209986D01*
X157275001Y-70209986D01*
X157285494Y-70312697D01*
X157340641Y-70479119D01*
X157340643Y-70479124D01*
X157432684Y-70628345D01*
X157556654Y-70752315D01*
X157705875Y-70844356D01*
X157705880Y-70844358D01*
X157872302Y-70899505D01*
X157872309Y-70899506D01*
X157975019Y-70909999D01*
X158399999Y-70909999D01*
X158900000Y-70909999D01*
X159324972Y-70909999D01*
X159324986Y-70909998D01*
X159427697Y-70899505D01*
X159594119Y-70844358D01*
X159594124Y-70844356D01*
X159743345Y-70752315D01*
X159867315Y-70628345D01*
X159959356Y-70479124D01*
X159959358Y-70479119D01*
X160014505Y-70312697D01*
X160014506Y-70312690D01*
X160024999Y-70209986D01*
X160525001Y-70209986D01*
X160535494Y-70312697D01*
X160590641Y-70479119D01*
X160590643Y-70479124D01*
X160682684Y-70628345D01*
X160806654Y-70752315D01*
X160955875Y-70844356D01*
X160955880Y-70844358D01*
X161122302Y-70899505D01*
X161122309Y-70899506D01*
X161225019Y-70909999D01*
X161649999Y-70909999D01*
X162150000Y-70909999D01*
X162574972Y-70909999D01*
X162574986Y-70909998D01*
X162677697Y-70899505D01*
X162844119Y-70844358D01*
X162844124Y-70844356D01*
X162993345Y-70752315D01*
X163117315Y-70628345D01*
X163209356Y-70479124D01*
X163209358Y-70479119D01*
X163264505Y-70312697D01*
X163264506Y-70312690D01*
X163274999Y-70209986D01*
X164175001Y-70209986D01*
X164185494Y-70312697D01*
X164240641Y-70479119D01*
X164240643Y-70479124D01*
X164332684Y-70628345D01*
X164456654Y-70752315D01*
X164605875Y-70844356D01*
X164605880Y-70844358D01*
X164772302Y-70899505D01*
X164772309Y-70899506D01*
X164875019Y-70909999D01*
X165299999Y-70909999D01*
X165800000Y-70909999D01*
X166224972Y-70909999D01*
X166224986Y-70909998D01*
X166327697Y-70899505D01*
X166494119Y-70844358D01*
X166494124Y-70844356D01*
X166643345Y-70752315D01*
X166767315Y-70628345D01*
X166859356Y-70479124D01*
X166859358Y-70479119D01*
X166914505Y-70312697D01*
X166914506Y-70312690D01*
X166924999Y-70209986D01*
X166925000Y-70209973D01*
X166925000Y-70010000D01*
X165800000Y-70010000D01*
X165800000Y-70909999D01*
X165299999Y-70909999D01*
X165300000Y-70909998D01*
X165300000Y-70010000D01*
X164175001Y-70010000D01*
X164175001Y-70209986D01*
X163274999Y-70209986D01*
X163275000Y-70209973D01*
X163275000Y-70010000D01*
X162150000Y-70010000D01*
X162150000Y-70909999D01*
X161649999Y-70909999D01*
X161650000Y-70909998D01*
X161650000Y-70010000D01*
X160525001Y-70010000D01*
X160525001Y-70209986D01*
X160024999Y-70209986D01*
X160025000Y-70209973D01*
X160025000Y-70010000D01*
X158900000Y-70010000D01*
X158900000Y-70909999D01*
X158399999Y-70909999D01*
X158400000Y-70909998D01*
X158400000Y-70010000D01*
X157275001Y-70010000D01*
X157275001Y-70209986D01*
X156774999Y-70209986D01*
X156775000Y-70209973D01*
X156775000Y-70010000D01*
X155650000Y-70010000D01*
X155650000Y-70909999D01*
X155149999Y-70909999D01*
X155150000Y-70909998D01*
X155150000Y-70010000D01*
X154025001Y-70010000D01*
X154025001Y-70209986D01*
X153224999Y-70209986D01*
X153225000Y-70209973D01*
X153225000Y-70010000D01*
X152100000Y-70010000D01*
X152100000Y-70909999D01*
X151599999Y-70909999D01*
X151600000Y-70909998D01*
X151600000Y-70010000D01*
X150475001Y-70010000D01*
X150475001Y-70209986D01*
X149574999Y-70209986D01*
X149575000Y-70209973D01*
X149575000Y-70010000D01*
X148450000Y-70010000D01*
X148450000Y-70909999D01*
X147949999Y-70909999D01*
X147950000Y-70909998D01*
X147950000Y-69510000D01*
X148450000Y-69510000D01*
X149574999Y-69510000D01*
X149574999Y-69310028D01*
X149574998Y-69310013D01*
X150475000Y-69310013D01*
X150475000Y-69510000D01*
X151600000Y-69510000D01*
X152100000Y-69510000D01*
X153224999Y-69510000D01*
X153224999Y-69310028D01*
X153224998Y-69310013D01*
X154025000Y-69310013D01*
X154025000Y-69510000D01*
X155150000Y-69510000D01*
X155650000Y-69510000D01*
X156774999Y-69510000D01*
X156774999Y-69310028D01*
X156774998Y-69310013D01*
X157275000Y-69310013D01*
X157275000Y-69510000D01*
X158400000Y-69510000D01*
X158900000Y-69510000D01*
X160024999Y-69510000D01*
X160024999Y-69310028D01*
X160024998Y-69310013D01*
X160525000Y-69310013D01*
X160525000Y-69510000D01*
X161650000Y-69510000D01*
X162150000Y-69510000D01*
X163274999Y-69510000D01*
X163274999Y-69310028D01*
X163274998Y-69310013D01*
X164175000Y-69310013D01*
X164175000Y-69510000D01*
X165300000Y-69510000D01*
X165800000Y-69510000D01*
X166924999Y-69510000D01*
X166924999Y-69310028D01*
X166924998Y-69310013D01*
X166914505Y-69207302D01*
X166859358Y-69040880D01*
X166859356Y-69040875D01*
X166767315Y-68891654D01*
X166643345Y-68767684D01*
X166494124Y-68675643D01*
X166494119Y-68675641D01*
X166327697Y-68620494D01*
X166327690Y-68620493D01*
X166224986Y-68610000D01*
X165800000Y-68610000D01*
X165800000Y-69510000D01*
X165300000Y-69510000D01*
X165300000Y-68610000D01*
X164875028Y-68610000D01*
X164875012Y-68610001D01*
X164772302Y-68620494D01*
X164605880Y-68675641D01*
X164605875Y-68675643D01*
X164456654Y-68767684D01*
X164332684Y-68891654D01*
X164240643Y-69040875D01*
X164240641Y-69040880D01*
X164185494Y-69207302D01*
X164185493Y-69207309D01*
X164175000Y-69310013D01*
X163274998Y-69310013D01*
X163264505Y-69207302D01*
X163209358Y-69040880D01*
X163209356Y-69040875D01*
X163117315Y-68891654D01*
X162993345Y-68767684D01*
X162844124Y-68675643D01*
X162844119Y-68675641D01*
X162677697Y-68620494D01*
X162677690Y-68620493D01*
X162574986Y-68610000D01*
X162150000Y-68610000D01*
X162150000Y-69510000D01*
X161650000Y-69510000D01*
X161650000Y-68610000D01*
X161225028Y-68610000D01*
X161225012Y-68610001D01*
X161122302Y-68620494D01*
X160955880Y-68675641D01*
X160955875Y-68675643D01*
X160806654Y-68767684D01*
X160682684Y-68891654D01*
X160590643Y-69040875D01*
X160590641Y-69040880D01*
X160535494Y-69207302D01*
X160535493Y-69207309D01*
X160525000Y-69310013D01*
X160024998Y-69310013D01*
X160014505Y-69207302D01*
X159959358Y-69040880D01*
X159959356Y-69040875D01*
X159867315Y-68891654D01*
X159743345Y-68767684D01*
X159594124Y-68675643D01*
X159594119Y-68675641D01*
X159427697Y-68620494D01*
X159427690Y-68620493D01*
X159324986Y-68610000D01*
X158900000Y-68610000D01*
X158900000Y-69510000D01*
X158400000Y-69510000D01*
X158400000Y-68610000D01*
X157975028Y-68610000D01*
X157975012Y-68610001D01*
X157872302Y-68620494D01*
X157705880Y-68675641D01*
X157705875Y-68675643D01*
X157556654Y-68767684D01*
X157432684Y-68891654D01*
X157340643Y-69040875D01*
X157340641Y-69040880D01*
X157285494Y-69207302D01*
X157285493Y-69207309D01*
X157275000Y-69310013D01*
X156774998Y-69310013D01*
X156764505Y-69207302D01*
X156709358Y-69040880D01*
X156709356Y-69040875D01*
X156617315Y-68891654D01*
X156493345Y-68767684D01*
X156344124Y-68675643D01*
X156344119Y-68675641D01*
X156177697Y-68620494D01*
X156177690Y-68620493D01*
X156074986Y-68610000D01*
X155650000Y-68610000D01*
X155650000Y-69510000D01*
X155150000Y-69510000D01*
X155150000Y-68610000D01*
X154725028Y-68610000D01*
X154725012Y-68610001D01*
X154622302Y-68620494D01*
X154455880Y-68675641D01*
X154455875Y-68675643D01*
X154306654Y-68767684D01*
X154182684Y-68891654D01*
X154090643Y-69040875D01*
X154090641Y-69040880D01*
X154035494Y-69207302D01*
X154035493Y-69207309D01*
X154025000Y-69310013D01*
X153224998Y-69310013D01*
X153214505Y-69207302D01*
X153159358Y-69040880D01*
X153159356Y-69040875D01*
X153067315Y-68891654D01*
X152943345Y-68767684D01*
X152794124Y-68675643D01*
X152794119Y-68675641D01*
X152627697Y-68620494D01*
X152627690Y-68620493D01*
X152524986Y-68610000D01*
X152100000Y-68610000D01*
X152100000Y-69510000D01*
X151600000Y-69510000D01*
X151600000Y-68610000D01*
X151175028Y-68610000D01*
X151175012Y-68610001D01*
X151072302Y-68620494D01*
X150905880Y-68675641D01*
X150905875Y-68675643D01*
X150756654Y-68767684D01*
X150632684Y-68891654D01*
X150540643Y-69040875D01*
X150540641Y-69040880D01*
X150485494Y-69207302D01*
X150485493Y-69207309D01*
X150475000Y-69310013D01*
X149574998Y-69310013D01*
X149564505Y-69207302D01*
X149509358Y-69040880D01*
X149509356Y-69040875D01*
X149417315Y-68891654D01*
X149293345Y-68767684D01*
X149144124Y-68675643D01*
X149144119Y-68675641D01*
X148977697Y-68620494D01*
X148977690Y-68620493D01*
X148874986Y-68610000D01*
X148450000Y-68610000D01*
X148450000Y-69510000D01*
X147950000Y-69510000D01*
X147950000Y-68610000D01*
X147525028Y-68610000D01*
X147525012Y-68610001D01*
X147422302Y-68620494D01*
X147263004Y-68673281D01*
X147193176Y-68675683D01*
X147133134Y-68639951D01*
X147101941Y-68577431D01*
X147100000Y-68555575D01*
X147100000Y-62489635D01*
X149029500Y-62489635D01*
X149029500Y-64285370D01*
X149029501Y-64285376D01*
X149035908Y-64344983D01*
X149086202Y-64479828D01*
X149086206Y-64479835D01*
X149172452Y-64595044D01*
X149172455Y-64595047D01*
X149287664Y-64681293D01*
X149287671Y-64681297D01*
X149422517Y-64731591D01*
X149422516Y-64731591D01*
X149429444Y-64732335D01*
X149482127Y-64738000D01*
X151277872Y-64737999D01*
X151337483Y-64731591D01*
X151472331Y-64681296D01*
X151587546Y-64595046D01*
X151673796Y-64479831D01*
X151722810Y-64348416D01*
X151764681Y-64292484D01*
X151830145Y-64268066D01*
X151898418Y-64282917D01*
X151926673Y-64304069D01*
X152048599Y-64425995D01*
X152145384Y-64493765D01*
X152242165Y-64561532D01*
X152242167Y-64561533D01*
X152242170Y-64561535D01*
X152456337Y-64661403D01*
X152684592Y-64722563D01*
X152861034Y-64738000D01*
X152919999Y-64743159D01*
X152920000Y-64743159D01*
X152920001Y-64743159D01*
X152978966Y-64738000D01*
X153155408Y-64722563D01*
X153383663Y-64661403D01*
X153597830Y-64561535D01*
X153791401Y-64425995D01*
X153958495Y-64258901D01*
X154088425Y-64073342D01*
X154143002Y-64029717D01*
X154212500Y-64022523D01*
X154274855Y-64054046D01*
X154291575Y-64073342D01*
X154421500Y-64258895D01*
X154421505Y-64258901D01*
X154588599Y-64425995D01*
X154685384Y-64493765D01*
X154782165Y-64561532D01*
X154782167Y-64561533D01*
X154782170Y-64561535D01*
X154996337Y-64661403D01*
X155224592Y-64722563D01*
X155401034Y-64738000D01*
X155459999Y-64743159D01*
X155460000Y-64743159D01*
X155460001Y-64743159D01*
X155518966Y-64738000D01*
X155695408Y-64722563D01*
X155923663Y-64661403D01*
X156137830Y-64561535D01*
X156331401Y-64425995D01*
X156498495Y-64258901D01*
X156628425Y-64073342D01*
X156683002Y-64029717D01*
X156752500Y-64022523D01*
X156814855Y-64054046D01*
X156831575Y-64073342D01*
X156961500Y-64258895D01*
X156961505Y-64258901D01*
X157128599Y-64425995D01*
X157225384Y-64493765D01*
X157322165Y-64561532D01*
X157322167Y-64561533D01*
X157322170Y-64561535D01*
X157536337Y-64661403D01*
X157764592Y-64722563D01*
X157941034Y-64738000D01*
X157999999Y-64743159D01*
X158000000Y-64743159D01*
X158000001Y-64743159D01*
X158058966Y-64738000D01*
X158235408Y-64722563D01*
X158463663Y-64661403D01*
X158677830Y-64561535D01*
X158871401Y-64425995D01*
X159038495Y-64258901D01*
X159168425Y-64073342D01*
X159223002Y-64029717D01*
X159292500Y-64022523D01*
X159354855Y-64054046D01*
X159371575Y-64073342D01*
X159501500Y-64258895D01*
X159501505Y-64258901D01*
X159668599Y-64425995D01*
X159765384Y-64493765D01*
X159862165Y-64561532D01*
X159862167Y-64561533D01*
X159862170Y-64561535D01*
X160076337Y-64661403D01*
X160304592Y-64722563D01*
X160481034Y-64738000D01*
X160539999Y-64743159D01*
X160540000Y-64743159D01*
X160540001Y-64743159D01*
X160598966Y-64738000D01*
X160775408Y-64722563D01*
X161003663Y-64661403D01*
X161217830Y-64561535D01*
X161411401Y-64425995D01*
X161578495Y-64258901D01*
X161714035Y-64065330D01*
X161813903Y-63851163D01*
X161875063Y-63622908D01*
X161895659Y-63387500D01*
X161875063Y-63152092D01*
X161813903Y-62923837D01*
X161714035Y-62709671D01*
X161708425Y-62701658D01*
X161578494Y-62516097D01*
X161411402Y-62349006D01*
X161411395Y-62349001D01*
X161217834Y-62213467D01*
X161217830Y-62213465D01*
X161217828Y-62213464D01*
X161003663Y-62113597D01*
X161003659Y-62113596D01*
X161003655Y-62113594D01*
X160775413Y-62052438D01*
X160775403Y-62052436D01*
X160540001Y-62031841D01*
X160539999Y-62031841D01*
X160304596Y-62052436D01*
X160304586Y-62052438D01*
X160076344Y-62113594D01*
X160076335Y-62113598D01*
X159862171Y-62213464D01*
X159862169Y-62213465D01*
X159668597Y-62349005D01*
X159501505Y-62516097D01*
X159371575Y-62701658D01*
X159316998Y-62745283D01*
X159247500Y-62752477D01*
X159185145Y-62720954D01*
X159168425Y-62701658D01*
X159038494Y-62516097D01*
X158871402Y-62349006D01*
X158871395Y-62349001D01*
X158677834Y-62213467D01*
X158677830Y-62213465D01*
X158677828Y-62213464D01*
X158463663Y-62113597D01*
X158463659Y-62113596D01*
X158463655Y-62113594D01*
X158235413Y-62052438D01*
X158235403Y-62052436D01*
X158000001Y-62031841D01*
X157999999Y-62031841D01*
X157764596Y-62052436D01*
X157764586Y-62052438D01*
X157536344Y-62113594D01*
X157536335Y-62113598D01*
X157322171Y-62213464D01*
X157322169Y-62213465D01*
X157128597Y-62349005D01*
X156961505Y-62516097D01*
X156831575Y-62701658D01*
X156776998Y-62745283D01*
X156707500Y-62752477D01*
X156645145Y-62720954D01*
X156628425Y-62701658D01*
X156498494Y-62516097D01*
X156331402Y-62349006D01*
X156331395Y-62349001D01*
X156137834Y-62213467D01*
X156137830Y-62213465D01*
X156137828Y-62213464D01*
X155923663Y-62113597D01*
X155923659Y-62113596D01*
X155923655Y-62113594D01*
X155695413Y-62052438D01*
X155695403Y-62052436D01*
X155460001Y-62031841D01*
X155459999Y-62031841D01*
X155224596Y-62052436D01*
X155224586Y-62052438D01*
X154996344Y-62113594D01*
X154996335Y-62113598D01*
X154782171Y-62213464D01*
X154782169Y-62213465D01*
X154588597Y-62349005D01*
X154421505Y-62516097D01*
X154291575Y-62701658D01*
X154236998Y-62745283D01*
X154167500Y-62752477D01*
X154105145Y-62720954D01*
X154088425Y-62701658D01*
X153958494Y-62516097D01*
X153791402Y-62349006D01*
X153791395Y-62349001D01*
X153597834Y-62213467D01*
X153597830Y-62213465D01*
X153597828Y-62213464D01*
X153383663Y-62113597D01*
X153383659Y-62113596D01*
X153383655Y-62113594D01*
X153155413Y-62052438D01*
X153155403Y-62052436D01*
X152920001Y-62031841D01*
X152919999Y-62031841D01*
X152684596Y-62052436D01*
X152684586Y-62052438D01*
X152456344Y-62113594D01*
X152456335Y-62113598D01*
X152242171Y-62213464D01*
X152242169Y-62213465D01*
X152048600Y-62349003D01*
X151926673Y-62470930D01*
X151865350Y-62504414D01*
X151795658Y-62499430D01*
X151739725Y-62457558D01*
X151722810Y-62426581D01*
X151673797Y-62295171D01*
X151673793Y-62295164D01*
X151587547Y-62179955D01*
X151587544Y-62179952D01*
X151472335Y-62093706D01*
X151472328Y-62093702D01*
X151337482Y-62043408D01*
X151337483Y-62043408D01*
X151277883Y-62037001D01*
X151277881Y-62037000D01*
X151277873Y-62037000D01*
X151277864Y-62037000D01*
X149482129Y-62037000D01*
X149482123Y-62037001D01*
X149422516Y-62043408D01*
X149287671Y-62093702D01*
X149287664Y-62093706D01*
X149172455Y-62179952D01*
X149172452Y-62179955D01*
X149086206Y-62295164D01*
X149086202Y-62295171D01*
X149035908Y-62430017D01*
X149029501Y-62489616D01*
X149029500Y-62489635D01*
X147100000Y-62489635D01*
X147100000Y-60324000D01*
X147119685Y-60256961D01*
X147172489Y-60211206D01*
X147224000Y-60200000D01*
X168276000Y-60200000D01*
X168343039Y-60219685D01*
G37*
%TD.AperFunction*%
%TD*%
%TA.AperFunction,Conductor*%
%TO.N,+3.3V*%
G36*
X147638538Y-86269685D02*
G01*
X147684293Y-86322489D01*
X147695499Y-86374000D01*
X147695499Y-86642559D01*
X147694237Y-86660203D01*
X147690313Y-86687499D01*
X147690313Y-86687501D01*
X147694237Y-86714796D01*
X147695499Y-86732440D01*
X147695499Y-86962564D01*
X147710265Y-87036802D01*
X147766514Y-87120985D01*
X147800233Y-87143515D01*
X147850698Y-87177235D01*
X147850701Y-87177235D01*
X147850702Y-87177236D01*
X147875665Y-87182201D01*
X147924932Y-87192001D01*
X148521499Y-87192000D01*
X148588538Y-87211684D01*
X148634293Y-87264488D01*
X148645499Y-87316000D01*
X148645499Y-87370184D01*
X148641274Y-87402277D01*
X148618499Y-87487275D01*
X148618499Y-87708352D01*
X148598814Y-87775391D01*
X148582180Y-87796033D01*
X148514532Y-87863681D01*
X148453209Y-87897166D01*
X148426851Y-87900000D01*
X147012634Y-87900000D01*
X146987625Y-87897452D01*
X146975110Y-87894875D01*
X146913419Y-87862074D01*
X146900856Y-87847738D01*
X146885404Y-87827096D01*
X146769267Y-87740158D01*
X146633342Y-87689460D01*
X146633338Y-87689459D01*
X146573271Y-87683000D01*
X145958636Y-87683000D01*
X145933631Y-87680453D01*
X145398995Y-87570381D01*
X145337302Y-87537582D01*
X145303135Y-87476636D01*
X145300000Y-87448928D01*
X145300000Y-86374000D01*
X145319685Y-86306961D01*
X145372489Y-86261206D01*
X145424000Y-86250000D01*
X147571499Y-86250000D01*
X147638538Y-86269685D01*
G37*
%TD.AperFunction*%
%TD*%
%TA.AperFunction,Conductor*%
%TO.N,+5V*%
G36*
X146537539Y-60219685D02*
G01*
X146583294Y-60272489D01*
X146594500Y-60324000D01*
X146594500Y-68555584D01*
X146596480Y-68600280D01*
X146598422Y-68622146D01*
X146604356Y-68666533D01*
X146649614Y-68803110D01*
X146680807Y-68865630D01*
X146680808Y-68865631D01*
X146762704Y-68983916D01*
X146762705Y-68983917D01*
X146762706Y-68983918D01*
X146811317Y-69023198D01*
X146851089Y-69080642D01*
X146853491Y-69150471D01*
X146851089Y-69158649D01*
X146835001Y-69207199D01*
X146824500Y-69309983D01*
X146824500Y-70210001D01*
X146824501Y-70210019D01*
X146835001Y-70312799D01*
X146850784Y-70360430D01*
X146853185Y-70430258D01*
X146817453Y-70490300D01*
X146814283Y-70493144D01*
X146788657Y-70515349D01*
X146694433Y-70624088D01*
X146694430Y-70624092D01*
X146634664Y-70754958D01*
X146614976Y-70822006D01*
X146594500Y-70964425D01*
X146594500Y-71275422D01*
X146595555Y-71285124D01*
X146583230Y-71353898D01*
X146535680Y-71405091D01*
X146468001Y-71422450D01*
X146458398Y-71421744D01*
X146400004Y-71415165D01*
X146399996Y-71415165D01*
X146225366Y-71434840D01*
X146225360Y-71434841D01*
X146059476Y-71492886D01*
X146059474Y-71492887D01*
X145910662Y-71586391D01*
X145786391Y-71710662D01*
X145692887Y-71859474D01*
X145692886Y-71859476D01*
X145634841Y-72025360D01*
X145634840Y-72025366D01*
X145615165Y-72199996D01*
X145615165Y-72200003D01*
X145634840Y-72374633D01*
X145634841Y-72374639D01*
X145692887Y-72540526D01*
X145753494Y-72636981D01*
X145772500Y-72702953D01*
X145772500Y-76446103D01*
X145796612Y-76567323D01*
X145796614Y-76567331D01*
X145830062Y-76648081D01*
X145843915Y-76681525D01*
X145843920Y-76681535D01*
X145912588Y-76784303D01*
X145912591Y-76784307D01*
X147005817Y-77877532D01*
X147039302Y-77938855D01*
X147035842Y-78004216D01*
X147010001Y-78082199D01*
X146999500Y-78184983D01*
X146999500Y-78935001D01*
X146999501Y-78935019D01*
X147010000Y-79037796D01*
X147010001Y-79037799D01*
X147065185Y-79204331D01*
X147065189Y-79204340D01*
X147122308Y-79296945D01*
X147140769Y-79361777D01*
X147148166Y-82838614D01*
X147128624Y-82905695D01*
X147075917Y-82951563D01*
X147065121Y-82955919D01*
X146959481Y-82992883D01*
X146959474Y-82992887D01*
X146830556Y-83073890D01*
X146750000Y-82800000D01*
X146373837Y-82800000D01*
X146360908Y-82760984D01*
X146270340Y-82614150D01*
X146270338Y-82614148D01*
X146268961Y-82611915D01*
X146250500Y-82546818D01*
X146250500Y-82158655D01*
X146250499Y-82158653D01*
X146235817Y-82084841D01*
X146219737Y-82004003D01*
X146212601Y-81986775D01*
X146159397Y-81858327D01*
X146159390Y-81858314D01*
X146071789Y-81727211D01*
X146071786Y-81727207D01*
X145960292Y-81615713D01*
X145960288Y-81615710D01*
X145829185Y-81528109D01*
X145829175Y-81528104D01*
X145805523Y-81518307D01*
X145765294Y-81491426D01*
X145728414Y-81454546D01*
X145654729Y-81405312D01*
X145654729Y-81405313D01*
X145605491Y-81372413D01*
X145468917Y-81315843D01*
X145468907Y-81315840D01*
X145323920Y-81287000D01*
X145323918Y-81287000D01*
X143292508Y-81287000D01*
X143225469Y-81267315D01*
X143186969Y-81228097D01*
X143174979Y-81208658D01*
X143142712Y-81156344D01*
X143018656Y-81032288D01*
X142869334Y-80940186D01*
X142702797Y-80885001D01*
X142702795Y-80885000D01*
X142600010Y-80874500D01*
X141199998Y-80874500D01*
X141199981Y-80874501D01*
X141097203Y-80885000D01*
X141097200Y-80885001D01*
X140930668Y-80940185D01*
X140930663Y-80940187D01*
X140781342Y-81032289D01*
X140657289Y-81156342D01*
X140565187Y-81305663D01*
X140565185Y-81305668D01*
X140543068Y-81372413D01*
X140510001Y-81472203D01*
X140510001Y-81472204D01*
X140510000Y-81472204D01*
X140499500Y-81574983D01*
X140499500Y-82500001D01*
X140499501Y-82500019D01*
X140510000Y-82602796D01*
X140510001Y-82602799D01*
X140534045Y-82675358D01*
X140565186Y-82769334D01*
X140657288Y-82918656D01*
X140781344Y-83042712D01*
X140930666Y-83134814D01*
X141097203Y-83189999D01*
X141199991Y-83200500D01*
X142600008Y-83200499D01*
X142702797Y-83189999D01*
X142869334Y-83134814D01*
X142900000Y-83115899D01*
X142900000Y-84600000D01*
X135560729Y-84600000D01*
X135493690Y-84580315D01*
X135447935Y-84527511D01*
X135437991Y-84458353D01*
X135467016Y-84394797D01*
X135473047Y-84388320D01*
X135539755Y-84321611D01*
X135567588Y-84293777D01*
X135589287Y-84276472D01*
X135689337Y-84213609D01*
X135813609Y-84089337D01*
X135907112Y-83940527D01*
X135965158Y-83774642D01*
X135970845Y-83724169D01*
X135984835Y-83600003D01*
X135984835Y-83599996D01*
X135965159Y-83425366D01*
X135965158Y-83425360D01*
X135965158Y-83425358D01*
X135957457Y-83403351D01*
X135950500Y-83362400D01*
X135950500Y-83296869D01*
X135970185Y-83229830D01*
X136022989Y-83184075D01*
X136035486Y-83179166D01*
X136169334Y-83134814D01*
X136318656Y-83042712D01*
X136442712Y-82918656D01*
X136534814Y-82769334D01*
X136589999Y-82602797D01*
X136600500Y-82500009D01*
X136600499Y-81574992D01*
X136593744Y-81508869D01*
X136589999Y-81472203D01*
X136589998Y-81472200D01*
X136581977Y-81447994D01*
X136534814Y-81305666D01*
X136442712Y-81156344D01*
X136318656Y-81032288D01*
X136169334Y-80940186D01*
X136002797Y-80885001D01*
X136002795Y-80885000D01*
X135900010Y-80874500D01*
X134499998Y-80874500D01*
X134499981Y-80874501D01*
X134397203Y-80885000D01*
X134397200Y-80885001D01*
X134230668Y-80940185D01*
X134230663Y-80940187D01*
X134081342Y-81032289D01*
X133957289Y-81156342D01*
X133865187Y-81305663D01*
X133865185Y-81305668D01*
X133843068Y-81372413D01*
X133810001Y-81472203D01*
X133810001Y-81472204D01*
X133810000Y-81472204D01*
X133799500Y-81574983D01*
X133799500Y-82500001D01*
X133799501Y-82500019D01*
X133810000Y-82602796D01*
X133810001Y-82602799D01*
X133834045Y-82675358D01*
X133865186Y-82769334D01*
X133957288Y-82918656D01*
X134081344Y-83042712D01*
X134230666Y-83134814D01*
X134320114Y-83164454D01*
X134377558Y-83204227D01*
X134404381Y-83268743D01*
X134392066Y-83337519D01*
X134368790Y-83369841D01*
X133763094Y-83975537D01*
X133701771Y-84009022D01*
X133701376Y-84009107D01*
X133697210Y-84009999D01*
X133697204Y-84010000D01*
X133697203Y-84010001D01*
X133670695Y-84018785D01*
X133530668Y-84065185D01*
X133530663Y-84065187D01*
X133381342Y-84157289D01*
X133257289Y-84281342D01*
X133165187Y-84430663D01*
X133165186Y-84430666D01*
X133137239Y-84515005D01*
X133097466Y-84572449D01*
X133032950Y-84599272D01*
X133019533Y-84600000D01*
X132740425Y-84600000D01*
X132673386Y-84580315D01*
X132636110Y-84543040D01*
X132570829Y-84441462D01*
X132570820Y-84441451D01*
X132525074Y-84388657D01*
X132525071Y-84388654D01*
X132432434Y-84308382D01*
X132394660Y-84249604D01*
X132394660Y-84179734D01*
X132425955Y-84126990D01*
X132463609Y-84089337D01*
X132557112Y-83940527D01*
X132615158Y-83774642D01*
X132620845Y-83724169D01*
X132634835Y-83600003D01*
X132634835Y-83599996D01*
X132615159Y-83425366D01*
X132615158Y-83425360D01*
X132615158Y-83425358D01*
X132607457Y-83403351D01*
X132600500Y-83362400D01*
X132600500Y-83296869D01*
X132620185Y-83229830D01*
X132672989Y-83184075D01*
X132685486Y-83179166D01*
X132819334Y-83134814D01*
X132968656Y-83042712D01*
X133092712Y-82918656D01*
X133184814Y-82769334D01*
X133239999Y-82602797D01*
X133250500Y-82500009D01*
X133250499Y-81574992D01*
X133243744Y-81508869D01*
X133239999Y-81472203D01*
X133239998Y-81472200D01*
X133231977Y-81447994D01*
X133184814Y-81305666D01*
X133092712Y-81156344D01*
X132968656Y-81032288D01*
X132819334Y-80940186D01*
X132652797Y-80885001D01*
X132652795Y-80885000D01*
X132550010Y-80874500D01*
X131149998Y-80874500D01*
X131149981Y-80874501D01*
X131047203Y-80885000D01*
X131047200Y-80885001D01*
X130880668Y-80940185D01*
X130880663Y-80940187D01*
X130731342Y-81032289D01*
X130607289Y-81156342D01*
X130515187Y-81305663D01*
X130515185Y-81305668D01*
X130493068Y-81372413D01*
X130460001Y-81472203D01*
X130460001Y-81472204D01*
X130460000Y-81472204D01*
X130449500Y-81574983D01*
X130449500Y-82500001D01*
X130449501Y-82500019D01*
X130460000Y-82602796D01*
X130460001Y-82602799D01*
X130484045Y-82675358D01*
X130515186Y-82769334D01*
X130607288Y-82918656D01*
X130731344Y-83042712D01*
X130880666Y-83134814D01*
X131014505Y-83179164D01*
X131071949Y-83218936D01*
X131098772Y-83283451D01*
X131099500Y-83296869D01*
X131099500Y-83362400D01*
X131092542Y-83403354D01*
X131084841Y-83425360D01*
X131084840Y-83425366D01*
X131065165Y-83599996D01*
X131065165Y-83600003D01*
X131084840Y-83774633D01*
X131084842Y-83774642D01*
X131105803Y-83834547D01*
X131109364Y-83904326D01*
X131074634Y-83964953D01*
X131012640Y-83997179D01*
X130988761Y-83999500D01*
X130674999Y-83999500D01*
X130674980Y-83999501D01*
X130572203Y-84010000D01*
X130572200Y-84010001D01*
X130405668Y-84065185D01*
X130405663Y-84065187D01*
X130256342Y-84157289D01*
X130255451Y-84158181D01*
X130254687Y-84158597D01*
X130250681Y-84161766D01*
X130250139Y-84161081D01*
X130194128Y-84191666D01*
X130167770Y-84194500D01*
X129250138Y-84194500D01*
X129183099Y-84174815D01*
X129137344Y-84122011D01*
X129127400Y-84052853D01*
X129144021Y-84006350D01*
X129221070Y-83878896D01*
X129268934Y-83725292D01*
X129275000Y-83658543D01*
X129275000Y-83237500D01*
X128449500Y-83237500D01*
X128382461Y-83217815D01*
X128336706Y-83165011D01*
X128325500Y-83113500D01*
X128325500Y-82737500D01*
X128700000Y-82737500D01*
X129275000Y-82737500D01*
X129275000Y-82316456D01*
X129268934Y-82249707D01*
X129221070Y-82096103D01*
X129137836Y-81958419D01*
X129024080Y-81844663D01*
X128886396Y-81761429D01*
X128732794Y-81713566D01*
X128700000Y-81710585D01*
X128700000Y-82737500D01*
X128325500Y-82737500D01*
X128325499Y-82316401D01*
X128319431Y-82249615D01*
X128306114Y-82206878D01*
X128300500Y-82169989D01*
X128300500Y-81208655D01*
X128300499Y-81208653D01*
X128290094Y-81156344D01*
X128269737Y-81054003D01*
X128260743Y-81032289D01*
X128209397Y-80908327D01*
X128209390Y-80908314D01*
X128121789Y-80777211D01*
X128121786Y-80777207D01*
X128010292Y-80665713D01*
X128010288Y-80665710D01*
X127879185Y-80578109D01*
X127879172Y-80578102D01*
X127733501Y-80517764D01*
X127733489Y-80517761D01*
X127578845Y-80487000D01*
X127578842Y-80487000D01*
X127421158Y-80487000D01*
X127421155Y-80487000D01*
X127266510Y-80517761D01*
X127266498Y-80517764D01*
X127120827Y-80578102D01*
X127120814Y-80578109D01*
X126989711Y-80665710D01*
X126989707Y-80665713D01*
X126878213Y-80777207D01*
X126878210Y-80777211D01*
X126790609Y-80908314D01*
X126790602Y-80908327D01*
X126730264Y-81053998D01*
X126730261Y-81054010D01*
X126699500Y-81208653D01*
X126699500Y-82169990D01*
X126693886Y-82206878D01*
X126680570Y-82249613D01*
X126674500Y-82316409D01*
X126674500Y-82986583D01*
X126674501Y-83113500D01*
X126654817Y-83180539D01*
X126602013Y-83226294D01*
X126550501Y-83237500D01*
X125725000Y-83237500D01*
X125725000Y-83658543D01*
X125731065Y-83725292D01*
X125778929Y-83878896D01*
X125862163Y-84016580D01*
X125975919Y-84130336D01*
X126113606Y-84213571D01*
X126130549Y-84218851D01*
X126188698Y-84257587D01*
X126216674Y-84321611D01*
X126205594Y-84390597D01*
X126158976Y-84442641D01*
X126130557Y-84455621D01*
X126113400Y-84460968D01*
X126113398Y-84460968D01*
X126113398Y-84460969D01*
X126075449Y-84483910D01*
X125975608Y-84544266D01*
X125975607Y-84544267D01*
X125956194Y-84563681D01*
X125894871Y-84597166D01*
X125868513Y-84600000D01*
X123536223Y-84600000D01*
X123528169Y-84599589D01*
X123528166Y-84599661D01*
X123525014Y-84599500D01*
X123525009Y-84599500D01*
X123525003Y-84599500D01*
X122599998Y-84599500D01*
X122596836Y-84599662D01*
X122596832Y-84599590D01*
X122588789Y-84600000D01*
X120411223Y-84600000D01*
X120403169Y-84599589D01*
X120403166Y-84599661D01*
X120400014Y-84599500D01*
X120400009Y-84599500D01*
X120400003Y-84599500D01*
X119474998Y-84599500D01*
X119471836Y-84599662D01*
X119471832Y-84599590D01*
X119463789Y-84600000D01*
X119424006Y-84600000D01*
X119356967Y-84580315D01*
X119319691Y-84543040D01*
X119286540Y-84491457D01*
X119286534Y-84491450D01*
X119240791Y-84438659D01*
X119240787Y-84438656D01*
X119240785Y-84438653D01*
X119132051Y-84344433D01*
X119132048Y-84344431D01*
X119132046Y-84344430D01*
X119001180Y-84284664D01*
X119001175Y-84284662D01*
X119001174Y-84284662D01*
X118934135Y-84264977D01*
X118934137Y-84264977D01*
X118934132Y-84264976D01*
X118884498Y-84257840D01*
X118791715Y-84244500D01*
X115924491Y-84244500D01*
X115857452Y-84224815D01*
X115811697Y-84172011D01*
X115800491Y-84120373D01*
X115800499Y-84113355D01*
X115801793Y-82849996D01*
X118015165Y-82849996D01*
X118015165Y-82850003D01*
X118034840Y-83024633D01*
X118034841Y-83024639D01*
X118092886Y-83190523D01*
X118092887Y-83190525D01*
X118092888Y-83190527D01*
X118186391Y-83339337D01*
X118310663Y-83463609D01*
X118459473Y-83557112D01*
X118625358Y-83615158D01*
X118625364Y-83615158D01*
X118625366Y-83615159D01*
X118799996Y-83634835D01*
X118800000Y-83634835D01*
X118800002Y-83634835D01*
X118824878Y-83632031D01*
X118888698Y-83624841D01*
X118957518Y-83636895D01*
X119008897Y-83684244D01*
X119020285Y-83709055D01*
X119052686Y-83806834D01*
X119144788Y-83956156D01*
X119268844Y-84080212D01*
X119418166Y-84172314D01*
X119584703Y-84227499D01*
X119687491Y-84238000D01*
X120612508Y-84237999D01*
X120612516Y-84237998D01*
X120612519Y-84237998D01*
X120672899Y-84231830D01*
X120715297Y-84227499D01*
X120881834Y-84172314D01*
X121031156Y-84080212D01*
X121155212Y-83956156D01*
X121247314Y-83806834D01*
X121302499Y-83640297D01*
X121313000Y-83537509D01*
X121313000Y-83537486D01*
X122112501Y-83537486D01*
X122122994Y-83640197D01*
X122178141Y-83806619D01*
X122178143Y-83806624D01*
X122270184Y-83955845D01*
X122394154Y-84079815D01*
X122543375Y-84171856D01*
X122543380Y-84171858D01*
X122709802Y-84227005D01*
X122709809Y-84227006D01*
X122812519Y-84237499D01*
X123024999Y-84237499D01*
X123525000Y-84237499D01*
X123737472Y-84237499D01*
X123737486Y-84237498D01*
X123840197Y-84227005D01*
X124006619Y-84171858D01*
X124006624Y-84171856D01*
X124155845Y-84079815D01*
X124279815Y-83955845D01*
X124371856Y-83806624D01*
X124371858Y-83806619D01*
X124427005Y-83640197D01*
X124427006Y-83640190D01*
X124437499Y-83537486D01*
X124437500Y-83537473D01*
X124437500Y-83087500D01*
X123525000Y-83087500D01*
X123525000Y-84237499D01*
X123024999Y-84237499D01*
X123025000Y-84237498D01*
X123025000Y-83087500D01*
X122112501Y-83087500D01*
X122112501Y-83537486D01*
X121313000Y-83537486D01*
X121312999Y-82137513D01*
X122112500Y-82137513D01*
X122112500Y-82587500D01*
X123025000Y-82587500D01*
X123525000Y-82587500D01*
X124437499Y-82587500D01*
X124437499Y-82316456D01*
X125725000Y-82316456D01*
X125725000Y-82737500D01*
X126300000Y-82737500D01*
X126300000Y-81710585D01*
X126299999Y-81710585D01*
X126267205Y-81713566D01*
X126113603Y-81761429D01*
X125975919Y-81844663D01*
X125862163Y-81958419D01*
X125778929Y-82096103D01*
X125731065Y-82249707D01*
X125725000Y-82316456D01*
X124437499Y-82316456D01*
X124437499Y-82137528D01*
X124437498Y-82137513D01*
X124427005Y-82034802D01*
X124371858Y-81868380D01*
X124371856Y-81868375D01*
X124279815Y-81719154D01*
X124155845Y-81595184D01*
X124006624Y-81503143D01*
X124006619Y-81503141D01*
X123840197Y-81447994D01*
X123840190Y-81447993D01*
X123737486Y-81437500D01*
X123525000Y-81437500D01*
X123525000Y-82587500D01*
X123025000Y-82587500D01*
X123025000Y-81437500D01*
X122812529Y-81437500D01*
X122812512Y-81437501D01*
X122709802Y-81447994D01*
X122543380Y-81503141D01*
X122543375Y-81503143D01*
X122394154Y-81595184D01*
X122270184Y-81719154D01*
X122178143Y-81868375D01*
X122178141Y-81868380D01*
X122122994Y-82034802D01*
X122122993Y-82034809D01*
X122112500Y-82137513D01*
X121312999Y-82137513D01*
X121312999Y-82137492D01*
X121305917Y-82068168D01*
X121302499Y-82034703D01*
X121302498Y-82034700D01*
X121268435Y-81931906D01*
X121247314Y-81868166D01*
X121155212Y-81718844D01*
X121031156Y-81594788D01*
X120938388Y-81537569D01*
X120881836Y-81502687D01*
X120881831Y-81502685D01*
X120880362Y-81502198D01*
X120715297Y-81447501D01*
X120715295Y-81447500D01*
X120612510Y-81437000D01*
X119687498Y-81437000D01*
X119687480Y-81437001D01*
X119584703Y-81447500D01*
X119584700Y-81447501D01*
X119418168Y-81502685D01*
X119418163Y-81502687D01*
X119268842Y-81594789D01*
X119144789Y-81718842D01*
X119052687Y-81868163D01*
X119052686Y-81868166D01*
X119012300Y-81990043D01*
X118972527Y-82047487D01*
X118908011Y-82074310D01*
X118880711Y-82074258D01*
X118800004Y-82065165D01*
X118799996Y-82065165D01*
X118625366Y-82084840D01*
X118625360Y-82084841D01*
X118459476Y-82142886D01*
X118459474Y-82142887D01*
X118310662Y-82236391D01*
X118186391Y-82360662D01*
X118092887Y-82509474D01*
X118092886Y-82509476D01*
X118034841Y-82675360D01*
X118034840Y-82675366D01*
X118015165Y-82849996D01*
X115801793Y-82849996D01*
X115805353Y-79374986D01*
X130450001Y-79374986D01*
X130460494Y-79477697D01*
X130515641Y-79644119D01*
X130515643Y-79644124D01*
X130607684Y-79793345D01*
X130731654Y-79917315D01*
X130880875Y-80009356D01*
X130880880Y-80009358D01*
X131047302Y-80064505D01*
X131047309Y-80064506D01*
X131150019Y-80074999D01*
X131599999Y-80074999D01*
X132100000Y-80074999D01*
X132549972Y-80074999D01*
X132549986Y-80074998D01*
X132652697Y-80064505D01*
X132819119Y-80009358D01*
X132819124Y-80009356D01*
X132968345Y-79917315D01*
X133092315Y-79793345D01*
X133184356Y-79644124D01*
X133184358Y-79644119D01*
X133239505Y-79477697D01*
X133239506Y-79477690D01*
X133249999Y-79374986D01*
X133800001Y-79374986D01*
X133810494Y-79477697D01*
X133865641Y-79644119D01*
X133865643Y-79644124D01*
X133957684Y-79793345D01*
X134081654Y-79917315D01*
X134230875Y-80009356D01*
X134230880Y-80009358D01*
X134397302Y-80064505D01*
X134397309Y-80064506D01*
X134500019Y-80074999D01*
X134949999Y-80074999D01*
X135450000Y-80074999D01*
X135899972Y-80074999D01*
X135899986Y-80074998D01*
X136002697Y-80064505D01*
X136169119Y-80009358D01*
X136169124Y-80009356D01*
X136318345Y-79917315D01*
X136442315Y-79793345D01*
X136534356Y-79644124D01*
X136534358Y-79644119D01*
X136589505Y-79477697D01*
X136589506Y-79477690D01*
X136599999Y-79374986D01*
X140500001Y-79374986D01*
X140510494Y-79477697D01*
X140565641Y-79644119D01*
X140565643Y-79644124D01*
X140657684Y-79793345D01*
X140781654Y-79917315D01*
X140930875Y-80009356D01*
X140930880Y-80009358D01*
X141097302Y-80064505D01*
X141097309Y-80064506D01*
X141200019Y-80074999D01*
X141649999Y-80074999D01*
X142150000Y-80074999D01*
X142599972Y-80074999D01*
X142599986Y-80074998D01*
X142702697Y-80064505D01*
X142869119Y-80009358D01*
X142869124Y-80009356D01*
X143018345Y-79917315D01*
X143142315Y-79793345D01*
X143234356Y-79644124D01*
X143234358Y-79644119D01*
X143289505Y-79477697D01*
X143289506Y-79477690D01*
X143299999Y-79374986D01*
X143300000Y-79374973D01*
X143300000Y-79162500D01*
X142150000Y-79162500D01*
X142150000Y-80074999D01*
X141649999Y-80074999D01*
X141650000Y-80074998D01*
X141650000Y-79162500D01*
X140500001Y-79162500D01*
X140500001Y-79374986D01*
X136599999Y-79374986D01*
X136600000Y-79374973D01*
X136600000Y-79162500D01*
X135450000Y-79162500D01*
X135450000Y-80074999D01*
X134949999Y-80074999D01*
X134950000Y-80074998D01*
X134950000Y-79162500D01*
X133800001Y-79162500D01*
X133800001Y-79374986D01*
X133249999Y-79374986D01*
X133250000Y-79374973D01*
X133250000Y-79162500D01*
X132100000Y-79162500D01*
X132100000Y-80074999D01*
X131599999Y-80074999D01*
X131600000Y-80074998D01*
X131600000Y-79162500D01*
X130450001Y-79162500D01*
X130450001Y-79374986D01*
X115805353Y-79374986D01*
X115806301Y-78450013D01*
X130450000Y-78450013D01*
X130450000Y-78662500D01*
X131600000Y-78662500D01*
X132100000Y-78662500D01*
X133249999Y-78662500D01*
X133249999Y-78450028D01*
X133249998Y-78450013D01*
X133800000Y-78450013D01*
X133800000Y-78662500D01*
X134950000Y-78662500D01*
X135450000Y-78662500D01*
X136599999Y-78662500D01*
X136599999Y-78450028D01*
X136599998Y-78450013D01*
X140500000Y-78450013D01*
X140500000Y-78662500D01*
X141650000Y-78662500D01*
X142150000Y-78662500D01*
X143299999Y-78662500D01*
X143299999Y-78450028D01*
X143299998Y-78450013D01*
X143289505Y-78347302D01*
X143234358Y-78180880D01*
X143234356Y-78180875D01*
X143142315Y-78031654D01*
X143018345Y-77907684D01*
X142869124Y-77815643D01*
X142869119Y-77815641D01*
X142702697Y-77760494D01*
X142702690Y-77760493D01*
X142599986Y-77750000D01*
X142150000Y-77750000D01*
X142150000Y-78662500D01*
X141650000Y-78662500D01*
X141650000Y-77750000D01*
X141200028Y-77750000D01*
X141200012Y-77750001D01*
X141097302Y-77760494D01*
X140930880Y-77815641D01*
X140930875Y-77815643D01*
X140781654Y-77907684D01*
X140657684Y-78031654D01*
X140565643Y-78180875D01*
X140565641Y-78180880D01*
X140510494Y-78347302D01*
X140510493Y-78347309D01*
X140500000Y-78450013D01*
X136599998Y-78450013D01*
X136589505Y-78347302D01*
X136534358Y-78180880D01*
X136534356Y-78180875D01*
X136442315Y-78031654D01*
X136318345Y-77907684D01*
X136169124Y-77815643D01*
X136169119Y-77815641D01*
X136002697Y-77760494D01*
X136002690Y-77760493D01*
X135899986Y-77750000D01*
X135450000Y-77750000D01*
X135450000Y-78662500D01*
X134950000Y-78662500D01*
X134950000Y-77750000D01*
X134500028Y-77750000D01*
X134500012Y-77750001D01*
X134397302Y-77760494D01*
X134230880Y-77815641D01*
X134230875Y-77815643D01*
X134081654Y-77907684D01*
X133957684Y-78031654D01*
X133865643Y-78180875D01*
X133865641Y-78180880D01*
X133810494Y-78347302D01*
X133810493Y-78347309D01*
X133800000Y-78450013D01*
X133249998Y-78450013D01*
X133239505Y-78347302D01*
X133184358Y-78180880D01*
X133184356Y-78180875D01*
X133092315Y-78031654D01*
X132968345Y-77907684D01*
X132819124Y-77815643D01*
X132819119Y-77815641D01*
X132652697Y-77760494D01*
X132652690Y-77760493D01*
X132549986Y-77750000D01*
X132100000Y-77750000D01*
X132100000Y-78662500D01*
X131600000Y-78662500D01*
X131600000Y-77750000D01*
X131150028Y-77750000D01*
X131150012Y-77750001D01*
X131047302Y-77760494D01*
X130880880Y-77815641D01*
X130880875Y-77815643D01*
X130731654Y-77907684D01*
X130607684Y-78031654D01*
X130515643Y-78180875D01*
X130515641Y-78180880D01*
X130460494Y-78347302D01*
X130460493Y-78347309D01*
X130450000Y-78450013D01*
X115806301Y-78450013D01*
X115817738Y-67287493D01*
X134414467Y-67287493D01*
X134414467Y-67287506D01*
X134434587Y-67761173D01*
X134494810Y-68231461D01*
X134594696Y-68694932D01*
X134594698Y-68694940D01*
X134733527Y-69148265D01*
X134733529Y-69148270D01*
X134910298Y-69588177D01*
X134910302Y-69588188D01*
X135123741Y-70011518D01*
X135123751Y-70011536D01*
X135372332Y-70415258D01*
X135654256Y-70796444D01*
X135654261Y-70796449D01*
X135654262Y-70796451D01*
X135967489Y-71152346D01*
X136309788Y-71480413D01*
X136309790Y-71480414D01*
X136678654Y-71778251D01*
X136678655Y-71778252D01*
X136719818Y-71806073D01*
X137071464Y-72043744D01*
X137244962Y-72140666D01*
X137485362Y-72274962D01*
X137485384Y-72274973D01*
X137917391Y-72470252D01*
X137917398Y-72470255D01*
X138364429Y-72628201D01*
X138823244Y-72747667D01*
X139290538Y-72827793D01*
X139436774Y-72840239D01*
X139762924Y-72867999D01*
X139762941Y-72867999D01*
X139762943Y-72868000D01*
X139762944Y-72868000D01*
X140237056Y-72868000D01*
X140237057Y-72868000D01*
X140237058Y-72867999D01*
X140237075Y-72867999D01*
X140518242Y-72844067D01*
X140709462Y-72827793D01*
X141176756Y-72747667D01*
X141635571Y-72628201D01*
X142082602Y-72470255D01*
X142514628Y-72274967D01*
X142928536Y-72043744D01*
X143321343Y-71778253D01*
X143690209Y-71480414D01*
X143690211Y-71480413D01*
X143690215Y-71480408D01*
X143690220Y-71480405D01*
X144032510Y-71152347D01*
X144345744Y-70796444D01*
X144627668Y-70415258D01*
X144876249Y-70011536D01*
X145089697Y-69588188D01*
X145266473Y-69148263D01*
X145405304Y-68694932D01*
X145505190Y-68231460D01*
X145565411Y-67761186D01*
X145585533Y-67287500D01*
X145565411Y-66813814D01*
X145505190Y-66343540D01*
X145405304Y-65880068D01*
X145266473Y-65426737D01*
X145089697Y-64986812D01*
X145089697Y-64986811D01*
X144876258Y-64563481D01*
X144876247Y-64563461D01*
X144672466Y-64232499D01*
X144627668Y-64159742D01*
X144345744Y-63778556D01*
X144332805Y-63763855D01*
X144032510Y-63422653D01*
X143690211Y-63094586D01*
X143690209Y-63094585D01*
X143321345Y-62796748D01*
X143321344Y-62796747D01*
X142945172Y-62542500D01*
X142928536Y-62531256D01*
X142917662Y-62525181D01*
X142514637Y-62300037D01*
X142514615Y-62300026D01*
X142082608Y-62104747D01*
X141635566Y-61946797D01*
X141176754Y-61827332D01*
X140709472Y-61747208D01*
X140709446Y-61747205D01*
X140237075Y-61707000D01*
X140237057Y-61707000D01*
X139762943Y-61707000D01*
X139762924Y-61707000D01*
X139290553Y-61747205D01*
X139290527Y-61747208D01*
X138823245Y-61827332D01*
X138364433Y-61946797D01*
X137917391Y-62104747D01*
X137485384Y-62300026D01*
X137485362Y-62300037D01*
X137071472Y-62531251D01*
X137071453Y-62531263D01*
X136678655Y-62796747D01*
X136678654Y-62796748D01*
X136309790Y-63094585D01*
X136309788Y-63094586D01*
X135967489Y-63422653D01*
X135654262Y-63778548D01*
X135372331Y-64159743D01*
X135123752Y-64563461D01*
X135123741Y-64563481D01*
X134910302Y-64986811D01*
X134910298Y-64986822D01*
X134733529Y-65426729D01*
X134733527Y-65426734D01*
X134594698Y-65880059D01*
X134594696Y-65880067D01*
X134494810Y-66343538D01*
X134434587Y-66813826D01*
X134414467Y-67287493D01*
X115817738Y-67287493D01*
X115824873Y-60323872D01*
X115844626Y-60256854D01*
X115897477Y-60211153D01*
X115948873Y-60200000D01*
X146470500Y-60200000D01*
X146537539Y-60219685D01*
G37*
%TD.AperFunction*%
%TA.AperFunction,Conductor*%
G36*
X144402350Y-82800000D02*
G01*
X143239705Y-82800000D01*
X143292508Y-82788000D01*
X144361483Y-82788000D01*
X144402350Y-82800000D01*
G37*
%TD.AperFunction*%
%TD*%
%TA.AperFunction,Conductor*%
%TO.N,+5V*%
G36*
X144820884Y-82868023D02*
G01*
X144777274Y-82992650D01*
X144774500Y-83022239D01*
X144774500Y-83727760D01*
X144777274Y-83757349D01*
X144820884Y-83881976D01*
X144899288Y-83988210D01*
X144899289Y-83988211D01*
X145005523Y-84066615D01*
X145005524Y-84066615D01*
X145005525Y-84066616D01*
X145130151Y-84110225D01*
X145130150Y-84110225D01*
X145159740Y-84113000D01*
X145159744Y-84113000D01*
X145740260Y-84113000D01*
X145769849Y-84110225D01*
X145821592Y-84092119D01*
X145894475Y-84066616D01*
X146000711Y-83988211D01*
X146079116Y-83881975D01*
X146122725Y-83757349D01*
X146125500Y-83727756D01*
X146125500Y-83022244D01*
X146122725Y-82992651D01*
X146079116Y-82868025D01*
X146067874Y-82852793D01*
X146028912Y-82800000D01*
X146750000Y-82800000D01*
X146926085Y-83398691D01*
X146892131Y-83437878D01*
X146892130Y-83437879D01*
X146834804Y-83563403D01*
X146834803Y-83563406D01*
X146815165Y-83700000D01*
X146834803Y-83836593D01*
X146834804Y-83836596D01*
X146892130Y-83962120D01*
X146892133Y-83962126D01*
X146936430Y-84013246D01*
X146965456Y-84076801D01*
X146955513Y-84145960D01*
X146930401Y-84182129D01*
X146909538Y-84202992D01*
X146909535Y-84202996D01*
X146869982Y-84271505D01*
X146869979Y-84271510D01*
X146857588Y-84317753D01*
X146849500Y-84347939D01*
X146849500Y-84427063D01*
X146863152Y-84478014D01*
X146869979Y-84503491D01*
X146869982Y-84503496D01*
X146909535Y-84572005D01*
X146909539Y-84572010D01*
X146909540Y-84572012D01*
X146965489Y-84627961D01*
X146965491Y-84627962D01*
X146965495Y-84627965D01*
X147034004Y-84667518D01*
X147034011Y-84667522D01*
X147110438Y-84688001D01*
X147189795Y-84688001D01*
X147221888Y-84692226D01*
X147223588Y-84692681D01*
X147223589Y-84692682D01*
X147246551Y-84698834D01*
X147306210Y-84735199D01*
X147333418Y-84783621D01*
X147641620Y-85831512D01*
X147641652Y-85901381D01*
X147603904Y-85960176D01*
X147540361Y-85989230D01*
X147522659Y-85990500D01*
X145423991Y-85990500D01*
X145368838Y-85996430D01*
X145317316Y-86007639D01*
X145290536Y-86014986D01*
X145202553Y-86065088D01*
X145149752Y-86110840D01*
X145149748Y-86110843D01*
X145149748Y-86110844D01*
X145117629Y-86144131D01*
X145117628Y-86144133D01*
X145117624Y-86144137D01*
X145108365Y-86161838D01*
X145059848Y-86212115D01*
X144999770Y-86228352D01*
X144305854Y-86235506D01*
X144238615Y-86216514D01*
X144192319Y-86164185D01*
X144181839Y-86129162D01*
X144165196Y-86013406D01*
X144162562Y-86007639D01*
X144139535Y-85957217D01*
X144107869Y-85887878D01*
X144017499Y-85783586D01*
X143901408Y-85708979D01*
X143807879Y-85681516D01*
X143769000Y-85670100D01*
X143768999Y-85670100D01*
X143631001Y-85670100D01*
X143631000Y-85670100D01*
X143575959Y-85686261D01*
X143498592Y-85708979D01*
X143498590Y-85708979D01*
X143498590Y-85708980D01*
X143382502Y-85783585D01*
X143382501Y-85783585D01*
X143382501Y-85783586D01*
X143340973Y-85831512D01*
X143292131Y-85887878D01*
X143292130Y-85887879D01*
X143237794Y-86006857D01*
X143192039Y-86059661D01*
X143124999Y-86079345D01*
X143057960Y-86059660D01*
X143012206Y-86006857D01*
X142976964Y-85929690D01*
X142957869Y-85887878D01*
X142940566Y-85867910D01*
X142930286Y-85856045D01*
X142901262Y-85792489D01*
X142900000Y-85774843D01*
X142900000Y-84600000D01*
X142900000Y-82800000D01*
X144871087Y-82800000D01*
X144820884Y-82868023D01*
G37*
%TD.AperFunction*%
%TD*%
M02*
