M48
; DRILL file {KiCad 8.0.4} date 2024-11-18T17:08:16-0800
; FORMAT={-:-/ absolute / inch / decimal}
; #@! TF.CreationDate,2024-11-18T17:08:16-08:00
; #@! TF.GenerationSoftware,Kicad,Pcbnew,8.0.4
; #@! TF.FileFunction,Plated,1,4,PTH
FMAT,2
INCH
; #@! TA.AperFunction,Plated,PTH,ComponentDrill
T1C0.0079
; #@! TA.AperFunction,Plated,PTH,ComponentDrill
T2C0.0080
; #@! TA.AperFunction,Plated,PTH,ViaDrill
T3C0.0100
; #@! TA.AperFunction,Plated,PTH,ComponentDrill
T4C0.0157
; #@! TA.AperFunction,Plated,PTH,ComponentDrill
T5C0.0236
; #@! TA.AperFunction,Plated,PTH,ComponentDrill
T6C0.0394
; #@! TA.AperFunction,Plated,PTH,ComponentDrill
T7C0.2402
%
G90
G05
T1
X6.2067Y-3.6654
X6.2067Y-3.7126
X6.2539Y-3.6654
X6.2539Y-3.7126
T2
X5.8346Y-3.3302
X5.8346Y-3.3716
X5.8346Y-3.4129
X5.878Y-3.3302
X5.878Y-3.3716
X5.878Y-3.4129
T3
X4.6772Y-3.2618
X5.0197Y-3.2003
X5.0472Y-3.4739
X5.1083Y-3.3504
X5.1083Y-3.3858
X5.1083Y-3.4252
X5.1142Y-3.5669
X5.1457Y-3.4252
X5.1772Y-3.4252
X5.1909Y-3.2913
X5.2205Y-3.4252
X5.2677Y-3.7598
X5.315Y-3.4252
X5.3228Y-3.2913
X5.3307Y-3.7598
X5.3465Y-3.378
X5.378Y-3.4016
X5.4134Y-3.4252
X5.4528Y-3.4252
X5.5669Y-3.5945
X5.5669Y-3.689
X5.6122Y-3.3917
X5.6575Y-3.3917
X5.7264Y-3.2377
X5.7382Y-3.4094
X5.7638Y-2.8425
X5.7657Y-3.4094
X5.7992Y-3.2953
X5.8343Y-2.5866
X5.8896Y-2.5866
X5.8937Y-3.533
X5.9449Y-2.5866
X5.9882Y-3.2598
X5.9882Y-3.2913
X5.9882Y-3.3287
X5.9882Y-3.3602
X6.0003Y-2.5866
X6.0335Y-3.2598
X6.0335Y-3.2913
X6.0335Y-3.3287
X6.0335Y-3.3602
X6.0556Y-2.5866
X6.0925Y-3.2598
X6.0925Y-3.2913
X6.1024Y-3.1772
X6.1109Y-2.5866
X6.1378Y-3.2598
X6.1378Y-3.2913
X6.1598Y-3.8268
X6.1598Y-3.872
X6.1662Y-2.5866
X6.1752Y-3.4921
X6.1924Y-3.8268
X6.1924Y-3.872
X6.2216Y-2.5866
X6.2249Y-3.8268
X6.2249Y-3.872
X6.25Y-3.3725
X6.2575Y-3.8268
X6.2575Y-3.872
X6.2769Y-2.5866
X6.3251Y-3.6568
X6.3322Y-2.5866
X6.3876Y-2.5866
X6.4429Y-2.5866
X6.4783Y-3.2382
T4
X6.4104Y-3.5969
X6.4104Y-3.6304
X6.4104Y-3.6639
X6.4104Y-3.6973
X6.4104Y-3.7308
X6.4104Y-3.7643
X6.4104Y-3.7977
X6.4104Y-3.8312
X6.4636Y-3.5969
X6.4636Y-3.6304
X6.4636Y-3.6639
X6.4636Y-3.6973
X6.4636Y-3.7308
X6.4636Y-3.7643
X6.4636Y-3.7977
X6.4636Y-3.8312
T6
X5.9205Y-2.4956
X6.0205Y-2.4956
X6.1205Y-2.4956
X6.2205Y-2.4956
X6.3205Y-2.4956
T7
X4.8209Y-2.6491
X5.5118Y-2.6491
T5
G00X6.4195Y-3.5438
M15
G01X6.4785Y-3.5438
M16
G05
G00X6.4195Y-3.8844
M15
G01X6.4785Y-3.8844
M16
G05
G00X6.5663Y-3.5438
M15
G01X6.5978Y-3.5438
M16
G05
G00X6.5663Y-3.8844
M15
G01X6.5978Y-3.8844
M16
G05
M30
