%TF.GenerationSoftware,KiCad,Pcbnew,8.0.4*%
%TF.CreationDate,2024-11-18T17:08:07-08:00*%
%TF.ProjectId,USBC_UART_Dock_Prototype,55534243-5f55-4415-9254-5f446f636b5f,rev?*%
%TF.SameCoordinates,Original*%
%TF.FileFunction,Paste,Top*%
%TF.FilePolarity,Positive*%
%FSLAX46Y46*%
G04 Gerber Fmt 4.6, Leading zero omitted, Abs format (unit mm)*
G04 Created by KiCad (PCBNEW 8.0.4) date 2024-11-18 17:08:07*
%MOMM*%
%LPD*%
G01*
G04 APERTURE LIST*
G04 Aperture macros list*
%AMRoundRect*
0 Rectangle with rounded corners*
0 $1 Rounding radius*
0 $2 $3 $4 $5 $6 $7 $8 $9 X,Y pos of 4 corners*
0 Add a 4 corners polygon primitive as box body*
4,1,4,$2,$3,$4,$5,$6,$7,$8,$9,$2,$3,0*
0 Add four circle primitives for the rounded corners*
1,1,$1+$1,$2,$3*
1,1,$1+$1,$4,$5*
1,1,$1+$1,$6,$7*
1,1,$1+$1,$8,$9*
0 Add four rect primitives between the rounded corners*
20,1,$1+$1,$2,$3,$4,$5,0*
20,1,$1+$1,$4,$5,$6,$7,0*
20,1,$1+$1,$6,$7,$8,$9,0*
20,1,$1+$1,$8,$9,$2,$3,0*%
G04 Aperture macros list end*
%ADD10C,0.000000*%
%ADD11RoundRect,0.250000X-0.625000X0.400000X-0.625000X-0.400000X0.625000X-0.400000X0.625000X0.400000X0*%
%ADD12RoundRect,0.162500X-0.162500X0.617500X-0.162500X-0.617500X0.162500X-0.617500X0.162500X0.617500X0*%
%ADD13RoundRect,0.250000X-0.412500X-0.650000X0.412500X-0.650000X0.412500X0.650000X-0.412500X0.650000X0*%
%ADD14RoundRect,0.250000X0.650000X-0.412500X0.650000X0.412500X-0.650000X0.412500X-0.650000X-0.412500X0*%
%ADD15RoundRect,0.250000X-0.650000X0.412500X-0.650000X-0.412500X0.650000X-0.412500X0.650000X0.412500X0*%
%ADD16RoundRect,0.250000X0.412500X0.650000X-0.412500X0.650000X-0.412500X-0.650000X0.412500X-0.650000X0*%
%ADD17RoundRect,0.250000X0.450000X-0.325000X0.450000X0.325000X-0.450000X0.325000X-0.450000X-0.325000X0*%
%ADD18RoundRect,0.237500X-0.237500X0.300000X-0.237500X-0.300000X0.237500X-0.300000X0.237500X0.300000X0*%
%ADD19RoundRect,0.250000X-0.400000X-0.625000X0.400000X-0.625000X0.400000X0.625000X-0.400000X0.625000X0*%
%ADD20RoundRect,0.125000X-0.625000X-0.125000X0.625000X-0.125000X0.625000X0.125000X-0.625000X0.125000X0*%
%ADD21RoundRect,0.125000X-0.125000X-0.625000X0.125000X-0.625000X0.125000X0.625000X-0.125000X0.625000X0*%
%ADD22RoundRect,0.237500X0.237500X-0.300000X0.237500X0.300000X-0.237500X0.300000X-0.237500X-0.300000X0*%
%ADD23RoundRect,0.172500X0.172500X0.172500X-0.172500X0.172500X-0.172500X-0.172500X0.172500X-0.172500X0*%
%ADD24RoundRect,0.050000X0.362500X0.050000X-0.362500X0.050000X-0.362500X-0.050000X0.362500X-0.050000X0*%
%ADD25RoundRect,0.050000X0.050000X0.362500X-0.050000X0.362500X-0.050000X-0.362500X0.050000X-0.362500X0*%
%ADD26R,2.000000X4.500000*%
%ADD27RoundRect,0.237500X-0.300000X-0.237500X0.300000X-0.237500X0.300000X0.237500X-0.300000X0.237500X0*%
%ADD28RoundRect,0.250000X0.625000X-0.400000X0.625000X0.400000X-0.625000X0.400000X-0.625000X-0.400000X0*%
%ADD29O,0.599999X0.200000*%
%ADD30O,0.200000X0.599999*%
G04 APERTURE END LIST*
D10*
%TO.C,U2*%
G36*
X149484999Y-85537501D02*
G01*
X148014999Y-85537501D01*
X148014999Y-84387501D01*
X149484999Y-84387501D01*
X149484999Y-85537501D01*
G37*
G36*
X149484999Y-86887501D02*
G01*
X148014999Y-86887501D01*
X148014999Y-85737501D01*
X149484999Y-85737501D01*
X149484999Y-86887501D01*
G37*
%TD*%
D11*
%TO.C,R8*%
X161900000Y-69760000D03*
X161900000Y-72860000D03*
%TD*%
D12*
%TO.C,U5*%
X128450000Y-82987500D03*
X127500000Y-82987500D03*
X126550000Y-82987500D03*
X126550000Y-85687500D03*
X128450000Y-85687500D03*
%TD*%
D13*
%TO.C,C10*%
X156837500Y-90137500D03*
X159962500Y-90137500D03*
%TD*%
D14*
%TO.C,C8*%
X149700000Y-94087500D03*
X149700000Y-90962500D03*
%TD*%
D15*
%TO.C,C4*%
X135200000Y-78912500D03*
X135200000Y-82037500D03*
%TD*%
D16*
%TO.C,C1*%
X123062500Y-86000000D03*
X119937500Y-86000000D03*
%TD*%
D15*
%TO.C,C9*%
X149750000Y-95987500D03*
X149750000Y-99112500D03*
%TD*%
D11*
%TO.C,R7*%
X158650000Y-69760000D03*
X158650000Y-72860000D03*
%TD*%
%TO.C,R5*%
X151850000Y-69760000D03*
X151850000Y-72860000D03*
%TD*%
%TO.C,R4*%
X148200000Y-69760000D03*
X148200000Y-72860000D03*
%TD*%
%TO.C,R6*%
X155400000Y-69760000D03*
X155400000Y-72860000D03*
%TD*%
D17*
%TO.C,D1*%
X148200000Y-78560000D03*
X148200000Y-76510000D03*
%TD*%
%TO.C,D5*%
X161784000Y-78560000D03*
X161784000Y-76510000D03*
%TD*%
D14*
%TO.C,C12*%
X160300000Y-85662500D03*
X160300000Y-82537500D03*
%TD*%
D16*
%TO.C,C16*%
X123275000Y-82837500D03*
X120150000Y-82837500D03*
%TD*%
D17*
%TO.C,D2*%
X151596000Y-78560000D03*
X151596000Y-76510000D03*
%TD*%
D18*
%TO.C,C13*%
X134500000Y-99237500D03*
X134500000Y-100962500D03*
%TD*%
D13*
%TO.C,C17*%
X131137500Y-85400000D03*
X134262500Y-85400000D03*
%TD*%
D11*
%TO.C,R9*%
X165550000Y-69760000D03*
X165550000Y-72860000D03*
%TD*%
D17*
%TO.C,D3*%
X154992000Y-78560000D03*
X154992000Y-76510000D03*
%TD*%
D15*
%TO.C,C5*%
X131850000Y-78912500D03*
X131850000Y-82037500D03*
%TD*%
D19*
%TO.C,R3*%
X144150000Y-93850000D03*
X147250000Y-93850000D03*
%TD*%
D20*
%TO.C,U1*%
X131225000Y-89787500D03*
X131225000Y-90587500D03*
X131225000Y-91387500D03*
X131225000Y-92187500D03*
X131225000Y-92987500D03*
X131225000Y-93787500D03*
X131225000Y-94587500D03*
X131225000Y-95387500D03*
D21*
X132600000Y-96762500D03*
X133400000Y-96762500D03*
X134200000Y-96762500D03*
X135000000Y-96762500D03*
X135800000Y-96762500D03*
X136600000Y-96762500D03*
X137400000Y-96762500D03*
X138200000Y-96762500D03*
D20*
X139575000Y-95387500D03*
X139575000Y-94587500D03*
X139575000Y-93787500D03*
X139575000Y-92987500D03*
X139575000Y-92187500D03*
X139575000Y-91387500D03*
X139575000Y-90587500D03*
X139575000Y-89787500D03*
D21*
X138200000Y-88412500D03*
X137400000Y-88412500D03*
X136600000Y-88412500D03*
X135800000Y-88412500D03*
X135000000Y-88412500D03*
X134200000Y-88412500D03*
X133400000Y-88412500D03*
X132600000Y-88412500D03*
%TD*%
D22*
%TO.C,C7*%
X145450000Y-85100000D03*
X145450000Y-83375000D03*
%TD*%
D16*
%TO.C,C3*%
X122962500Y-102000000D03*
X119837500Y-102000000D03*
%TD*%
D19*
%TO.C,R2*%
X144150000Y-96200000D03*
X147250000Y-96200000D03*
%TD*%
D23*
%TO.C,U3*%
X158675000Y-94125000D03*
X158675000Y-93275000D03*
X157825000Y-94125000D03*
X157825000Y-93275000D03*
D24*
X159712500Y-94500000D03*
X159712500Y-94100000D03*
X159712500Y-93700000D03*
X159712500Y-93300000D03*
X159712500Y-92900000D03*
D25*
X159050000Y-92237500D03*
X158650000Y-92237500D03*
X158250000Y-92237500D03*
X157850000Y-92237500D03*
X157450000Y-92237500D03*
D24*
X156787500Y-92900000D03*
X156787500Y-93300000D03*
X156787500Y-93700000D03*
X156787500Y-94100000D03*
X156787500Y-94500000D03*
D25*
X157450000Y-95162500D03*
X157850000Y-95162500D03*
X158250000Y-95162500D03*
X158650000Y-95162500D03*
X159050000Y-95162500D03*
%TD*%
D26*
%TO.C,Y1*%
X123000000Y-89750000D03*
X123000000Y-98250000D03*
%TD*%
D27*
%TO.C,C11*%
X162587500Y-88037500D03*
X164312500Y-88037500D03*
%TD*%
D17*
%TO.C,D6*%
X165180000Y-78560000D03*
X165180000Y-76510000D03*
%TD*%
D15*
%TO.C,C2*%
X141900000Y-78912500D03*
X141900000Y-82037500D03*
%TD*%
D28*
%TO.C,R1*%
X145900000Y-91687500D03*
X145900000Y-88587500D03*
%TD*%
D22*
%TO.C,C6*%
X128200000Y-91050000D03*
X128200000Y-89325000D03*
%TD*%
D29*
%TO.C,U2*%
X147349999Y-84387501D03*
X147349999Y-84887500D03*
X147349999Y-85387501D03*
X147349999Y-85887501D03*
X147349999Y-86387502D03*
X147349999Y-86887501D03*
D30*
X147999998Y-87537500D03*
X148499999Y-87537500D03*
X148999999Y-87537500D03*
X149500000Y-87537500D03*
D29*
X150149999Y-86887501D03*
X150149999Y-86387502D03*
X150149999Y-85887501D03*
X150149999Y-85387501D03*
X150149999Y-84887500D03*
X150149999Y-84387501D03*
D30*
X149500000Y-83737502D03*
X148999999Y-83737502D03*
X148499999Y-83737502D03*
X147999998Y-83737502D03*
%TD*%
D17*
%TO.C,D4*%
X158388000Y-78560000D03*
X158388000Y-76510000D03*
%TD*%
M02*
