%TF.GenerationSoftware,KiCad,Pcbnew,8.0.4*%
%TF.CreationDate,2024-11-18T17:08:07-08:00*%
%TF.ProjectId,USBC_UART_Dock_Prototype,55534243-5f55-4415-9254-5f446f636b5f,rev?*%
%TF.SameCoordinates,Original*%
%TF.FileFunction,Copper,L4,Bot*%
%TF.FilePolarity,Positive*%
%FSLAX46Y46*%
G04 Gerber Fmt 4.6, Leading zero omitted, Abs format (unit mm)*
G04 Created by KiCad (PCBNEW 8.0.4) date 2024-11-18 17:08:07*
%MOMM*%
%LPD*%
G01*
G04 APERTURE LIST*
%TA.AperFunction,ComponentPad*%
%ADD10C,10.160000*%
%TD*%
%TA.AperFunction,ComponentPad*%
%ADD11C,0.700000*%
%TD*%
%TA.AperFunction,ComponentPad*%
%ADD12O,2.400000X0.900000*%
%TD*%
%TA.AperFunction,ComponentPad*%
%ADD13O,1.700000X0.900000*%
%TD*%
%TA.AperFunction,HeatsinkPad*%
%ADD14C,0.500000*%
%TD*%
%TA.AperFunction,HeatsinkPad*%
%ADD15R,1.700000X1.700000*%
%TD*%
%TA.AperFunction,ComponentPad*%
%ADD16O,1.700000X1.700000*%
%TD*%
%TA.AperFunction,ComponentPad*%
%ADD17R,1.700000X1.700000*%
%TD*%
%TA.AperFunction,ComponentPad*%
%ADD18C,0.499999*%
%TD*%
%TA.AperFunction,ViaPad*%
%ADD19C,0.558800*%
%TD*%
%TA.AperFunction,Conductor*%
%ADD20C,0.254000*%
%TD*%
%TA.AperFunction,Conductor*%
%ADD21C,0.266700*%
%TD*%
G04 APERTURE END LIST*
D10*
%TO.P,J1,1,Pin_1*%
%TO.N,+5V*%
X122450000Y-67287500D03*
%TD*%
D11*
%TO.P,J4,A1,GND*%
%TO.N,GND*%
X162825000Y-97312500D03*
%TO.P,J4,A4,VBUS*%
%TO.N,+VUSB*%
X162825000Y-96462500D03*
%TO.P,J4,A5,CC1*%
%TO.N,/CONN_USB_CC1*%
X162825000Y-95612500D03*
%TO.P,J4,A6,D+*%
%TO.N,/CONN_USB_D+*%
X162825000Y-94762500D03*
%TO.P,J4,A7,D-*%
%TO.N,/CONN_USB_D-*%
X162825000Y-93912500D03*
%TO.P,J4,A8,SBU1*%
%TO.N,unconnected-(J4-SBU1-PadA8)*%
X162825000Y-93062500D03*
%TO.P,J4,A9,VBUS*%
%TO.N,+VUSB*%
X162825000Y-92212500D03*
%TO.P,J4,A12,GND*%
%TO.N,GND*%
X162825000Y-91362500D03*
%TO.P,J4,B1,GND*%
X164175000Y-91362500D03*
%TO.P,J4,B4,VBUS*%
%TO.N,+VUSB*%
X164175000Y-92212500D03*
%TO.P,J4,B5,CC2*%
%TO.N,/CONN_USB_CC2*%
X164175000Y-93062500D03*
%TO.P,J4,B6,D+*%
%TO.N,/CONN_USB_D+*%
X164175000Y-93912500D03*
%TO.P,J4,B7,D-*%
%TO.N,/CONN_USB_D-*%
X164175000Y-94762500D03*
%TO.P,J4,B8,SBU2*%
%TO.N,unconnected-(J4-SBU2-PadB8)*%
X164175000Y-95612500D03*
%TO.P,J4,B9,VBUS*%
%TO.N,+VUSB*%
X164175000Y-96462500D03*
%TO.P,J4,B12,GND*%
%TO.N,GND*%
X164175000Y-97312500D03*
D12*
%TO.P,J4,S1,SHIELD*%
X163805000Y-98662500D03*
D13*
X167185000Y-98662500D03*
D12*
X163805000Y-90012500D03*
D13*
X167185000Y-90012500D03*
%TD*%
D10*
%TO.P,J2,1,Pin_1*%
%TO.N,GND*%
X140000000Y-67287500D03*
%TD*%
D14*
%TO.P,U3,21,GND*%
%TO.N,GND*%
X158850000Y-94300000D03*
X158850000Y-93100000D03*
D15*
X158250000Y-93700000D03*
D14*
X157650000Y-94300000D03*
X157650000Y-93100000D03*
%TD*%
D16*
%TO.P,J3,5,Pin_5*%
%TO.N,GND*%
X160540000Y-63387500D03*
%TO.P,J3,4,Pin_4*%
%TO.N,/UART_TX*%
X158000000Y-63387500D03*
%TO.P,J3,3,Pin_3*%
%TO.N,/UART_RX*%
X155460000Y-63387500D03*
%TO.P,J3,2,Pin_2*%
%TO.N,/RTS*%
X152920000Y-63387500D03*
D17*
%TO.P,J3,1,Pin_1*%
%TO.N,/CTS*%
X150380000Y-63387500D03*
%TD*%
D18*
%TO.P,U2,V*%
%TO.N,GND*%
X148200000Y-84587501D03*
X148200000Y-85637501D03*
X148200000Y-86687501D03*
X149299998Y-84587501D03*
X149299998Y-85637501D03*
X149299998Y-86687501D03*
%TD*%
D19*
%TO.N,/nPWR_FLT*%
X155000000Y-80700000D03*
X147300000Y-83700000D03*
%TO.N,GND*%
X141400000Y-93700000D03*
%TO.N,+3.3V*%
X141400000Y-91300000D03*
X135400000Y-95500000D03*
X133800000Y-95500000D03*
%TO.N,GND*%
X158113632Y-98350000D03*
X118800000Y-82850000D03*
X158940905Y-97200000D03*
X156459090Y-97200000D03*
X135200000Y-83600000D03*
X156459090Y-98350000D03*
X158113632Y-97200000D03*
X128200000Y-88237500D03*
X149700000Y-89737500D03*
X157286361Y-98350000D03*
X127500000Y-81287500D03*
X131850000Y-83600000D03*
X157286361Y-97200000D03*
X145450000Y-82237500D03*
X158940905Y-98350000D03*
X136600000Y-86400000D03*
%TO.N,+3.3V*%
X160839086Y-65700000D03*
X158028178Y-65700000D03*
X156850000Y-88700000D03*
X129750000Y-85100000D03*
X155217270Y-65700000D03*
X129750000Y-87000000D03*
X130700000Y-87000000D03*
X135800000Y-85800000D03*
X162244540Y-65700000D03*
X131500000Y-87000000D03*
X151000908Y-65700000D03*
X146450000Y-86600000D03*
X159433632Y-65700000D03*
X145750000Y-86600000D03*
X148190000Y-65700000D03*
X149595454Y-65700000D03*
X156622724Y-65700000D03*
X129750000Y-86000000D03*
X152406362Y-65700000D03*
X163650000Y-65700000D03*
X153811816Y-65700000D03*
X129900000Y-90600000D03*
%TO.N,/nUSB_ERROR*%
X146400000Y-72200000D03*
X132600000Y-87000000D03*
%TO.N,/TX_ACTIVE*%
X135000000Y-87000000D03*
X164550000Y-82250000D03*
%TO.N,/UART_TX*%
X143700000Y-86150000D03*
%TO.N,/RTS*%
X138500000Y-87000000D03*
%TO.N,/UART_RX*%
X142550000Y-86150000D03*
%TO.N,+VUSB*%
X152100000Y-82800000D03*
X153250000Y-82800000D03*
X154750000Y-83600000D03*
X153250000Y-83600000D03*
X152100000Y-83600000D03*
X152100000Y-85350000D03*
X155900000Y-82800000D03*
X154750000Y-82800000D03*
X152100000Y-84550000D03*
X153250000Y-85350000D03*
X155900000Y-83600000D03*
X153250000Y-84550000D03*
X158750000Y-85662500D03*
%TO.N,/CTS*%
X137500000Y-87000000D03*
%TO.N,/CONN_USB_CC1*%
X160658399Y-92882654D03*
%TD*%
D20*
%TO.N,/nPWR_FLT*%
X147300000Y-83700000D02*
X150300000Y-80700000D01*
X150300000Y-80700000D02*
X155000000Y-80700000D01*
D21*
%TO.N,/CONN_USB_D-*%
X164175000Y-94762500D02*
X163982229Y-94762500D01*
X163982229Y-94762500D02*
X163132229Y-93912500D01*
X163132229Y-93912500D02*
X162825000Y-93912500D01*
D20*
%TO.N,/TX_ACTIVE*%
X135000000Y-87000000D02*
X135660400Y-87660400D01*
X135660400Y-87660400D02*
X159139600Y-87660400D01*
X159139600Y-87660400D02*
X164550000Y-82250000D01*
%TO.N,/nUSB_ERROR*%
X132600000Y-87000000D02*
X132600000Y-85266053D01*
X132600000Y-85266053D02*
X145666053Y-72200000D01*
X145666053Y-72200000D02*
X146400000Y-72200000D01*
%TO.N,/CTS*%
X137500000Y-87000000D02*
X150255854Y-74244146D01*
X150255854Y-74244146D02*
X150255854Y-63511646D01*
X150255854Y-63511646D02*
X150380000Y-63387500D01*
%TO.N,/RTS*%
X138500000Y-87000000D02*
X151745962Y-73754038D01*
X151745962Y-73754038D02*
X151745962Y-64561538D01*
X151745962Y-64561538D02*
X152920000Y-63387500D01*
%TO.N,/UART_RX*%
X142550000Y-86150000D02*
X155877670Y-72822330D01*
X155877670Y-72822330D02*
X155877670Y-63805170D01*
X155877670Y-63805170D02*
X155460000Y-63387500D01*
%TO.N,/UART_TX*%
X143700000Y-86150000D02*
X157367778Y-72482222D01*
X157367778Y-72482222D02*
X157367778Y-64019722D01*
X157367778Y-64019722D02*
X158000000Y-63387500D01*
%TO.N,/CONN_USB_CC1*%
X160658399Y-92882654D02*
X160658399Y-93940873D01*
X160658399Y-93940873D02*
X162330026Y-95612500D01*
X162330026Y-95612500D02*
X162825000Y-95612500D01*
%TD*%
%TA.AperFunction,Conductor*%
%TO.N,GND*%
G36*
X168492539Y-60020185D02*
G01*
X168538294Y-60072989D01*
X168549500Y-60124500D01*
X168549500Y-104226000D01*
X168529815Y-104293039D01*
X168477011Y-104338794D01*
X168425500Y-104350000D01*
X115624500Y-104350000D01*
X115557461Y-104330315D01*
X115511706Y-104277511D01*
X115500500Y-104226000D01*
X115500500Y-98412499D01*
X162396550Y-98412499D01*
X162396550Y-98412500D01*
X162888012Y-98412500D01*
X162870795Y-98422440D01*
X162814940Y-98478295D01*
X162775444Y-98546704D01*
X162755000Y-98623004D01*
X162755000Y-98701996D01*
X162775444Y-98778296D01*
X162814940Y-98846705D01*
X162870795Y-98902560D01*
X162888012Y-98912500D01*
X162396550Y-98912500D01*
X162431124Y-98995971D01*
X162508164Y-99111269D01*
X162508170Y-99111277D01*
X162606222Y-99209329D01*
X162606230Y-99209335D01*
X162721528Y-99286375D01*
X162721532Y-99286377D01*
X162849646Y-99339443D01*
X162849656Y-99339446D01*
X162985659Y-99366500D01*
X163555000Y-99366500D01*
X163555000Y-98962500D01*
X164055000Y-98962500D01*
X164055000Y-99366500D01*
X164624340Y-99366500D01*
X164760343Y-99339446D01*
X164760353Y-99339443D01*
X164888467Y-99286377D01*
X164888471Y-99286375D01*
X165003769Y-99209335D01*
X165003777Y-99209329D01*
X165101829Y-99111277D01*
X165101835Y-99111269D01*
X165178875Y-98995971D01*
X165213450Y-98912500D01*
X164721988Y-98912500D01*
X164739205Y-98902560D01*
X164795060Y-98846705D01*
X164834556Y-98778296D01*
X164855000Y-98701996D01*
X164855000Y-98623004D01*
X164834556Y-98546704D01*
X164795060Y-98478295D01*
X164739205Y-98422440D01*
X164721988Y-98412500D01*
X165213450Y-98412500D01*
X165213449Y-98412499D01*
X166126550Y-98412499D01*
X166126550Y-98412500D01*
X166618012Y-98412500D01*
X166600795Y-98422440D01*
X166544940Y-98478295D01*
X166505444Y-98546704D01*
X166485000Y-98623004D01*
X166485000Y-98701996D01*
X166505444Y-98778296D01*
X166544940Y-98846705D01*
X166600795Y-98902560D01*
X166618012Y-98912500D01*
X166126550Y-98912500D01*
X166161124Y-98995971D01*
X166238164Y-99111269D01*
X166238170Y-99111277D01*
X166336222Y-99209329D01*
X166336230Y-99209335D01*
X166451528Y-99286375D01*
X166451532Y-99286377D01*
X166579646Y-99339443D01*
X166579656Y-99339446D01*
X166715659Y-99366500D01*
X166935000Y-99366500D01*
X166935000Y-98962500D01*
X167435000Y-98962500D01*
X167435000Y-99366500D01*
X167654340Y-99366500D01*
X167790343Y-99339446D01*
X167790353Y-99339443D01*
X167918467Y-99286377D01*
X167918471Y-99286375D01*
X168033769Y-99209335D01*
X168033777Y-99209329D01*
X168131829Y-99111277D01*
X168131835Y-99111269D01*
X168208875Y-98995971D01*
X168243450Y-98912500D01*
X167751988Y-98912500D01*
X167769205Y-98902560D01*
X167825060Y-98846705D01*
X167864556Y-98778296D01*
X167885000Y-98701996D01*
X167885000Y-98623004D01*
X167864556Y-98546704D01*
X167825060Y-98478295D01*
X167769205Y-98422440D01*
X167751988Y-98412500D01*
X168243450Y-98412500D01*
X168243449Y-98412499D01*
X168208875Y-98329028D01*
X168131835Y-98213730D01*
X168131829Y-98213722D01*
X168033777Y-98115670D01*
X168033769Y-98115664D01*
X167918471Y-98038624D01*
X167918467Y-98038622D01*
X167790353Y-97985556D01*
X167790343Y-97985553D01*
X167654340Y-97958500D01*
X167435000Y-97958500D01*
X167435000Y-98362500D01*
X166935000Y-98362500D01*
X166935000Y-97958500D01*
X166715660Y-97958500D01*
X166579656Y-97985553D01*
X166579646Y-97985556D01*
X166451532Y-98038622D01*
X166451528Y-98038624D01*
X166336230Y-98115664D01*
X166336222Y-98115670D01*
X166238170Y-98213722D01*
X166238164Y-98213730D01*
X166161124Y-98329028D01*
X166126550Y-98412499D01*
X165213449Y-98412499D01*
X165178875Y-98329028D01*
X165101835Y-98213730D01*
X165101829Y-98213722D01*
X165003777Y-98115670D01*
X165003769Y-98115664D01*
X164888471Y-98038624D01*
X164888467Y-98038622D01*
X164760353Y-97985556D01*
X164760343Y-97985553D01*
X164624340Y-97958500D01*
X164518808Y-97958500D01*
X164451769Y-97938815D01*
X164431126Y-97922181D01*
X164175000Y-97666053D01*
X163918871Y-97922181D01*
X163857548Y-97955666D01*
X163831190Y-97958500D01*
X163168808Y-97958500D01*
X163101769Y-97938815D01*
X163081126Y-97922181D01*
X162825000Y-97666053D01*
X162612717Y-97878334D01*
X162613649Y-97878720D01*
X162668053Y-97922562D01*
X162690117Y-97988856D01*
X162672837Y-98056555D01*
X162635087Y-98096383D01*
X162606226Y-98115667D01*
X162606222Y-98115670D01*
X162508170Y-98213722D01*
X162508164Y-98213730D01*
X162431124Y-98329028D01*
X162396550Y-98412499D01*
X115500500Y-98412499D01*
X115500500Y-95499998D01*
X133261493Y-95499998D01*
X133261493Y-95500001D01*
X133279841Y-95639374D01*
X133279843Y-95639379D01*
X133333637Y-95769252D01*
X133333639Y-95769255D01*
X133419217Y-95880781D01*
X133419218Y-95880782D01*
X133530744Y-95966360D01*
X133530747Y-95966362D01*
X133597475Y-95994001D01*
X133660624Y-96020158D01*
X133713977Y-96027182D01*
X133799999Y-96038507D01*
X133800000Y-96038507D01*
X133800001Y-96038507D01*
X133846458Y-96032390D01*
X133939376Y-96020158D01*
X134045264Y-95976297D01*
X134069252Y-95966362D01*
X134069255Y-95966360D01*
X134074920Y-95962013D01*
X134180782Y-95880782D01*
X134266361Y-95769254D01*
X134320158Y-95639376D01*
X134338507Y-95500000D01*
X134338507Y-95499998D01*
X134861493Y-95499998D01*
X134861493Y-95500001D01*
X134879841Y-95639374D01*
X134879843Y-95639379D01*
X134933637Y-95769252D01*
X134933639Y-95769255D01*
X135019217Y-95880781D01*
X135019218Y-95880782D01*
X135130744Y-95966360D01*
X135130747Y-95966362D01*
X135197475Y-95994001D01*
X135260624Y-96020158D01*
X135313977Y-96027182D01*
X135399999Y-96038507D01*
X135400000Y-96038507D01*
X135400001Y-96038507D01*
X135446458Y-96032390D01*
X135539376Y-96020158D01*
X135645264Y-95976297D01*
X135669252Y-95966362D01*
X135669255Y-95966360D01*
X135674920Y-95962013D01*
X135780782Y-95880782D01*
X135866361Y-95769254D01*
X135920158Y-95639376D01*
X135938507Y-95500000D01*
X135932542Y-95454694D01*
X135924544Y-95393937D01*
X135920158Y-95360624D01*
X135866361Y-95230747D01*
X135780782Y-95119218D01*
X135780780Y-95119217D01*
X135780780Y-95119216D01*
X135669254Y-95033639D01*
X135669252Y-95033637D01*
X135539379Y-94979843D01*
X135539374Y-94979841D01*
X135400001Y-94961493D01*
X135399999Y-94961493D01*
X135260625Y-94979841D01*
X135260620Y-94979843D01*
X135130751Y-95033636D01*
X135130750Y-95033637D01*
X135130747Y-95033638D01*
X135130747Y-95033639D01*
X135019218Y-95119218D01*
X134958906Y-95197819D01*
X134933637Y-95230750D01*
X134933636Y-95230751D01*
X134879843Y-95360620D01*
X134879841Y-95360625D01*
X134861493Y-95499998D01*
X134338507Y-95499998D01*
X134332542Y-95454694D01*
X134324544Y-95393937D01*
X134320158Y-95360624D01*
X134266361Y-95230747D01*
X134180782Y-95119218D01*
X134180780Y-95119217D01*
X134180780Y-95119216D01*
X134069254Y-95033639D01*
X134069252Y-95033637D01*
X133939379Y-94979843D01*
X133939374Y-94979841D01*
X133800001Y-94961493D01*
X133799999Y-94961493D01*
X133660625Y-94979841D01*
X133660620Y-94979843D01*
X133530751Y-95033636D01*
X133530750Y-95033637D01*
X133530747Y-95033638D01*
X133530747Y-95033639D01*
X133419218Y-95119218D01*
X133358906Y-95197819D01*
X133333637Y-95230750D01*
X133333636Y-95230751D01*
X133279843Y-95360620D01*
X133279841Y-95360625D01*
X133261493Y-95499998D01*
X115500500Y-95499998D01*
X115500500Y-92882652D01*
X160119892Y-92882652D01*
X160119892Y-92882655D01*
X160138240Y-93022028D01*
X160138242Y-93022033D01*
X160192036Y-93151906D01*
X160192038Y-93151909D01*
X160251274Y-93229105D01*
X160276469Y-93294274D01*
X160276899Y-93304592D01*
X160276899Y-93991098D01*
X160296398Y-94063869D01*
X160302898Y-94088128D01*
X160302899Y-94088129D01*
X160352221Y-94173558D01*
X160353124Y-94175122D01*
X162020409Y-95842405D01*
X162020419Y-95842416D01*
X162024749Y-95846746D01*
X162024750Y-95846747D01*
X162095779Y-95917776D01*
X162095781Y-95917777D01*
X162095782Y-95917778D01*
X162131424Y-95938355D01*
X162131426Y-95938357D01*
X162131427Y-95938357D01*
X162179930Y-95966361D01*
X162182773Y-95968002D01*
X162220398Y-95978083D01*
X162280057Y-96014448D01*
X162310586Y-96077295D01*
X162302291Y-96146671D01*
X162297782Y-96155680D01*
X162236061Y-96304690D01*
X162236060Y-96304694D01*
X162215284Y-96462499D01*
X162215284Y-96462500D01*
X162236060Y-96620305D01*
X162236061Y-96620309D01*
X162296969Y-96767358D01*
X162331550Y-96812424D01*
X162356744Y-96877593D01*
X162342706Y-96946038D01*
X162331551Y-96963395D01*
X162297406Y-97007894D01*
X162236546Y-97154823D01*
X162236545Y-97154825D01*
X162215788Y-97312498D01*
X162215788Y-97312501D01*
X162236545Y-97470174D01*
X162236547Y-97470179D01*
X162259163Y-97524780D01*
X162511226Y-97272718D01*
X162625000Y-97272718D01*
X162625000Y-97352282D01*
X162655448Y-97425791D01*
X162711709Y-97482052D01*
X162785218Y-97512500D01*
X162864782Y-97512500D01*
X162938291Y-97482052D01*
X162994552Y-97425791D01*
X163025000Y-97352282D01*
X163025000Y-97272718D01*
X162994552Y-97199209D01*
X162938291Y-97142948D01*
X162864782Y-97112500D01*
X162785218Y-97112500D01*
X162711709Y-97142948D01*
X162655448Y-97199209D01*
X162625000Y-97272718D01*
X162511226Y-97272718D01*
X162681667Y-97102278D01*
X162742990Y-97068793D01*
X162785533Y-97067020D01*
X162825000Y-97072216D01*
X162864464Y-97067020D01*
X162933499Y-97077785D01*
X162968331Y-97102278D01*
X163390834Y-97524780D01*
X163396910Y-97523572D01*
X163429279Y-97483406D01*
X163495573Y-97461341D01*
X163563272Y-97478620D01*
X163605588Y-97524070D01*
X163609163Y-97524781D01*
X163861227Y-97272718D01*
X163975000Y-97272718D01*
X163975000Y-97352282D01*
X164005448Y-97425791D01*
X164061709Y-97482052D01*
X164135218Y-97512500D01*
X164214782Y-97512500D01*
X164288291Y-97482052D01*
X164344552Y-97425791D01*
X164375000Y-97352282D01*
X164375000Y-97272718D01*
X164344552Y-97199209D01*
X164288291Y-97142948D01*
X164214782Y-97112500D01*
X164135218Y-97112500D01*
X164061709Y-97142948D01*
X164005448Y-97199209D01*
X163975000Y-97272718D01*
X163861227Y-97272718D01*
X164031667Y-97102278D01*
X164092990Y-97068793D01*
X164135533Y-97067020D01*
X164175000Y-97072216D01*
X164214464Y-97067020D01*
X164283499Y-97077785D01*
X164318331Y-97102278D01*
X164740834Y-97524780D01*
X164763453Y-97470175D01*
X164784212Y-97312501D01*
X164784212Y-97312498D01*
X164763454Y-97154825D01*
X164763453Y-97154823D01*
X164702594Y-97007896D01*
X164702592Y-97007892D01*
X164668449Y-96963397D01*
X164643254Y-96898228D01*
X164657292Y-96829783D01*
X164668449Y-96812424D01*
X164703030Y-96767358D01*
X164763940Y-96620306D01*
X164784716Y-96462500D01*
X164763940Y-96304694D01*
X164703030Y-96157642D01*
X164668762Y-96112985D01*
X164643569Y-96047819D01*
X164657606Y-95979374D01*
X164668758Y-95962020D01*
X164703030Y-95917358D01*
X164763940Y-95770306D01*
X164784716Y-95612500D01*
X164763940Y-95454694D01*
X164703030Y-95307642D01*
X164668762Y-95262985D01*
X164643569Y-95197819D01*
X164657606Y-95129374D01*
X164668758Y-95112020D01*
X164703030Y-95067358D01*
X164763940Y-94920306D01*
X164784716Y-94762500D01*
X164763940Y-94604694D01*
X164703030Y-94457642D01*
X164668762Y-94412985D01*
X164643569Y-94347819D01*
X164657606Y-94279374D01*
X164668758Y-94262020D01*
X164703030Y-94217358D01*
X164763940Y-94070306D01*
X164784716Y-93912500D01*
X164763940Y-93754694D01*
X164703030Y-93607642D01*
X164668762Y-93562985D01*
X164643569Y-93497819D01*
X164657606Y-93429374D01*
X164668758Y-93412020D01*
X164703030Y-93367358D01*
X164763940Y-93220306D01*
X164784716Y-93062500D01*
X164763940Y-92904694D01*
X164703030Y-92757642D01*
X164668762Y-92712985D01*
X164643569Y-92647819D01*
X164657606Y-92579374D01*
X164668758Y-92562020D01*
X164703030Y-92517358D01*
X164763940Y-92370306D01*
X164784716Y-92212500D01*
X164763940Y-92054694D01*
X164703030Y-91907642D01*
X164668447Y-91862573D01*
X164643254Y-91797405D01*
X164657292Y-91728961D01*
X164668450Y-91711599D01*
X164702594Y-91667103D01*
X164763453Y-91520176D01*
X164763454Y-91520174D01*
X164784212Y-91362501D01*
X164784212Y-91362498D01*
X164763453Y-91204824D01*
X164740834Y-91150217D01*
X164318330Y-91572721D01*
X164257007Y-91606206D01*
X164214465Y-91607979D01*
X164175003Y-91602784D01*
X164174997Y-91602784D01*
X164135533Y-91607979D01*
X164066497Y-91597213D01*
X164031668Y-91572721D01*
X163781665Y-91322718D01*
X163975000Y-91322718D01*
X163975000Y-91402282D01*
X164005448Y-91475791D01*
X164061709Y-91532052D01*
X164135218Y-91562500D01*
X164214782Y-91562500D01*
X164288291Y-91532052D01*
X164344552Y-91475791D01*
X164375000Y-91402282D01*
X164375000Y-91322718D01*
X164344552Y-91249209D01*
X164288291Y-91192948D01*
X164214782Y-91162500D01*
X164135218Y-91162500D01*
X164061709Y-91192948D01*
X164005448Y-91249209D01*
X163975000Y-91322718D01*
X163781665Y-91322718D01*
X163609164Y-91150217D01*
X163603086Y-91151426D01*
X163570719Y-91191592D01*
X163504424Y-91213657D01*
X163436725Y-91196377D01*
X163394411Y-91150929D01*
X163390834Y-91150217D01*
X162968330Y-91572721D01*
X162907007Y-91606206D01*
X162864465Y-91607979D01*
X162825003Y-91602784D01*
X162824997Y-91602784D01*
X162785533Y-91607979D01*
X162716497Y-91597213D01*
X162681668Y-91572721D01*
X162431665Y-91322718D01*
X162625000Y-91322718D01*
X162625000Y-91402282D01*
X162655448Y-91475791D01*
X162711709Y-91532052D01*
X162785218Y-91562500D01*
X162864782Y-91562500D01*
X162938291Y-91532052D01*
X162994552Y-91475791D01*
X163025000Y-91402282D01*
X163025000Y-91322718D01*
X162994552Y-91249209D01*
X162938291Y-91192948D01*
X162864782Y-91162500D01*
X162785218Y-91162500D01*
X162711709Y-91192948D01*
X162655448Y-91249209D01*
X162625000Y-91322718D01*
X162431665Y-91322718D01*
X162259164Y-91150217D01*
X162259163Y-91150218D01*
X162236546Y-91204820D01*
X162215788Y-91362498D01*
X162215788Y-91362501D01*
X162236545Y-91520174D01*
X162236546Y-91520176D01*
X162297405Y-91667103D01*
X162297407Y-91667106D01*
X162331550Y-91711603D01*
X162356744Y-91776773D01*
X162342705Y-91845218D01*
X162331551Y-91862574D01*
X162296969Y-91907642D01*
X162236061Y-92054690D01*
X162236060Y-92054694D01*
X162215284Y-92212499D01*
X162215284Y-92212500D01*
X162236060Y-92370305D01*
X162236061Y-92370309D01*
X162296968Y-92517355D01*
X162296969Y-92517357D01*
X162296970Y-92517358D01*
X162331236Y-92562014D01*
X162356430Y-92627182D01*
X162342392Y-92695627D01*
X162331239Y-92712981D01*
X162331235Y-92712988D01*
X162296968Y-92757644D01*
X162236061Y-92904690D01*
X162236060Y-92904694D01*
X162215284Y-93062499D01*
X162215284Y-93062500D01*
X162236060Y-93220305D01*
X162236061Y-93220309D01*
X162296968Y-93367355D01*
X162296969Y-93367357D01*
X162296970Y-93367358D01*
X162331236Y-93412014D01*
X162356430Y-93477182D01*
X162342392Y-93545627D01*
X162331239Y-93562981D01*
X162331235Y-93562988D01*
X162296968Y-93607644D01*
X162236061Y-93754690D01*
X162236060Y-93754694D01*
X162227572Y-93819169D01*
X162215284Y-93912500D01*
X162225631Y-93991095D01*
X162236060Y-94070305D01*
X162236061Y-94070309D01*
X162296968Y-94217355D01*
X162296969Y-94217357D01*
X162296970Y-94217358D01*
X162331236Y-94262014D01*
X162356430Y-94327182D01*
X162342392Y-94395627D01*
X162331239Y-94412981D01*
X162331235Y-94412988D01*
X162296968Y-94457644D01*
X162236061Y-94604690D01*
X162236060Y-94604695D01*
X162225333Y-94686169D01*
X162197066Y-94750066D01*
X162138741Y-94788536D01*
X162068876Y-94789367D01*
X162014713Y-94757664D01*
X161076218Y-93819169D01*
X161042733Y-93757846D01*
X161039899Y-93731488D01*
X161039899Y-93304592D01*
X161059584Y-93237553D01*
X161065524Y-93229105D01*
X161124760Y-93151908D01*
X161178557Y-93022030D01*
X161196906Y-92882654D01*
X161178557Y-92743278D01*
X161151658Y-92678339D01*
X161124762Y-92613405D01*
X161124761Y-92613404D01*
X161124760Y-92613401D01*
X161039181Y-92501872D01*
X161039179Y-92501871D01*
X161039179Y-92501870D01*
X160927653Y-92416293D01*
X160927651Y-92416291D01*
X160797778Y-92362497D01*
X160797773Y-92362495D01*
X160658400Y-92344147D01*
X160658398Y-92344147D01*
X160519024Y-92362495D01*
X160519019Y-92362497D01*
X160389150Y-92416290D01*
X160389149Y-92416291D01*
X160277617Y-92501872D01*
X160192036Y-92613404D01*
X160192035Y-92613405D01*
X160138242Y-92743274D01*
X160138240Y-92743279D01*
X160119892Y-92882652D01*
X115500500Y-92882652D01*
X115500500Y-91299998D01*
X140861493Y-91299998D01*
X140861493Y-91300001D01*
X140879841Y-91439374D01*
X140879843Y-91439379D01*
X140933637Y-91569252D01*
X140933639Y-91569255D01*
X141019217Y-91680781D01*
X141019218Y-91680782D01*
X141130744Y-91766360D01*
X141130747Y-91766362D01*
X141166971Y-91781366D01*
X141260624Y-91820158D01*
X141330312Y-91829332D01*
X141399999Y-91838507D01*
X141400000Y-91838507D01*
X141400001Y-91838507D01*
X141446458Y-91832390D01*
X141539376Y-91820158D01*
X141669254Y-91766361D01*
X141780782Y-91680782D01*
X141866361Y-91569254D01*
X141920158Y-91439376D01*
X141938507Y-91300000D01*
X141920158Y-91160624D01*
X141881113Y-91066361D01*
X141866363Y-91030751D01*
X141866362Y-91030750D01*
X141866361Y-91030747D01*
X141780782Y-90919218D01*
X141780780Y-90919217D01*
X141780780Y-90919216D01*
X141669254Y-90833639D01*
X141669252Y-90833637D01*
X141539379Y-90779843D01*
X141539374Y-90779841D01*
X141400001Y-90761493D01*
X141399999Y-90761493D01*
X141260625Y-90779841D01*
X141260620Y-90779843D01*
X141130751Y-90833636D01*
X141130750Y-90833637D01*
X141130747Y-90833638D01*
X141130747Y-90833639D01*
X141019218Y-90919218D01*
X140971979Y-90980782D01*
X140933637Y-91030750D01*
X140933636Y-91030751D01*
X140879843Y-91160620D01*
X140879841Y-91160625D01*
X140861493Y-91299998D01*
X115500500Y-91299998D01*
X115500500Y-90599998D01*
X129361493Y-90599998D01*
X129361493Y-90600001D01*
X129379841Y-90739374D01*
X129379843Y-90739379D01*
X129433637Y-90869252D01*
X129433639Y-90869255D01*
X129519217Y-90980781D01*
X129519218Y-90980782D01*
X129630744Y-91066360D01*
X129630747Y-91066362D01*
X129712644Y-91100284D01*
X129760624Y-91120158D01*
X129830312Y-91129332D01*
X129899999Y-91138507D01*
X129900000Y-91138507D01*
X129900001Y-91138507D01*
X129946458Y-91132390D01*
X130039376Y-91120158D01*
X130169254Y-91066361D01*
X130280782Y-90980782D01*
X130366361Y-90869254D01*
X130420158Y-90739376D01*
X130438507Y-90600000D01*
X130433153Y-90559335D01*
X130420158Y-90460625D01*
X130420156Y-90460620D01*
X130366363Y-90330751D01*
X130366362Y-90330750D01*
X130366361Y-90330747D01*
X130280782Y-90219218D01*
X130280780Y-90219217D01*
X130280780Y-90219216D01*
X130169254Y-90133639D01*
X130169252Y-90133637D01*
X130039379Y-90079843D01*
X130039374Y-90079841D01*
X129900001Y-90061493D01*
X129899999Y-90061493D01*
X129760625Y-90079841D01*
X129760620Y-90079843D01*
X129630751Y-90133636D01*
X129630750Y-90133637D01*
X129630747Y-90133638D01*
X129630747Y-90133639D01*
X129519218Y-90219218D01*
X129447641Y-90312500D01*
X129433637Y-90330750D01*
X129433636Y-90330751D01*
X129379843Y-90460620D01*
X129379841Y-90460625D01*
X129361493Y-90599998D01*
X115500500Y-90599998D01*
X115500500Y-89762499D01*
X162396550Y-89762499D01*
X162396550Y-89762500D01*
X162888012Y-89762500D01*
X162870795Y-89772440D01*
X162814940Y-89828295D01*
X162775444Y-89896704D01*
X162755000Y-89973004D01*
X162755000Y-90051996D01*
X162775444Y-90128296D01*
X162814940Y-90196705D01*
X162870795Y-90252560D01*
X162888012Y-90262500D01*
X162396550Y-90262500D01*
X162431124Y-90345971D01*
X162508164Y-90461269D01*
X162508170Y-90461277D01*
X162606223Y-90559330D01*
X162635084Y-90578614D01*
X162679890Y-90632226D01*
X162688597Y-90701551D01*
X162658443Y-90764579D01*
X162613648Y-90796278D01*
X162612718Y-90796663D01*
X162612718Y-90796664D01*
X162824999Y-91008945D01*
X163081125Y-90752819D01*
X163142448Y-90719334D01*
X163168807Y-90716500D01*
X163831192Y-90716500D01*
X163898231Y-90736185D01*
X163918873Y-90752819D01*
X164174999Y-91008945D01*
X164431125Y-90752819D01*
X164492448Y-90719334D01*
X164518807Y-90716500D01*
X164624340Y-90716500D01*
X164760343Y-90689446D01*
X164760353Y-90689443D01*
X164888467Y-90636377D01*
X164888471Y-90636375D01*
X165003769Y-90559335D01*
X165003777Y-90559329D01*
X165101829Y-90461277D01*
X165101835Y-90461269D01*
X165178875Y-90345971D01*
X165213450Y-90262500D01*
X164721988Y-90262500D01*
X164739205Y-90252560D01*
X164795060Y-90196705D01*
X164834556Y-90128296D01*
X164855000Y-90051996D01*
X164855000Y-89973004D01*
X164834556Y-89896704D01*
X164795060Y-89828295D01*
X164739205Y-89772440D01*
X164721988Y-89762500D01*
X165213450Y-89762500D01*
X165213449Y-89762499D01*
X166126550Y-89762499D01*
X166126550Y-89762500D01*
X166618012Y-89762500D01*
X166600795Y-89772440D01*
X166544940Y-89828295D01*
X166505444Y-89896704D01*
X166485000Y-89973004D01*
X166485000Y-90051996D01*
X166505444Y-90128296D01*
X166544940Y-90196705D01*
X166600795Y-90252560D01*
X166618012Y-90262500D01*
X166126550Y-90262500D01*
X166161124Y-90345971D01*
X166238164Y-90461269D01*
X166238170Y-90461277D01*
X166336222Y-90559329D01*
X166336230Y-90559335D01*
X166451528Y-90636375D01*
X166451532Y-90636377D01*
X166579646Y-90689443D01*
X166579656Y-90689446D01*
X166715659Y-90716500D01*
X166935000Y-90716500D01*
X166935000Y-90312500D01*
X167435000Y-90312500D01*
X167435000Y-90716500D01*
X167654340Y-90716500D01*
X167790343Y-90689446D01*
X167790353Y-90689443D01*
X167918467Y-90636377D01*
X167918471Y-90636375D01*
X168033769Y-90559335D01*
X168033777Y-90559329D01*
X168131829Y-90461277D01*
X168131835Y-90461269D01*
X168208875Y-90345971D01*
X168243450Y-90262500D01*
X167751988Y-90262500D01*
X167769205Y-90252560D01*
X167825060Y-90196705D01*
X167864556Y-90128296D01*
X167885000Y-90051996D01*
X167885000Y-89973004D01*
X167864556Y-89896704D01*
X167825060Y-89828295D01*
X167769205Y-89772440D01*
X167751988Y-89762500D01*
X168243450Y-89762500D01*
X168243449Y-89762499D01*
X168208875Y-89679028D01*
X168131835Y-89563730D01*
X168131829Y-89563722D01*
X168033777Y-89465670D01*
X168033769Y-89465664D01*
X167918471Y-89388624D01*
X167918467Y-89388622D01*
X167790353Y-89335556D01*
X167790343Y-89335553D01*
X167654340Y-89308500D01*
X167435000Y-89308500D01*
X167435000Y-89712500D01*
X166935000Y-89712500D01*
X166935000Y-89308500D01*
X166715660Y-89308500D01*
X166579656Y-89335553D01*
X166579646Y-89335556D01*
X166451532Y-89388622D01*
X166451528Y-89388624D01*
X166336230Y-89465664D01*
X166336222Y-89465670D01*
X166238170Y-89563722D01*
X166238164Y-89563730D01*
X166161124Y-89679028D01*
X166126550Y-89762499D01*
X165213449Y-89762499D01*
X165178875Y-89679028D01*
X165101835Y-89563730D01*
X165101829Y-89563722D01*
X165003777Y-89465670D01*
X165003769Y-89465664D01*
X164888471Y-89388624D01*
X164888467Y-89388622D01*
X164760353Y-89335556D01*
X164760343Y-89335553D01*
X164624340Y-89308500D01*
X164055000Y-89308500D01*
X164055000Y-89712500D01*
X163555000Y-89712500D01*
X163555000Y-89308500D01*
X162985660Y-89308500D01*
X162849656Y-89335553D01*
X162849646Y-89335556D01*
X162721532Y-89388622D01*
X162721528Y-89388624D01*
X162606230Y-89465664D01*
X162606222Y-89465670D01*
X162508170Y-89563722D01*
X162508164Y-89563730D01*
X162431124Y-89679028D01*
X162396550Y-89762499D01*
X115500500Y-89762499D01*
X115500500Y-85099998D01*
X129211493Y-85099998D01*
X129211493Y-85100001D01*
X129229841Y-85239374D01*
X129229843Y-85239379D01*
X129283637Y-85369251D01*
X129283638Y-85369252D01*
X129283639Y-85369254D01*
X129321976Y-85419216D01*
X129364408Y-85474513D01*
X129389602Y-85539683D01*
X129375564Y-85608127D01*
X129364408Y-85625486D01*
X129283637Y-85730750D01*
X129283636Y-85730751D01*
X129229843Y-85860620D01*
X129229841Y-85860625D01*
X129211493Y-85999998D01*
X129211493Y-86000001D01*
X129229841Y-86139374D01*
X129229843Y-86139379D01*
X129283637Y-86269252D01*
X129283639Y-86269255D01*
X129336779Y-86338507D01*
X129369218Y-86380782D01*
X129396382Y-86401626D01*
X129437583Y-86458052D01*
X129441738Y-86527798D01*
X129407525Y-86588719D01*
X129396389Y-86598368D01*
X129379694Y-86611179D01*
X129369216Y-86619219D01*
X129330130Y-86670158D01*
X129289825Y-86722686D01*
X129283637Y-86730750D01*
X129283636Y-86730751D01*
X129229843Y-86860620D01*
X129229841Y-86860625D01*
X129211493Y-86999998D01*
X129211493Y-87000001D01*
X129229841Y-87139374D01*
X129229843Y-87139379D01*
X129283637Y-87269252D01*
X129283639Y-87269255D01*
X129369217Y-87380781D01*
X129369218Y-87380782D01*
X129480744Y-87466360D01*
X129480747Y-87466362D01*
X129562644Y-87500284D01*
X129610624Y-87520158D01*
X129680312Y-87529332D01*
X129749999Y-87538507D01*
X129750000Y-87538507D01*
X129750001Y-87538507D01*
X129796458Y-87532390D01*
X129889376Y-87520158D01*
X130019254Y-87466361D01*
X130130782Y-87380782D01*
X130130785Y-87380777D01*
X130136529Y-87375035D01*
X130138804Y-87377310D01*
X130183027Y-87345006D01*
X130252772Y-87340836D01*
X130313700Y-87375036D01*
X130315181Y-87376745D01*
X130319218Y-87380782D01*
X130430744Y-87466360D01*
X130430747Y-87466362D01*
X130512644Y-87500284D01*
X130560624Y-87520158D01*
X130630312Y-87529332D01*
X130699999Y-87538507D01*
X130700000Y-87538507D01*
X130700001Y-87538507D01*
X130746458Y-87532390D01*
X130839376Y-87520158D01*
X130969254Y-87466361D01*
X131024513Y-87423958D01*
X131089682Y-87398764D01*
X131158127Y-87412802D01*
X131175487Y-87423959D01*
X131230744Y-87466360D01*
X131230747Y-87466362D01*
X131312644Y-87500284D01*
X131360624Y-87520158D01*
X131430312Y-87529332D01*
X131499999Y-87538507D01*
X131500000Y-87538507D01*
X131500001Y-87538507D01*
X131546458Y-87532390D01*
X131639376Y-87520158D01*
X131769254Y-87466361D01*
X131880782Y-87380782D01*
X131951626Y-87288456D01*
X132008052Y-87247256D01*
X132077798Y-87243101D01*
X132138719Y-87277314D01*
X132148365Y-87288446D01*
X132219218Y-87380782D01*
X132260947Y-87412802D01*
X132330744Y-87466360D01*
X132330747Y-87466362D01*
X132412644Y-87500284D01*
X132460624Y-87520158D01*
X132530312Y-87529332D01*
X132599999Y-87538507D01*
X132600000Y-87538507D01*
X132600001Y-87538507D01*
X132646458Y-87532390D01*
X132739376Y-87520158D01*
X132869254Y-87466361D01*
X132980782Y-87380782D01*
X133066361Y-87269254D01*
X133120158Y-87139376D01*
X133134743Y-87028593D01*
X133138507Y-87000001D01*
X133138507Y-86999998D01*
X134461493Y-86999998D01*
X134461493Y-87000001D01*
X134479841Y-87139374D01*
X134479843Y-87139379D01*
X134533637Y-87269252D01*
X134533639Y-87269255D01*
X134619217Y-87380781D01*
X134619218Y-87380782D01*
X134730744Y-87466360D01*
X134730747Y-87466362D01*
X134795685Y-87493259D01*
X134860622Y-87520157D01*
X134860621Y-87520157D01*
X134860624Y-87520158D01*
X134957097Y-87532858D01*
X135020993Y-87561124D01*
X135028593Y-87568116D01*
X135426153Y-87965676D01*
X135513147Y-88015902D01*
X135610175Y-88041901D01*
X135610178Y-88041901D01*
X135718221Y-88041901D01*
X135718237Y-88041900D01*
X156465335Y-88041900D01*
X156532374Y-88061585D01*
X156578129Y-88114389D01*
X156588073Y-88183547D01*
X156559048Y-88247103D01*
X156540825Y-88264271D01*
X156469218Y-88319218D01*
X156383637Y-88430750D01*
X156383636Y-88430751D01*
X156329843Y-88560620D01*
X156329841Y-88560625D01*
X156311493Y-88699998D01*
X156311493Y-88700001D01*
X156329841Y-88839374D01*
X156329843Y-88839379D01*
X156383637Y-88969252D01*
X156383639Y-88969255D01*
X156469217Y-89080781D01*
X156469218Y-89080782D01*
X156580744Y-89166360D01*
X156580747Y-89166362D01*
X156662644Y-89200284D01*
X156710624Y-89220158D01*
X156780312Y-89229332D01*
X156849999Y-89238507D01*
X156850000Y-89238507D01*
X156850001Y-89238507D01*
X156896458Y-89232390D01*
X156989376Y-89220158D01*
X157119254Y-89166361D01*
X157230782Y-89080782D01*
X157316361Y-88969254D01*
X157370158Y-88839376D01*
X157388507Y-88700000D01*
X157370158Y-88560624D01*
X157316361Y-88430747D01*
X157230782Y-88319218D01*
X157159179Y-88264274D01*
X157117978Y-88207848D01*
X157113823Y-88138102D01*
X157148035Y-88077181D01*
X157209753Y-88044429D01*
X157234667Y-88041900D01*
X159189822Y-88041900D01*
X159189825Y-88041900D01*
X159286854Y-88015901D01*
X159373847Y-87965676D01*
X159444876Y-87894647D01*
X164521407Y-82818114D01*
X164582728Y-82784631D01*
X164592896Y-82782858D01*
X164689376Y-82770158D01*
X164819254Y-82716361D01*
X164930782Y-82630782D01*
X165016361Y-82519254D01*
X165070158Y-82389376D01*
X165088507Y-82250000D01*
X165070158Y-82110624D01*
X165016361Y-81980747D01*
X164930782Y-81869218D01*
X164930780Y-81869217D01*
X164930780Y-81869216D01*
X164819254Y-81783639D01*
X164819252Y-81783637D01*
X164689379Y-81729843D01*
X164689374Y-81729841D01*
X164550001Y-81711493D01*
X164549999Y-81711493D01*
X164410625Y-81729841D01*
X164410620Y-81729843D01*
X164280751Y-81783636D01*
X164280750Y-81783637D01*
X164169218Y-81869218D01*
X164083637Y-81980750D01*
X164083636Y-81980751D01*
X164029843Y-82110620D01*
X164029842Y-82110624D01*
X164017141Y-82207097D01*
X163988874Y-82270993D01*
X163981883Y-82278592D01*
X159017896Y-87242581D01*
X158956573Y-87276066D01*
X158930215Y-87278900D01*
X146807560Y-87278900D01*
X146740521Y-87259215D01*
X146694766Y-87206411D01*
X146684822Y-87137253D01*
X146713847Y-87073697D01*
X146732073Y-87056525D01*
X146800000Y-87004402D01*
X146830782Y-86980782D01*
X146916361Y-86869254D01*
X146919937Y-86860622D01*
X146926297Y-86845264D01*
X146970158Y-86739376D01*
X146988507Y-86600000D01*
X146986821Y-86587197D01*
X146970913Y-86466361D01*
X146970158Y-86460624D01*
X146943259Y-86395685D01*
X146916363Y-86330751D01*
X146916362Y-86330750D01*
X146916361Y-86330747D01*
X146830782Y-86219218D01*
X146830780Y-86219217D01*
X146830780Y-86219216D01*
X146719254Y-86133639D01*
X146719252Y-86133637D01*
X146589379Y-86079843D01*
X146589374Y-86079841D01*
X146450001Y-86061493D01*
X146449999Y-86061493D01*
X146310625Y-86079841D01*
X146310623Y-86079842D01*
X146180744Y-86133640D01*
X146175483Y-86137677D01*
X146110313Y-86162869D01*
X146041869Y-86148829D01*
X146024514Y-86137675D01*
X146019254Y-86133639D01*
X146019252Y-86133637D01*
X145889379Y-86079843D01*
X145889374Y-86079841D01*
X145750001Y-86061493D01*
X145749999Y-86061493D01*
X145610625Y-86079841D01*
X145610620Y-86079843D01*
X145480751Y-86133636D01*
X145480750Y-86133637D01*
X145480747Y-86133638D01*
X145480747Y-86133639D01*
X145459425Y-86150000D01*
X145369218Y-86219218D01*
X145283637Y-86330750D01*
X145283636Y-86330751D01*
X145229843Y-86460620D01*
X145229841Y-86460625D01*
X145211493Y-86599998D01*
X145211493Y-86600001D01*
X145229841Y-86739374D01*
X145229843Y-86739379D01*
X145283637Y-86869252D01*
X145283639Y-86869255D01*
X145369217Y-86980781D01*
X145369218Y-86980782D01*
X145467927Y-87056525D01*
X145509129Y-87112953D01*
X145513284Y-87182699D01*
X145479071Y-87243619D01*
X145417354Y-87276371D01*
X145392440Y-87278900D01*
X139143184Y-87278900D01*
X139076145Y-87259215D01*
X139030390Y-87206411D01*
X139020245Y-87138716D01*
X139032858Y-87042902D01*
X139061123Y-86979005D01*
X139068104Y-86971417D01*
X139889523Y-86149998D01*
X142011493Y-86149998D01*
X142011493Y-86150001D01*
X142029841Y-86289374D01*
X142029843Y-86289379D01*
X142083637Y-86419252D01*
X142083639Y-86419255D01*
X142169217Y-86530781D01*
X142169218Y-86530782D01*
X142280744Y-86616360D01*
X142280747Y-86616362D01*
X142350128Y-86645100D01*
X142410624Y-86670158D01*
X142480312Y-86679332D01*
X142549999Y-86688507D01*
X142550000Y-86688507D01*
X142550001Y-86688507D01*
X142596458Y-86682390D01*
X142689376Y-86670158D01*
X142798586Y-86624922D01*
X142819252Y-86616362D01*
X142819255Y-86616360D01*
X142838965Y-86601236D01*
X142930782Y-86530782D01*
X143016361Y-86419254D01*
X143016362Y-86419251D01*
X143017612Y-86417087D01*
X143019147Y-86415622D01*
X143021309Y-86412806D01*
X143021748Y-86413143D01*
X143068178Y-86368871D01*
X143136785Y-86355646D01*
X143201650Y-86381613D01*
X143228683Y-86412811D01*
X143228691Y-86412806D01*
X143228787Y-86412931D01*
X143232388Y-86417087D01*
X143233639Y-86419255D01*
X143319217Y-86530781D01*
X143319218Y-86530782D01*
X143430744Y-86616360D01*
X143430747Y-86616362D01*
X143500128Y-86645100D01*
X143560624Y-86670158D01*
X143630312Y-86679332D01*
X143699999Y-86688507D01*
X143700000Y-86688507D01*
X143700001Y-86688507D01*
X143746458Y-86682390D01*
X143839376Y-86670158D01*
X143948586Y-86624922D01*
X143969252Y-86616362D01*
X143969255Y-86616360D01*
X143988965Y-86601236D01*
X144080782Y-86530782D01*
X144166361Y-86419254D01*
X144167866Y-86415622D01*
X144203020Y-86330750D01*
X144220158Y-86289376D01*
X144232858Y-86192901D01*
X144261124Y-86129005D01*
X144268104Y-86121417D01*
X146581343Y-83808178D01*
X146642664Y-83774695D01*
X146712356Y-83779679D01*
X146768289Y-83821551D01*
X146783583Y-83848408D01*
X146833639Y-83969254D01*
X146833639Y-83969255D01*
X146919217Y-84080781D01*
X146919218Y-84080782D01*
X147030744Y-84166360D01*
X147030747Y-84166362D01*
X147112644Y-84200284D01*
X147160624Y-84220158D01*
X147230312Y-84229332D01*
X147299999Y-84238507D01*
X147300000Y-84238507D01*
X147300001Y-84238507D01*
X147346458Y-84232390D01*
X147439376Y-84220158D01*
X147562357Y-84169218D01*
X147569252Y-84166362D01*
X147569255Y-84166360D01*
X147572668Y-84163741D01*
X147680782Y-84080782D01*
X147766361Y-83969254D01*
X147820158Y-83839376D01*
X147832858Y-83742901D01*
X147861124Y-83679005D01*
X147868104Y-83671417D01*
X148739524Y-82799998D01*
X151561493Y-82799998D01*
X151561493Y-82800001D01*
X151579841Y-82939374D01*
X151579843Y-82939379D01*
X151633637Y-83069252D01*
X151633639Y-83069255D01*
X151676041Y-83124513D01*
X151701236Y-83189682D01*
X151687198Y-83258127D01*
X151676043Y-83275485D01*
X151633636Y-83330751D01*
X151579843Y-83460620D01*
X151579841Y-83460625D01*
X151561493Y-83599998D01*
X151561493Y-83600001D01*
X151579841Y-83739374D01*
X151579843Y-83739379D01*
X151633637Y-83869252D01*
X151633639Y-83869255D01*
X151719217Y-83980781D01*
X151724965Y-83986529D01*
X151722695Y-83988798D01*
X151755013Y-84033082D01*
X151759150Y-84102829D01*
X151724922Y-84163741D01*
X151723222Y-84165213D01*
X151719219Y-84169216D01*
X151633637Y-84280750D01*
X151633636Y-84280751D01*
X151579843Y-84410620D01*
X151579841Y-84410625D01*
X151561493Y-84549998D01*
X151561493Y-84550001D01*
X151579841Y-84689374D01*
X151579843Y-84689379D01*
X151633637Y-84819252D01*
X151633639Y-84819255D01*
X151676041Y-84874513D01*
X151701236Y-84939682D01*
X151687198Y-85008127D01*
X151676043Y-85025485D01*
X151633636Y-85080751D01*
X151579843Y-85210620D01*
X151579841Y-85210625D01*
X151561493Y-85349998D01*
X151561493Y-85350001D01*
X151579841Y-85489374D01*
X151579843Y-85489379D01*
X151633637Y-85619252D01*
X151633639Y-85619255D01*
X151719217Y-85730781D01*
X151719218Y-85730782D01*
X151830744Y-85816360D01*
X151830747Y-85816362D01*
X151912644Y-85850284D01*
X151960624Y-85870158D01*
X152030312Y-85879332D01*
X152099999Y-85888507D01*
X152100000Y-85888507D01*
X152100001Y-85888507D01*
X152158921Y-85880750D01*
X152239376Y-85870158D01*
X152369254Y-85816361D01*
X152480782Y-85730782D01*
X152566361Y-85619254D01*
X152566362Y-85619251D01*
X152567612Y-85617087D01*
X152569147Y-85615622D01*
X152571309Y-85612806D01*
X152571748Y-85613143D01*
X152618178Y-85568871D01*
X152686785Y-85555646D01*
X152751650Y-85581613D01*
X152778683Y-85612811D01*
X152778691Y-85612806D01*
X152778787Y-85612931D01*
X152782388Y-85617087D01*
X152783639Y-85619255D01*
X152869217Y-85730781D01*
X152869218Y-85730782D01*
X152980744Y-85816360D01*
X152980747Y-85816362D01*
X153062644Y-85850284D01*
X153110624Y-85870158D01*
X153180312Y-85879332D01*
X153249999Y-85888507D01*
X153250000Y-85888507D01*
X153250001Y-85888507D01*
X153308921Y-85880750D01*
X153389376Y-85870158D01*
X153519254Y-85816361D01*
X153630782Y-85730782D01*
X153683178Y-85662498D01*
X158211493Y-85662498D01*
X158211493Y-85662501D01*
X158229841Y-85801874D01*
X158229843Y-85801879D01*
X158283637Y-85931752D01*
X158283639Y-85931755D01*
X158369217Y-86043281D01*
X158369218Y-86043282D01*
X158480744Y-86128860D01*
X158480747Y-86128862D01*
X158562644Y-86162784D01*
X158610624Y-86182658D01*
X158680312Y-86191832D01*
X158749999Y-86201007D01*
X158750000Y-86201007D01*
X158750001Y-86201007D01*
X158811564Y-86192902D01*
X158889376Y-86182658D01*
X158997975Y-86137675D01*
X159019252Y-86128862D01*
X159019255Y-86128860D01*
X159130782Y-86043282D01*
X159216361Y-85931754D01*
X159270158Y-85801876D01*
X159288507Y-85662500D01*
X159288259Y-85660620D01*
X159271162Y-85530750D01*
X159270158Y-85523124D01*
X159243259Y-85458185D01*
X159216363Y-85393251D01*
X159216362Y-85393250D01*
X159216361Y-85393247D01*
X159130782Y-85281718D01*
X159130780Y-85281717D01*
X159130780Y-85281716D01*
X159019254Y-85196139D01*
X159019252Y-85196137D01*
X158889379Y-85142343D01*
X158889374Y-85142341D01*
X158750001Y-85123993D01*
X158749999Y-85123993D01*
X158610625Y-85142341D01*
X158610620Y-85142343D01*
X158480751Y-85196136D01*
X158480750Y-85196137D01*
X158480747Y-85196138D01*
X158480747Y-85196139D01*
X158369218Y-85281718D01*
X158287853Y-85387756D01*
X158283637Y-85393250D01*
X158283636Y-85393251D01*
X158229843Y-85523120D01*
X158229841Y-85523125D01*
X158211493Y-85662498D01*
X153683178Y-85662498D01*
X153716361Y-85619254D01*
X153717866Y-85615622D01*
X153726297Y-85595264D01*
X153770158Y-85489376D01*
X153785972Y-85369254D01*
X153788507Y-85350001D01*
X153788507Y-85349998D01*
X153770158Y-85210625D01*
X153770156Y-85210620D01*
X153716363Y-85080751D01*
X153716362Y-85080750D01*
X153716361Y-85080747D01*
X153673956Y-85025484D01*
X153648764Y-84960316D01*
X153662803Y-84891871D01*
X153673959Y-84874513D01*
X153716360Y-84819255D01*
X153716362Y-84819252D01*
X153757797Y-84719218D01*
X153770158Y-84689376D01*
X153788507Y-84550000D01*
X153770158Y-84410624D01*
X153742708Y-84344353D01*
X153716363Y-84280751D01*
X153716362Y-84280750D01*
X153716361Y-84280747D01*
X153630782Y-84169218D01*
X153630779Y-84169214D01*
X153625032Y-84163467D01*
X153627306Y-84161193D01*
X153595000Y-84116955D01*
X153590840Y-84047209D01*
X153625048Y-83986287D01*
X153626754Y-83984809D01*
X153630777Y-83980785D01*
X153630782Y-83980782D01*
X153716361Y-83869254D01*
X153717866Y-83865622D01*
X153737230Y-83818871D01*
X153770158Y-83739376D01*
X153788507Y-83600000D01*
X153770158Y-83460624D01*
X153716361Y-83330747D01*
X153673956Y-83275484D01*
X153648764Y-83210316D01*
X153662803Y-83141871D01*
X153673959Y-83124513D01*
X153716360Y-83069255D01*
X153716362Y-83069252D01*
X153726297Y-83045264D01*
X153770158Y-82939376D01*
X153788507Y-82800000D01*
X153788507Y-82799998D01*
X154211493Y-82799998D01*
X154211493Y-82800001D01*
X154229841Y-82939374D01*
X154229843Y-82939379D01*
X154283637Y-83069252D01*
X154283639Y-83069255D01*
X154326041Y-83124513D01*
X154351236Y-83189682D01*
X154337198Y-83258127D01*
X154326043Y-83275485D01*
X154283636Y-83330751D01*
X154229843Y-83460620D01*
X154229841Y-83460625D01*
X154211493Y-83599998D01*
X154211493Y-83600001D01*
X154229841Y-83739374D01*
X154229843Y-83739379D01*
X154283637Y-83869252D01*
X154283639Y-83869255D01*
X154369217Y-83980781D01*
X154369218Y-83980782D01*
X154480744Y-84066360D01*
X154480747Y-84066362D01*
X154562644Y-84100284D01*
X154610624Y-84120158D01*
X154680312Y-84129332D01*
X154749999Y-84138507D01*
X154750000Y-84138507D01*
X154750001Y-84138507D01*
X154796458Y-84132390D01*
X154889376Y-84120158D01*
X155019254Y-84066361D01*
X155130782Y-83980782D01*
X155216361Y-83869254D01*
X155216362Y-83869251D01*
X155217612Y-83867087D01*
X155219147Y-83865622D01*
X155221309Y-83862806D01*
X155221748Y-83863143D01*
X155268178Y-83818871D01*
X155336785Y-83805646D01*
X155401650Y-83831613D01*
X155428683Y-83862811D01*
X155428691Y-83862806D01*
X155428787Y-83862931D01*
X155432388Y-83867087D01*
X155433639Y-83869255D01*
X155519217Y-83980781D01*
X155519218Y-83980782D01*
X155630744Y-84066360D01*
X155630747Y-84066362D01*
X155712644Y-84100284D01*
X155760624Y-84120158D01*
X155830312Y-84129332D01*
X155899999Y-84138507D01*
X155900000Y-84138507D01*
X155900001Y-84138507D01*
X155946458Y-84132390D01*
X156039376Y-84120158D01*
X156169254Y-84066361D01*
X156280782Y-83980782D01*
X156366361Y-83869254D01*
X156367866Y-83865622D01*
X156387230Y-83818871D01*
X156420158Y-83739376D01*
X156438507Y-83600000D01*
X156420158Y-83460624D01*
X156366361Y-83330747D01*
X156323956Y-83275484D01*
X156298764Y-83210316D01*
X156312803Y-83141871D01*
X156323959Y-83124513D01*
X156366360Y-83069255D01*
X156366362Y-83069252D01*
X156376297Y-83045264D01*
X156420158Y-82939376D01*
X156438507Y-82800000D01*
X156420158Y-82660624D01*
X156392708Y-82594353D01*
X156366363Y-82530751D01*
X156366362Y-82530750D01*
X156366361Y-82530747D01*
X156280782Y-82419218D01*
X156280780Y-82419217D01*
X156280780Y-82419216D01*
X156169254Y-82333639D01*
X156169252Y-82333637D01*
X156039379Y-82279843D01*
X156039374Y-82279841D01*
X155900001Y-82261493D01*
X155899999Y-82261493D01*
X155760625Y-82279841D01*
X155760620Y-82279843D01*
X155630751Y-82333636D01*
X155630750Y-82333637D01*
X155519218Y-82419218D01*
X155433639Y-82530747D01*
X155432383Y-82532923D01*
X155430844Y-82534389D01*
X155428692Y-82537195D01*
X155428254Y-82536859D01*
X155381812Y-82581135D01*
X155313204Y-82594353D01*
X155248341Y-82568380D01*
X155221314Y-82537190D01*
X155221308Y-82537195D01*
X155221224Y-82537086D01*
X155217617Y-82532923D01*
X155216363Y-82530753D01*
X155216361Y-82530747D01*
X155130782Y-82419218D01*
X155130780Y-82419217D01*
X155130780Y-82419216D01*
X155019254Y-82333639D01*
X155019252Y-82333637D01*
X154889379Y-82279843D01*
X154889374Y-82279841D01*
X154750001Y-82261493D01*
X154749999Y-82261493D01*
X154610625Y-82279841D01*
X154610620Y-82279843D01*
X154480751Y-82333636D01*
X154480750Y-82333637D01*
X154480747Y-82333638D01*
X154480747Y-82333639D01*
X154369218Y-82419218D01*
X154292460Y-82519252D01*
X154283637Y-82530750D01*
X154283636Y-82530751D01*
X154229843Y-82660620D01*
X154229841Y-82660625D01*
X154211493Y-82799998D01*
X153788507Y-82799998D01*
X153770158Y-82660624D01*
X153742708Y-82594353D01*
X153716363Y-82530751D01*
X153716362Y-82530750D01*
X153716361Y-82530747D01*
X153630782Y-82419218D01*
X153630780Y-82419217D01*
X153630780Y-82419216D01*
X153519254Y-82333639D01*
X153519252Y-82333637D01*
X153389379Y-82279843D01*
X153389374Y-82279841D01*
X153250001Y-82261493D01*
X153249999Y-82261493D01*
X153110625Y-82279841D01*
X153110620Y-82279843D01*
X152980751Y-82333636D01*
X152980750Y-82333637D01*
X152869218Y-82419218D01*
X152783639Y-82530747D01*
X152782383Y-82532923D01*
X152780844Y-82534389D01*
X152778692Y-82537195D01*
X152778254Y-82536859D01*
X152731812Y-82581135D01*
X152663204Y-82594353D01*
X152598341Y-82568380D01*
X152571314Y-82537190D01*
X152571308Y-82537195D01*
X152571224Y-82537086D01*
X152567617Y-82532923D01*
X152566363Y-82530753D01*
X152566361Y-82530747D01*
X152480782Y-82419218D01*
X152480780Y-82419217D01*
X152480780Y-82419216D01*
X152369254Y-82333639D01*
X152369252Y-82333637D01*
X152239379Y-82279843D01*
X152239374Y-82279841D01*
X152100001Y-82261493D01*
X152099999Y-82261493D01*
X151960625Y-82279841D01*
X151960620Y-82279843D01*
X151830751Y-82333636D01*
X151830750Y-82333637D01*
X151830747Y-82333638D01*
X151830747Y-82333639D01*
X151719218Y-82419218D01*
X151642460Y-82519252D01*
X151633637Y-82530750D01*
X151633636Y-82530751D01*
X151579843Y-82660620D01*
X151579841Y-82660625D01*
X151561493Y-82799998D01*
X148739524Y-82799998D01*
X150421704Y-81117819D01*
X150483027Y-81084334D01*
X150509385Y-81081500D01*
X154578062Y-81081500D01*
X154645101Y-81101185D01*
X154653549Y-81107125D01*
X154730744Y-81166360D01*
X154730747Y-81166362D01*
X154812644Y-81200284D01*
X154860624Y-81220158D01*
X154930312Y-81229332D01*
X154999999Y-81238507D01*
X155000000Y-81238507D01*
X155000001Y-81238507D01*
X155046458Y-81232390D01*
X155139376Y-81220158D01*
X155269254Y-81166361D01*
X155380782Y-81080782D01*
X155466361Y-80969254D01*
X155520158Y-80839376D01*
X155538507Y-80700000D01*
X155520158Y-80560624D01*
X155466361Y-80430747D01*
X155380782Y-80319218D01*
X155380780Y-80319217D01*
X155380780Y-80319216D01*
X155269254Y-80233639D01*
X155269252Y-80233637D01*
X155139379Y-80179843D01*
X155139374Y-80179841D01*
X155000001Y-80161493D01*
X154999999Y-80161493D01*
X154860625Y-80179841D01*
X154860620Y-80179843D01*
X154730751Y-80233636D01*
X154730750Y-80233636D01*
X154714623Y-80246011D01*
X154653546Y-80292876D01*
X154588379Y-80318070D01*
X154578062Y-80318500D01*
X150370384Y-80318500D01*
X150303345Y-80298815D01*
X150257590Y-80246011D01*
X150247646Y-80176853D01*
X150276671Y-80113297D01*
X150282703Y-80106819D01*
X157673054Y-72716469D01*
X157696951Y-72675077D01*
X157723279Y-72629476D01*
X157749278Y-72532447D01*
X157749278Y-66343183D01*
X157768963Y-66276144D01*
X157821767Y-66230389D01*
X157889459Y-66220244D01*
X158028178Y-66238507D01*
X158028179Y-66238507D01*
X158074636Y-66232390D01*
X158167554Y-66220158D01*
X158297432Y-66166361D01*
X158408960Y-66080782D01*
X158494539Y-65969254D01*
X158548336Y-65839376D01*
X158566685Y-65700000D01*
X158566685Y-65699998D01*
X158895125Y-65699998D01*
X158895125Y-65700001D01*
X158913473Y-65839374D01*
X158913475Y-65839379D01*
X158967269Y-65969252D01*
X158967271Y-65969255D01*
X159052849Y-66080781D01*
X159052850Y-66080782D01*
X159164376Y-66166360D01*
X159164379Y-66166362D01*
X159241529Y-66198318D01*
X159294256Y-66220158D01*
X159363944Y-66229332D01*
X159433631Y-66238507D01*
X159433632Y-66238507D01*
X159433633Y-66238507D01*
X159480090Y-66232390D01*
X159573008Y-66220158D01*
X159702886Y-66166361D01*
X159814414Y-66080782D01*
X159899993Y-65969254D01*
X159953790Y-65839376D01*
X159972139Y-65700000D01*
X159972139Y-65699998D01*
X160300579Y-65699998D01*
X160300579Y-65700001D01*
X160318927Y-65839374D01*
X160318929Y-65839379D01*
X160372723Y-65969252D01*
X160372725Y-65969255D01*
X160458303Y-66080781D01*
X160458304Y-66080782D01*
X160569830Y-66166360D01*
X160569833Y-66166362D01*
X160646983Y-66198318D01*
X160699710Y-66220158D01*
X160769398Y-66229332D01*
X160839085Y-66238507D01*
X160839086Y-66238507D01*
X160839087Y-66238507D01*
X160885544Y-66232390D01*
X160978462Y-66220158D01*
X161108340Y-66166361D01*
X161219868Y-66080782D01*
X161305447Y-65969254D01*
X161359244Y-65839376D01*
X161377593Y-65700000D01*
X161377593Y-65699998D01*
X161706033Y-65699998D01*
X161706033Y-65700001D01*
X161724381Y-65839374D01*
X161724383Y-65839379D01*
X161778177Y-65969252D01*
X161778179Y-65969255D01*
X161863757Y-66080781D01*
X161863758Y-66080782D01*
X161975284Y-66166360D01*
X161975287Y-66166362D01*
X162052437Y-66198318D01*
X162105164Y-66220158D01*
X162174852Y-66229332D01*
X162244539Y-66238507D01*
X162244540Y-66238507D01*
X162244541Y-66238507D01*
X162290998Y-66232390D01*
X162383916Y-66220158D01*
X162513794Y-66166361D01*
X162625322Y-66080782D01*
X162710901Y-65969254D01*
X162764698Y-65839376D01*
X162783047Y-65700000D01*
X162783047Y-65699998D01*
X163111493Y-65699998D01*
X163111493Y-65700001D01*
X163129841Y-65839374D01*
X163129843Y-65839379D01*
X163183637Y-65969252D01*
X163183639Y-65969255D01*
X163269217Y-66080781D01*
X163269218Y-66080782D01*
X163380744Y-66166360D01*
X163380747Y-66166362D01*
X163457897Y-66198318D01*
X163510624Y-66220158D01*
X163580312Y-66229332D01*
X163649999Y-66238507D01*
X163650000Y-66238507D01*
X163650001Y-66238507D01*
X163696458Y-66232390D01*
X163789376Y-66220158D01*
X163919254Y-66166361D01*
X164030782Y-66080782D01*
X164116361Y-65969254D01*
X164170158Y-65839376D01*
X164188507Y-65700000D01*
X164170158Y-65560624D01*
X164116361Y-65430747D01*
X164030782Y-65319218D01*
X164030780Y-65319217D01*
X164030780Y-65319216D01*
X163919254Y-65233639D01*
X163919252Y-65233637D01*
X163789379Y-65179843D01*
X163789374Y-65179841D01*
X163650001Y-65161493D01*
X163649999Y-65161493D01*
X163510625Y-65179841D01*
X163510620Y-65179843D01*
X163380751Y-65233636D01*
X163380750Y-65233637D01*
X163269218Y-65319218D01*
X163183637Y-65430750D01*
X163183636Y-65430751D01*
X163129843Y-65560620D01*
X163129841Y-65560625D01*
X163111493Y-65699998D01*
X162783047Y-65699998D01*
X162764698Y-65560624D01*
X162710901Y-65430747D01*
X162625322Y-65319218D01*
X162625320Y-65319217D01*
X162625320Y-65319216D01*
X162513794Y-65233639D01*
X162513792Y-65233637D01*
X162383919Y-65179843D01*
X162383914Y-65179841D01*
X162244541Y-65161493D01*
X162244539Y-65161493D01*
X162105165Y-65179841D01*
X162105160Y-65179843D01*
X161975291Y-65233636D01*
X161975290Y-65233637D01*
X161863758Y-65319218D01*
X161778177Y-65430750D01*
X161778176Y-65430751D01*
X161724383Y-65560620D01*
X161724381Y-65560625D01*
X161706033Y-65699998D01*
X161377593Y-65699998D01*
X161359244Y-65560624D01*
X161305447Y-65430747D01*
X161219868Y-65319218D01*
X161219866Y-65319217D01*
X161219866Y-65319216D01*
X161108340Y-65233639D01*
X161108338Y-65233637D01*
X160978465Y-65179843D01*
X160978460Y-65179841D01*
X160839087Y-65161493D01*
X160839085Y-65161493D01*
X160699711Y-65179841D01*
X160699706Y-65179843D01*
X160569837Y-65233636D01*
X160569836Y-65233637D01*
X160458304Y-65319218D01*
X160372723Y-65430750D01*
X160372722Y-65430751D01*
X160318929Y-65560620D01*
X160318927Y-65560625D01*
X160300579Y-65699998D01*
X159972139Y-65699998D01*
X159953790Y-65560624D01*
X159899993Y-65430747D01*
X159814414Y-65319218D01*
X159814412Y-65319217D01*
X159814412Y-65319216D01*
X159702886Y-65233639D01*
X159702884Y-65233637D01*
X159573011Y-65179843D01*
X159573006Y-65179841D01*
X159433633Y-65161493D01*
X159433631Y-65161493D01*
X159294257Y-65179841D01*
X159294252Y-65179843D01*
X159164383Y-65233636D01*
X159164382Y-65233637D01*
X159052850Y-65319218D01*
X158967269Y-65430750D01*
X158967268Y-65430751D01*
X158913475Y-65560620D01*
X158913473Y-65560625D01*
X158895125Y-65699998D01*
X158566685Y-65699998D01*
X158548336Y-65560624D01*
X158494539Y-65430747D01*
X158408960Y-65319218D01*
X158408958Y-65319217D01*
X158408958Y-65319216D01*
X158297432Y-65233639D01*
X158297430Y-65233637D01*
X158167557Y-65179843D01*
X158167552Y-65179841D01*
X158028179Y-65161493D01*
X158028177Y-65161493D01*
X157889463Y-65179755D01*
X157820428Y-65168989D01*
X157768172Y-65122609D01*
X157749278Y-65056816D01*
X157749278Y-64613591D01*
X157768963Y-64546552D01*
X157821767Y-64500797D01*
X157890925Y-64490853D01*
X157896065Y-64491703D01*
X157897653Y-64492000D01*
X157897654Y-64492000D01*
X158102344Y-64492000D01*
X158102347Y-64492000D01*
X158303556Y-64454388D01*
X158494427Y-64380444D01*
X158668462Y-64272686D01*
X158799171Y-64153529D01*
X158819730Y-64134787D01*
X158819732Y-64134785D01*
X158943088Y-63971435D01*
X159034328Y-63788201D01*
X159090345Y-63591321D01*
X159109232Y-63387500D01*
X159090345Y-63183679D01*
X159077206Y-63137499D01*
X159463312Y-63137499D01*
X159463313Y-63137500D01*
X160106988Y-63137500D01*
X160074075Y-63194507D01*
X160040000Y-63321674D01*
X160040000Y-63453326D01*
X160074075Y-63580493D01*
X160106988Y-63637500D01*
X159463313Y-63637500D01*
X159506140Y-63788022D01*
X159597339Y-63971171D01*
X159720640Y-64134449D01*
X159871836Y-64272282D01*
X159871842Y-64272286D01*
X160045793Y-64379992D01*
X160045808Y-64379999D01*
X160236573Y-64453902D01*
X160290000Y-64463889D01*
X160290000Y-63820512D01*
X160347007Y-63853425D01*
X160474174Y-63887500D01*
X160605826Y-63887500D01*
X160732993Y-63853425D01*
X160790000Y-63820512D01*
X160790000Y-64463889D01*
X160843426Y-64453902D01*
X161034191Y-64379999D01*
X161034206Y-64379992D01*
X161208157Y-64272286D01*
X161208163Y-64272282D01*
X161359359Y-64134449D01*
X161482660Y-63971171D01*
X161573859Y-63788022D01*
X161616687Y-63637500D01*
X160973012Y-63637500D01*
X161005925Y-63580493D01*
X161040000Y-63453326D01*
X161040000Y-63321674D01*
X161005925Y-63194507D01*
X160973012Y-63137500D01*
X161616687Y-63137500D01*
X161616687Y-63137499D01*
X161573859Y-62986977D01*
X161482660Y-62803828D01*
X161359359Y-62640550D01*
X161208163Y-62502717D01*
X161208157Y-62502713D01*
X161034206Y-62395007D01*
X161034200Y-62395004D01*
X160843417Y-62321095D01*
X160843407Y-62321092D01*
X160790001Y-62311108D01*
X160790000Y-62311109D01*
X160790000Y-62954488D01*
X160732993Y-62921575D01*
X160605826Y-62887500D01*
X160474174Y-62887500D01*
X160347007Y-62921575D01*
X160290000Y-62954488D01*
X160290000Y-62311109D01*
X160289998Y-62311108D01*
X160236592Y-62321092D01*
X160236582Y-62321095D01*
X160045799Y-62395004D01*
X160045793Y-62395007D01*
X159871842Y-62502713D01*
X159871836Y-62502717D01*
X159720640Y-62640550D01*
X159597339Y-62803828D01*
X159506140Y-62986977D01*
X159463312Y-63137499D01*
X159077206Y-63137499D01*
X159034328Y-62986799D01*
X158943088Y-62803565D01*
X158819732Y-62640215D01*
X158819730Y-62640212D01*
X158668462Y-62502314D01*
X158668460Y-62502312D01*
X158494430Y-62394557D01*
X158494424Y-62394554D01*
X158336078Y-62333211D01*
X158303556Y-62320612D01*
X158102347Y-62283000D01*
X157897653Y-62283000D01*
X157696444Y-62320612D01*
X157696441Y-62320612D01*
X157696441Y-62320613D01*
X157505575Y-62394554D01*
X157505569Y-62394557D01*
X157331539Y-62502312D01*
X157331537Y-62502314D01*
X157180269Y-62640212D01*
X157056912Y-62803564D01*
X156965673Y-62986795D01*
X156909654Y-63183683D01*
X156890768Y-63387499D01*
X156890768Y-63387500D01*
X156909654Y-63591316D01*
X156909654Y-63591318D01*
X156909655Y-63591321D01*
X156910140Y-63593024D01*
X156965671Y-63788199D01*
X156965673Y-63788204D01*
X156989727Y-63836510D01*
X157001988Y-63905296D01*
X156998502Y-63923873D01*
X156986278Y-63969493D01*
X156986278Y-65087120D01*
X156966593Y-65154159D01*
X156913789Y-65199914D01*
X156844631Y-65209858D01*
X156814827Y-65201682D01*
X156762100Y-65179842D01*
X156762097Y-65179841D01*
X156762098Y-65179841D01*
X156622725Y-65161493D01*
X156622723Y-65161493D01*
X156483350Y-65179841D01*
X156430622Y-65201682D01*
X156361152Y-65209150D01*
X156298673Y-65177874D01*
X156263021Y-65117785D01*
X156259170Y-65087120D01*
X156259170Y-64203574D01*
X156278855Y-64136535D01*
X156284216Y-64128847D01*
X156305777Y-64100296D01*
X156403088Y-63971435D01*
X156494328Y-63788201D01*
X156550345Y-63591321D01*
X156569232Y-63387500D01*
X156550345Y-63183679D01*
X156494328Y-62986799D01*
X156403088Y-62803565D01*
X156279732Y-62640215D01*
X156279730Y-62640212D01*
X156128462Y-62502314D01*
X156128460Y-62502312D01*
X155954430Y-62394557D01*
X155954424Y-62394554D01*
X155796078Y-62333211D01*
X155763556Y-62320612D01*
X155562347Y-62283000D01*
X155357653Y-62283000D01*
X155156444Y-62320612D01*
X155156441Y-62320612D01*
X155156441Y-62320613D01*
X154965575Y-62394554D01*
X154965569Y-62394557D01*
X154791539Y-62502312D01*
X154791537Y-62502314D01*
X154640269Y-62640212D01*
X154516912Y-62803564D01*
X154425673Y-62986795D01*
X154369654Y-63183683D01*
X154350768Y-63387499D01*
X154350768Y-63387500D01*
X154369654Y-63591316D01*
X154369654Y-63591318D01*
X154369655Y-63591321D01*
X154425672Y-63788201D01*
X154425673Y-63788204D01*
X154516912Y-63971435D01*
X154640269Y-64134787D01*
X154791537Y-64272685D01*
X154791539Y-64272687D01*
X154965569Y-64380442D01*
X154965575Y-64380445D01*
X154995126Y-64391893D01*
X155156444Y-64454388D01*
X155357653Y-64492000D01*
X155372170Y-64492000D01*
X155439209Y-64511685D01*
X155484964Y-64564489D01*
X155496170Y-64616000D01*
X155496170Y-65056816D01*
X155476485Y-65123855D01*
X155423681Y-65169610D01*
X155355985Y-65179755D01*
X155217271Y-65161493D01*
X155217269Y-65161493D01*
X155077895Y-65179841D01*
X155077890Y-65179843D01*
X154948021Y-65233636D01*
X154948020Y-65233637D01*
X154836488Y-65319218D01*
X154750907Y-65430750D01*
X154750906Y-65430751D01*
X154697113Y-65560620D01*
X154697111Y-65560625D01*
X154678763Y-65699998D01*
X154678763Y-65700001D01*
X154697111Y-65839374D01*
X154697113Y-65839379D01*
X154750907Y-65969252D01*
X154750909Y-65969255D01*
X154836487Y-66080781D01*
X154836488Y-66080782D01*
X154948014Y-66166360D01*
X154948017Y-66166362D01*
X155025167Y-66198318D01*
X155077894Y-66220158D01*
X155147582Y-66229332D01*
X155217269Y-66238507D01*
X155217270Y-66238507D01*
X155355988Y-66220244D01*
X155425019Y-66231009D01*
X155477275Y-66277389D01*
X155496170Y-66343183D01*
X155496170Y-72612944D01*
X155476485Y-72679983D01*
X155459851Y-72700625D01*
X142578592Y-85581883D01*
X142517269Y-85615368D01*
X142507097Y-85617141D01*
X142410624Y-85629842D01*
X142410620Y-85629843D01*
X142280751Y-85683636D01*
X142280750Y-85683637D01*
X142280747Y-85683638D01*
X142280747Y-85683639D01*
X142169218Y-85769218D01*
X142145598Y-85800001D01*
X142083637Y-85880750D01*
X142083636Y-85880751D01*
X142029843Y-86010620D01*
X142029841Y-86010625D01*
X142011493Y-86149998D01*
X139889523Y-86149998D01*
X152051238Y-73988285D01*
X152101463Y-73901292D01*
X152127462Y-73804263D01*
X152127462Y-66343183D01*
X152147147Y-66276144D01*
X152199951Y-66230389D01*
X152267643Y-66220244D01*
X152406362Y-66238507D01*
X152406363Y-66238507D01*
X152452820Y-66232390D01*
X152545738Y-66220158D01*
X152675616Y-66166361D01*
X152787144Y-66080782D01*
X152872723Y-65969254D01*
X152926520Y-65839376D01*
X152944869Y-65700000D01*
X152944869Y-65699998D01*
X153273309Y-65699998D01*
X153273309Y-65700001D01*
X153291657Y-65839374D01*
X153291659Y-65839379D01*
X153345453Y-65969252D01*
X153345455Y-65969255D01*
X153431033Y-66080781D01*
X153431034Y-66080782D01*
X153542560Y-66166360D01*
X153542563Y-66166362D01*
X153619713Y-66198318D01*
X153672440Y-66220158D01*
X153742128Y-66229332D01*
X153811815Y-66238507D01*
X153811816Y-66238507D01*
X153811817Y-66238507D01*
X153858274Y-66232390D01*
X153951192Y-66220158D01*
X154081070Y-66166361D01*
X154192598Y-66080782D01*
X154278177Y-65969254D01*
X154331974Y-65839376D01*
X154350323Y-65700000D01*
X154331974Y-65560624D01*
X154278177Y-65430747D01*
X154192598Y-65319218D01*
X154192596Y-65319217D01*
X154192596Y-65319216D01*
X154081070Y-65233639D01*
X154081068Y-65233637D01*
X153951195Y-65179843D01*
X153951190Y-65179841D01*
X153811817Y-65161493D01*
X153811815Y-65161493D01*
X153672441Y-65179841D01*
X153672436Y-65179843D01*
X153542567Y-65233636D01*
X153542566Y-65233637D01*
X153431034Y-65319218D01*
X153345453Y-65430750D01*
X153345452Y-65430751D01*
X153291659Y-65560620D01*
X153291657Y-65560625D01*
X153273309Y-65699998D01*
X152944869Y-65699998D01*
X152926520Y-65560624D01*
X152872723Y-65430747D01*
X152787144Y-65319218D01*
X152787142Y-65319217D01*
X152787142Y-65319216D01*
X152675616Y-65233639D01*
X152675614Y-65233637D01*
X152545741Y-65179843D01*
X152545736Y-65179841D01*
X152406363Y-65161493D01*
X152406361Y-65161493D01*
X152267647Y-65179755D01*
X152198612Y-65168989D01*
X152146356Y-65122609D01*
X152127462Y-65056816D01*
X152127462Y-64770921D01*
X152147147Y-64703882D01*
X152163777Y-64683244D01*
X152397996Y-64449024D01*
X152459317Y-64415541D01*
X152529008Y-64420525D01*
X152530469Y-64421081D01*
X152582358Y-64441183D01*
X152616444Y-64454388D01*
X152817653Y-64492000D01*
X152817656Y-64492000D01*
X153022344Y-64492000D01*
X153022347Y-64492000D01*
X153223556Y-64454388D01*
X153414427Y-64380444D01*
X153588462Y-64272686D01*
X153719171Y-64153529D01*
X153739730Y-64134787D01*
X153739732Y-64134785D01*
X153863088Y-63971435D01*
X153954328Y-63788201D01*
X154010345Y-63591321D01*
X154029232Y-63387500D01*
X154010345Y-63183679D01*
X153954328Y-62986799D01*
X153863088Y-62803565D01*
X153739732Y-62640215D01*
X153739730Y-62640212D01*
X153588462Y-62502314D01*
X153588460Y-62502312D01*
X153414430Y-62394557D01*
X153414424Y-62394554D01*
X153256078Y-62333211D01*
X153223556Y-62320612D01*
X153022347Y-62283000D01*
X152817653Y-62283000D01*
X152616444Y-62320612D01*
X152616441Y-62320612D01*
X152616441Y-62320613D01*
X152425575Y-62394554D01*
X152425569Y-62394557D01*
X152251539Y-62502312D01*
X152251537Y-62502314D01*
X152100269Y-62640212D01*
X151976912Y-62803564D01*
X151885673Y-62986795D01*
X151829654Y-63183683D01*
X151810768Y-63387499D01*
X151810768Y-63387500D01*
X151829654Y-63591316D01*
X151829654Y-63591318D01*
X151829655Y-63591321D01*
X151830140Y-63593024D01*
X151886574Y-63791372D01*
X151885986Y-63861240D01*
X151854988Y-63912987D01*
X151696180Y-64071795D01*
X151634857Y-64105280D01*
X151565165Y-64100296D01*
X151509232Y-64058424D01*
X151484815Y-63992960D01*
X151484499Y-63984137D01*
X151484499Y-62512434D01*
X151469734Y-62438199D01*
X151440571Y-62394554D01*
X151413484Y-62354015D01*
X151349268Y-62311108D01*
X151329301Y-62297766D01*
X151329299Y-62297765D01*
X151329296Y-62297764D01*
X151255069Y-62283000D01*
X149504936Y-62283000D01*
X149430698Y-62297766D01*
X149346515Y-62354015D01*
X149290266Y-62438199D01*
X149290264Y-62438203D01*
X149275500Y-62512428D01*
X149275500Y-64262563D01*
X149290266Y-64336801D01*
X149346515Y-64420984D01*
X149380234Y-64443514D01*
X149430699Y-64477234D01*
X149430702Y-64477234D01*
X149430703Y-64477235D01*
X149455666Y-64482200D01*
X149504933Y-64492000D01*
X149750355Y-64491999D01*
X149817393Y-64511683D01*
X149863148Y-64564487D01*
X149874354Y-64615999D01*
X149874354Y-65056816D01*
X149854669Y-65123855D01*
X149801865Y-65169610D01*
X149734169Y-65179755D01*
X149595455Y-65161493D01*
X149595453Y-65161493D01*
X149456079Y-65179841D01*
X149456074Y-65179843D01*
X149326205Y-65233636D01*
X149326204Y-65233637D01*
X149214672Y-65319218D01*
X149129091Y-65430750D01*
X149129090Y-65430751D01*
X149075297Y-65560620D01*
X149075295Y-65560625D01*
X149056947Y-65699998D01*
X149056947Y-65700001D01*
X149075295Y-65839374D01*
X149075297Y-65839379D01*
X149129091Y-65969252D01*
X149129093Y-65969255D01*
X149214671Y-66080781D01*
X149214672Y-66080782D01*
X149326198Y-66166360D01*
X149326201Y-66166362D01*
X149403351Y-66198318D01*
X149456078Y-66220158D01*
X149525766Y-66229332D01*
X149595453Y-66238507D01*
X149595454Y-66238507D01*
X149734172Y-66220244D01*
X149803203Y-66231009D01*
X149855459Y-66277389D01*
X149874354Y-66343183D01*
X149874354Y-74034760D01*
X149854669Y-74101799D01*
X149838035Y-74122441D01*
X137528592Y-86431883D01*
X137467269Y-86465368D01*
X137457097Y-86467141D01*
X137360624Y-86479842D01*
X137360620Y-86479843D01*
X137230751Y-86533636D01*
X137230750Y-86533637D01*
X137230747Y-86533638D01*
X137230747Y-86533639D01*
X137119218Y-86619218D01*
X137039825Y-86722686D01*
X137033637Y-86730750D01*
X137033636Y-86730751D01*
X136979843Y-86860620D01*
X136979841Y-86860625D01*
X136961493Y-86999998D01*
X136961493Y-87000001D01*
X136979755Y-87138715D01*
X136968989Y-87207750D01*
X136922609Y-87260006D01*
X136856816Y-87278900D01*
X135869785Y-87278900D01*
X135802746Y-87259215D01*
X135782104Y-87242581D01*
X135568116Y-87028593D01*
X135534631Y-86967270D01*
X135532858Y-86957097D01*
X135521294Y-86869255D01*
X135520158Y-86860624D01*
X135477194Y-86756899D01*
X135466363Y-86730751D01*
X135466362Y-86730750D01*
X135466361Y-86730747D01*
X135380782Y-86619218D01*
X135380780Y-86619217D01*
X135380780Y-86619216D01*
X135269254Y-86533639D01*
X135269252Y-86533637D01*
X135139379Y-86479843D01*
X135139374Y-86479841D01*
X135000001Y-86461493D01*
X134999999Y-86461493D01*
X134860625Y-86479841D01*
X134860620Y-86479843D01*
X134730751Y-86533636D01*
X134730750Y-86533637D01*
X134730747Y-86533638D01*
X134730747Y-86533639D01*
X134619218Y-86619218D01*
X134539825Y-86722686D01*
X134533637Y-86730750D01*
X134533636Y-86730751D01*
X134479843Y-86860620D01*
X134479841Y-86860625D01*
X134461493Y-86999998D01*
X133138507Y-86999998D01*
X133120158Y-86860625D01*
X133120158Y-86860624D01*
X133066361Y-86730747D01*
X133066360Y-86730746D01*
X133066360Y-86730745D01*
X133007124Y-86653547D01*
X132981930Y-86588378D01*
X132981500Y-86578061D01*
X132981500Y-85799998D01*
X135261493Y-85799998D01*
X135261493Y-85800001D01*
X135279841Y-85939374D01*
X135279843Y-85939379D01*
X135333637Y-86069252D01*
X135333639Y-86069255D01*
X135419217Y-86180781D01*
X135419218Y-86180782D01*
X135530744Y-86266360D01*
X135530747Y-86266362D01*
X135612644Y-86300284D01*
X135660624Y-86320158D01*
X135730312Y-86329332D01*
X135799999Y-86338507D01*
X135800000Y-86338507D01*
X135800001Y-86338507D01*
X135858921Y-86330750D01*
X135939376Y-86320158D01*
X136045264Y-86276297D01*
X136069252Y-86266362D01*
X136069255Y-86266360D01*
X136180782Y-86180782D01*
X136266361Y-86069254D01*
X136320158Y-85939376D01*
X136338507Y-85800000D01*
X136320158Y-85660624D01*
X136287542Y-85581883D01*
X136266363Y-85530751D01*
X136266362Y-85530750D01*
X136266361Y-85530747D01*
X136180782Y-85419218D01*
X136180780Y-85419217D01*
X136180780Y-85419216D01*
X136069254Y-85333639D01*
X136069252Y-85333637D01*
X135939379Y-85279843D01*
X135939374Y-85279841D01*
X135800001Y-85261493D01*
X135799999Y-85261493D01*
X135660625Y-85279841D01*
X135660620Y-85279843D01*
X135530751Y-85333636D01*
X135530750Y-85333637D01*
X135530747Y-85333638D01*
X135530747Y-85333639D01*
X135419218Y-85419218D01*
X135339489Y-85523124D01*
X135333637Y-85530750D01*
X135333636Y-85530751D01*
X135279843Y-85660620D01*
X135279841Y-85660625D01*
X135261493Y-85799998D01*
X132981500Y-85799998D01*
X132981500Y-85475437D01*
X133001185Y-85408398D01*
X133017819Y-85387756D01*
X145787756Y-72617819D01*
X145849079Y-72584334D01*
X145875437Y-72581500D01*
X145978062Y-72581500D01*
X146045101Y-72601185D01*
X146053549Y-72607125D01*
X146130744Y-72666360D01*
X146130747Y-72666362D01*
X146212644Y-72700284D01*
X146260624Y-72720158D01*
X146330312Y-72729332D01*
X146399999Y-72738507D01*
X146400000Y-72738507D01*
X146400001Y-72738507D01*
X146446458Y-72732390D01*
X146539376Y-72720158D01*
X146669254Y-72666361D01*
X146780782Y-72580782D01*
X146866361Y-72469254D01*
X146920158Y-72339376D01*
X146938507Y-72200000D01*
X146920158Y-72060624D01*
X146866361Y-71930747D01*
X146780782Y-71819218D01*
X146780780Y-71819217D01*
X146780780Y-71819216D01*
X146669254Y-71733639D01*
X146669252Y-71733637D01*
X146539379Y-71679843D01*
X146539374Y-71679841D01*
X146400001Y-71661493D01*
X146399999Y-71661493D01*
X146260625Y-71679841D01*
X146260620Y-71679843D01*
X146130751Y-71733636D01*
X146130750Y-71733636D01*
X146096745Y-71759729D01*
X146053546Y-71792876D01*
X145988379Y-71818070D01*
X145978062Y-71818500D01*
X145615828Y-71818500D01*
X145557717Y-71834071D01*
X145518798Y-71844499D01*
X145431807Y-71894723D01*
X145431804Y-71894725D01*
X145360775Y-71965755D01*
X132348312Y-84978217D01*
X132348311Y-84978217D01*
X132348312Y-84978218D01*
X132294722Y-85031807D01*
X132244499Y-85118798D01*
X132244499Y-85118799D01*
X132218500Y-85215828D01*
X132218500Y-85215830D01*
X132218500Y-86578061D01*
X132198815Y-86645100D01*
X132192875Y-86653548D01*
X132148374Y-86711542D01*
X132091946Y-86752744D01*
X132022200Y-86756899D01*
X131961280Y-86722686D01*
X131951629Y-86711548D01*
X131880782Y-86619218D01*
X131880780Y-86619217D01*
X131880780Y-86619216D01*
X131769254Y-86533639D01*
X131769252Y-86533637D01*
X131639379Y-86479843D01*
X131639374Y-86479841D01*
X131500001Y-86461493D01*
X131499999Y-86461493D01*
X131360625Y-86479841D01*
X131360620Y-86479843D01*
X131230751Y-86533636D01*
X131175485Y-86576043D01*
X131110316Y-86601236D01*
X131041871Y-86587197D01*
X131024513Y-86576041D01*
X130969255Y-86533639D01*
X130969252Y-86533637D01*
X130839379Y-86479843D01*
X130839374Y-86479841D01*
X130700001Y-86461493D01*
X130699999Y-86461493D01*
X130560625Y-86479841D01*
X130560620Y-86479843D01*
X130430751Y-86533636D01*
X130430750Y-86533637D01*
X130319216Y-86619219D01*
X130313471Y-86624965D01*
X130311201Y-86622695D01*
X130266918Y-86655013D01*
X130197171Y-86659150D01*
X130136259Y-86624922D01*
X130134785Y-86623221D01*
X130130780Y-86619216D01*
X130103619Y-86598374D01*
X130062417Y-86541946D01*
X130058262Y-86472200D01*
X130092475Y-86411280D01*
X130103605Y-86401635D01*
X130130782Y-86380782D01*
X130216361Y-86269254D01*
X130270158Y-86139376D01*
X130288507Y-86000000D01*
X130279522Y-85931755D01*
X130270158Y-85860625D01*
X130270156Y-85860620D01*
X130251823Y-85816361D01*
X130232296Y-85769218D01*
X130216363Y-85730751D01*
X130216362Y-85730750D01*
X130216361Y-85730747D01*
X130135590Y-85625484D01*
X130110397Y-85560317D01*
X130124435Y-85491872D01*
X130135592Y-85474513D01*
X130178024Y-85419216D01*
X130216361Y-85369254D01*
X130270158Y-85239376D01*
X130282390Y-85146458D01*
X130288507Y-85100001D01*
X130288507Y-85099998D01*
X130270158Y-84960625D01*
X130270156Y-84960620D01*
X130261483Y-84939682D01*
X130216361Y-84830747D01*
X130130782Y-84719218D01*
X130130780Y-84719217D01*
X130130780Y-84719216D01*
X130019254Y-84633639D01*
X130019252Y-84633637D01*
X129889379Y-84579843D01*
X129889374Y-84579841D01*
X129750001Y-84561493D01*
X129749999Y-84561493D01*
X129610625Y-84579841D01*
X129610620Y-84579843D01*
X129480751Y-84633636D01*
X129480750Y-84633637D01*
X129480747Y-84633638D01*
X129480747Y-84633639D01*
X129369218Y-84719218D01*
X129292460Y-84819252D01*
X129283637Y-84830750D01*
X129283636Y-84830751D01*
X129229843Y-84960620D01*
X129229841Y-84960625D01*
X129211493Y-85099998D01*
X115500500Y-85099998D01*
X115500500Y-67287493D01*
X117110689Y-67287493D01*
X117110689Y-67287506D01*
X117129922Y-67740292D01*
X117187490Y-68189849D01*
X117282973Y-68632889D01*
X117282975Y-68632897D01*
X117415684Y-69066239D01*
X117415689Y-69066253D01*
X117584663Y-69486758D01*
X117584667Y-69486769D01*
X117774393Y-69863067D01*
X117788706Y-69891455D01*
X118026329Y-70277380D01*
X118295825Y-70641762D01*
X118595252Y-70981977D01*
X118922452Y-71295573D01*
X119275069Y-71580291D01*
X119650560Y-71834079D01*
X119823604Y-71930747D01*
X120046212Y-72055104D01*
X120046234Y-72055115D01*
X120459197Y-72241786D01*
X120459203Y-72241788D01*
X120886528Y-72392772D01*
X121325118Y-72506971D01*
X121771812Y-72583565D01*
X121932358Y-72597229D01*
X122223374Y-72621999D01*
X122223391Y-72621999D01*
X122223393Y-72622000D01*
X122223394Y-72622000D01*
X122676606Y-72622000D01*
X122676607Y-72622000D01*
X122676608Y-72621999D01*
X122676625Y-72621999D01*
X122927504Y-72600645D01*
X123128188Y-72583565D01*
X123574882Y-72506971D01*
X124013472Y-72392772D01*
X124440797Y-72241788D01*
X124440799Y-72241786D01*
X124440802Y-72241786D01*
X124853765Y-72055115D01*
X124853767Y-72055113D01*
X124853778Y-72055109D01*
X125249440Y-71834079D01*
X125624931Y-71580291D01*
X125977548Y-71295573D01*
X126304748Y-70981977D01*
X126604175Y-70641762D01*
X126873671Y-70277380D01*
X127111294Y-69891455D01*
X127315332Y-69486769D01*
X127484316Y-69066237D01*
X127617027Y-68632889D01*
X127712510Y-68189848D01*
X127770076Y-67740305D01*
X127789311Y-67287500D01*
X127770076Y-66834695D01*
X127712510Y-66385152D01*
X127617027Y-65942111D01*
X127542881Y-65699998D01*
X147651493Y-65699998D01*
X147651493Y-65700001D01*
X147669841Y-65839374D01*
X147669843Y-65839379D01*
X147723637Y-65969252D01*
X147723639Y-65969255D01*
X147809217Y-66080781D01*
X147809218Y-66080782D01*
X147920744Y-66166360D01*
X147920747Y-66166362D01*
X147997897Y-66198318D01*
X148050624Y-66220158D01*
X148120312Y-66229332D01*
X148189999Y-66238507D01*
X148190000Y-66238507D01*
X148190001Y-66238507D01*
X148236458Y-66232390D01*
X148329376Y-66220158D01*
X148459254Y-66166361D01*
X148570782Y-66080782D01*
X148656361Y-65969254D01*
X148710158Y-65839376D01*
X148728507Y-65700000D01*
X148710158Y-65560624D01*
X148656361Y-65430747D01*
X148570782Y-65319218D01*
X148570780Y-65319217D01*
X148570780Y-65319216D01*
X148459254Y-65233639D01*
X148459252Y-65233637D01*
X148329379Y-65179843D01*
X148329374Y-65179841D01*
X148190001Y-65161493D01*
X148189999Y-65161493D01*
X148050625Y-65179841D01*
X148050620Y-65179843D01*
X147920751Y-65233636D01*
X147920750Y-65233637D01*
X147809218Y-65319218D01*
X147723637Y-65430750D01*
X147723636Y-65430751D01*
X147669843Y-65560620D01*
X147669841Y-65560625D01*
X147651493Y-65699998D01*
X127542881Y-65699998D01*
X127484316Y-65508763D01*
X127484315Y-65508760D01*
X127484310Y-65508746D01*
X127315336Y-65088241D01*
X127315332Y-65088230D01*
X127129452Y-64719560D01*
X127111294Y-64683545D01*
X126873671Y-64297620D01*
X126604175Y-63933238D01*
X126563920Y-63887500D01*
X126304749Y-63593024D01*
X126304748Y-63593023D01*
X125977550Y-63279429D01*
X125872376Y-63194507D01*
X125624931Y-62994709D01*
X125249440Y-62740921D01*
X125069768Y-62640550D01*
X124853787Y-62519895D01*
X124853765Y-62519884D01*
X124440802Y-62333213D01*
X124440796Y-62333211D01*
X124013467Y-62182226D01*
X123574880Y-62068028D01*
X123128191Y-61991435D01*
X123128183Y-61991434D01*
X122676625Y-61953000D01*
X122676607Y-61953000D01*
X122223393Y-61953000D01*
X122223374Y-61953000D01*
X121771816Y-61991434D01*
X121771808Y-61991435D01*
X121325119Y-62068028D01*
X120886532Y-62182226D01*
X120459203Y-62333211D01*
X120459197Y-62333213D01*
X120046234Y-62519884D01*
X120046212Y-62519895D01*
X119650568Y-62740916D01*
X119650549Y-62740928D01*
X119275074Y-62994705D01*
X118922449Y-63279429D01*
X118595251Y-63593023D01*
X118595250Y-63593024D01*
X118295836Y-63933224D01*
X118295829Y-63933233D01*
X118295825Y-63933238D01*
X118168583Y-64105280D01*
X118026328Y-64297621D01*
X117788707Y-64683542D01*
X117788697Y-64683562D01*
X117584667Y-65088230D01*
X117584663Y-65088241D01*
X117415689Y-65508746D01*
X117415684Y-65508760D01*
X117282975Y-65942102D01*
X117282973Y-65942110D01*
X117187490Y-66385150D01*
X117129922Y-66834707D01*
X117110689Y-67287493D01*
X115500500Y-67287493D01*
X115500500Y-60124500D01*
X115520185Y-60057461D01*
X115572989Y-60011706D01*
X115624500Y-60000500D01*
X168425500Y-60000500D01*
X168492539Y-60020185D01*
G37*
%TD.AperFunction*%
%TD*%
M02*
