%TF.GenerationSoftware,KiCad,Pcbnew,8.0.4*%
%TF.CreationDate,2024-11-18T17:08:07-08:00*%
%TF.ProjectId,USBC_UART_Dock_Prototype,55534243-5f55-4415-9254-5f446f636b5f,rev?*%
%TF.SameCoordinates,Original*%
%TF.FileFunction,Legend,Top*%
%TF.FilePolarity,Positive*%
%FSLAX46Y46*%
G04 Gerber Fmt 4.6, Leading zero omitted, Abs format (unit mm)*
G04 Created by KiCad (PCBNEW 8.0.4) date 2024-11-18 17:08:07*
%MOMM*%
%LPD*%
G01*
G04 APERTURE LIST*
%ADD10C,0.100000*%
%ADD11C,0.150000*%
%ADD12C,0.120000*%
%ADD13C,0.000000*%
%ADD14C,0.210000*%
%ADD15C,0.170000*%
G04 APERTURE END LIST*
D10*
X157209241Y-60596895D02*
X157666384Y-60596895D01*
X157437812Y-61396895D02*
X157437812Y-60596895D01*
X157856860Y-60596895D02*
X158390194Y-61396895D01*
X158390194Y-60596895D02*
X157856860Y-61396895D01*
X149663408Y-61320704D02*
X149625312Y-61358800D01*
X149625312Y-61358800D02*
X149511027Y-61396895D01*
X149511027Y-61396895D02*
X149434836Y-61396895D01*
X149434836Y-61396895D02*
X149320550Y-61358800D01*
X149320550Y-61358800D02*
X149244360Y-61282609D01*
X149244360Y-61282609D02*
X149206265Y-61206419D01*
X149206265Y-61206419D02*
X149168169Y-61054038D01*
X149168169Y-61054038D02*
X149168169Y-60939752D01*
X149168169Y-60939752D02*
X149206265Y-60787371D01*
X149206265Y-60787371D02*
X149244360Y-60711180D01*
X149244360Y-60711180D02*
X149320550Y-60634990D01*
X149320550Y-60634990D02*
X149434836Y-60596895D01*
X149434836Y-60596895D02*
X149511027Y-60596895D01*
X149511027Y-60596895D02*
X149625312Y-60634990D01*
X149625312Y-60634990D02*
X149663408Y-60673085D01*
X149891979Y-60596895D02*
X150349122Y-60596895D01*
X150120550Y-61396895D02*
X150120550Y-60596895D01*
X150577693Y-61358800D02*
X150691979Y-61396895D01*
X150691979Y-61396895D02*
X150882455Y-61396895D01*
X150882455Y-61396895D02*
X150958646Y-61358800D01*
X150958646Y-61358800D02*
X150996741Y-61320704D01*
X150996741Y-61320704D02*
X151034836Y-61244514D01*
X151034836Y-61244514D02*
X151034836Y-61168323D01*
X151034836Y-61168323D02*
X150996741Y-61092133D01*
X150996741Y-61092133D02*
X150958646Y-61054038D01*
X150958646Y-61054038D02*
X150882455Y-61015942D01*
X150882455Y-61015942D02*
X150730074Y-60977847D01*
X150730074Y-60977847D02*
X150653884Y-60939752D01*
X150653884Y-60939752D02*
X150615789Y-60901657D01*
X150615789Y-60901657D02*
X150577693Y-60825466D01*
X150577693Y-60825466D02*
X150577693Y-60749276D01*
X150577693Y-60749276D02*
X150615789Y-60673085D01*
X150615789Y-60673085D02*
X150653884Y-60634990D01*
X150653884Y-60634990D02*
X150730074Y-60596895D01*
X150730074Y-60596895D02*
X150920551Y-60596895D01*
X150920551Y-60596895D02*
X151034836Y-60634990D01*
X147014895Y-79573809D02*
X147014895Y-79954761D01*
X147014895Y-79954761D02*
X146214895Y-79954761D01*
X147014895Y-79307142D02*
X146214895Y-79307142D01*
X146214895Y-79307142D02*
X146214895Y-79116666D01*
X146214895Y-79116666D02*
X146252990Y-79002380D01*
X146252990Y-79002380D02*
X146329180Y-78926190D01*
X146329180Y-78926190D02*
X146405371Y-78888095D01*
X146405371Y-78888095D02*
X146557752Y-78849999D01*
X146557752Y-78849999D02*
X146672038Y-78849999D01*
X146672038Y-78849999D02*
X146824419Y-78888095D01*
X146824419Y-78888095D02*
X146900609Y-78926190D01*
X146900609Y-78926190D02*
X146976800Y-79002380D01*
X146976800Y-79002380D02*
X147014895Y-79116666D01*
X147014895Y-79116666D02*
X147014895Y-79307142D01*
X147091085Y-78697619D02*
X147091085Y-78088095D01*
X147014895Y-77897618D02*
X146214895Y-77897618D01*
X146214895Y-77897618D02*
X146214895Y-77707142D01*
X146214895Y-77707142D02*
X146252990Y-77592856D01*
X146252990Y-77592856D02*
X146329180Y-77516666D01*
X146329180Y-77516666D02*
X146405371Y-77478571D01*
X146405371Y-77478571D02*
X146557752Y-77440475D01*
X146557752Y-77440475D02*
X146672038Y-77440475D01*
X146672038Y-77440475D02*
X146824419Y-77478571D01*
X146824419Y-77478571D02*
X146900609Y-77516666D01*
X146900609Y-77516666D02*
X146976800Y-77592856D01*
X146976800Y-77592856D02*
X147014895Y-77707142D01*
X147014895Y-77707142D02*
X147014895Y-77897618D01*
X146595847Y-77097618D02*
X146595847Y-76830952D01*
X147014895Y-76716666D02*
X147014895Y-77097618D01*
X147014895Y-77097618D02*
X146214895Y-77097618D01*
X146214895Y-77097618D02*
X146214895Y-76716666D01*
X146214895Y-76488094D02*
X146214895Y-76030951D01*
X147014895Y-76259523D02*
X146214895Y-76259523D01*
X159774895Y-80526190D02*
X160422514Y-80526190D01*
X160422514Y-80526190D02*
X160498704Y-80488095D01*
X160498704Y-80488095D02*
X160536800Y-80450000D01*
X160536800Y-80450000D02*
X160574895Y-80373809D01*
X160574895Y-80373809D02*
X160574895Y-80221428D01*
X160574895Y-80221428D02*
X160536800Y-80145238D01*
X160536800Y-80145238D02*
X160498704Y-80107143D01*
X160498704Y-80107143D02*
X160422514Y-80069047D01*
X160422514Y-80069047D02*
X159774895Y-80069047D01*
X160536800Y-79726191D02*
X160574895Y-79611905D01*
X160574895Y-79611905D02*
X160574895Y-79421429D01*
X160574895Y-79421429D02*
X160536800Y-79345238D01*
X160536800Y-79345238D02*
X160498704Y-79307143D01*
X160498704Y-79307143D02*
X160422514Y-79269048D01*
X160422514Y-79269048D02*
X160346323Y-79269048D01*
X160346323Y-79269048D02*
X160270133Y-79307143D01*
X160270133Y-79307143D02*
X160232038Y-79345238D01*
X160232038Y-79345238D02*
X160193942Y-79421429D01*
X160193942Y-79421429D02*
X160155847Y-79573810D01*
X160155847Y-79573810D02*
X160117752Y-79650000D01*
X160117752Y-79650000D02*
X160079657Y-79688095D01*
X160079657Y-79688095D02*
X160003466Y-79726191D01*
X160003466Y-79726191D02*
X159927276Y-79726191D01*
X159927276Y-79726191D02*
X159851085Y-79688095D01*
X159851085Y-79688095D02*
X159812990Y-79650000D01*
X159812990Y-79650000D02*
X159774895Y-79573810D01*
X159774895Y-79573810D02*
X159774895Y-79383333D01*
X159774895Y-79383333D02*
X159812990Y-79269048D01*
X160155847Y-78659524D02*
X160193942Y-78545238D01*
X160193942Y-78545238D02*
X160232038Y-78507143D01*
X160232038Y-78507143D02*
X160308228Y-78469047D01*
X160308228Y-78469047D02*
X160422514Y-78469047D01*
X160422514Y-78469047D02*
X160498704Y-78507143D01*
X160498704Y-78507143D02*
X160536800Y-78545238D01*
X160536800Y-78545238D02*
X160574895Y-78621428D01*
X160574895Y-78621428D02*
X160574895Y-78926190D01*
X160574895Y-78926190D02*
X159774895Y-78926190D01*
X159774895Y-78926190D02*
X159774895Y-78659524D01*
X159774895Y-78659524D02*
X159812990Y-78583333D01*
X159812990Y-78583333D02*
X159851085Y-78545238D01*
X159851085Y-78545238D02*
X159927276Y-78507143D01*
X159927276Y-78507143D02*
X160003466Y-78507143D01*
X160003466Y-78507143D02*
X160079657Y-78545238D01*
X160079657Y-78545238D02*
X160117752Y-78583333D01*
X160117752Y-78583333D02*
X160155847Y-78659524D01*
X160155847Y-78659524D02*
X160155847Y-78926190D01*
X160651085Y-78316667D02*
X160651085Y-77707143D01*
X160155847Y-77516666D02*
X160155847Y-77250000D01*
X160574895Y-77135714D02*
X160574895Y-77516666D01*
X160574895Y-77516666D02*
X159774895Y-77516666D01*
X159774895Y-77516666D02*
X159774895Y-77135714D01*
X160574895Y-76335713D02*
X160193942Y-76602380D01*
X160574895Y-76792856D02*
X159774895Y-76792856D01*
X159774895Y-76792856D02*
X159774895Y-76488094D01*
X159774895Y-76488094D02*
X159812990Y-76411904D01*
X159812990Y-76411904D02*
X159851085Y-76373809D01*
X159851085Y-76373809D02*
X159927276Y-76335713D01*
X159927276Y-76335713D02*
X160041561Y-76335713D01*
X160041561Y-76335713D02*
X160117752Y-76373809D01*
X160117752Y-76373809D02*
X160155847Y-76411904D01*
X160155847Y-76411904D02*
X160193942Y-76488094D01*
X160193942Y-76488094D02*
X160193942Y-76792856D01*
X160574895Y-75535713D02*
X160193942Y-75802380D01*
X160574895Y-75992856D02*
X159774895Y-75992856D01*
X159774895Y-75992856D02*
X159774895Y-75688094D01*
X159774895Y-75688094D02*
X159812990Y-75611904D01*
X159812990Y-75611904D02*
X159851085Y-75573809D01*
X159851085Y-75573809D02*
X159927276Y-75535713D01*
X159927276Y-75535713D02*
X160041561Y-75535713D01*
X160041561Y-75535713D02*
X160117752Y-75573809D01*
X160117752Y-75573809D02*
X160155847Y-75611904D01*
X160155847Y-75611904D02*
X160193942Y-75688094D01*
X160193942Y-75688094D02*
X160193942Y-75992856D01*
X121180075Y-74341466D02*
X121941980Y-74341466D01*
X121561027Y-74722419D02*
X121561027Y-73960514D01*
X122894360Y-73722419D02*
X122418170Y-73722419D01*
X122418170Y-73722419D02*
X122370551Y-74198609D01*
X122370551Y-74198609D02*
X122418170Y-74150990D01*
X122418170Y-74150990D02*
X122513408Y-74103371D01*
X122513408Y-74103371D02*
X122751503Y-74103371D01*
X122751503Y-74103371D02*
X122846741Y-74150990D01*
X122846741Y-74150990D02*
X122894360Y-74198609D01*
X122894360Y-74198609D02*
X122941979Y-74293847D01*
X122941979Y-74293847D02*
X122941979Y-74531942D01*
X122941979Y-74531942D02*
X122894360Y-74627180D01*
X122894360Y-74627180D02*
X122846741Y-74674800D01*
X122846741Y-74674800D02*
X122751503Y-74722419D01*
X122751503Y-74722419D02*
X122513408Y-74722419D01*
X122513408Y-74722419D02*
X122418170Y-74674800D01*
X122418170Y-74674800D02*
X122370551Y-74627180D01*
X123227694Y-73722419D02*
X123561027Y-74722419D01*
X123561027Y-74722419D02*
X123894360Y-73722419D01*
X152496146Y-61396895D02*
X152229479Y-61015942D01*
X152039003Y-61396895D02*
X152039003Y-60596895D01*
X152039003Y-60596895D02*
X152343765Y-60596895D01*
X152343765Y-60596895D02*
X152419955Y-60634990D01*
X152419955Y-60634990D02*
X152458050Y-60673085D01*
X152458050Y-60673085D02*
X152496146Y-60749276D01*
X152496146Y-60749276D02*
X152496146Y-60863561D01*
X152496146Y-60863561D02*
X152458050Y-60939752D01*
X152458050Y-60939752D02*
X152419955Y-60977847D01*
X152419955Y-60977847D02*
X152343765Y-61015942D01*
X152343765Y-61015942D02*
X152039003Y-61015942D01*
X152724717Y-60596895D02*
X153181860Y-60596895D01*
X152953288Y-61396895D02*
X152953288Y-60596895D01*
X153410431Y-61358800D02*
X153524717Y-61396895D01*
X153524717Y-61396895D02*
X153715193Y-61396895D01*
X153715193Y-61396895D02*
X153791384Y-61358800D01*
X153791384Y-61358800D02*
X153829479Y-61320704D01*
X153829479Y-61320704D02*
X153867574Y-61244514D01*
X153867574Y-61244514D02*
X153867574Y-61168323D01*
X153867574Y-61168323D02*
X153829479Y-61092133D01*
X153829479Y-61092133D02*
X153791384Y-61054038D01*
X153791384Y-61054038D02*
X153715193Y-61015942D01*
X153715193Y-61015942D02*
X153562812Y-60977847D01*
X153562812Y-60977847D02*
X153486622Y-60939752D01*
X153486622Y-60939752D02*
X153448527Y-60901657D01*
X153448527Y-60901657D02*
X153410431Y-60825466D01*
X153410431Y-60825466D02*
X153410431Y-60749276D01*
X153410431Y-60749276D02*
X153448527Y-60673085D01*
X153448527Y-60673085D02*
X153486622Y-60634990D01*
X153486622Y-60634990D02*
X153562812Y-60596895D01*
X153562812Y-60596895D02*
X153753289Y-60596895D01*
X153753289Y-60596895D02*
X153867574Y-60634990D01*
X149604895Y-79021427D02*
X150252514Y-79021427D01*
X150252514Y-79021427D02*
X150328704Y-78983332D01*
X150328704Y-78983332D02*
X150366800Y-78945237D01*
X150366800Y-78945237D02*
X150404895Y-78869046D01*
X150404895Y-78869046D02*
X150404895Y-78716665D01*
X150404895Y-78716665D02*
X150366800Y-78640475D01*
X150366800Y-78640475D02*
X150328704Y-78602380D01*
X150328704Y-78602380D02*
X150252514Y-78564284D01*
X150252514Y-78564284D02*
X149604895Y-78564284D01*
X149985847Y-77916666D02*
X149985847Y-78183332D01*
X150404895Y-78183332D02*
X149604895Y-78183332D01*
X149604895Y-78183332D02*
X149604895Y-77802380D01*
X150404895Y-77497618D02*
X149604895Y-77497618D01*
X149604895Y-77497618D02*
X149604895Y-77192856D01*
X149604895Y-77192856D02*
X149642990Y-77116666D01*
X149642990Y-77116666D02*
X149681085Y-77078571D01*
X149681085Y-77078571D02*
X149757276Y-77040475D01*
X149757276Y-77040475D02*
X149871561Y-77040475D01*
X149871561Y-77040475D02*
X149947752Y-77078571D01*
X149947752Y-77078571D02*
X149985847Y-77116666D01*
X149985847Y-77116666D02*
X150023942Y-77192856D01*
X150023942Y-77192856D02*
X150023942Y-77497618D01*
X153794895Y-78952380D02*
X152994895Y-78952380D01*
X152994895Y-78952380D02*
X152994895Y-78647618D01*
X152994895Y-78647618D02*
X153032990Y-78571428D01*
X153032990Y-78571428D02*
X153071085Y-78533333D01*
X153071085Y-78533333D02*
X153147276Y-78495237D01*
X153147276Y-78495237D02*
X153261561Y-78495237D01*
X153261561Y-78495237D02*
X153337752Y-78533333D01*
X153337752Y-78533333D02*
X153375847Y-78571428D01*
X153375847Y-78571428D02*
X153413942Y-78647618D01*
X153413942Y-78647618D02*
X153413942Y-78952380D01*
X152994895Y-77999999D02*
X152994895Y-77847618D01*
X152994895Y-77847618D02*
X153032990Y-77771428D01*
X153032990Y-77771428D02*
X153109180Y-77695237D01*
X153109180Y-77695237D02*
X153261561Y-77657142D01*
X153261561Y-77657142D02*
X153528228Y-77657142D01*
X153528228Y-77657142D02*
X153680609Y-77695237D01*
X153680609Y-77695237D02*
X153756800Y-77771428D01*
X153756800Y-77771428D02*
X153794895Y-77847618D01*
X153794895Y-77847618D02*
X153794895Y-77999999D01*
X153794895Y-77999999D02*
X153756800Y-78076190D01*
X153756800Y-78076190D02*
X153680609Y-78152380D01*
X153680609Y-78152380D02*
X153528228Y-78190476D01*
X153528228Y-78190476D02*
X153261561Y-78190476D01*
X153261561Y-78190476D02*
X153109180Y-78152380D01*
X153109180Y-78152380D02*
X153032990Y-78076190D01*
X153032990Y-78076190D02*
X152994895Y-77999999D01*
X153794895Y-76933333D02*
X153794895Y-77314285D01*
X153794895Y-77314285D02*
X152994895Y-77314285D01*
X163164895Y-81007142D02*
X163164895Y-80549999D01*
X163964895Y-80778571D02*
X163164895Y-80778571D01*
X163164895Y-80359523D02*
X163964895Y-79826189D01*
X163164895Y-79826189D02*
X163964895Y-80359523D01*
X164041085Y-79711904D02*
X164041085Y-79102380D01*
X163736323Y-78949999D02*
X163736323Y-78569046D01*
X163964895Y-79026189D02*
X163164895Y-78759522D01*
X163164895Y-78759522D02*
X163964895Y-78492856D01*
X163888704Y-77769046D02*
X163926800Y-77807142D01*
X163926800Y-77807142D02*
X163964895Y-77921427D01*
X163964895Y-77921427D02*
X163964895Y-77997618D01*
X163964895Y-77997618D02*
X163926800Y-78111904D01*
X163926800Y-78111904D02*
X163850609Y-78188094D01*
X163850609Y-78188094D02*
X163774419Y-78226189D01*
X163774419Y-78226189D02*
X163622038Y-78264285D01*
X163622038Y-78264285D02*
X163507752Y-78264285D01*
X163507752Y-78264285D02*
X163355371Y-78226189D01*
X163355371Y-78226189D02*
X163279180Y-78188094D01*
X163279180Y-78188094D02*
X163202990Y-78111904D01*
X163202990Y-78111904D02*
X163164895Y-77997618D01*
X163164895Y-77997618D02*
X163164895Y-77921427D01*
X163164895Y-77921427D02*
X163202990Y-77807142D01*
X163202990Y-77807142D02*
X163241085Y-77769046D01*
X163164895Y-77540475D02*
X163164895Y-77083332D01*
X163964895Y-77311904D02*
X163164895Y-77311904D01*
X163964895Y-76816665D02*
X163164895Y-76816665D01*
X163164895Y-76549999D02*
X163964895Y-76283332D01*
X163964895Y-76283332D02*
X163164895Y-76016666D01*
X163545847Y-75749999D02*
X163545847Y-75483333D01*
X163964895Y-75369047D02*
X163964895Y-75749999D01*
X163964895Y-75749999D02*
X163164895Y-75749999D01*
X163164895Y-75749999D02*
X163164895Y-75369047D01*
X139253884Y-73770038D02*
X139158646Y-73722419D01*
X139158646Y-73722419D02*
X139015789Y-73722419D01*
X139015789Y-73722419D02*
X138872932Y-73770038D01*
X138872932Y-73770038D02*
X138777694Y-73865276D01*
X138777694Y-73865276D02*
X138730075Y-73960514D01*
X138730075Y-73960514D02*
X138682456Y-74150990D01*
X138682456Y-74150990D02*
X138682456Y-74293847D01*
X138682456Y-74293847D02*
X138730075Y-74484323D01*
X138730075Y-74484323D02*
X138777694Y-74579561D01*
X138777694Y-74579561D02*
X138872932Y-74674800D01*
X138872932Y-74674800D02*
X139015789Y-74722419D01*
X139015789Y-74722419D02*
X139111027Y-74722419D01*
X139111027Y-74722419D02*
X139253884Y-74674800D01*
X139253884Y-74674800D02*
X139301503Y-74627180D01*
X139301503Y-74627180D02*
X139301503Y-74293847D01*
X139301503Y-74293847D02*
X139111027Y-74293847D01*
X139730075Y-74722419D02*
X139730075Y-73722419D01*
X139730075Y-73722419D02*
X140301503Y-74722419D01*
X140301503Y-74722419D02*
X140301503Y-73722419D01*
X140777694Y-74722419D02*
X140777694Y-73722419D01*
X140777694Y-73722419D02*
X141015789Y-73722419D01*
X141015789Y-73722419D02*
X141158646Y-73770038D01*
X141158646Y-73770038D02*
X141253884Y-73865276D01*
X141253884Y-73865276D02*
X141301503Y-73960514D01*
X141301503Y-73960514D02*
X141349122Y-74150990D01*
X141349122Y-74150990D02*
X141349122Y-74293847D01*
X141349122Y-74293847D02*
X141301503Y-74484323D01*
X141301503Y-74484323D02*
X141253884Y-74579561D01*
X141253884Y-74579561D02*
X141158646Y-74674800D01*
X141158646Y-74674800D02*
X141015789Y-74722419D01*
X141015789Y-74722419D02*
X140777694Y-74722419D01*
X157184895Y-80492856D02*
X156384895Y-80492856D01*
X156384895Y-80492856D02*
X156384895Y-80188094D01*
X156384895Y-80188094D02*
X156422990Y-80111904D01*
X156422990Y-80111904D02*
X156461085Y-80073809D01*
X156461085Y-80073809D02*
X156537276Y-80035713D01*
X156537276Y-80035713D02*
X156651561Y-80035713D01*
X156651561Y-80035713D02*
X156727752Y-80073809D01*
X156727752Y-80073809D02*
X156765847Y-80111904D01*
X156765847Y-80111904D02*
X156803942Y-80188094D01*
X156803942Y-80188094D02*
X156803942Y-80492856D01*
X156384895Y-79769047D02*
X157184895Y-79578571D01*
X157184895Y-79578571D02*
X156613466Y-79426190D01*
X156613466Y-79426190D02*
X157184895Y-79273809D01*
X157184895Y-79273809D02*
X156384895Y-79083333D01*
X157184895Y-78321427D02*
X156803942Y-78588094D01*
X157184895Y-78778570D02*
X156384895Y-78778570D01*
X156384895Y-78778570D02*
X156384895Y-78473808D01*
X156384895Y-78473808D02*
X156422990Y-78397618D01*
X156422990Y-78397618D02*
X156461085Y-78359523D01*
X156461085Y-78359523D02*
X156537276Y-78321427D01*
X156537276Y-78321427D02*
X156651561Y-78321427D01*
X156651561Y-78321427D02*
X156727752Y-78359523D01*
X156727752Y-78359523D02*
X156765847Y-78397618D01*
X156765847Y-78397618D02*
X156803942Y-78473808D01*
X156803942Y-78473808D02*
X156803942Y-78778570D01*
X157261085Y-78169047D02*
X157261085Y-77559523D01*
X156765847Y-77102380D02*
X156765847Y-77369046D01*
X157184895Y-77369046D02*
X156384895Y-77369046D01*
X156384895Y-77369046D02*
X156384895Y-76988094D01*
X157184895Y-76302380D02*
X157184895Y-76683332D01*
X157184895Y-76683332D02*
X156384895Y-76683332D01*
X156384895Y-76149999D02*
X156384895Y-75692856D01*
X157184895Y-75921428D02*
X156384895Y-75921428D01*
X155328884Y-61396895D02*
X155062217Y-61015942D01*
X154871741Y-61396895D02*
X154871741Y-60596895D01*
X154871741Y-60596895D02*
X155176503Y-60596895D01*
X155176503Y-60596895D02*
X155252693Y-60634990D01*
X155252693Y-60634990D02*
X155290788Y-60673085D01*
X155290788Y-60673085D02*
X155328884Y-60749276D01*
X155328884Y-60749276D02*
X155328884Y-60863561D01*
X155328884Y-60863561D02*
X155290788Y-60939752D01*
X155290788Y-60939752D02*
X155252693Y-60977847D01*
X155252693Y-60977847D02*
X155176503Y-61015942D01*
X155176503Y-61015942D02*
X154871741Y-61015942D01*
X155595550Y-60596895D02*
X156128884Y-61396895D01*
X156128884Y-60596895D02*
X155595550Y-61396895D01*
X160075312Y-60634990D02*
X159999122Y-60596895D01*
X159999122Y-60596895D02*
X159884836Y-60596895D01*
X159884836Y-60596895D02*
X159770550Y-60634990D01*
X159770550Y-60634990D02*
X159694360Y-60711180D01*
X159694360Y-60711180D02*
X159656265Y-60787371D01*
X159656265Y-60787371D02*
X159618169Y-60939752D01*
X159618169Y-60939752D02*
X159618169Y-61054038D01*
X159618169Y-61054038D02*
X159656265Y-61206419D01*
X159656265Y-61206419D02*
X159694360Y-61282609D01*
X159694360Y-61282609D02*
X159770550Y-61358800D01*
X159770550Y-61358800D02*
X159884836Y-61396895D01*
X159884836Y-61396895D02*
X159961027Y-61396895D01*
X159961027Y-61396895D02*
X160075312Y-61358800D01*
X160075312Y-61358800D02*
X160113408Y-61320704D01*
X160113408Y-61320704D02*
X160113408Y-61054038D01*
X160113408Y-61054038D02*
X159961027Y-61054038D01*
X160456265Y-61396895D02*
X160456265Y-60596895D01*
X160456265Y-60596895D02*
X160913408Y-61396895D01*
X160913408Y-61396895D02*
X160913408Y-60596895D01*
X161294360Y-61396895D02*
X161294360Y-60596895D01*
X161294360Y-60596895D02*
X161484836Y-60596895D01*
X161484836Y-60596895D02*
X161599122Y-60634990D01*
X161599122Y-60634990D02*
X161675312Y-60711180D01*
X161675312Y-60711180D02*
X161713407Y-60787371D01*
X161713407Y-60787371D02*
X161751503Y-60939752D01*
X161751503Y-60939752D02*
X161751503Y-61054038D01*
X161751503Y-61054038D02*
X161713407Y-61206419D01*
X161713407Y-61206419D02*
X161675312Y-61282609D01*
X161675312Y-61282609D02*
X161599122Y-61358800D01*
X161599122Y-61358800D02*
X161484836Y-61396895D01*
X161484836Y-61396895D02*
X161294360Y-61396895D01*
X162384895Y-67783332D02*
X162003942Y-68049999D01*
X162384895Y-68240475D02*
X161584895Y-68240475D01*
X161584895Y-68240475D02*
X161584895Y-67935713D01*
X161584895Y-67935713D02*
X161622990Y-67859523D01*
X161622990Y-67859523D02*
X161661085Y-67821428D01*
X161661085Y-67821428D02*
X161737276Y-67783332D01*
X161737276Y-67783332D02*
X161851561Y-67783332D01*
X161851561Y-67783332D02*
X161927752Y-67821428D01*
X161927752Y-67821428D02*
X161965847Y-67859523D01*
X161965847Y-67859523D02*
X162003942Y-67935713D01*
X162003942Y-67935713D02*
X162003942Y-68240475D01*
X161927752Y-67326190D02*
X161889657Y-67402380D01*
X161889657Y-67402380D02*
X161851561Y-67440475D01*
X161851561Y-67440475D02*
X161775371Y-67478571D01*
X161775371Y-67478571D02*
X161737276Y-67478571D01*
X161737276Y-67478571D02*
X161661085Y-67440475D01*
X161661085Y-67440475D02*
X161622990Y-67402380D01*
X161622990Y-67402380D02*
X161584895Y-67326190D01*
X161584895Y-67326190D02*
X161584895Y-67173809D01*
X161584895Y-67173809D02*
X161622990Y-67097618D01*
X161622990Y-67097618D02*
X161661085Y-67059523D01*
X161661085Y-67059523D02*
X161737276Y-67021428D01*
X161737276Y-67021428D02*
X161775371Y-67021428D01*
X161775371Y-67021428D02*
X161851561Y-67059523D01*
X161851561Y-67059523D02*
X161889657Y-67097618D01*
X161889657Y-67097618D02*
X161927752Y-67173809D01*
X161927752Y-67173809D02*
X161927752Y-67326190D01*
X161927752Y-67326190D02*
X161965847Y-67402380D01*
X161965847Y-67402380D02*
X162003942Y-67440475D01*
X162003942Y-67440475D02*
X162080133Y-67478571D01*
X162080133Y-67478571D02*
X162232514Y-67478571D01*
X162232514Y-67478571D02*
X162308704Y-67440475D01*
X162308704Y-67440475D02*
X162346800Y-67402380D01*
X162346800Y-67402380D02*
X162384895Y-67326190D01*
X162384895Y-67326190D02*
X162384895Y-67173809D01*
X162384895Y-67173809D02*
X162346800Y-67097618D01*
X162346800Y-67097618D02*
X162308704Y-67059523D01*
X162308704Y-67059523D02*
X162232514Y-67021428D01*
X162232514Y-67021428D02*
X162080133Y-67021428D01*
X162080133Y-67021428D02*
X162003942Y-67059523D01*
X162003942Y-67059523D02*
X161965847Y-67097618D01*
X161965847Y-67097618D02*
X161927752Y-67173809D01*
D11*
X126738095Y-79054819D02*
X126738095Y-79864342D01*
X126738095Y-79864342D02*
X126785714Y-79959580D01*
X126785714Y-79959580D02*
X126833333Y-80007200D01*
X126833333Y-80007200D02*
X126928571Y-80054819D01*
X126928571Y-80054819D02*
X127119047Y-80054819D01*
X127119047Y-80054819D02*
X127214285Y-80007200D01*
X127214285Y-80007200D02*
X127261904Y-79959580D01*
X127261904Y-79959580D02*
X127309523Y-79864342D01*
X127309523Y-79864342D02*
X127309523Y-79054819D01*
X128261904Y-79054819D02*
X127785714Y-79054819D01*
X127785714Y-79054819D02*
X127738095Y-79531009D01*
X127738095Y-79531009D02*
X127785714Y-79483390D01*
X127785714Y-79483390D02*
X127880952Y-79435771D01*
X127880952Y-79435771D02*
X128119047Y-79435771D01*
X128119047Y-79435771D02*
X128214285Y-79483390D01*
X128214285Y-79483390D02*
X128261904Y-79531009D01*
X128261904Y-79531009D02*
X128309523Y-79626247D01*
X128309523Y-79626247D02*
X128309523Y-79864342D01*
X128309523Y-79864342D02*
X128261904Y-79959580D01*
X128261904Y-79959580D02*
X128214285Y-80007200D01*
X128214285Y-80007200D02*
X128119047Y-80054819D01*
X128119047Y-80054819D02*
X127880952Y-80054819D01*
X127880952Y-80054819D02*
X127785714Y-80007200D01*
X127785714Y-80007200D02*
X127738095Y-79959580D01*
X157757142Y-88647080D02*
X157709523Y-88694700D01*
X157709523Y-88694700D02*
X157566666Y-88742319D01*
X157566666Y-88742319D02*
X157471428Y-88742319D01*
X157471428Y-88742319D02*
X157328571Y-88694700D01*
X157328571Y-88694700D02*
X157233333Y-88599461D01*
X157233333Y-88599461D02*
X157185714Y-88504223D01*
X157185714Y-88504223D02*
X157138095Y-88313747D01*
X157138095Y-88313747D02*
X157138095Y-88170890D01*
X157138095Y-88170890D02*
X157185714Y-87980414D01*
X157185714Y-87980414D02*
X157233333Y-87885176D01*
X157233333Y-87885176D02*
X157328571Y-87789938D01*
X157328571Y-87789938D02*
X157471428Y-87742319D01*
X157471428Y-87742319D02*
X157566666Y-87742319D01*
X157566666Y-87742319D02*
X157709523Y-87789938D01*
X157709523Y-87789938D02*
X157757142Y-87837557D01*
X158709523Y-88742319D02*
X158138095Y-88742319D01*
X158423809Y-88742319D02*
X158423809Y-87742319D01*
X158423809Y-87742319D02*
X158328571Y-87885176D01*
X158328571Y-87885176D02*
X158233333Y-87980414D01*
X158233333Y-87980414D02*
X158138095Y-88028033D01*
X159328571Y-87742319D02*
X159423809Y-87742319D01*
X159423809Y-87742319D02*
X159519047Y-87789938D01*
X159519047Y-87789938D02*
X159566666Y-87837557D01*
X159566666Y-87837557D02*
X159614285Y-87932795D01*
X159614285Y-87932795D02*
X159661904Y-88123271D01*
X159661904Y-88123271D02*
X159661904Y-88361366D01*
X159661904Y-88361366D02*
X159614285Y-88551842D01*
X159614285Y-88551842D02*
X159566666Y-88647080D01*
X159566666Y-88647080D02*
X159519047Y-88694700D01*
X159519047Y-88694700D02*
X159423809Y-88742319D01*
X159423809Y-88742319D02*
X159328571Y-88742319D01*
X159328571Y-88742319D02*
X159233333Y-88694700D01*
X159233333Y-88694700D02*
X159185714Y-88647080D01*
X159185714Y-88647080D02*
X159138095Y-88551842D01*
X159138095Y-88551842D02*
X159090476Y-88361366D01*
X159090476Y-88361366D02*
X159090476Y-88123271D01*
X159090476Y-88123271D02*
X159138095Y-87932795D01*
X159138095Y-87932795D02*
X159185714Y-87837557D01*
X159185714Y-87837557D02*
X159233333Y-87789938D01*
X159233333Y-87789938D02*
X159328571Y-87742319D01*
X152009580Y-92616666D02*
X152057200Y-92664285D01*
X152057200Y-92664285D02*
X152104819Y-92807142D01*
X152104819Y-92807142D02*
X152104819Y-92902380D01*
X152104819Y-92902380D02*
X152057200Y-93045237D01*
X152057200Y-93045237D02*
X151961961Y-93140475D01*
X151961961Y-93140475D02*
X151866723Y-93188094D01*
X151866723Y-93188094D02*
X151676247Y-93235713D01*
X151676247Y-93235713D02*
X151533390Y-93235713D01*
X151533390Y-93235713D02*
X151342914Y-93188094D01*
X151342914Y-93188094D02*
X151247676Y-93140475D01*
X151247676Y-93140475D02*
X151152438Y-93045237D01*
X151152438Y-93045237D02*
X151104819Y-92902380D01*
X151104819Y-92902380D02*
X151104819Y-92807142D01*
X151104819Y-92807142D02*
X151152438Y-92664285D01*
X151152438Y-92664285D02*
X151200057Y-92616666D01*
X151533390Y-92045237D02*
X151485771Y-92140475D01*
X151485771Y-92140475D02*
X151438152Y-92188094D01*
X151438152Y-92188094D02*
X151342914Y-92235713D01*
X151342914Y-92235713D02*
X151295295Y-92235713D01*
X151295295Y-92235713D02*
X151200057Y-92188094D01*
X151200057Y-92188094D02*
X151152438Y-92140475D01*
X151152438Y-92140475D02*
X151104819Y-92045237D01*
X151104819Y-92045237D02*
X151104819Y-91854761D01*
X151104819Y-91854761D02*
X151152438Y-91759523D01*
X151152438Y-91759523D02*
X151200057Y-91711904D01*
X151200057Y-91711904D02*
X151295295Y-91664285D01*
X151295295Y-91664285D02*
X151342914Y-91664285D01*
X151342914Y-91664285D02*
X151438152Y-91711904D01*
X151438152Y-91711904D02*
X151485771Y-91759523D01*
X151485771Y-91759523D02*
X151533390Y-91854761D01*
X151533390Y-91854761D02*
X151533390Y-92045237D01*
X151533390Y-92045237D02*
X151581009Y-92140475D01*
X151581009Y-92140475D02*
X151628628Y-92188094D01*
X151628628Y-92188094D02*
X151723866Y-92235713D01*
X151723866Y-92235713D02*
X151914342Y-92235713D01*
X151914342Y-92235713D02*
X152009580Y-92188094D01*
X152009580Y-92188094D02*
X152057200Y-92140475D01*
X152057200Y-92140475D02*
X152104819Y-92045237D01*
X152104819Y-92045237D02*
X152104819Y-91854761D01*
X152104819Y-91854761D02*
X152057200Y-91759523D01*
X152057200Y-91759523D02*
X152009580Y-91711904D01*
X152009580Y-91711904D02*
X151914342Y-91664285D01*
X151914342Y-91664285D02*
X151723866Y-91664285D01*
X151723866Y-91664285D02*
X151628628Y-91711904D01*
X151628628Y-91711904D02*
X151581009Y-91759523D01*
X151581009Y-91759523D02*
X151533390Y-91854761D01*
X137409580Y-80641666D02*
X137457200Y-80689285D01*
X137457200Y-80689285D02*
X137504819Y-80832142D01*
X137504819Y-80832142D02*
X137504819Y-80927380D01*
X137504819Y-80927380D02*
X137457200Y-81070237D01*
X137457200Y-81070237D02*
X137361961Y-81165475D01*
X137361961Y-81165475D02*
X137266723Y-81213094D01*
X137266723Y-81213094D02*
X137076247Y-81260713D01*
X137076247Y-81260713D02*
X136933390Y-81260713D01*
X136933390Y-81260713D02*
X136742914Y-81213094D01*
X136742914Y-81213094D02*
X136647676Y-81165475D01*
X136647676Y-81165475D02*
X136552438Y-81070237D01*
X136552438Y-81070237D02*
X136504819Y-80927380D01*
X136504819Y-80927380D02*
X136504819Y-80832142D01*
X136504819Y-80832142D02*
X136552438Y-80689285D01*
X136552438Y-80689285D02*
X136600057Y-80641666D01*
X136838152Y-79784523D02*
X137504819Y-79784523D01*
X136457200Y-80022618D02*
X137171485Y-80260713D01*
X137171485Y-80260713D02*
X137171485Y-79641666D01*
X122116666Y-60242319D02*
X122116666Y-60956604D01*
X122116666Y-60956604D02*
X122069047Y-61099461D01*
X122069047Y-61099461D02*
X121973809Y-61194700D01*
X121973809Y-61194700D02*
X121830952Y-61242319D01*
X121830952Y-61242319D02*
X121735714Y-61242319D01*
X123116666Y-61242319D02*
X122545238Y-61242319D01*
X122830952Y-61242319D02*
X122830952Y-60242319D01*
X122830952Y-60242319D02*
X122735714Y-60385176D01*
X122735714Y-60385176D02*
X122640476Y-60480414D01*
X122640476Y-60480414D02*
X122545238Y-60528033D01*
X160479819Y-94670833D02*
X161194104Y-94670833D01*
X161194104Y-94670833D02*
X161336961Y-94718452D01*
X161336961Y-94718452D02*
X161432200Y-94813690D01*
X161432200Y-94813690D02*
X161479819Y-94956547D01*
X161479819Y-94956547D02*
X161479819Y-95051785D01*
X160813152Y-93766071D02*
X161479819Y-93766071D01*
X160432200Y-94004166D02*
X161146485Y-94242261D01*
X161146485Y-94242261D02*
X161146485Y-93623214D01*
X117433333Y-86209580D02*
X117385714Y-86257200D01*
X117385714Y-86257200D02*
X117242857Y-86304819D01*
X117242857Y-86304819D02*
X117147619Y-86304819D01*
X117147619Y-86304819D02*
X117004762Y-86257200D01*
X117004762Y-86257200D02*
X116909524Y-86161961D01*
X116909524Y-86161961D02*
X116861905Y-86066723D01*
X116861905Y-86066723D02*
X116814286Y-85876247D01*
X116814286Y-85876247D02*
X116814286Y-85733390D01*
X116814286Y-85733390D02*
X116861905Y-85542914D01*
X116861905Y-85542914D02*
X116909524Y-85447676D01*
X116909524Y-85447676D02*
X117004762Y-85352438D01*
X117004762Y-85352438D02*
X117147619Y-85304819D01*
X117147619Y-85304819D02*
X117242857Y-85304819D01*
X117242857Y-85304819D02*
X117385714Y-85352438D01*
X117385714Y-85352438D02*
X117433333Y-85400057D01*
X118385714Y-86304819D02*
X117814286Y-86304819D01*
X118100000Y-86304819D02*
X118100000Y-85304819D01*
X118100000Y-85304819D02*
X118004762Y-85447676D01*
X118004762Y-85447676D02*
X117909524Y-85542914D01*
X117909524Y-85542914D02*
X117814286Y-85590533D01*
X151959580Y-97716666D02*
X152007200Y-97764285D01*
X152007200Y-97764285D02*
X152054819Y-97907142D01*
X152054819Y-97907142D02*
X152054819Y-98002380D01*
X152054819Y-98002380D02*
X152007200Y-98145237D01*
X152007200Y-98145237D02*
X151911961Y-98240475D01*
X151911961Y-98240475D02*
X151816723Y-98288094D01*
X151816723Y-98288094D02*
X151626247Y-98335713D01*
X151626247Y-98335713D02*
X151483390Y-98335713D01*
X151483390Y-98335713D02*
X151292914Y-98288094D01*
X151292914Y-98288094D02*
X151197676Y-98240475D01*
X151197676Y-98240475D02*
X151102438Y-98145237D01*
X151102438Y-98145237D02*
X151054819Y-98002380D01*
X151054819Y-98002380D02*
X151054819Y-97907142D01*
X151054819Y-97907142D02*
X151102438Y-97764285D01*
X151102438Y-97764285D02*
X151150057Y-97716666D01*
X152054819Y-97240475D02*
X152054819Y-97049999D01*
X152054819Y-97049999D02*
X152007200Y-96954761D01*
X152007200Y-96954761D02*
X151959580Y-96907142D01*
X151959580Y-96907142D02*
X151816723Y-96811904D01*
X151816723Y-96811904D02*
X151626247Y-96764285D01*
X151626247Y-96764285D02*
X151245295Y-96764285D01*
X151245295Y-96764285D02*
X151150057Y-96811904D01*
X151150057Y-96811904D02*
X151102438Y-96859523D01*
X151102438Y-96859523D02*
X151054819Y-96954761D01*
X151054819Y-96954761D02*
X151054819Y-97145237D01*
X151054819Y-97145237D02*
X151102438Y-97240475D01*
X151102438Y-97240475D02*
X151150057Y-97288094D01*
X151150057Y-97288094D02*
X151245295Y-97335713D01*
X151245295Y-97335713D02*
X151483390Y-97335713D01*
X151483390Y-97335713D02*
X151578628Y-97288094D01*
X151578628Y-97288094D02*
X151626247Y-97240475D01*
X151626247Y-97240475D02*
X151673866Y-97145237D01*
X151673866Y-97145237D02*
X151673866Y-96954761D01*
X151673866Y-96954761D02*
X151626247Y-96859523D01*
X151626247Y-96859523D02*
X151578628Y-96811904D01*
X151578628Y-96811904D02*
X151483390Y-96764285D01*
D10*
X158954895Y-67783332D02*
X158573942Y-68049999D01*
X158954895Y-68240475D02*
X158154895Y-68240475D01*
X158154895Y-68240475D02*
X158154895Y-67935713D01*
X158154895Y-67935713D02*
X158192990Y-67859523D01*
X158192990Y-67859523D02*
X158231085Y-67821428D01*
X158231085Y-67821428D02*
X158307276Y-67783332D01*
X158307276Y-67783332D02*
X158421561Y-67783332D01*
X158421561Y-67783332D02*
X158497752Y-67821428D01*
X158497752Y-67821428D02*
X158535847Y-67859523D01*
X158535847Y-67859523D02*
X158573942Y-67935713D01*
X158573942Y-67935713D02*
X158573942Y-68240475D01*
X158154895Y-67516666D02*
X158154895Y-66983332D01*
X158154895Y-66983332D02*
X158954895Y-67326190D01*
X152094895Y-67783332D02*
X151713942Y-68049999D01*
X152094895Y-68240475D02*
X151294895Y-68240475D01*
X151294895Y-68240475D02*
X151294895Y-67935713D01*
X151294895Y-67935713D02*
X151332990Y-67859523D01*
X151332990Y-67859523D02*
X151371085Y-67821428D01*
X151371085Y-67821428D02*
X151447276Y-67783332D01*
X151447276Y-67783332D02*
X151561561Y-67783332D01*
X151561561Y-67783332D02*
X151637752Y-67821428D01*
X151637752Y-67821428D02*
X151675847Y-67859523D01*
X151675847Y-67859523D02*
X151713942Y-67935713D01*
X151713942Y-67935713D02*
X151713942Y-68240475D01*
X151294895Y-67059523D02*
X151294895Y-67440475D01*
X151294895Y-67440475D02*
X151675847Y-67478571D01*
X151675847Y-67478571D02*
X151637752Y-67440475D01*
X151637752Y-67440475D02*
X151599657Y-67364285D01*
X151599657Y-67364285D02*
X151599657Y-67173809D01*
X151599657Y-67173809D02*
X151637752Y-67097618D01*
X151637752Y-67097618D02*
X151675847Y-67059523D01*
X151675847Y-67059523D02*
X151752038Y-67021428D01*
X151752038Y-67021428D02*
X151942514Y-67021428D01*
X151942514Y-67021428D02*
X152018704Y-67059523D01*
X152018704Y-67059523D02*
X152056800Y-67097618D01*
X152056800Y-67097618D02*
X152094895Y-67173809D01*
X152094895Y-67173809D02*
X152094895Y-67364285D01*
X152094895Y-67364285D02*
X152056800Y-67440475D01*
X152056800Y-67440475D02*
X152018704Y-67478571D01*
D11*
X139666666Y-60242319D02*
X139666666Y-60956604D01*
X139666666Y-60956604D02*
X139619047Y-61099461D01*
X139619047Y-61099461D02*
X139523809Y-61194700D01*
X139523809Y-61194700D02*
X139380952Y-61242319D01*
X139380952Y-61242319D02*
X139285714Y-61242319D01*
X140095238Y-60337557D02*
X140142857Y-60289938D01*
X140142857Y-60289938D02*
X140238095Y-60242319D01*
X140238095Y-60242319D02*
X140476190Y-60242319D01*
X140476190Y-60242319D02*
X140571428Y-60289938D01*
X140571428Y-60289938D02*
X140619047Y-60337557D01*
X140619047Y-60337557D02*
X140666666Y-60432795D01*
X140666666Y-60432795D02*
X140666666Y-60528033D01*
X140666666Y-60528033D02*
X140619047Y-60670890D01*
X140619047Y-60670890D02*
X140047619Y-61242319D01*
X140047619Y-61242319D02*
X140666666Y-61242319D01*
D10*
X148664895Y-67783332D02*
X148283942Y-68049999D01*
X148664895Y-68240475D02*
X147864895Y-68240475D01*
X147864895Y-68240475D02*
X147864895Y-67935713D01*
X147864895Y-67935713D02*
X147902990Y-67859523D01*
X147902990Y-67859523D02*
X147941085Y-67821428D01*
X147941085Y-67821428D02*
X148017276Y-67783332D01*
X148017276Y-67783332D02*
X148131561Y-67783332D01*
X148131561Y-67783332D02*
X148207752Y-67821428D01*
X148207752Y-67821428D02*
X148245847Y-67859523D01*
X148245847Y-67859523D02*
X148283942Y-67935713D01*
X148283942Y-67935713D02*
X148283942Y-68240475D01*
X148131561Y-67097618D02*
X148664895Y-67097618D01*
X147826800Y-67288094D02*
X148398228Y-67478571D01*
X148398228Y-67478571D02*
X148398228Y-66983332D01*
X155524895Y-67783332D02*
X155143942Y-68049999D01*
X155524895Y-68240475D02*
X154724895Y-68240475D01*
X154724895Y-68240475D02*
X154724895Y-67935713D01*
X154724895Y-67935713D02*
X154762990Y-67859523D01*
X154762990Y-67859523D02*
X154801085Y-67821428D01*
X154801085Y-67821428D02*
X154877276Y-67783332D01*
X154877276Y-67783332D02*
X154991561Y-67783332D01*
X154991561Y-67783332D02*
X155067752Y-67821428D01*
X155067752Y-67821428D02*
X155105847Y-67859523D01*
X155105847Y-67859523D02*
X155143942Y-67935713D01*
X155143942Y-67935713D02*
X155143942Y-68240475D01*
X154724895Y-67097618D02*
X154724895Y-67249999D01*
X154724895Y-67249999D02*
X154762990Y-67326190D01*
X154762990Y-67326190D02*
X154801085Y-67364285D01*
X154801085Y-67364285D02*
X154915371Y-67440475D01*
X154915371Y-67440475D02*
X155067752Y-67478571D01*
X155067752Y-67478571D02*
X155372514Y-67478571D01*
X155372514Y-67478571D02*
X155448704Y-67440475D01*
X155448704Y-67440475D02*
X155486800Y-67402380D01*
X155486800Y-67402380D02*
X155524895Y-67326190D01*
X155524895Y-67326190D02*
X155524895Y-67173809D01*
X155524895Y-67173809D02*
X155486800Y-67097618D01*
X155486800Y-67097618D02*
X155448704Y-67059523D01*
X155448704Y-67059523D02*
X155372514Y-67021428D01*
X155372514Y-67021428D02*
X155182038Y-67021428D01*
X155182038Y-67021428D02*
X155105847Y-67059523D01*
X155105847Y-67059523D02*
X155067752Y-67097618D01*
X155067752Y-67097618D02*
X155029657Y-67173809D01*
X155029657Y-67173809D02*
X155029657Y-67326190D01*
X155029657Y-67326190D02*
X155067752Y-67402380D01*
X155067752Y-67402380D02*
X155105847Y-67440475D01*
X155105847Y-67440475D02*
X155182038Y-67478571D01*
X148568895Y-80990475D02*
X147768895Y-80990475D01*
X147768895Y-80990475D02*
X147768895Y-80799999D01*
X147768895Y-80799999D02*
X147806990Y-80685713D01*
X147806990Y-80685713D02*
X147883180Y-80609523D01*
X147883180Y-80609523D02*
X147959371Y-80571428D01*
X147959371Y-80571428D02*
X148111752Y-80533332D01*
X148111752Y-80533332D02*
X148226038Y-80533332D01*
X148226038Y-80533332D02*
X148378419Y-80571428D01*
X148378419Y-80571428D02*
X148454609Y-80609523D01*
X148454609Y-80609523D02*
X148530800Y-80685713D01*
X148530800Y-80685713D02*
X148568895Y-80799999D01*
X148568895Y-80799999D02*
X148568895Y-80990475D01*
X148568895Y-79771428D02*
X148568895Y-80228571D01*
X148568895Y-79999999D02*
X147768895Y-79999999D01*
X147768895Y-79999999D02*
X147883180Y-80076190D01*
X147883180Y-80076190D02*
X147959371Y-80152380D01*
X147959371Y-80152380D02*
X147997466Y-80228571D01*
X162152895Y-80990475D02*
X161352895Y-80990475D01*
X161352895Y-80990475D02*
X161352895Y-80799999D01*
X161352895Y-80799999D02*
X161390990Y-80685713D01*
X161390990Y-80685713D02*
X161467180Y-80609523D01*
X161467180Y-80609523D02*
X161543371Y-80571428D01*
X161543371Y-80571428D02*
X161695752Y-80533332D01*
X161695752Y-80533332D02*
X161810038Y-80533332D01*
X161810038Y-80533332D02*
X161962419Y-80571428D01*
X161962419Y-80571428D02*
X162038609Y-80609523D01*
X162038609Y-80609523D02*
X162114800Y-80685713D01*
X162114800Y-80685713D02*
X162152895Y-80799999D01*
X162152895Y-80799999D02*
X162152895Y-80990475D01*
X161352895Y-79809523D02*
X161352895Y-80190475D01*
X161352895Y-80190475D02*
X161733847Y-80228571D01*
X161733847Y-80228571D02*
X161695752Y-80190475D01*
X161695752Y-80190475D02*
X161657657Y-80114285D01*
X161657657Y-80114285D02*
X161657657Y-79923809D01*
X161657657Y-79923809D02*
X161695752Y-79847618D01*
X161695752Y-79847618D02*
X161733847Y-79809523D01*
X161733847Y-79809523D02*
X161810038Y-79771428D01*
X161810038Y-79771428D02*
X162000514Y-79771428D01*
X162000514Y-79771428D02*
X162076704Y-79809523D01*
X162076704Y-79809523D02*
X162114800Y-79847618D01*
X162114800Y-79847618D02*
X162152895Y-79923809D01*
X162152895Y-79923809D02*
X162152895Y-80114285D01*
X162152895Y-80114285D02*
X162114800Y-80190475D01*
X162114800Y-80190475D02*
X162076704Y-80228571D01*
D11*
X158809580Y-84742857D02*
X158857200Y-84790476D01*
X158857200Y-84790476D02*
X158904819Y-84933333D01*
X158904819Y-84933333D02*
X158904819Y-85028571D01*
X158904819Y-85028571D02*
X158857200Y-85171428D01*
X158857200Y-85171428D02*
X158761961Y-85266666D01*
X158761961Y-85266666D02*
X158666723Y-85314285D01*
X158666723Y-85314285D02*
X158476247Y-85361904D01*
X158476247Y-85361904D02*
X158333390Y-85361904D01*
X158333390Y-85361904D02*
X158142914Y-85314285D01*
X158142914Y-85314285D02*
X158047676Y-85266666D01*
X158047676Y-85266666D02*
X157952438Y-85171428D01*
X157952438Y-85171428D02*
X157904819Y-85028571D01*
X157904819Y-85028571D02*
X157904819Y-84933333D01*
X157904819Y-84933333D02*
X157952438Y-84790476D01*
X157952438Y-84790476D02*
X158000057Y-84742857D01*
X158904819Y-83790476D02*
X158904819Y-84361904D01*
X158904819Y-84076190D02*
X157904819Y-84076190D01*
X157904819Y-84076190D02*
X158047676Y-84171428D01*
X158047676Y-84171428D02*
X158142914Y-84266666D01*
X158142914Y-84266666D02*
X158190533Y-84361904D01*
X158000057Y-83409523D02*
X157952438Y-83361904D01*
X157952438Y-83361904D02*
X157904819Y-83266666D01*
X157904819Y-83266666D02*
X157904819Y-83028571D01*
X157904819Y-83028571D02*
X157952438Y-82933333D01*
X157952438Y-82933333D02*
X158000057Y-82885714D01*
X158000057Y-82885714D02*
X158095295Y-82838095D01*
X158095295Y-82838095D02*
X158190533Y-82838095D01*
X158190533Y-82838095D02*
X158333390Y-82885714D01*
X158333390Y-82885714D02*
X158904819Y-83457142D01*
X158904819Y-83457142D02*
X158904819Y-82838095D01*
X121157142Y-81009580D02*
X121109523Y-81057200D01*
X121109523Y-81057200D02*
X120966666Y-81104819D01*
X120966666Y-81104819D02*
X120871428Y-81104819D01*
X120871428Y-81104819D02*
X120728571Y-81057200D01*
X120728571Y-81057200D02*
X120633333Y-80961961D01*
X120633333Y-80961961D02*
X120585714Y-80866723D01*
X120585714Y-80866723D02*
X120538095Y-80676247D01*
X120538095Y-80676247D02*
X120538095Y-80533390D01*
X120538095Y-80533390D02*
X120585714Y-80342914D01*
X120585714Y-80342914D02*
X120633333Y-80247676D01*
X120633333Y-80247676D02*
X120728571Y-80152438D01*
X120728571Y-80152438D02*
X120871428Y-80104819D01*
X120871428Y-80104819D02*
X120966666Y-80104819D01*
X120966666Y-80104819D02*
X121109523Y-80152438D01*
X121109523Y-80152438D02*
X121157142Y-80200057D01*
X122109523Y-81104819D02*
X121538095Y-81104819D01*
X121823809Y-81104819D02*
X121823809Y-80104819D01*
X121823809Y-80104819D02*
X121728571Y-80247676D01*
X121728571Y-80247676D02*
X121633333Y-80342914D01*
X121633333Y-80342914D02*
X121538095Y-80390533D01*
X122966666Y-80104819D02*
X122776190Y-80104819D01*
X122776190Y-80104819D02*
X122680952Y-80152438D01*
X122680952Y-80152438D02*
X122633333Y-80200057D01*
X122633333Y-80200057D02*
X122538095Y-80342914D01*
X122538095Y-80342914D02*
X122490476Y-80533390D01*
X122490476Y-80533390D02*
X122490476Y-80914342D01*
X122490476Y-80914342D02*
X122538095Y-81009580D01*
X122538095Y-81009580D02*
X122585714Y-81057200D01*
X122585714Y-81057200D02*
X122680952Y-81104819D01*
X122680952Y-81104819D02*
X122871428Y-81104819D01*
X122871428Y-81104819D02*
X122966666Y-81057200D01*
X122966666Y-81057200D02*
X123014285Y-81009580D01*
X123014285Y-81009580D02*
X123061904Y-80914342D01*
X123061904Y-80914342D02*
X123061904Y-80676247D01*
X123061904Y-80676247D02*
X123014285Y-80581009D01*
X123014285Y-80581009D02*
X122966666Y-80533390D01*
X122966666Y-80533390D02*
X122871428Y-80485771D01*
X122871428Y-80485771D02*
X122680952Y-80485771D01*
X122680952Y-80485771D02*
X122585714Y-80533390D01*
X122585714Y-80533390D02*
X122538095Y-80581009D01*
X122538095Y-80581009D02*
X122490476Y-80676247D01*
D10*
X151964895Y-80990475D02*
X151164895Y-80990475D01*
X151164895Y-80990475D02*
X151164895Y-80799999D01*
X151164895Y-80799999D02*
X151202990Y-80685713D01*
X151202990Y-80685713D02*
X151279180Y-80609523D01*
X151279180Y-80609523D02*
X151355371Y-80571428D01*
X151355371Y-80571428D02*
X151507752Y-80533332D01*
X151507752Y-80533332D02*
X151622038Y-80533332D01*
X151622038Y-80533332D02*
X151774419Y-80571428D01*
X151774419Y-80571428D02*
X151850609Y-80609523D01*
X151850609Y-80609523D02*
X151926800Y-80685713D01*
X151926800Y-80685713D02*
X151964895Y-80799999D01*
X151964895Y-80799999D02*
X151964895Y-80990475D01*
X151241085Y-80228571D02*
X151202990Y-80190475D01*
X151202990Y-80190475D02*
X151164895Y-80114285D01*
X151164895Y-80114285D02*
X151164895Y-79923809D01*
X151164895Y-79923809D02*
X151202990Y-79847618D01*
X151202990Y-79847618D02*
X151241085Y-79809523D01*
X151241085Y-79809523D02*
X151317276Y-79771428D01*
X151317276Y-79771428D02*
X151393466Y-79771428D01*
X151393466Y-79771428D02*
X151507752Y-79809523D01*
X151507752Y-79809523D02*
X151964895Y-80266666D01*
X151964895Y-80266666D02*
X151964895Y-79771428D01*
D11*
X136289580Y-100742857D02*
X136337200Y-100790476D01*
X136337200Y-100790476D02*
X136384819Y-100933333D01*
X136384819Y-100933333D02*
X136384819Y-101028571D01*
X136384819Y-101028571D02*
X136337200Y-101171428D01*
X136337200Y-101171428D02*
X136241961Y-101266666D01*
X136241961Y-101266666D02*
X136146723Y-101314285D01*
X136146723Y-101314285D02*
X135956247Y-101361904D01*
X135956247Y-101361904D02*
X135813390Y-101361904D01*
X135813390Y-101361904D02*
X135622914Y-101314285D01*
X135622914Y-101314285D02*
X135527676Y-101266666D01*
X135527676Y-101266666D02*
X135432438Y-101171428D01*
X135432438Y-101171428D02*
X135384819Y-101028571D01*
X135384819Y-101028571D02*
X135384819Y-100933333D01*
X135384819Y-100933333D02*
X135432438Y-100790476D01*
X135432438Y-100790476D02*
X135480057Y-100742857D01*
X136384819Y-99790476D02*
X136384819Y-100361904D01*
X136384819Y-100076190D02*
X135384819Y-100076190D01*
X135384819Y-100076190D02*
X135527676Y-100171428D01*
X135527676Y-100171428D02*
X135622914Y-100266666D01*
X135622914Y-100266666D02*
X135670533Y-100361904D01*
X135384819Y-99457142D02*
X135384819Y-98838095D01*
X135384819Y-98838095D02*
X135765771Y-99171428D01*
X135765771Y-99171428D02*
X135765771Y-99028571D01*
X135765771Y-99028571D02*
X135813390Y-98933333D01*
X135813390Y-98933333D02*
X135861009Y-98885714D01*
X135861009Y-98885714D02*
X135956247Y-98838095D01*
X135956247Y-98838095D02*
X136194342Y-98838095D01*
X136194342Y-98838095D02*
X136289580Y-98885714D01*
X136289580Y-98885714D02*
X136337200Y-98933333D01*
X136337200Y-98933333D02*
X136384819Y-99028571D01*
X136384819Y-99028571D02*
X136384819Y-99314285D01*
X136384819Y-99314285D02*
X136337200Y-99409523D01*
X136337200Y-99409523D02*
X136289580Y-99457142D01*
X132057142Y-83909580D02*
X132009523Y-83957200D01*
X132009523Y-83957200D02*
X131866666Y-84004819D01*
X131866666Y-84004819D02*
X131771428Y-84004819D01*
X131771428Y-84004819D02*
X131628571Y-83957200D01*
X131628571Y-83957200D02*
X131533333Y-83861961D01*
X131533333Y-83861961D02*
X131485714Y-83766723D01*
X131485714Y-83766723D02*
X131438095Y-83576247D01*
X131438095Y-83576247D02*
X131438095Y-83433390D01*
X131438095Y-83433390D02*
X131485714Y-83242914D01*
X131485714Y-83242914D02*
X131533333Y-83147676D01*
X131533333Y-83147676D02*
X131628571Y-83052438D01*
X131628571Y-83052438D02*
X131771428Y-83004819D01*
X131771428Y-83004819D02*
X131866666Y-83004819D01*
X131866666Y-83004819D02*
X132009523Y-83052438D01*
X132009523Y-83052438D02*
X132057142Y-83100057D01*
X133009523Y-84004819D02*
X132438095Y-84004819D01*
X132723809Y-84004819D02*
X132723809Y-83004819D01*
X132723809Y-83004819D02*
X132628571Y-83147676D01*
X132628571Y-83147676D02*
X132533333Y-83242914D01*
X132533333Y-83242914D02*
X132438095Y-83290533D01*
X133342857Y-83004819D02*
X134009523Y-83004819D01*
X134009523Y-83004819D02*
X133580952Y-84004819D01*
D10*
X165814895Y-67783332D02*
X165433942Y-68049999D01*
X165814895Y-68240475D02*
X165014895Y-68240475D01*
X165014895Y-68240475D02*
X165014895Y-67935713D01*
X165014895Y-67935713D02*
X165052990Y-67859523D01*
X165052990Y-67859523D02*
X165091085Y-67821428D01*
X165091085Y-67821428D02*
X165167276Y-67783332D01*
X165167276Y-67783332D02*
X165281561Y-67783332D01*
X165281561Y-67783332D02*
X165357752Y-67821428D01*
X165357752Y-67821428D02*
X165395847Y-67859523D01*
X165395847Y-67859523D02*
X165433942Y-67935713D01*
X165433942Y-67935713D02*
X165433942Y-68240475D01*
X165814895Y-67402380D02*
X165814895Y-67249999D01*
X165814895Y-67249999D02*
X165776800Y-67173809D01*
X165776800Y-67173809D02*
X165738704Y-67135713D01*
X165738704Y-67135713D02*
X165624419Y-67059523D01*
X165624419Y-67059523D02*
X165472038Y-67021428D01*
X165472038Y-67021428D02*
X165167276Y-67021428D01*
X165167276Y-67021428D02*
X165091085Y-67059523D01*
X165091085Y-67059523D02*
X165052990Y-67097618D01*
X165052990Y-67097618D02*
X165014895Y-67173809D01*
X165014895Y-67173809D02*
X165014895Y-67326190D01*
X165014895Y-67326190D02*
X165052990Y-67402380D01*
X165052990Y-67402380D02*
X165091085Y-67440475D01*
X165091085Y-67440475D02*
X165167276Y-67478571D01*
X165167276Y-67478571D02*
X165357752Y-67478571D01*
X165357752Y-67478571D02*
X165433942Y-67440475D01*
X165433942Y-67440475D02*
X165472038Y-67402380D01*
X165472038Y-67402380D02*
X165510133Y-67326190D01*
X165510133Y-67326190D02*
X165510133Y-67173809D01*
X165510133Y-67173809D02*
X165472038Y-67097618D01*
X165472038Y-67097618D02*
X165433942Y-67059523D01*
X165433942Y-67059523D02*
X165357752Y-67021428D01*
X155360895Y-80990475D02*
X154560895Y-80990475D01*
X154560895Y-80990475D02*
X154560895Y-80799999D01*
X154560895Y-80799999D02*
X154598990Y-80685713D01*
X154598990Y-80685713D02*
X154675180Y-80609523D01*
X154675180Y-80609523D02*
X154751371Y-80571428D01*
X154751371Y-80571428D02*
X154903752Y-80533332D01*
X154903752Y-80533332D02*
X155018038Y-80533332D01*
X155018038Y-80533332D02*
X155170419Y-80571428D01*
X155170419Y-80571428D02*
X155246609Y-80609523D01*
X155246609Y-80609523D02*
X155322800Y-80685713D01*
X155322800Y-80685713D02*
X155360895Y-80799999D01*
X155360895Y-80799999D02*
X155360895Y-80990475D01*
X154560895Y-80266666D02*
X154560895Y-79771428D01*
X154560895Y-79771428D02*
X154865657Y-80038094D01*
X154865657Y-80038094D02*
X154865657Y-79923809D01*
X154865657Y-79923809D02*
X154903752Y-79847618D01*
X154903752Y-79847618D02*
X154941847Y-79809523D01*
X154941847Y-79809523D02*
X155018038Y-79771428D01*
X155018038Y-79771428D02*
X155208514Y-79771428D01*
X155208514Y-79771428D02*
X155284704Y-79809523D01*
X155284704Y-79809523D02*
X155322800Y-79847618D01*
X155322800Y-79847618D02*
X155360895Y-79923809D01*
X155360895Y-79923809D02*
X155360895Y-80152380D01*
X155360895Y-80152380D02*
X155322800Y-80228571D01*
X155322800Y-80228571D02*
X155284704Y-80266666D01*
D11*
X134059580Y-80641666D02*
X134107200Y-80689285D01*
X134107200Y-80689285D02*
X134154819Y-80832142D01*
X134154819Y-80832142D02*
X134154819Y-80927380D01*
X134154819Y-80927380D02*
X134107200Y-81070237D01*
X134107200Y-81070237D02*
X134011961Y-81165475D01*
X134011961Y-81165475D02*
X133916723Y-81213094D01*
X133916723Y-81213094D02*
X133726247Y-81260713D01*
X133726247Y-81260713D02*
X133583390Y-81260713D01*
X133583390Y-81260713D02*
X133392914Y-81213094D01*
X133392914Y-81213094D02*
X133297676Y-81165475D01*
X133297676Y-81165475D02*
X133202438Y-81070237D01*
X133202438Y-81070237D02*
X133154819Y-80927380D01*
X133154819Y-80927380D02*
X133154819Y-80832142D01*
X133154819Y-80832142D02*
X133202438Y-80689285D01*
X133202438Y-80689285D02*
X133250057Y-80641666D01*
X133154819Y-79736904D02*
X133154819Y-80213094D01*
X133154819Y-80213094D02*
X133631009Y-80260713D01*
X133631009Y-80260713D02*
X133583390Y-80213094D01*
X133583390Y-80213094D02*
X133535771Y-80117856D01*
X133535771Y-80117856D02*
X133535771Y-79879761D01*
X133535771Y-79879761D02*
X133583390Y-79784523D01*
X133583390Y-79784523D02*
X133631009Y-79736904D01*
X133631009Y-79736904D02*
X133726247Y-79689285D01*
X133726247Y-79689285D02*
X133964342Y-79689285D01*
X133964342Y-79689285D02*
X134059580Y-79736904D01*
X134059580Y-79736904D02*
X134107200Y-79784523D01*
X134107200Y-79784523D02*
X134154819Y-79879761D01*
X134154819Y-79879761D02*
X134154819Y-80117856D01*
X134154819Y-80117856D02*
X134107200Y-80213094D01*
X134107200Y-80213094D02*
X134059580Y-80260713D01*
X143583333Y-92604819D02*
X143250000Y-92128628D01*
X143011905Y-92604819D02*
X143011905Y-91604819D01*
X143011905Y-91604819D02*
X143392857Y-91604819D01*
X143392857Y-91604819D02*
X143488095Y-91652438D01*
X143488095Y-91652438D02*
X143535714Y-91700057D01*
X143535714Y-91700057D02*
X143583333Y-91795295D01*
X143583333Y-91795295D02*
X143583333Y-91938152D01*
X143583333Y-91938152D02*
X143535714Y-92033390D01*
X143535714Y-92033390D02*
X143488095Y-92081009D01*
X143488095Y-92081009D02*
X143392857Y-92128628D01*
X143392857Y-92128628D02*
X143011905Y-92128628D01*
X143916667Y-91604819D02*
X144535714Y-91604819D01*
X144535714Y-91604819D02*
X144202381Y-91985771D01*
X144202381Y-91985771D02*
X144345238Y-91985771D01*
X144345238Y-91985771D02*
X144440476Y-92033390D01*
X144440476Y-92033390D02*
X144488095Y-92081009D01*
X144488095Y-92081009D02*
X144535714Y-92176247D01*
X144535714Y-92176247D02*
X144535714Y-92414342D01*
X144535714Y-92414342D02*
X144488095Y-92509580D01*
X144488095Y-92509580D02*
X144440476Y-92557200D01*
X144440476Y-92557200D02*
X144345238Y-92604819D01*
X144345238Y-92604819D02*
X144059524Y-92604819D01*
X144059524Y-92604819D02*
X143964286Y-92557200D01*
X143964286Y-92557200D02*
X143916667Y-92509580D01*
X139188095Y-87354819D02*
X139188095Y-88164342D01*
X139188095Y-88164342D02*
X139235714Y-88259580D01*
X139235714Y-88259580D02*
X139283333Y-88307200D01*
X139283333Y-88307200D02*
X139378571Y-88354819D01*
X139378571Y-88354819D02*
X139569047Y-88354819D01*
X139569047Y-88354819D02*
X139664285Y-88307200D01*
X139664285Y-88307200D02*
X139711904Y-88259580D01*
X139711904Y-88259580D02*
X139759523Y-88164342D01*
X139759523Y-88164342D02*
X139759523Y-87354819D01*
X140759523Y-88354819D02*
X140188095Y-88354819D01*
X140473809Y-88354819D02*
X140473809Y-87354819D01*
X140473809Y-87354819D02*
X140378571Y-87497676D01*
X140378571Y-87497676D02*
X140283333Y-87592914D01*
X140283333Y-87592914D02*
X140188095Y-87640533D01*
X144379580Y-84404166D02*
X144427200Y-84451785D01*
X144427200Y-84451785D02*
X144474819Y-84594642D01*
X144474819Y-84594642D02*
X144474819Y-84689880D01*
X144474819Y-84689880D02*
X144427200Y-84832737D01*
X144427200Y-84832737D02*
X144331961Y-84927975D01*
X144331961Y-84927975D02*
X144236723Y-84975594D01*
X144236723Y-84975594D02*
X144046247Y-85023213D01*
X144046247Y-85023213D02*
X143903390Y-85023213D01*
X143903390Y-85023213D02*
X143712914Y-84975594D01*
X143712914Y-84975594D02*
X143617676Y-84927975D01*
X143617676Y-84927975D02*
X143522438Y-84832737D01*
X143522438Y-84832737D02*
X143474819Y-84689880D01*
X143474819Y-84689880D02*
X143474819Y-84594642D01*
X143474819Y-84594642D02*
X143522438Y-84451785D01*
X143522438Y-84451785D02*
X143570057Y-84404166D01*
X143474819Y-84070832D02*
X143474819Y-83404166D01*
X143474819Y-83404166D02*
X144474819Y-83832737D01*
X121233333Y-104209580D02*
X121185714Y-104257200D01*
X121185714Y-104257200D02*
X121042857Y-104304819D01*
X121042857Y-104304819D02*
X120947619Y-104304819D01*
X120947619Y-104304819D02*
X120804762Y-104257200D01*
X120804762Y-104257200D02*
X120709524Y-104161961D01*
X120709524Y-104161961D02*
X120661905Y-104066723D01*
X120661905Y-104066723D02*
X120614286Y-103876247D01*
X120614286Y-103876247D02*
X120614286Y-103733390D01*
X120614286Y-103733390D02*
X120661905Y-103542914D01*
X120661905Y-103542914D02*
X120709524Y-103447676D01*
X120709524Y-103447676D02*
X120804762Y-103352438D01*
X120804762Y-103352438D02*
X120947619Y-103304819D01*
X120947619Y-103304819D02*
X121042857Y-103304819D01*
X121042857Y-103304819D02*
X121185714Y-103352438D01*
X121185714Y-103352438D02*
X121233333Y-103400057D01*
X121566667Y-103304819D02*
X122185714Y-103304819D01*
X122185714Y-103304819D02*
X121852381Y-103685771D01*
X121852381Y-103685771D02*
X121995238Y-103685771D01*
X121995238Y-103685771D02*
X122090476Y-103733390D01*
X122090476Y-103733390D02*
X122138095Y-103781009D01*
X122138095Y-103781009D02*
X122185714Y-103876247D01*
X122185714Y-103876247D02*
X122185714Y-104114342D01*
X122185714Y-104114342D02*
X122138095Y-104209580D01*
X122138095Y-104209580D02*
X122090476Y-104257200D01*
X122090476Y-104257200D02*
X121995238Y-104304819D01*
X121995238Y-104304819D02*
X121709524Y-104304819D01*
X121709524Y-104304819D02*
X121614286Y-104257200D01*
X121614286Y-104257200D02*
X121566667Y-104209580D01*
X145533333Y-98504819D02*
X145200000Y-98028628D01*
X144961905Y-98504819D02*
X144961905Y-97504819D01*
X144961905Y-97504819D02*
X145342857Y-97504819D01*
X145342857Y-97504819D02*
X145438095Y-97552438D01*
X145438095Y-97552438D02*
X145485714Y-97600057D01*
X145485714Y-97600057D02*
X145533333Y-97695295D01*
X145533333Y-97695295D02*
X145533333Y-97838152D01*
X145533333Y-97838152D02*
X145485714Y-97933390D01*
X145485714Y-97933390D02*
X145438095Y-97981009D01*
X145438095Y-97981009D02*
X145342857Y-98028628D01*
X145342857Y-98028628D02*
X144961905Y-98028628D01*
X145914286Y-97600057D02*
X145961905Y-97552438D01*
X145961905Y-97552438D02*
X146057143Y-97504819D01*
X146057143Y-97504819D02*
X146295238Y-97504819D01*
X146295238Y-97504819D02*
X146390476Y-97552438D01*
X146390476Y-97552438D02*
X146438095Y-97600057D01*
X146438095Y-97600057D02*
X146485714Y-97695295D01*
X146485714Y-97695295D02*
X146485714Y-97790533D01*
X146485714Y-97790533D02*
X146438095Y-97933390D01*
X146438095Y-97933390D02*
X145866667Y-98504819D01*
X145866667Y-98504819D02*
X146485714Y-98504819D01*
X157488095Y-95984819D02*
X157488095Y-96794342D01*
X157488095Y-96794342D02*
X157535714Y-96889580D01*
X157535714Y-96889580D02*
X157583333Y-96937200D01*
X157583333Y-96937200D02*
X157678571Y-96984819D01*
X157678571Y-96984819D02*
X157869047Y-96984819D01*
X157869047Y-96984819D02*
X157964285Y-96937200D01*
X157964285Y-96937200D02*
X158011904Y-96889580D01*
X158011904Y-96889580D02*
X158059523Y-96794342D01*
X158059523Y-96794342D02*
X158059523Y-95984819D01*
X158440476Y-95984819D02*
X159059523Y-95984819D01*
X159059523Y-95984819D02*
X158726190Y-96365771D01*
X158726190Y-96365771D02*
X158869047Y-96365771D01*
X158869047Y-96365771D02*
X158964285Y-96413390D01*
X158964285Y-96413390D02*
X159011904Y-96461009D01*
X159011904Y-96461009D02*
X159059523Y-96556247D01*
X159059523Y-96556247D02*
X159059523Y-96794342D01*
X159059523Y-96794342D02*
X159011904Y-96889580D01*
X159011904Y-96889580D02*
X158964285Y-96937200D01*
X158964285Y-96937200D02*
X158869047Y-96984819D01*
X158869047Y-96984819D02*
X158583333Y-96984819D01*
X158583333Y-96984819D02*
X158488095Y-96937200D01*
X158488095Y-96937200D02*
X158440476Y-96889580D01*
X119128628Y-94426190D02*
X119604819Y-94426190D01*
X118604819Y-94759523D02*
X119128628Y-94426190D01*
X119128628Y-94426190D02*
X118604819Y-94092857D01*
X119604819Y-93235714D02*
X119604819Y-93807142D01*
X119604819Y-93521428D02*
X118604819Y-93521428D01*
X118604819Y-93521428D02*
X118747676Y-93616666D01*
X118747676Y-93616666D02*
X118842914Y-93711904D01*
X118842914Y-93711904D02*
X118890533Y-93807142D01*
X147064819Y-63720833D02*
X147779104Y-63720833D01*
X147779104Y-63720833D02*
X147921961Y-63768452D01*
X147921961Y-63768452D02*
X148017200Y-63863690D01*
X148017200Y-63863690D02*
X148064819Y-64006547D01*
X148064819Y-64006547D02*
X148064819Y-64101785D01*
X147064819Y-63339880D02*
X147064819Y-62720833D01*
X147064819Y-62720833D02*
X147445771Y-63054166D01*
X147445771Y-63054166D02*
X147445771Y-62911309D01*
X147445771Y-62911309D02*
X147493390Y-62816071D01*
X147493390Y-62816071D02*
X147541009Y-62768452D01*
X147541009Y-62768452D02*
X147636247Y-62720833D01*
X147636247Y-62720833D02*
X147874342Y-62720833D01*
X147874342Y-62720833D02*
X147969580Y-62768452D01*
X147969580Y-62768452D02*
X148017200Y-62816071D01*
X148017200Y-62816071D02*
X148064819Y-62911309D01*
X148064819Y-62911309D02*
X148064819Y-63197023D01*
X148064819Y-63197023D02*
X148017200Y-63292261D01*
X148017200Y-63292261D02*
X147969580Y-63339880D01*
X162807142Y-86967080D02*
X162759523Y-87014700D01*
X162759523Y-87014700D02*
X162616666Y-87062319D01*
X162616666Y-87062319D02*
X162521428Y-87062319D01*
X162521428Y-87062319D02*
X162378571Y-87014700D01*
X162378571Y-87014700D02*
X162283333Y-86919461D01*
X162283333Y-86919461D02*
X162235714Y-86824223D01*
X162235714Y-86824223D02*
X162188095Y-86633747D01*
X162188095Y-86633747D02*
X162188095Y-86490890D01*
X162188095Y-86490890D02*
X162235714Y-86300414D01*
X162235714Y-86300414D02*
X162283333Y-86205176D01*
X162283333Y-86205176D02*
X162378571Y-86109938D01*
X162378571Y-86109938D02*
X162521428Y-86062319D01*
X162521428Y-86062319D02*
X162616666Y-86062319D01*
X162616666Y-86062319D02*
X162759523Y-86109938D01*
X162759523Y-86109938D02*
X162807142Y-86157557D01*
X163759523Y-87062319D02*
X163188095Y-87062319D01*
X163473809Y-87062319D02*
X163473809Y-86062319D01*
X163473809Y-86062319D02*
X163378571Y-86205176D01*
X163378571Y-86205176D02*
X163283333Y-86300414D01*
X163283333Y-86300414D02*
X163188095Y-86348033D01*
X164711904Y-87062319D02*
X164140476Y-87062319D01*
X164426190Y-87062319D02*
X164426190Y-86062319D01*
X164426190Y-86062319D02*
X164330952Y-86205176D01*
X164330952Y-86205176D02*
X164235714Y-86300414D01*
X164235714Y-86300414D02*
X164140476Y-86348033D01*
D10*
X165548895Y-80990475D02*
X164748895Y-80990475D01*
X164748895Y-80990475D02*
X164748895Y-80799999D01*
X164748895Y-80799999D02*
X164786990Y-80685713D01*
X164786990Y-80685713D02*
X164863180Y-80609523D01*
X164863180Y-80609523D02*
X164939371Y-80571428D01*
X164939371Y-80571428D02*
X165091752Y-80533332D01*
X165091752Y-80533332D02*
X165206038Y-80533332D01*
X165206038Y-80533332D02*
X165358419Y-80571428D01*
X165358419Y-80571428D02*
X165434609Y-80609523D01*
X165434609Y-80609523D02*
X165510800Y-80685713D01*
X165510800Y-80685713D02*
X165548895Y-80799999D01*
X165548895Y-80799999D02*
X165548895Y-80990475D01*
X164748895Y-79847618D02*
X164748895Y-79999999D01*
X164748895Y-79999999D02*
X164786990Y-80076190D01*
X164786990Y-80076190D02*
X164825085Y-80114285D01*
X164825085Y-80114285D02*
X164939371Y-80190475D01*
X164939371Y-80190475D02*
X165091752Y-80228571D01*
X165091752Y-80228571D02*
X165396514Y-80228571D01*
X165396514Y-80228571D02*
X165472704Y-80190475D01*
X165472704Y-80190475D02*
X165510800Y-80152380D01*
X165510800Y-80152380D02*
X165548895Y-80076190D01*
X165548895Y-80076190D02*
X165548895Y-79923809D01*
X165548895Y-79923809D02*
X165510800Y-79847618D01*
X165510800Y-79847618D02*
X165472704Y-79809523D01*
X165472704Y-79809523D02*
X165396514Y-79771428D01*
X165396514Y-79771428D02*
X165206038Y-79771428D01*
X165206038Y-79771428D02*
X165129847Y-79809523D01*
X165129847Y-79809523D02*
X165091752Y-79847618D01*
X165091752Y-79847618D02*
X165053657Y-79923809D01*
X165053657Y-79923809D02*
X165053657Y-80076190D01*
X165053657Y-80076190D02*
X165091752Y-80152380D01*
X165091752Y-80152380D02*
X165129847Y-80190475D01*
X165129847Y-80190475D02*
X165206038Y-80228571D01*
D11*
X144109580Y-80641666D02*
X144157200Y-80689285D01*
X144157200Y-80689285D02*
X144204819Y-80832142D01*
X144204819Y-80832142D02*
X144204819Y-80927380D01*
X144204819Y-80927380D02*
X144157200Y-81070237D01*
X144157200Y-81070237D02*
X144061961Y-81165475D01*
X144061961Y-81165475D02*
X143966723Y-81213094D01*
X143966723Y-81213094D02*
X143776247Y-81260713D01*
X143776247Y-81260713D02*
X143633390Y-81260713D01*
X143633390Y-81260713D02*
X143442914Y-81213094D01*
X143442914Y-81213094D02*
X143347676Y-81165475D01*
X143347676Y-81165475D02*
X143252438Y-81070237D01*
X143252438Y-81070237D02*
X143204819Y-80927380D01*
X143204819Y-80927380D02*
X143204819Y-80832142D01*
X143204819Y-80832142D02*
X143252438Y-80689285D01*
X143252438Y-80689285D02*
X143300057Y-80641666D01*
X143300057Y-80260713D02*
X143252438Y-80213094D01*
X143252438Y-80213094D02*
X143204819Y-80117856D01*
X143204819Y-80117856D02*
X143204819Y-79879761D01*
X143204819Y-79879761D02*
X143252438Y-79784523D01*
X143252438Y-79784523D02*
X143300057Y-79736904D01*
X143300057Y-79736904D02*
X143395295Y-79689285D01*
X143395295Y-79689285D02*
X143490533Y-79689285D01*
X143490533Y-79689285D02*
X143633390Y-79736904D01*
X143633390Y-79736904D02*
X144204819Y-80308332D01*
X144204819Y-80308332D02*
X144204819Y-79689285D01*
X144534819Y-90304166D02*
X144058628Y-90637499D01*
X144534819Y-90875594D02*
X143534819Y-90875594D01*
X143534819Y-90875594D02*
X143534819Y-90494642D01*
X143534819Y-90494642D02*
X143582438Y-90399404D01*
X143582438Y-90399404D02*
X143630057Y-90351785D01*
X143630057Y-90351785D02*
X143725295Y-90304166D01*
X143725295Y-90304166D02*
X143868152Y-90304166D01*
X143868152Y-90304166D02*
X143963390Y-90351785D01*
X143963390Y-90351785D02*
X144011009Y-90399404D01*
X144011009Y-90399404D02*
X144058628Y-90494642D01*
X144058628Y-90494642D02*
X144058628Y-90875594D01*
X144534819Y-89351785D02*
X144534819Y-89923213D01*
X144534819Y-89637499D02*
X143534819Y-89637499D01*
X143534819Y-89637499D02*
X143677676Y-89732737D01*
X143677676Y-89732737D02*
X143772914Y-89827975D01*
X143772914Y-89827975D02*
X143820533Y-89923213D01*
X127129580Y-90354166D02*
X127177200Y-90401785D01*
X127177200Y-90401785D02*
X127224819Y-90544642D01*
X127224819Y-90544642D02*
X127224819Y-90639880D01*
X127224819Y-90639880D02*
X127177200Y-90782737D01*
X127177200Y-90782737D02*
X127081961Y-90877975D01*
X127081961Y-90877975D02*
X126986723Y-90925594D01*
X126986723Y-90925594D02*
X126796247Y-90973213D01*
X126796247Y-90973213D02*
X126653390Y-90973213D01*
X126653390Y-90973213D02*
X126462914Y-90925594D01*
X126462914Y-90925594D02*
X126367676Y-90877975D01*
X126367676Y-90877975D02*
X126272438Y-90782737D01*
X126272438Y-90782737D02*
X126224819Y-90639880D01*
X126224819Y-90639880D02*
X126224819Y-90544642D01*
X126224819Y-90544642D02*
X126272438Y-90401785D01*
X126272438Y-90401785D02*
X126320057Y-90354166D01*
X126224819Y-89497023D02*
X126224819Y-89687499D01*
X126224819Y-89687499D02*
X126272438Y-89782737D01*
X126272438Y-89782737D02*
X126320057Y-89830356D01*
X126320057Y-89830356D02*
X126462914Y-89925594D01*
X126462914Y-89925594D02*
X126653390Y-89973213D01*
X126653390Y-89973213D02*
X127034342Y-89973213D01*
X127034342Y-89973213D02*
X127129580Y-89925594D01*
X127129580Y-89925594D02*
X127177200Y-89877975D01*
X127177200Y-89877975D02*
X127224819Y-89782737D01*
X127224819Y-89782737D02*
X127224819Y-89592261D01*
X127224819Y-89592261D02*
X127177200Y-89497023D01*
X127177200Y-89497023D02*
X127129580Y-89449404D01*
X127129580Y-89449404D02*
X127034342Y-89401785D01*
X127034342Y-89401785D02*
X126796247Y-89401785D01*
X126796247Y-89401785D02*
X126701009Y-89449404D01*
X126701009Y-89449404D02*
X126653390Y-89497023D01*
X126653390Y-89497023D02*
X126605771Y-89592261D01*
X126605771Y-89592261D02*
X126605771Y-89782737D01*
X126605771Y-89782737D02*
X126653390Y-89877975D01*
X126653390Y-89877975D02*
X126701009Y-89925594D01*
X126701009Y-89925594D02*
X126796247Y-89973213D01*
X147988094Y-82092320D02*
X147988094Y-82901843D01*
X147988094Y-82901843D02*
X148035713Y-82997081D01*
X148035713Y-82997081D02*
X148083332Y-83044701D01*
X148083332Y-83044701D02*
X148178570Y-83092320D01*
X148178570Y-83092320D02*
X148369046Y-83092320D01*
X148369046Y-83092320D02*
X148464284Y-83044701D01*
X148464284Y-83044701D02*
X148511903Y-82997081D01*
X148511903Y-82997081D02*
X148559522Y-82901843D01*
X148559522Y-82901843D02*
X148559522Y-82092320D01*
X148988094Y-82187558D02*
X149035713Y-82139939D01*
X149035713Y-82139939D02*
X149130951Y-82092320D01*
X149130951Y-82092320D02*
X149369046Y-82092320D01*
X149369046Y-82092320D02*
X149464284Y-82139939D01*
X149464284Y-82139939D02*
X149511903Y-82187558D01*
X149511903Y-82187558D02*
X149559522Y-82282796D01*
X149559522Y-82282796D02*
X149559522Y-82378034D01*
X149559522Y-82378034D02*
X149511903Y-82520891D01*
X149511903Y-82520891D02*
X148940475Y-83092320D01*
X148940475Y-83092320D02*
X149559522Y-83092320D01*
D10*
X158756895Y-80990475D02*
X157956895Y-80990475D01*
X157956895Y-80990475D02*
X157956895Y-80799999D01*
X157956895Y-80799999D02*
X157994990Y-80685713D01*
X157994990Y-80685713D02*
X158071180Y-80609523D01*
X158071180Y-80609523D02*
X158147371Y-80571428D01*
X158147371Y-80571428D02*
X158299752Y-80533332D01*
X158299752Y-80533332D02*
X158414038Y-80533332D01*
X158414038Y-80533332D02*
X158566419Y-80571428D01*
X158566419Y-80571428D02*
X158642609Y-80609523D01*
X158642609Y-80609523D02*
X158718800Y-80685713D01*
X158718800Y-80685713D02*
X158756895Y-80799999D01*
X158756895Y-80799999D02*
X158756895Y-80990475D01*
X158223561Y-79847618D02*
X158756895Y-79847618D01*
X157918800Y-80038094D02*
X158490228Y-80228571D01*
X158490228Y-80228571D02*
X158490228Y-79733332D01*
D12*
%TO.C,R8*%
X160990000Y-70582936D02*
X160990000Y-72037064D01*
X162810000Y-70582936D02*
X162810000Y-72037064D01*
%TO.C,U5*%
X125890000Y-83437500D02*
X125890000Y-85237500D01*
X129110000Y-84437500D02*
X129110000Y-83637500D01*
X129110000Y-84437500D02*
X129110000Y-85237500D01*
X129390000Y-83377500D02*
X129060000Y-83137500D01*
X129390000Y-82897500D01*
X129390000Y-83377500D01*
G36*
X129390000Y-83377500D02*
G01*
X129060000Y-83137500D01*
X129390000Y-82897500D01*
X129390000Y-83377500D01*
G37*
%TO.C,C10*%
X157688748Y-89227500D02*
X159111252Y-89227500D01*
X157688748Y-91047500D02*
X159111252Y-91047500D01*
%TO.C,C8*%
X148790000Y-93236252D02*
X148790000Y-91813748D01*
X150610000Y-93236252D02*
X150610000Y-91813748D01*
%TO.C,C4*%
X134290000Y-79763748D02*
X134290000Y-81186252D01*
X136110000Y-79763748D02*
X136110000Y-81186252D01*
%TO.C,J1*%
X127950000Y-67287500D02*
G75*
G02*
X116950000Y-67287500I-5500000J0D01*
G01*
X116950000Y-67287500D02*
G75*
G02*
X127950000Y-67287500I5500000J0D01*
G01*
%TO.C,J4*%
X162145000Y-98812500D02*
X162145000Y-89862500D01*
X165225000Y-89742500D02*
X166125000Y-89742500D01*
X165225000Y-98932500D02*
X166125000Y-98932500D01*
%TO.C,C1*%
X122211252Y-85090000D02*
X120788748Y-85090000D01*
X122211252Y-86910000D02*
X120788748Y-86910000D01*
%TO.C,C9*%
X148840000Y-96838748D02*
X148840000Y-98261252D01*
X150660000Y-96838748D02*
X150660000Y-98261252D01*
%TO.C,R7*%
X157740000Y-70582936D02*
X157740000Y-72037064D01*
X159560000Y-70582936D02*
X159560000Y-72037064D01*
%TO.C,R5*%
X150940000Y-70582936D02*
X150940000Y-72037064D01*
X152760000Y-70582936D02*
X152760000Y-72037064D01*
%TO.C,J2*%
X145500000Y-67287500D02*
G75*
G02*
X134500000Y-67287500I-5500000J0D01*
G01*
X134500000Y-67287500D02*
G75*
G02*
X145500000Y-67287500I5500000J0D01*
G01*
%TO.C,R4*%
X147290000Y-70582936D02*
X147290000Y-72037064D01*
X149110000Y-70582936D02*
X149110000Y-72037064D01*
%TO.C,R6*%
X154490000Y-70582936D02*
X154490000Y-72037064D01*
X156310000Y-70582936D02*
X156310000Y-72037064D01*
%TO.C,D1*%
X147240000Y-76535000D02*
X147240000Y-79395000D01*
X147240000Y-79395000D02*
X149160000Y-79395000D01*
X149160000Y-79395000D02*
X149160000Y-76535000D01*
%TO.C,D5*%
X160824000Y-76535000D02*
X160824000Y-79395000D01*
X160824000Y-79395000D02*
X162744000Y-79395000D01*
X162744000Y-79395000D02*
X162744000Y-76535000D01*
%TO.C,C12*%
X159390000Y-84811252D02*
X159390000Y-83388748D01*
X161210000Y-84811252D02*
X161210000Y-83388748D01*
%TO.C,C16*%
X122423752Y-81927500D02*
X121001248Y-81927500D01*
X122423752Y-83747500D02*
X121001248Y-83747500D01*
%TO.C,D2*%
X150636000Y-76535000D02*
X150636000Y-79395000D01*
X150636000Y-79395000D02*
X152556000Y-79395000D01*
X152556000Y-79395000D02*
X152556000Y-76535000D01*
%TO.C,C13*%
X133990000Y-99953733D02*
X133990000Y-100246267D01*
X135010000Y-99953733D02*
X135010000Y-100246267D01*
%TO.C,C17*%
X131988748Y-84490000D02*
X133411252Y-84490000D01*
X131988748Y-86310000D02*
X133411252Y-86310000D01*
%TO.C,R9*%
X164640000Y-70582936D02*
X164640000Y-72037064D01*
X166460000Y-70582936D02*
X166460000Y-72037064D01*
%TO.C,D3*%
X154032000Y-76535000D02*
X154032000Y-79395000D01*
X154032000Y-79395000D02*
X155952000Y-79395000D01*
X155952000Y-79395000D02*
X155952000Y-76535000D01*
%TO.C,C5*%
X130940000Y-79763748D02*
X130940000Y-81186252D01*
X132760000Y-79763748D02*
X132760000Y-81186252D01*
%TO.C,R3*%
X144972936Y-92940000D02*
X146427064Y-92940000D01*
X144972936Y-94760000D02*
X146427064Y-94760000D01*
%TO.C,U1*%
X131790000Y-88977500D02*
X131790000Y-89277500D01*
X131790000Y-96197500D02*
X131790000Y-95897500D01*
X132090000Y-88977500D02*
X131790000Y-88977500D01*
X132090000Y-96197500D02*
X131790000Y-96197500D01*
X138710000Y-88977500D02*
X139010000Y-88977500D01*
X138710000Y-96197500D02*
X139010000Y-96197500D01*
X139010000Y-88977500D02*
X139010000Y-89277500D01*
X139010000Y-96197500D02*
X139010000Y-95897500D01*
X131187500Y-89277500D02*
X130847500Y-88807500D01*
X131527500Y-88807500D01*
X131187500Y-89277500D01*
G36*
X131187500Y-89277500D02*
G01*
X130847500Y-88807500D01*
X131527500Y-88807500D01*
X131187500Y-89277500D01*
G37*
%TO.C,C7*%
X144940000Y-84383767D02*
X144940000Y-84091233D01*
X145960000Y-84383767D02*
X145960000Y-84091233D01*
%TO.C,C3*%
X122111252Y-101090000D02*
X120688748Y-101090000D01*
X122111252Y-102910000D02*
X120688748Y-102910000D01*
%TO.C,R2*%
X144972936Y-95290000D02*
X146427064Y-95290000D01*
X144972936Y-97110000D02*
X146427064Y-97110000D01*
%TO.C,U3*%
X156640000Y-92090000D02*
X156640000Y-92540000D01*
X156640000Y-95310000D02*
X156640000Y-94860000D01*
X157090000Y-92090000D02*
X156640000Y-92090000D01*
X157090000Y-95310000D02*
X156640000Y-95310000D01*
X159410000Y-92090000D02*
X159860000Y-92090000D01*
X159410000Y-95310000D02*
X159560000Y-95310000D01*
X159860000Y-92090000D02*
X159860000Y-92540000D01*
X159860000Y-94860000D02*
X159860000Y-95070000D01*
X160100000Y-95640000D02*
X159620000Y-95640000D01*
X159860000Y-95310000D01*
X160100000Y-95640000D01*
G36*
X160100000Y-95640000D02*
G01*
X159620000Y-95640000D01*
X159860000Y-95310000D01*
X160100000Y-95640000D01*
G37*
%TO.C,Y1*%
X120450000Y-87300000D02*
X120450000Y-99900000D01*
X125550000Y-87300000D02*
X120450000Y-87300000D01*
X125550000Y-99900000D02*
X125550000Y-87300000D01*
%TO.C,J3*%
X161870000Y-64717500D02*
X161870000Y-62057500D01*
X151650000Y-64717500D02*
X161870000Y-64717500D01*
X151650000Y-64717500D02*
X151650000Y-62057500D01*
X151650000Y-62057500D02*
X161870000Y-62057500D01*
X149050000Y-63387500D02*
X149050000Y-62057500D01*
X149050000Y-62057500D02*
X150380000Y-62057500D01*
%TO.C,C11*%
X163303733Y-87527500D02*
X163596267Y-87527500D01*
X163303733Y-88547500D02*
X163596267Y-88547500D01*
%TO.C,D6*%
X164220000Y-76535000D02*
X164220000Y-79395000D01*
X164220000Y-79395000D02*
X166140000Y-79395000D01*
X166140000Y-79395000D02*
X166140000Y-76535000D01*
D13*
%TO.C,G\u002A\u002A\u002A*%
G36*
X158780944Y-102910123D02*
G01*
X158780944Y-102959671D01*
X158705318Y-102959671D01*
X158629692Y-102959671D01*
X158629692Y-102910123D01*
X158629692Y-102860575D01*
X158705318Y-102860575D01*
X158780944Y-102860575D01*
X158780944Y-102910123D01*
G37*
G36*
X158780944Y-103194374D02*
G01*
X158780944Y-103387351D01*
X158705318Y-103387351D01*
X158629692Y-103387351D01*
X158629692Y-103194374D01*
X158629692Y-103001396D01*
X158705318Y-103001396D01*
X158780944Y-103001396D01*
X158780944Y-103194374D01*
G37*
G36*
X159552854Y-103123963D02*
G01*
X159552854Y-103387351D01*
X159477227Y-103387351D01*
X159401601Y-103387351D01*
X159401601Y-103123963D01*
X159401601Y-102860575D01*
X159477227Y-102860575D01*
X159552854Y-102860575D01*
X159552854Y-103123963D01*
G37*
G36*
X161207505Y-102861736D02*
G01*
X161281827Y-102863183D01*
X161283179Y-103125267D01*
X161284531Y-103387351D01*
X161208857Y-103387351D01*
X161133182Y-103387351D01*
X161133182Y-103123820D01*
X161133182Y-102860289D01*
X161207505Y-102861736D01*
G37*
G36*
X163361550Y-103002418D02*
G01*
X163519322Y-103004004D01*
X163544570Y-103018845D01*
X163561271Y-103030486D01*
X163572733Y-103043783D01*
X163579840Y-103060883D01*
X163583473Y-103083930D01*
X163584516Y-103115072D01*
X163584517Y-103115972D01*
X163584517Y-103163080D01*
X163516714Y-103163080D01*
X163448911Y-103163080D01*
X163448911Y-103132425D01*
X163448045Y-103113419D01*
X163444290Y-103100618D01*
X163435915Y-103092689D01*
X163421188Y-103088297D01*
X163398377Y-103086108D01*
X163388135Y-103085615D01*
X163344599Y-103083776D01*
X163344599Y-103235563D01*
X163344599Y-103387351D01*
X163274188Y-103387351D01*
X163203778Y-103387351D01*
X163203778Y-103194092D01*
X163203778Y-103000832D01*
X163361550Y-103002418D01*
G37*
G36*
X165478528Y-103001498D02*
G01*
X165515065Y-103001840D01*
X165543634Y-103002482D01*
X165565468Y-103003480D01*
X165581799Y-103004893D01*
X165593856Y-103006778D01*
X165602872Y-103009193D01*
X165603456Y-103009396D01*
X165628234Y-103020939D01*
X165645988Y-103036396D01*
X165657561Y-103057248D01*
X165663797Y-103084979D01*
X165665544Y-103118580D01*
X165665544Y-103163080D01*
X165597741Y-103163080D01*
X165529938Y-103163080D01*
X165529938Y-103135391D01*
X165528952Y-103114853D01*
X165524840Y-103101082D01*
X165515868Y-103092629D01*
X165500305Y-103088047D01*
X165476419Y-103085888D01*
X165470379Y-103085615D01*
X165425626Y-103083776D01*
X165425626Y-103235563D01*
X165425626Y-103387351D01*
X165355215Y-103387351D01*
X165284804Y-103387351D01*
X165284804Y-103194374D01*
X165284804Y-103001396D01*
X165432794Y-103001396D01*
X165478528Y-103001498D01*
G37*
G36*
X152544384Y-103002418D02*
G01*
X152589072Y-103002883D01*
X152624586Y-103003348D01*
X152652179Y-103003913D01*
X152673108Y-103004681D01*
X152688628Y-103005752D01*
X152699994Y-103007229D01*
X152708461Y-103009212D01*
X152715285Y-103011805D01*
X152721722Y-103015107D01*
X152725164Y-103017043D01*
X152743629Y-103028791D01*
X152756313Y-103040962D01*
X152764383Y-103055918D01*
X152769009Y-103076019D01*
X152771358Y-103103628D01*
X152771690Y-103111067D01*
X152773780Y-103163080D01*
X152702762Y-103163080D01*
X152631745Y-103163080D01*
X152631665Y-103133090D01*
X152631056Y-103112860D01*
X152628116Y-103099663D01*
X152620980Y-103091877D01*
X152607786Y-103087878D01*
X152586670Y-103086042D01*
X152577172Y-103085615D01*
X152532648Y-103083776D01*
X152532648Y-103235563D01*
X152532648Y-103387351D01*
X152459630Y-103387351D01*
X152386611Y-103387351D01*
X152386611Y-103194092D01*
X152386611Y-103000832D01*
X152544384Y-103002418D01*
G37*
G36*
X158181149Y-102930986D02*
G01*
X158181149Y-103001396D01*
X158276334Y-103001473D01*
X158331725Y-103002590D01*
X158377822Y-103006058D01*
X158415564Y-103012200D01*
X158445892Y-103021340D01*
X158469742Y-103033801D01*
X158488054Y-103049906D01*
X158501768Y-103069978D01*
X158506876Y-103080838D01*
X158509365Y-103088496D01*
X158511307Y-103098973D01*
X158512762Y-103113509D01*
X158513792Y-103133345D01*
X158514458Y-103159719D01*
X158514823Y-103193872D01*
X158514947Y-103237045D01*
X158514948Y-103243754D01*
X158514948Y-103387351D01*
X158444538Y-103387351D01*
X158374127Y-103387351D01*
X158374127Y-103259860D01*
X158374097Y-103220124D01*
X158373934Y-103189471D01*
X158373525Y-103166550D01*
X158372757Y-103150012D01*
X158371517Y-103138507D01*
X158369695Y-103130688D01*
X158367176Y-103125203D01*
X158363849Y-103120704D01*
X158362392Y-103119020D01*
X158350338Y-103109705D01*
X158332144Y-103102882D01*
X158306728Y-103098345D01*
X158273005Y-103095887D01*
X158237809Y-103095277D01*
X158181149Y-103095277D01*
X158181149Y-103241314D01*
X158181149Y-103387351D01*
X158110739Y-103387351D01*
X158040328Y-103387351D01*
X158040328Y-103123963D01*
X158040328Y-102860575D01*
X158110739Y-102860575D01*
X158181149Y-102860575D01*
X158181149Y-102930986D01*
G37*
G36*
X164471170Y-102930986D02*
G01*
X164471170Y-103001396D01*
X164544188Y-103001396D01*
X164617207Y-103001396D01*
X164617207Y-103043121D01*
X164617207Y-103084846D01*
X164543597Y-103084846D01*
X164469987Y-103084846D01*
X164472057Y-103174815D01*
X164473346Y-103214782D01*
X164475779Y-103245526D01*
X164480311Y-103268252D01*
X164487896Y-103284169D01*
X164499489Y-103294481D01*
X164516044Y-103300396D01*
X164538517Y-103303119D01*
X164567860Y-103303857D01*
X164574178Y-103303872D01*
X164617207Y-103303901D01*
X164617207Y-103345626D01*
X164617207Y-103387351D01*
X164524630Y-103387002D01*
X164481635Y-103386370D01*
X164447643Y-103384851D01*
X164423149Y-103382476D01*
X164410355Y-103379867D01*
X164378227Y-103365073D01*
X164353519Y-103343028D01*
X164345059Y-103331190D01*
X164341065Y-103324279D01*
X164338027Y-103317084D01*
X164335784Y-103308075D01*
X164334176Y-103295722D01*
X164333043Y-103278497D01*
X164332224Y-103254870D01*
X164331560Y-103223313D01*
X164331145Y-103198474D01*
X164329333Y-103085224D01*
X164281596Y-103083731D01*
X164233860Y-103082238D01*
X164232337Y-103041817D01*
X164230813Y-103001396D01*
X164280581Y-103001396D01*
X164330349Y-103001396D01*
X164330349Y-102930986D01*
X164330349Y-102860575D01*
X164400759Y-102860575D01*
X164471170Y-102860575D01*
X164471170Y-102930986D01*
G37*
G36*
X153633141Y-102930986D02*
G01*
X153633141Y-103001396D01*
X153706379Y-103001396D01*
X153779617Y-103001396D01*
X153778094Y-103041817D01*
X153776570Y-103082238D01*
X153704343Y-103083693D01*
X153632115Y-103085147D01*
X153634036Y-103174966D01*
X153635044Y-103211465D01*
X153636513Y-103239032D01*
X153638779Y-103259164D01*
X153642176Y-103273359D01*
X153647036Y-103283115D01*
X153653695Y-103289931D01*
X153660643Y-103294327D01*
X153670720Y-103297325D01*
X153688311Y-103300222D01*
X153710507Y-103302598D01*
X153724414Y-103303574D01*
X153776570Y-103306509D01*
X153778094Y-103346930D01*
X153779617Y-103387351D01*
X153684213Y-103386903D01*
X153652800Y-103386542D01*
X153624225Y-103385817D01*
X153600439Y-103384807D01*
X153583393Y-103383593D01*
X153575465Y-103382406D01*
X153543421Y-103368081D01*
X153517809Y-103347087D01*
X153500006Y-103320711D01*
X153494785Y-103307009D01*
X153491646Y-103292503D01*
X153489395Y-103272413D01*
X153487949Y-103245410D01*
X153487226Y-103210163D01*
X153487104Y-103182996D01*
X153487104Y-103084846D01*
X153440164Y-103084846D01*
X153393223Y-103084846D01*
X153393223Y-103043121D01*
X153393223Y-103001396D01*
X153440164Y-103001396D01*
X153487104Y-103001396D01*
X153487104Y-102930986D01*
X153487104Y-102860575D01*
X153560123Y-102860575D01*
X153633141Y-102860575D01*
X153633141Y-102930986D01*
G37*
G36*
X158619869Y-101408029D02*
G01*
X158635479Y-101472905D01*
X158659937Y-101537884D01*
X158691984Y-101600478D01*
X158730363Y-101658200D01*
X158769765Y-101704433D01*
X158829698Y-101759543D01*
X158893868Y-101805250D01*
X158962751Y-101841801D01*
X159036824Y-101869443D01*
X159116562Y-101888422D01*
X159129086Y-101890544D01*
X159166899Y-101896630D01*
X159166899Y-102167371D01*
X159166899Y-102438111D01*
X159131694Y-102437329D01*
X159110894Y-102436603D01*
X159092060Y-102435497D01*
X159080841Y-102434432D01*
X159060303Y-102431366D01*
X159033942Y-102427015D01*
X159004201Y-102421829D01*
X158973521Y-102416256D01*
X158944343Y-102410745D01*
X158919111Y-102405743D01*
X158900264Y-102401701D01*
X158893030Y-102399920D01*
X158845922Y-102385060D01*
X158792879Y-102364814D01*
X158736262Y-102340121D01*
X158702710Y-102324130D01*
X158606209Y-102271021D01*
X158516367Y-102209975D01*
X158433480Y-102141319D01*
X158357842Y-102065383D01*
X158289751Y-101982494D01*
X158229502Y-101892981D01*
X158177392Y-101797173D01*
X158133714Y-101695397D01*
X158131929Y-101690621D01*
X158114676Y-101639589D01*
X158099086Y-101584635D01*
X158085770Y-101528539D01*
X158075340Y-101474079D01*
X158068405Y-101424035D01*
X158065812Y-101389774D01*
X158064483Y-101355873D01*
X158337788Y-101355873D01*
X158611094Y-101355873D01*
X158619869Y-101408029D01*
G37*
G36*
X154560215Y-102861732D02*
G01*
X154631930Y-102863183D01*
X154633385Y-102932289D01*
X154634840Y-103001396D01*
X154705100Y-103001396D01*
X154775359Y-103001396D01*
X154775359Y-103043121D01*
X154775359Y-103084846D01*
X154704948Y-103084846D01*
X154634538Y-103084846D01*
X154634538Y-103173266D01*
X154634895Y-103208292D01*
X154635915Y-103237399D01*
X154637519Y-103259218D01*
X154639628Y-103272382D01*
X154640328Y-103274395D01*
X154647841Y-103285235D01*
X154660006Y-103293015D01*
X154678416Y-103298272D01*
X154704661Y-103301543D01*
X154724507Y-103302759D01*
X154775359Y-103305115D01*
X154775359Y-103346233D01*
X154775359Y-103387351D01*
X154682782Y-103386988D01*
X154639606Y-103386377D01*
X154606178Y-103384895D01*
X154581846Y-103382498D01*
X154566612Y-103379351D01*
X154547636Y-103370850D01*
X154529677Y-103358722D01*
X154525814Y-103355257D01*
X154515007Y-103344303D01*
X154506708Y-103334212D01*
X154500561Y-103323414D01*
X154496205Y-103310335D01*
X154493283Y-103293405D01*
X154491436Y-103271052D01*
X154490304Y-103241703D01*
X154489530Y-103203786D01*
X154489396Y-103195678D01*
X154487604Y-103084846D01*
X154441112Y-103084846D01*
X154394620Y-103084846D01*
X154394620Y-103043121D01*
X154394620Y-103001396D01*
X154441560Y-103001396D01*
X154488501Y-103001396D01*
X154488501Y-102930838D01*
X154488501Y-102860281D01*
X154560215Y-102861732D01*
G37*
G36*
X160351981Y-101381951D02*
G01*
X160349511Y-101409582D01*
X160345024Y-101444283D01*
X160339006Y-101482998D01*
X160331947Y-101522670D01*
X160324331Y-101560242D01*
X160321627Y-101572320D01*
X160296933Y-101659612D01*
X160262797Y-101747838D01*
X160218962Y-101837611D01*
X160186694Y-101894496D01*
X160140989Y-101963356D01*
X160086681Y-102031873D01*
X160025497Y-102098261D01*
X159959166Y-102160735D01*
X159889415Y-102217510D01*
X159840475Y-102252242D01*
X159810995Y-102270479D01*
X159774405Y-102290923D01*
X159733321Y-102312296D01*
X159690357Y-102333324D01*
X159648130Y-102352729D01*
X159609253Y-102369235D01*
X159576342Y-102381566D01*
X159573716Y-102382442D01*
X159535343Y-102393897D01*
X159491644Y-102404959D01*
X159445114Y-102415160D01*
X159398251Y-102424032D01*
X159353551Y-102431105D01*
X159313510Y-102435911D01*
X159280626Y-102437981D01*
X159277731Y-102438020D01*
X159265995Y-102438111D01*
X159265995Y-102167794D01*
X159265995Y-101897478D01*
X159324304Y-101885764D01*
X159400516Y-101865414D01*
X159472260Y-101836225D01*
X159538899Y-101798843D01*
X159599801Y-101753913D01*
X159654331Y-101702078D01*
X159701855Y-101643985D01*
X159741739Y-101580277D01*
X159773350Y-101511600D01*
X159796051Y-101438598D01*
X159804384Y-101397598D01*
X159811329Y-101355873D01*
X160082389Y-101355873D01*
X160353449Y-101355873D01*
X160351981Y-101381951D01*
G37*
G36*
X157102292Y-103133832D02*
G01*
X157171930Y-103266267D01*
X157198996Y-103215977D01*
X157211030Y-103193824D01*
X157226600Y-103165464D01*
X157244118Y-103133774D01*
X157261994Y-103101633D01*
X157272014Y-103083715D01*
X157317967Y-103001742D01*
X157394897Y-103001569D01*
X157421880Y-103001691D01*
X157444727Y-103002143D01*
X157461620Y-103002861D01*
X157470742Y-103003781D01*
X157471827Y-103004258D01*
X157471170Y-103006245D01*
X157468909Y-103010781D01*
X157464606Y-103018614D01*
X157457825Y-103030492D01*
X157448128Y-103047164D01*
X157435080Y-103069378D01*
X157418242Y-103097884D01*
X157397178Y-103133430D01*
X157371452Y-103176764D01*
X157354790Y-103204805D01*
X157335366Y-103237516D01*
X157316331Y-103269626D01*
X157298796Y-103299253D01*
X157283874Y-103324519D01*
X157272678Y-103343543D01*
X157269168Y-103349538D01*
X157247090Y-103387351D01*
X157167785Y-103387237D01*
X157088480Y-103387123D01*
X157018365Y-103263366D01*
X156997302Y-103226200D01*
X156975594Y-103187917D01*
X156954475Y-103150689D01*
X156935176Y-103116690D01*
X156918932Y-103088094D01*
X156910142Y-103072635D01*
X156896752Y-103048966D01*
X156885420Y-103028674D01*
X156877052Y-103013403D01*
X156872553Y-103004794D01*
X156872032Y-103003528D01*
X156876951Y-103002795D01*
X156890522Y-103002171D01*
X156910965Y-103001703D01*
X156936500Y-103001438D01*
X156952343Y-103001396D01*
X157032654Y-103001396D01*
X157102292Y-103133832D01*
G37*
G36*
X159323367Y-103045090D02*
G01*
X159323367Y-103088783D01*
X159212536Y-103091407D01*
X159169254Y-103092689D01*
X159135167Y-103094317D01*
X159109041Y-103096388D01*
X159089641Y-103099001D01*
X159075734Y-103102254D01*
X159075415Y-103102355D01*
X159047154Y-103116251D01*
X159024920Y-103137384D01*
X159016284Y-103151002D01*
X159012210Y-103165790D01*
X159010656Y-103186548D01*
X159011560Y-103209141D01*
X159014859Y-103229433D01*
X159017606Y-103237960D01*
X159028297Y-103254647D01*
X159044856Y-103271365D01*
X159063515Y-103284784D01*
X159077517Y-103290930D01*
X159086663Y-103292158D01*
X159104502Y-103293528D01*
X159129298Y-103294944D01*
X159159317Y-103296313D01*
X159192823Y-103297540D01*
X159206016Y-103297946D01*
X159320759Y-103301294D01*
X159322274Y-103344322D01*
X159323789Y-103387351D01*
X159186668Y-103386738D01*
X159148427Y-103386414D01*
X159112357Y-103385822D01*
X159080166Y-103385014D01*
X159053562Y-103384038D01*
X159034251Y-103382945D01*
X159024933Y-103381977D01*
X158982338Y-103369819D01*
X158944167Y-103348959D01*
X158911856Y-103320415D01*
X158886844Y-103285207D01*
X158885925Y-103283505D01*
X158868686Y-103242235D01*
X158861700Y-103202204D01*
X158864690Y-103164115D01*
X158878240Y-103120122D01*
X158899150Y-103083268D01*
X158927228Y-103053818D01*
X158960566Y-103032841D01*
X158980565Y-103023821D01*
X158999562Y-103016689D01*
X159019146Y-103011230D01*
X159040904Y-103007229D01*
X159066424Y-103004469D01*
X159097295Y-103002736D01*
X159135104Y-103001814D01*
X159181439Y-103001486D01*
X159191673Y-103001473D01*
X159323367Y-103001396D01*
X159323367Y-103045090D01*
G37*
G36*
X162155441Y-102930986D02*
G01*
X162155441Y-103001396D01*
X162245756Y-103001396D01*
X162290433Y-103001829D01*
X162326587Y-103003312D01*
X162356096Y-103006122D01*
X162380842Y-103010537D01*
X162402703Y-103016833D01*
X162423558Y-103025287D01*
X162430636Y-103028645D01*
X162465109Y-103050820D01*
X162492371Y-103079155D01*
X162512350Y-103112203D01*
X162524971Y-103148515D01*
X162530162Y-103186643D01*
X162527847Y-103225139D01*
X162517954Y-103262555D01*
X162500409Y-103297443D01*
X162475138Y-103328356D01*
X162447040Y-103350740D01*
X162431962Y-103359966D01*
X162417230Y-103367514D01*
X162401620Y-103373549D01*
X162383909Y-103378237D01*
X162362874Y-103381743D01*
X162337292Y-103384234D01*
X162305939Y-103385874D01*
X162267591Y-103386829D01*
X162221026Y-103387265D01*
X162176578Y-103387351D01*
X162009404Y-103387351D01*
X162009404Y-103299977D01*
X162155441Y-103299977D01*
X162232623Y-103297784D01*
X162263605Y-103296744D01*
X162286341Y-103295450D01*
X162303012Y-103293583D01*
X162315803Y-103290825D01*
X162326898Y-103286859D01*
X162335631Y-103282796D01*
X162357913Y-103267776D01*
X162372412Y-103247952D01*
X162379888Y-103221897D01*
X162381339Y-103196960D01*
X162378214Y-103166747D01*
X162369046Y-103142148D01*
X162353205Y-103122785D01*
X162330063Y-103108281D01*
X162298990Y-103098256D01*
X162259357Y-103092333D01*
X162210537Y-103090133D01*
X162203685Y-103090101D01*
X162155441Y-103090062D01*
X162155441Y-103195019D01*
X162155441Y-103299977D01*
X162009404Y-103299977D01*
X162009404Y-103195019D01*
X162009404Y-103123963D01*
X162009404Y-102860575D01*
X162082423Y-102860575D01*
X162155441Y-102860575D01*
X162155441Y-102930986D01*
G37*
G36*
X155649656Y-103001588D02*
G01*
X155692751Y-103002139D01*
X155729908Y-103003016D01*
X155759977Y-103004185D01*
X155781805Y-103005611D01*
X155793449Y-103007086D01*
X155824460Y-103016145D01*
X155856401Y-103030027D01*
X155885978Y-103046984D01*
X155909895Y-103065262D01*
X155917586Y-103073056D01*
X155937241Y-103099556D01*
X155950119Y-103127758D01*
X155956951Y-103160086D01*
X155958471Y-103198964D01*
X155958215Y-103207413D01*
X155956203Y-103238149D01*
X155952094Y-103261623D01*
X155944605Y-103280976D01*
X155932447Y-103299345D01*
X155914337Y-103319870D01*
X155910501Y-103323874D01*
X155877900Y-103352371D01*
X155843020Y-103372027D01*
X155826452Y-103378241D01*
X155816623Y-103379925D01*
X155798166Y-103381696D01*
X155772883Y-103383435D01*
X155742576Y-103385024D01*
X155709045Y-103386344D01*
X155698521Y-103386673D01*
X155586386Y-103389959D01*
X155584930Y-103459066D01*
X155583475Y-103528172D01*
X155510608Y-103528172D01*
X155437741Y-103528172D01*
X155437741Y-103300000D01*
X155583778Y-103300000D01*
X155658100Y-103297509D01*
X155693378Y-103295893D01*
X155719949Y-103293602D01*
X155739526Y-103290429D01*
X155753824Y-103286166D01*
X155754608Y-103285847D01*
X155771573Y-103276595D01*
X155786411Y-103264889D01*
X155789433Y-103261655D01*
X155801902Y-103239963D01*
X155808795Y-103213197D01*
X155810153Y-103184377D01*
X155806021Y-103156518D01*
X155796442Y-103132639D01*
X155787420Y-103120786D01*
X155776103Y-103111445D01*
X155762245Y-103104363D01*
X155744198Y-103099167D01*
X155720315Y-103095485D01*
X155688950Y-103092944D01*
X155658100Y-103091509D01*
X155583778Y-103088748D01*
X155583778Y-103194374D01*
X155583778Y-103300000D01*
X155437741Y-103300000D01*
X155437741Y-103264784D01*
X155437741Y-103194374D01*
X155437741Y-103001396D01*
X155601776Y-103001396D01*
X155649656Y-103001588D01*
G37*
G36*
X151957628Y-103001473D02*
G01*
X152010529Y-103001627D01*
X152054283Y-103002144D01*
X152090171Y-103003186D01*
X152119477Y-103004917D01*
X152143481Y-103007500D01*
X152163466Y-103011097D01*
X152180715Y-103015872D01*
X152196508Y-103021988D01*
X152212128Y-103029608D01*
X152222207Y-103035113D01*
X152253602Y-103055727D01*
X152277247Y-103078841D01*
X152295819Y-103107278D01*
X152301493Y-103118747D01*
X152308868Y-103136158D01*
X152313267Y-103151805D01*
X152315413Y-103169583D01*
X152316031Y-103193386D01*
X152316037Y-103196981D01*
X152315538Y-103222016D01*
X152313581Y-103240467D01*
X152309478Y-103256152D01*
X152302537Y-103272891D01*
X152302192Y-103273633D01*
X152279500Y-103310355D01*
X152249160Y-103340835D01*
X152212564Y-103364041D01*
X152171103Y-103378940D01*
X152156405Y-103381888D01*
X152139785Y-103383717D01*
X152115351Y-103385285D01*
X152085719Y-103386476D01*
X152053504Y-103387175D01*
X152033254Y-103387312D01*
X151943285Y-103387351D01*
X151943285Y-103457762D01*
X151943285Y-103528172D01*
X151867659Y-103528172D01*
X151792032Y-103528172D01*
X151792032Y-103300023D01*
X151943285Y-103300023D01*
X152015000Y-103297355D01*
X152043022Y-103295888D01*
X152068825Y-103293768D01*
X152089830Y-103291257D01*
X152103460Y-103288621D01*
X152104969Y-103288140D01*
X152131340Y-103274255D01*
X152149760Y-103254116D01*
X152160534Y-103227237D01*
X152163966Y-103194461D01*
X152160997Y-103160646D01*
X152152049Y-103134186D01*
X152137385Y-103115792D01*
X152133458Y-103112923D01*
X152112952Y-103103697D01*
X152083684Y-103096666D01*
X152047139Y-103092084D01*
X152004804Y-103090203D01*
X151999353Y-103090170D01*
X151943285Y-103090062D01*
X151943285Y-103195042D01*
X151943285Y-103300023D01*
X151792032Y-103300023D01*
X151792032Y-103264784D01*
X151792032Y-103195042D01*
X151792032Y-103001396D01*
X151957628Y-103001473D01*
G37*
G36*
X159303809Y-100161149D02*
G01*
X159403821Y-100174706D01*
X159500447Y-100196275D01*
X159596705Y-100226582D01*
X159632666Y-100240090D01*
X159731167Y-100283813D01*
X159823288Y-100335503D01*
X159909467Y-100395486D01*
X159990142Y-100464087D01*
X160065750Y-100541632D01*
X160113110Y-100597899D01*
X160158126Y-100659446D01*
X160200897Y-100727462D01*
X160239807Y-100798962D01*
X160273239Y-100870964D01*
X160299575Y-100940487D01*
X160300675Y-100943840D01*
X160309221Y-100973124D01*
X160318110Y-101008883D01*
X160326934Y-101048895D01*
X160335285Y-101090941D01*
X160342754Y-101132800D01*
X160348933Y-101172252D01*
X160353413Y-101207077D01*
X160355786Y-101235053D01*
X160356057Y-101244885D01*
X160355604Y-101246939D01*
X160353691Y-101248666D01*
X160349491Y-101250095D01*
X160342175Y-101251253D01*
X160330916Y-101252169D01*
X160314884Y-101252871D01*
X160293253Y-101253387D01*
X160265194Y-101253746D01*
X160229878Y-101253975D01*
X160186478Y-101254103D01*
X160134166Y-101254158D01*
X160083140Y-101254168D01*
X159810223Y-101254168D01*
X159803738Y-101211140D01*
X159791118Y-101152926D01*
X159771042Y-101092474D01*
X159744874Y-101033121D01*
X159713974Y-100978201D01*
X159700283Y-100957781D01*
X159660234Y-100908234D01*
X159613200Y-100862008D01*
X159560824Y-100820138D01*
X159504753Y-100783656D01*
X159446631Y-100753598D01*
X159388104Y-100730997D01*
X159330815Y-100716887D01*
X159312936Y-100714325D01*
X159295154Y-100711991D01*
X159280646Y-100709621D01*
X159275123Y-100708409D01*
X159273106Y-100707318D01*
X159271408Y-100704729D01*
X159270004Y-100699807D01*
X159268864Y-100691720D01*
X159267963Y-100679635D01*
X159267271Y-100662719D01*
X159266762Y-100640139D01*
X159266408Y-100611063D01*
X159266182Y-100574656D01*
X159266057Y-100530087D01*
X159266004Y-100476523D01*
X159265995Y-100431685D01*
X159265995Y-100157543D01*
X159303809Y-100161149D01*
G37*
G36*
X157962094Y-103045194D02*
G01*
X157962094Y-103088992D01*
X157835616Y-103091095D01*
X157793419Y-103091926D01*
X157760353Y-103092913D01*
X157735117Y-103094149D01*
X157716409Y-103095726D01*
X157702930Y-103097739D01*
X157693378Y-103100279D01*
X157690260Y-103101510D01*
X157671975Y-103112990D01*
X157659244Y-103127762D01*
X157654375Y-103143134D01*
X157654373Y-103143378D01*
X157654941Y-103146037D01*
X157657378Y-103148134D01*
X157662784Y-103149735D01*
X157672257Y-103150908D01*
X157686898Y-103151717D01*
X157707805Y-103152230D01*
X157736079Y-103152512D01*
X157772818Y-103152629D01*
X157808445Y-103152649D01*
X157962516Y-103152649D01*
X157961001Y-103195678D01*
X157959486Y-103238706D01*
X157806384Y-103240090D01*
X157653282Y-103241473D01*
X157656842Y-103255737D01*
X157666368Y-103275986D01*
X157682851Y-103288491D01*
X157689891Y-103290922D01*
X157698910Y-103292106D01*
X157716734Y-103293414D01*
X157741738Y-103294767D01*
X157772299Y-103296083D01*
X157806792Y-103297282D01*
X157831704Y-103297990D01*
X157959486Y-103301294D01*
X157961001Y-103344322D01*
X157962516Y-103387351D01*
X157822788Y-103386741D01*
X157783929Y-103386403D01*
X157746999Y-103385765D01*
X157713742Y-103384883D01*
X157685902Y-103383811D01*
X157665223Y-103382604D01*
X157654373Y-103381480D01*
X157611237Y-103369569D01*
X157572965Y-103349069D01*
X157540724Y-103320851D01*
X157515681Y-103285786D01*
X157509418Y-103273348D01*
X157499839Y-103242796D01*
X157495551Y-103206982D01*
X157496601Y-103169663D01*
X157503033Y-103134593D01*
X157507587Y-103120824D01*
X157526274Y-103086892D01*
X157553781Y-103057702D01*
X157589370Y-103033804D01*
X157632308Y-103015752D01*
X157656210Y-103009112D01*
X157670684Y-103006505D01*
X157690069Y-103004503D01*
X157715530Y-103003052D01*
X157748235Y-103002099D01*
X157789350Y-103001592D01*
X157825184Y-103001473D01*
X157962094Y-103001396D01*
X157962094Y-103045194D01*
G37*
G36*
X162893693Y-102992279D02*
G01*
X162931910Y-102996629D01*
X162965947Y-103004628D01*
X162998788Y-103016887D01*
X163017452Y-103025682D01*
X163055309Y-103048827D01*
X163084017Y-103076188D01*
X163104369Y-103108817D01*
X163117157Y-103147769D01*
X163119794Y-103161827D01*
X163122207Y-103206879D01*
X163115043Y-103248658D01*
X163098834Y-103286464D01*
X163074113Y-103319594D01*
X163041410Y-103347347D01*
X163001259Y-103369022D01*
X162954193Y-103383917D01*
X162950730Y-103384671D01*
X162924322Y-103388543D01*
X162890917Y-103390919D01*
X162853775Y-103391807D01*
X162816155Y-103391213D01*
X162781318Y-103389146D01*
X162752523Y-103385613D01*
X162745226Y-103384198D01*
X162697427Y-103369327D01*
X162655864Y-103347271D01*
X162621369Y-103318649D01*
X162594778Y-103284076D01*
X162585248Y-103265944D01*
X162577228Y-103246462D01*
X162572720Y-103229088D01*
X162570820Y-103209215D01*
X162570559Y-103191042D01*
X162570827Y-103181051D01*
X162724450Y-103181051D01*
X162725173Y-103210613D01*
X162731273Y-103238485D01*
X162742582Y-103261400D01*
X162746751Y-103266584D01*
X162768306Y-103283290D01*
X162796593Y-103294987D01*
X162829026Y-103301352D01*
X162863019Y-103302065D01*
X162895986Y-103296806D01*
X162919895Y-103288077D01*
X162944086Y-103271067D01*
X162961412Y-103248061D01*
X162971715Y-103221048D01*
X162974837Y-103192022D01*
X162970621Y-103162972D01*
X162958909Y-103135892D01*
X162939544Y-103112772D01*
X162934131Y-103108332D01*
X162905463Y-103092108D01*
X162873198Y-103083211D01*
X162839505Y-103081397D01*
X162806551Y-103086428D01*
X162776502Y-103098061D01*
X162751526Y-103116057D01*
X162739797Y-103129925D01*
X162729269Y-103153066D01*
X162724450Y-103181051D01*
X162570827Y-103181051D01*
X162571189Y-103167544D01*
X162573579Y-103149914D01*
X162578734Y-103133618D01*
X162587526Y-103114387D01*
X162611705Y-103076699D01*
X162643750Y-103045820D01*
X162683601Y-103021779D01*
X162731200Y-103004604D01*
X162786485Y-102994324D01*
X162848314Y-102990965D01*
X162893693Y-102992279D01*
G37*
G36*
X153152160Y-102994307D02*
G01*
X153206461Y-103004194D01*
X153253547Y-103020417D01*
X153293078Y-103042767D01*
X153324718Y-103071035D01*
X153348127Y-103105012D01*
X153362968Y-103144489D01*
X153366339Y-103161193D01*
X153368452Y-103205296D01*
X153360946Y-103246654D01*
X153344455Y-103284441D01*
X153319613Y-103317828D01*
X153287054Y-103345992D01*
X153247412Y-103368105D01*
X153201322Y-103383340D01*
X153194744Y-103384804D01*
X153168479Y-103388633D01*
X153135211Y-103391001D01*
X153098155Y-103391916D01*
X153060529Y-103391384D01*
X153025546Y-103389415D01*
X152996423Y-103386015D01*
X152987318Y-103384297D01*
X152945559Y-103371393D01*
X152907363Y-103352319D01*
X152874745Y-103328378D01*
X152849720Y-103300873D01*
X152843516Y-103291311D01*
X152824968Y-103250311D01*
X152816334Y-103208737D01*
X152816909Y-103182910D01*
X152965913Y-103182910D01*
X152967431Y-103212412D01*
X152976354Y-103240529D01*
X152992536Y-103265239D01*
X153015831Y-103284517D01*
X153020308Y-103287015D01*
X153036701Y-103294316D01*
X153051601Y-103299356D01*
X153069715Y-103301746D01*
X153093736Y-103301826D01*
X153119504Y-103299894D01*
X153142858Y-103296249D01*
X153158521Y-103291688D01*
X153180460Y-103278151D01*
X153199139Y-103259078D01*
X153210345Y-103239671D01*
X153215193Y-103217075D01*
X153215799Y-103189712D01*
X153212415Y-103162229D01*
X153205291Y-103139273D01*
X153204889Y-103138427D01*
X153188597Y-103116088D01*
X153165130Y-103098978D01*
X153136524Y-103087429D01*
X153104814Y-103081770D01*
X153072035Y-103082334D01*
X153040221Y-103089450D01*
X153011408Y-103103448D01*
X153007251Y-103106321D01*
X152985677Y-103127841D01*
X152971946Y-103154045D01*
X152965913Y-103182910D01*
X152816909Y-103182910D01*
X152817246Y-103167781D01*
X152827337Y-103128634D01*
X152846240Y-103092488D01*
X152873588Y-103060534D01*
X152909013Y-103033964D01*
X152925602Y-103024993D01*
X152957297Y-103010885D01*
X152986984Y-103001077D01*
X153017812Y-102994920D01*
X153052927Y-102991768D01*
X153090980Y-102990965D01*
X153152160Y-102994307D01*
G37*
G36*
X154990252Y-103134258D02*
G01*
X154990646Y-103178727D01*
X154991161Y-103213887D01*
X154992538Y-103240842D01*
X154995514Y-103260698D01*
X155000827Y-103274557D01*
X155009218Y-103283524D01*
X155021424Y-103288704D01*
X155038185Y-103291200D01*
X155060238Y-103292118D01*
X155088323Y-103292560D01*
X155096263Y-103292724D01*
X155176961Y-103294585D01*
X155176961Y-103147991D01*
X155176961Y-103001396D01*
X155252959Y-103001396D01*
X155328956Y-103001396D01*
X155327281Y-103208717D01*
X155326849Y-103260675D01*
X155326430Y-103303286D01*
X155325959Y-103337634D01*
X155325373Y-103364800D01*
X155324605Y-103385870D01*
X155323590Y-103401925D01*
X155322264Y-103414051D01*
X155320562Y-103423330D01*
X155318419Y-103430845D01*
X155315770Y-103437680D01*
X155313212Y-103443457D01*
X155296657Y-103471254D01*
X155274169Y-103492859D01*
X155243841Y-103509999D01*
X155236064Y-103513287D01*
X155227509Y-103516602D01*
X155219213Y-103519272D01*
X155209953Y-103521380D01*
X155198505Y-103523006D01*
X155183648Y-103524233D01*
X155164157Y-103525142D01*
X155138811Y-103525816D01*
X155106385Y-103526337D01*
X155065658Y-103526785D01*
X155029405Y-103527119D01*
X154853163Y-103528690D01*
X154854682Y-103485402D01*
X154856201Y-103442115D01*
X155000563Y-103439507D01*
X155043321Y-103438696D01*
X155076915Y-103437917D01*
X155102611Y-103437061D01*
X155121675Y-103436021D01*
X155135374Y-103434689D01*
X155144973Y-103432957D01*
X155151739Y-103430717D01*
X155156938Y-103427862D01*
X155159639Y-103425952D01*
X155170226Y-103414732D01*
X155175848Y-103402441D01*
X155175946Y-103401766D01*
X155177540Y-103388526D01*
X155066419Y-103386109D01*
X155024208Y-103384975D01*
X154990835Y-103383435D01*
X154964706Y-103381209D01*
X154944226Y-103378014D01*
X154927804Y-103373570D01*
X154913845Y-103367594D01*
X154900755Y-103359806D01*
X154894993Y-103355826D01*
X154883320Y-103344811D01*
X154870871Y-103329076D01*
X154865348Y-103320511D01*
X154850985Y-103296078D01*
X154849383Y-103148737D01*
X154847782Y-103001396D01*
X154918239Y-103001396D01*
X154988697Y-103001396D01*
X154990252Y-103134258D01*
G37*
G36*
X164976249Y-102992834D02*
G01*
X165010882Y-102996064D01*
X165040012Y-103000973D01*
X165055569Y-103005347D01*
X165103036Y-103025856D01*
X165141078Y-103050072D01*
X165170206Y-103078530D01*
X165190930Y-103111764D01*
X165203763Y-103150306D01*
X165206081Y-103162547D01*
X165208379Y-103206674D01*
X165201061Y-103247869D01*
X165184710Y-103285375D01*
X165159911Y-103318435D01*
X165127250Y-103346291D01*
X165087311Y-103368187D01*
X165040679Y-103383366D01*
X165034433Y-103384748D01*
X165008270Y-103388574D01*
X164975147Y-103390962D01*
X164938260Y-103391915D01*
X164900802Y-103391439D01*
X164865969Y-103389538D01*
X164836954Y-103386218D01*
X164827406Y-103384431D01*
X164782402Y-103370201D01*
X164743513Y-103349253D01*
X164711155Y-103322678D01*
X164685746Y-103291570D01*
X164667704Y-103257018D01*
X164657446Y-103220115D01*
X164655389Y-103181953D01*
X164655798Y-103179565D01*
X164806653Y-103179565D01*
X164807600Y-103214566D01*
X164817657Y-103244972D01*
X164836189Y-103269908D01*
X164862559Y-103288499D01*
X164893634Y-103299343D01*
X164914033Y-103301665D01*
X164939379Y-103301574D01*
X164965466Y-103299366D01*
X164988083Y-103295334D01*
X164998709Y-103291970D01*
X165024882Y-103275692D01*
X165044329Y-103252277D01*
X165056288Y-103223145D01*
X165059997Y-103189715D01*
X165059371Y-103178893D01*
X165051667Y-103148276D01*
X165034829Y-103122535D01*
X165008719Y-103101474D01*
X165002600Y-103097931D01*
X164986381Y-103089797D01*
X164971942Y-103085096D01*
X164955192Y-103082919D01*
X164932612Y-103082355D01*
X164908725Y-103082923D01*
X164891175Y-103085311D01*
X164875918Y-103090307D01*
X164864857Y-103095562D01*
X164837189Y-103115006D01*
X164818101Y-103140308D01*
X164807811Y-103171155D01*
X164806653Y-103179565D01*
X164655798Y-103179565D01*
X164661952Y-103143623D01*
X164677551Y-103106218D01*
X164702604Y-103070828D01*
X164706021Y-103067035D01*
X164731793Y-103044889D01*
X164765282Y-103024980D01*
X164803811Y-103008683D01*
X164839380Y-102998507D01*
X164867676Y-102994121D01*
X164901810Y-102991773D01*
X164938946Y-102991374D01*
X164976249Y-102992834D01*
G37*
G36*
X154144880Y-102993005D02*
G01*
X154189706Y-102999364D01*
X154229273Y-103010622D01*
X154265787Y-103027283D01*
X154275366Y-103032747D01*
X154312624Y-103059786D01*
X154340397Y-103091089D01*
X154358810Y-103126865D01*
X154367989Y-103167323D01*
X154369154Y-103188984D01*
X154366083Y-103230711D01*
X154355984Y-103266165D01*
X154337955Y-103297515D01*
X154312383Y-103325732D01*
X154282902Y-103349376D01*
X154250388Y-103367360D01*
X154213362Y-103380122D01*
X154170343Y-103388102D01*
X154119850Y-103391737D01*
X154088423Y-103392043D01*
X154059206Y-103391229D01*
X154030150Y-103389414D01*
X154004780Y-103386873D01*
X153987802Y-103384150D01*
X153941420Y-103369550D01*
X153900110Y-103347451D01*
X153865232Y-103318799D01*
X153838144Y-103284537D01*
X153833746Y-103277032D01*
X153826731Y-103263599D01*
X153822231Y-103251864D01*
X153819695Y-103238868D01*
X153818567Y-103221653D01*
X153818377Y-103204510D01*
X153967954Y-103204510D01*
X153974225Y-103232053D01*
X153987194Y-103257149D01*
X154006820Y-103278106D01*
X154033059Y-103293229D01*
X154043629Y-103296783D01*
X154073121Y-103301586D01*
X154106232Y-103301485D01*
X154138301Y-103296770D01*
X154160926Y-103289499D01*
X154186227Y-103273121D01*
X154203887Y-103249707D01*
X154213966Y-103219169D01*
X154215866Y-103205186D01*
X154214638Y-103170044D01*
X154204646Y-103139414D01*
X154186504Y-103114314D01*
X154160828Y-103095765D01*
X154146022Y-103089492D01*
X154123996Y-103084774D01*
X154096631Y-103082889D01*
X154068573Y-103083841D01*
X154044465Y-103087635D01*
X154038522Y-103089388D01*
X154010679Y-103103754D01*
X153989743Y-103124143D01*
X153975671Y-103148861D01*
X153968421Y-103176215D01*
X153967954Y-103204510D01*
X153818377Y-103204510D01*
X153818297Y-103197258D01*
X153818295Y-103194374D01*
X153818611Y-103168150D01*
X153819873Y-103149358D01*
X153822554Y-103135012D01*
X153827126Y-103122121D01*
X153831061Y-103113668D01*
X153853477Y-103079691D01*
X153885216Y-103050035D01*
X153923145Y-103026252D01*
X153954404Y-103011694D01*
X153985422Y-103001477D01*
X154018978Y-102995022D01*
X154057852Y-102991752D01*
X154092584Y-102991042D01*
X154144880Y-102993005D01*
G37*
G36*
X159165642Y-100436622D02*
G01*
X159164291Y-100709138D01*
X159132998Y-100713419D01*
X159054905Y-100729226D01*
X158980766Y-100754633D01*
X158911018Y-100789426D01*
X158846094Y-100833393D01*
X158792360Y-100880421D01*
X158761784Y-100912028D01*
X158735722Y-100942922D01*
X158711850Y-100976193D01*
X158687846Y-101014928D01*
X158677162Y-101033575D01*
X158657347Y-101070963D01*
X158642750Y-101104431D01*
X158631929Y-101138086D01*
X158623440Y-101176033D01*
X158619800Y-101196797D01*
X158610804Y-101251561D01*
X158338941Y-101252911D01*
X158274991Y-101253132D01*
X158218659Y-101253127D01*
X158170370Y-101252903D01*
X158130553Y-101252464D01*
X158099634Y-101251817D01*
X158078040Y-101250967D01*
X158066198Y-101249920D01*
X158063961Y-101249216D01*
X158063027Y-101241324D01*
X158063837Y-101224709D01*
X158066212Y-101200900D01*
X158069973Y-101171425D01*
X158074939Y-101137813D01*
X158080932Y-101101594D01*
X158082074Y-101095092D01*
X158086359Y-101074081D01*
X158092523Y-101047965D01*
X158099979Y-101018831D01*
X158108142Y-100988765D01*
X158116424Y-100959856D01*
X158124238Y-100934190D01*
X158130997Y-100913854D01*
X158136116Y-100900935D01*
X158137274Y-100898767D01*
X158140410Y-100892170D01*
X158146563Y-100878080D01*
X158154805Y-100858659D01*
X158162942Y-100839126D01*
X158179313Y-100803173D01*
X158200309Y-100762498D01*
X158224000Y-100720493D01*
X158248454Y-100680547D01*
X158271738Y-100646052D01*
X158277113Y-100638727D01*
X158289843Y-100621403D01*
X158301458Y-100605045D01*
X158308475Y-100594663D01*
X158317365Y-100583255D01*
X158332605Y-100566275D01*
X158352776Y-100545107D01*
X158376456Y-100521137D01*
X158402224Y-100495748D01*
X158428661Y-100470326D01*
X158454345Y-100446257D01*
X158477856Y-100424924D01*
X158497772Y-100407714D01*
X158511005Y-100397221D01*
X158580222Y-100349193D01*
X158648507Y-100308150D01*
X158719132Y-100272352D01*
X158795372Y-100240059D01*
X158833100Y-100225948D01*
X158869432Y-100214142D01*
X158911627Y-100202560D01*
X158957293Y-100191676D01*
X159004039Y-100181967D01*
X159049471Y-100173910D01*
X159091198Y-100167981D01*
X159126827Y-100164655D01*
X159143742Y-100164107D01*
X159166992Y-100164107D01*
X159165642Y-100436622D01*
G37*
G36*
X156470431Y-103045138D02*
G01*
X156470431Y-103088880D01*
X156343952Y-103091123D01*
X156301694Y-103092003D01*
X156268567Y-103093032D01*
X156243268Y-103094304D01*
X156224498Y-103095913D01*
X156210955Y-103097955D01*
X156201339Y-103100522D01*
X156198335Y-103101703D01*
X156179076Y-103114325D01*
X156169264Y-103131240D01*
X156167926Y-103141875D01*
X156168178Y-103144982D01*
X156169681Y-103147426D01*
X156173553Y-103149286D01*
X156180911Y-103150642D01*
X156192874Y-103151574D01*
X156210560Y-103152161D01*
X156235087Y-103152482D01*
X156267572Y-103152618D01*
X156309135Y-103152648D01*
X156319178Y-103152649D01*
X156470431Y-103152649D01*
X156470431Y-103196981D01*
X156470431Y-103241314D01*
X156319178Y-103241314D01*
X156275532Y-103241339D01*
X156241201Y-103241463D01*
X156215069Y-103241760D01*
X156196018Y-103242307D01*
X156182934Y-103243178D01*
X156174698Y-103244447D01*
X156170196Y-103246189D01*
X156168311Y-103248480D01*
X156167926Y-103251394D01*
X156167926Y-103251455D01*
X156171235Y-103262259D01*
X156179241Y-103274459D01*
X156179661Y-103274943D01*
X156187635Y-103281973D01*
X156198585Y-103287533D01*
X156213674Y-103291775D01*
X156234062Y-103294853D01*
X156260913Y-103296922D01*
X156295387Y-103298134D01*
X156338647Y-103298644D01*
X156359007Y-103298686D01*
X156470431Y-103298686D01*
X156470431Y-103343018D01*
X156470431Y-103387351D01*
X156330913Y-103386741D01*
X156292115Y-103386401D01*
X156255276Y-103385760D01*
X156222133Y-103384873D01*
X156194427Y-103383795D01*
X156173895Y-103382580D01*
X156163199Y-103381451D01*
X156122318Y-103370148D01*
X156085303Y-103351106D01*
X156053785Y-103325574D01*
X156029395Y-103294803D01*
X156016847Y-103269268D01*
X156009673Y-103241024D01*
X156006255Y-103207388D01*
X156006637Y-103172532D01*
X156010862Y-103140629D01*
X156015343Y-103124406D01*
X156032064Y-103092378D01*
X156057575Y-103063546D01*
X156090366Y-103039451D01*
X156107183Y-103030524D01*
X156125497Y-103022248D01*
X156142683Y-103015690D01*
X156160273Y-103010653D01*
X156179798Y-103006942D01*
X156202789Y-103004360D01*
X156230779Y-103002713D01*
X156265298Y-103001804D01*
X156307877Y-103001437D01*
X156335082Y-103001396D01*
X156470431Y-103001396D01*
X156470431Y-103045138D01*
G37*
G36*
X160095277Y-103045138D02*
G01*
X160095277Y-103088880D01*
X159968798Y-103091123D01*
X159926540Y-103092003D01*
X159893413Y-103093032D01*
X159868114Y-103094304D01*
X159849344Y-103095913D01*
X159835801Y-103097955D01*
X159826185Y-103100522D01*
X159823181Y-103101703D01*
X159803922Y-103114325D01*
X159794110Y-103131240D01*
X159792772Y-103141875D01*
X159793024Y-103144982D01*
X159794527Y-103147426D01*
X159798399Y-103149286D01*
X159805757Y-103150642D01*
X159817720Y-103151574D01*
X159835406Y-103152161D01*
X159859933Y-103152482D01*
X159892418Y-103152618D01*
X159933981Y-103152648D01*
X159944024Y-103152649D01*
X160095277Y-103152649D01*
X160095277Y-103196981D01*
X160095277Y-103241314D01*
X159944024Y-103241314D01*
X159900378Y-103241339D01*
X159866047Y-103241463D01*
X159839915Y-103241760D01*
X159820864Y-103242307D01*
X159807780Y-103243178D01*
X159799544Y-103244447D01*
X159795042Y-103246189D01*
X159793157Y-103248480D01*
X159792772Y-103251394D01*
X159792772Y-103251455D01*
X159796081Y-103262259D01*
X159804087Y-103274459D01*
X159804507Y-103274943D01*
X159812481Y-103281973D01*
X159823431Y-103287533D01*
X159838520Y-103291775D01*
X159858908Y-103294853D01*
X159885759Y-103296922D01*
X159920233Y-103298134D01*
X159963493Y-103298644D01*
X159983853Y-103298686D01*
X160095277Y-103298686D01*
X160095277Y-103343018D01*
X160095277Y-103387351D01*
X159955759Y-103386741D01*
X159916995Y-103386404D01*
X159880219Y-103385771D01*
X159847163Y-103384896D01*
X159819560Y-103383833D01*
X159799141Y-103382636D01*
X159788526Y-103381521D01*
X159748715Y-103370529D01*
X159712200Y-103352056D01*
X159680773Y-103327460D01*
X159656230Y-103298098D01*
X159642266Y-103270800D01*
X159634499Y-103240249D01*
X159631083Y-103204487D01*
X159632090Y-103167817D01*
X159637591Y-103134540D01*
X159639863Y-103126675D01*
X159654718Y-103096107D01*
X159677908Y-103067770D01*
X159707336Y-103043926D01*
X159726613Y-103032962D01*
X159745868Y-103024003D01*
X159763727Y-103016902D01*
X159781748Y-103011448D01*
X159801487Y-103007428D01*
X159824503Y-103004631D01*
X159852353Y-103002843D01*
X159886593Y-103001852D01*
X159928782Y-103001447D01*
X159958159Y-103001396D01*
X160095277Y-103001396D01*
X160095277Y-103045138D01*
G37*
G36*
X165812586Y-103002547D02*
G01*
X165881991Y-103004004D01*
X165884599Y-103134394D01*
X165885484Y-103170628D01*
X165886597Y-103203694D01*
X165887862Y-103232068D01*
X165889202Y-103254227D01*
X165890542Y-103268647D01*
X165891522Y-103273508D01*
X165895364Y-103279342D01*
X165901308Y-103283683D01*
X165910885Y-103286815D01*
X165925625Y-103289022D01*
X165947059Y-103290588D01*
X165976718Y-103291795D01*
X165992823Y-103292288D01*
X166072361Y-103294585D01*
X166072361Y-103147847D01*
X166072361Y-103001110D01*
X166146683Y-103002557D01*
X166221006Y-103004004D01*
X166220980Y-103210020D01*
X166220963Y-103261770D01*
X166220888Y-103304175D01*
X166220698Y-103338322D01*
X166220335Y-103365296D01*
X166219741Y-103386183D01*
X166218859Y-103402071D01*
X166217630Y-103414045D01*
X166215998Y-103423192D01*
X166213904Y-103430598D01*
X166211291Y-103437348D01*
X166208586Y-103443457D01*
X166192064Y-103471238D01*
X166169598Y-103492838D01*
X166139287Y-103509978D01*
X166131464Y-103513287D01*
X166122909Y-103516602D01*
X166114613Y-103519272D01*
X166105353Y-103521380D01*
X166093906Y-103523006D01*
X166079048Y-103524233D01*
X166059558Y-103525142D01*
X166034211Y-103525816D01*
X166001786Y-103526337D01*
X165961058Y-103526785D01*
X165924805Y-103527119D01*
X165748563Y-103528690D01*
X165750082Y-103485402D01*
X165751601Y-103442115D01*
X165892423Y-103439365D01*
X165930196Y-103438470D01*
X165964918Y-103437349D01*
X165995110Y-103436074D01*
X166019293Y-103434716D01*
X166035986Y-103433347D01*
X166043675Y-103432053D01*
X166061601Y-103420852D01*
X166071155Y-103407214D01*
X166072361Y-103400164D01*
X166072127Y-103396308D01*
X166070556Y-103393382D01*
X166066340Y-103391219D01*
X166058175Y-103389655D01*
X166044754Y-103388524D01*
X166024770Y-103387660D01*
X165996919Y-103386896D01*
X165961529Y-103386104D01*
X165919359Y-103384969D01*
X165886022Y-103383425D01*
X165859924Y-103381190D01*
X165839467Y-103377982D01*
X165823056Y-103373518D01*
X165809095Y-103367515D01*
X165795986Y-103359693D01*
X165790394Y-103355826D01*
X165778720Y-103344811D01*
X165766272Y-103329076D01*
X165760749Y-103320511D01*
X165746386Y-103296078D01*
X165744783Y-103148584D01*
X165743180Y-103001089D01*
X165812586Y-103002547D01*
G37*
G36*
X163893328Y-103001480D02*
G01*
X163934379Y-103001764D01*
X163967365Y-103002294D01*
X163993470Y-103003118D01*
X164013875Y-103004282D01*
X164029764Y-103005834D01*
X164042318Y-103007819D01*
X164050248Y-103009619D01*
X164084667Y-103020592D01*
X164111416Y-103034161D01*
X164133187Y-103051735D01*
X164135803Y-103054399D01*
X164145096Y-103064550D01*
X164152452Y-103074326D01*
X164158098Y-103085063D01*
X164162257Y-103098096D01*
X164165156Y-103114761D01*
X164167021Y-103136393D01*
X164168077Y-103164329D01*
X164168550Y-103199902D01*
X164168664Y-103244451D01*
X164168665Y-103248970D01*
X164168665Y-103387351D01*
X163953521Y-103387002D01*
X163896063Y-103386825D01*
X163848193Y-103386480D01*
X163809072Y-103385940D01*
X163777859Y-103385181D01*
X163753712Y-103384175D01*
X163735790Y-103382897D01*
X163723253Y-103381321D01*
X163716064Y-103379686D01*
X163684174Y-103365026D01*
X163659985Y-103343751D01*
X163644067Y-103316612D01*
X163636993Y-103284362D01*
X163636673Y-103275256D01*
X163637582Y-103267238D01*
X163790533Y-103267238D01*
X163791237Y-103276953D01*
X163794145Y-103284433D01*
X163800450Y-103289967D01*
X163811347Y-103293845D01*
X163828030Y-103296359D01*
X163851693Y-103297798D01*
X163883530Y-103298452D01*
X163919620Y-103298609D01*
X164022628Y-103298686D01*
X164022628Y-103267392D01*
X164022628Y-103236099D01*
X163924835Y-103236393D01*
X163884996Y-103236880D01*
X163852116Y-103238044D01*
X163827251Y-103239824D01*
X163811454Y-103242162D01*
X163808788Y-103242912D01*
X163796514Y-103248356D01*
X163791445Y-103255866D01*
X163790533Y-103267238D01*
X163637582Y-103267238D01*
X163640708Y-103239672D01*
X163652909Y-103210411D01*
X163673416Y-103187317D01*
X163702372Y-103170235D01*
X163739918Y-103159010D01*
X163743412Y-103158339D01*
X163757497Y-103156708D01*
X163780076Y-103155259D01*
X163809212Y-103154063D01*
X163842969Y-103153192D01*
X163879410Y-103152717D01*
X163898977Y-103152649D01*
X164023759Y-103152649D01*
X164020166Y-103138335D01*
X164016621Y-103126678D01*
X164011724Y-103117206D01*
X164004422Y-103109669D01*
X163993662Y-103103813D01*
X163978390Y-103099386D01*
X163957551Y-103096138D01*
X163930093Y-103093815D01*
X163894961Y-103092166D01*
X163851102Y-103090939D01*
X163819219Y-103090283D01*
X163670575Y-103087454D01*
X163669060Y-103044425D01*
X163667545Y-103001396D01*
X163843030Y-103001396D01*
X163893328Y-103001480D01*
G37*
G36*
X160641827Y-103044133D02*
G01*
X160640308Y-103087454D01*
X160486447Y-103090062D01*
X160438420Y-103090957D01*
X160399825Y-103091959D01*
X160369661Y-103093239D01*
X160346929Y-103094969D01*
X160330631Y-103097322D01*
X160319765Y-103100469D01*
X160313332Y-103104582D01*
X160310333Y-103109834D01*
X160309769Y-103116395D01*
X160310108Y-103120402D01*
X160312611Y-103128797D01*
X160318707Y-103135277D01*
X160329542Y-103140076D01*
X160346262Y-103143429D01*
X160370013Y-103145568D01*
X160401942Y-103146729D01*
X160441085Y-103147139D01*
X160489958Y-103147973D01*
X160529845Y-103150290D01*
X160562117Y-103154327D01*
X160588144Y-103160316D01*
X160609298Y-103168494D01*
X160626782Y-103178974D01*
X160647153Y-103197806D01*
X160660067Y-103220448D01*
X160666923Y-103249510D01*
X160667548Y-103254897D01*
X160666135Y-103289408D01*
X160655270Y-103321402D01*
X160635909Y-103349086D01*
X160609005Y-103370672D01*
X160604446Y-103373237D01*
X160598761Y-103376124D01*
X160592838Y-103378493D01*
X160585621Y-103380403D01*
X160576050Y-103381916D01*
X160563070Y-103383091D01*
X160545623Y-103383989D01*
X160522650Y-103384670D01*
X160493095Y-103385194D01*
X160455901Y-103385622D01*
X160410008Y-103386013D01*
X160375616Y-103386272D01*
X160168295Y-103387800D01*
X160168295Y-103343243D01*
X160168295Y-103298686D01*
X160327539Y-103298686D01*
X160377966Y-103298587D01*
X160418935Y-103298187D01*
X160451420Y-103297334D01*
X160476392Y-103295872D01*
X160494825Y-103293650D01*
X160507690Y-103290514D01*
X160515961Y-103286309D01*
X160520610Y-103280882D01*
X160522610Y-103274081D01*
X160522956Y-103267842D01*
X160519400Y-103253054D01*
X160511470Y-103245965D01*
X160501878Y-103243651D01*
X160482361Y-103241508D01*
X160453425Y-103239569D01*
X160415573Y-103237869D01*
X160371265Y-103236491D01*
X160242545Y-103233164D01*
X160212341Y-103217681D01*
X160186434Y-103200434D01*
X160169326Y-103179082D01*
X160160162Y-103152160D01*
X160157979Y-103124447D01*
X160161690Y-103089433D01*
X160173040Y-103060990D01*
X160192776Y-103037970D01*
X160221642Y-103019223D01*
X160228340Y-103015994D01*
X160235339Y-103012897D01*
X160242302Y-103010374D01*
X160250353Y-103008356D01*
X160260612Y-103006773D01*
X160274202Y-103005557D01*
X160292246Y-103004638D01*
X160315866Y-103003948D01*
X160346185Y-103003416D01*
X160384324Y-103002974D01*
X160431407Y-103002552D01*
X160448850Y-103002408D01*
X160643347Y-103000812D01*
X160641827Y-103044133D01*
G37*
G36*
X161585636Y-103002625D02*
G01*
X161636231Y-103003180D01*
X161677535Y-103003793D01*
X161710690Y-103004523D01*
X161736837Y-103005426D01*
X161757117Y-103006562D01*
X161772670Y-103007987D01*
X161784638Y-103009761D01*
X161794161Y-103011940D01*
X161799246Y-103013490D01*
X161831393Y-103028166D01*
X161858775Y-103048464D01*
X161878935Y-103072447D01*
X161882926Y-103079507D01*
X161886415Y-103086799D01*
X161889134Y-103094134D01*
X161891179Y-103102863D01*
X161892647Y-103114336D01*
X161893631Y-103129903D01*
X161894229Y-103150916D01*
X161894536Y-103178725D01*
X161894648Y-103214681D01*
X161894661Y-103245027D01*
X161894661Y-103387351D01*
X161682125Y-103387181D01*
X161628719Y-103387103D01*
X161584674Y-103386934D01*
X161548921Y-103386630D01*
X161520388Y-103386149D01*
X161498006Y-103385447D01*
X161480706Y-103384480D01*
X161467416Y-103383205D01*
X161457067Y-103381580D01*
X161448590Y-103379560D01*
X161441926Y-103377456D01*
X161410692Y-103362584D01*
X161388256Y-103342300D01*
X161374221Y-103316043D01*
X161368192Y-103283254D01*
X161367885Y-103272608D01*
X161368866Y-103259884D01*
X161519859Y-103259884D01*
X161519992Y-103269621D01*
X161520177Y-103271955D01*
X161523023Y-103285541D01*
X161530027Y-103292358D01*
X161534784Y-103294048D01*
X161543918Y-103295189D01*
X161561636Y-103296235D01*
X161586090Y-103297121D01*
X161615432Y-103297781D01*
X161647816Y-103298149D01*
X161650831Y-103298166D01*
X161753839Y-103298686D01*
X161753839Y-103266936D01*
X161753839Y-103235187D01*
X161645104Y-103236947D01*
X161605398Y-103237703D01*
X161574938Y-103238746D01*
X161552540Y-103240408D01*
X161537018Y-103243021D01*
X161527187Y-103246916D01*
X161521862Y-103252427D01*
X161519859Y-103259884D01*
X161368866Y-103259884D01*
X161370192Y-103242674D01*
X161378020Y-103219052D01*
X161392724Y-103198487D01*
X161402998Y-103188408D01*
X161415360Y-103178549D01*
X161429126Y-103170626D01*
X161445532Y-103164442D01*
X161465813Y-103159799D01*
X161491208Y-103156498D01*
X161522952Y-103154341D01*
X161562281Y-103153132D01*
X161610432Y-103152671D01*
X161626348Y-103152649D01*
X161754970Y-103152649D01*
X161751378Y-103138335D01*
X161747832Y-103126632D01*
X161742962Y-103117129D01*
X161735717Y-103109580D01*
X161725047Y-103103740D01*
X161709900Y-103099363D01*
X161689226Y-103096204D01*
X161661974Y-103094017D01*
X161627093Y-103092557D01*
X161583534Y-103091577D01*
X161549127Y-103091070D01*
X161399178Y-103089111D01*
X161399178Y-103044953D01*
X161399178Y-103000794D01*
X161585636Y-103002625D01*
G37*
G36*
X152783483Y-100265833D02*
G01*
X152893902Y-100265899D01*
X152994705Y-100266013D01*
X153086296Y-100266178D01*
X153169084Y-100266397D01*
X153243475Y-100266672D01*
X153309875Y-100267006D01*
X153368692Y-100267403D01*
X153420332Y-100267864D01*
X153465203Y-100268394D01*
X153503710Y-100268994D01*
X153536262Y-100269668D01*
X153563264Y-100270419D01*
X153585123Y-100271250D01*
X153602246Y-100272162D01*
X153607063Y-100272492D01*
X153700834Y-100280547D01*
X153785625Y-100290464D01*
X153862772Y-100302548D01*
X153933608Y-100317102D01*
X153999469Y-100334430D01*
X154061690Y-100354837D01*
X154121605Y-100378626D01*
X154169089Y-100400449D01*
X154194185Y-100412977D01*
X154215242Y-100424421D01*
X154234975Y-100436489D01*
X154256098Y-100450891D01*
X154281328Y-100469334D01*
X154295523Y-100479994D01*
X154356395Y-100531566D01*
X154407651Y-100587134D01*
X154449335Y-100646757D01*
X154481492Y-100710493D01*
X154493584Y-100742648D01*
X154505401Y-100787480D01*
X154513657Y-100839598D01*
X154518336Y-100896480D01*
X154519424Y-100955600D01*
X154516903Y-101014435D01*
X154510760Y-101070461D01*
X154500978Y-101121155D01*
X154496027Y-101139425D01*
X154476562Y-101189406D01*
X154448188Y-101240282D01*
X154412111Y-101290395D01*
X154369537Y-101338085D01*
X154321669Y-101381693D01*
X154317667Y-101384939D01*
X154263556Y-101423573D01*
X154201111Y-101459660D01*
X154132283Y-101492384D01*
X154059025Y-101520930D01*
X153983290Y-101544481D01*
X153907028Y-101562221D01*
X153883490Y-101566429D01*
X153848473Y-101572006D01*
X153813931Y-101577013D01*
X153779142Y-101581480D01*
X153743386Y-101585436D01*
X153705943Y-101588909D01*
X153666092Y-101591930D01*
X153623112Y-101594526D01*
X153576284Y-101596728D01*
X153524885Y-101598564D01*
X153468197Y-101600063D01*
X153405497Y-101601254D01*
X153336067Y-101602167D01*
X153259184Y-101602830D01*
X153174129Y-101603272D01*
X153080181Y-101603524D01*
X152976619Y-101603613D01*
X152962016Y-101603614D01*
X152454414Y-101603614D01*
X152454414Y-101963491D01*
X152454414Y-102323368D01*
X152131034Y-102323368D01*
X151807653Y-102323368D01*
X151808970Y-101294589D01*
X151809048Y-101234069D01*
X152454414Y-101234069D01*
X152935554Y-101231985D01*
X153017427Y-101231624D01*
X153089584Y-101231284D01*
X153152739Y-101230946D01*
X153207608Y-101230593D01*
X153254905Y-101230207D01*
X153295346Y-101229771D01*
X153329645Y-101229265D01*
X153358517Y-101228674D01*
X153382678Y-101227978D01*
X153402841Y-101227161D01*
X153419722Y-101226204D01*
X153434036Y-101225089D01*
X153446498Y-101223799D01*
X153457823Y-101222317D01*
X153468725Y-101220623D01*
X153479920Y-101218701D01*
X153481594Y-101218405D01*
X153553957Y-101202682D01*
X153616863Y-101182755D01*
X153670454Y-101158501D01*
X153714874Y-101129795D01*
X153750265Y-101096511D01*
X153776771Y-101058527D01*
X153794534Y-101015716D01*
X153803698Y-100967954D01*
X153805129Y-100936771D01*
X153801954Y-100887435D01*
X153792252Y-100844869D01*
X153775306Y-100807182D01*
X153750395Y-100772479D01*
X153737453Y-100758408D01*
X153712085Y-100736115D01*
X153682263Y-100717174D01*
X153646093Y-100700589D01*
X153601680Y-100685367D01*
X153594020Y-100683090D01*
X153568561Y-100676160D01*
X153541749Y-100669958D01*
X153512924Y-100664447D01*
X153481423Y-100659592D01*
X153446585Y-100655354D01*
X153407747Y-100651697D01*
X153364248Y-100648585D01*
X153315426Y-100645979D01*
X153260619Y-100643844D01*
X153199165Y-100642143D01*
X153130403Y-100640838D01*
X153053670Y-100639892D01*
X152968305Y-100639270D01*
X152873645Y-100638933D01*
X152799948Y-100638847D01*
X152454414Y-100638727D01*
X152454414Y-100936398D01*
X152454414Y-101234069D01*
X151809048Y-101234069D01*
X151809429Y-100936398D01*
X151810287Y-100265811D01*
X152663039Y-100265811D01*
X152783483Y-100265833D01*
G37*
G36*
X166243239Y-100457013D02*
G01*
X166244610Y-100637785D01*
X165656483Y-100640232D01*
X165561230Y-100640636D01*
X165475758Y-100641032D01*
X165399416Y-100641443D01*
X165331553Y-100641897D01*
X165271520Y-100642418D01*
X165218665Y-100643031D01*
X165172339Y-100643763D01*
X165131890Y-100644639D01*
X165096669Y-100645685D01*
X165066024Y-100646926D01*
X165039306Y-100648387D01*
X165015864Y-100650094D01*
X164995046Y-100652073D01*
X164976204Y-100654349D01*
X164958686Y-100656948D01*
X164941842Y-100659895D01*
X164925022Y-100663215D01*
X164907574Y-100666935D01*
X164892769Y-100670207D01*
X164821177Y-100688846D01*
X164758229Y-100711224D01*
X164702596Y-100738027D01*
X164652947Y-100769942D01*
X164607953Y-100807654D01*
X164588334Y-100827262D01*
X164555452Y-100868015D01*
X164526157Y-100916415D01*
X164501607Y-100969963D01*
X164482960Y-101026162D01*
X164472002Y-101078142D01*
X164467534Y-101108131D01*
X165172155Y-101108139D01*
X165260930Y-101108167D01*
X165349305Y-101108245D01*
X165436451Y-101108371D01*
X165521540Y-101108542D01*
X165603744Y-101108754D01*
X165682234Y-101109004D01*
X165756182Y-101109288D01*
X165824758Y-101109604D01*
X165887135Y-101109949D01*
X165942483Y-101110318D01*
X165989976Y-101110710D01*
X166028783Y-101111120D01*
X166058076Y-101111546D01*
X166060626Y-101111592D01*
X166244476Y-101115037D01*
X166244476Y-101294130D01*
X166244476Y-101473224D01*
X165355215Y-101473224D01*
X164465954Y-101473224D01*
X164465954Y-101506442D01*
X164469063Y-101553259D01*
X164477780Y-101603573D01*
X164491193Y-101653965D01*
X164508388Y-101701020D01*
X164528452Y-101741320D01*
X164528942Y-101742143D01*
X164563009Y-101789036D01*
X164605911Y-101830635D01*
X164657421Y-101866808D01*
X164717308Y-101897421D01*
X164785343Y-101922342D01*
X164861299Y-101941440D01*
X164879300Y-101944892D01*
X164896409Y-101947907D01*
X164913199Y-101950616D01*
X164930311Y-101953040D01*
X164948383Y-101955197D01*
X164968053Y-101957108D01*
X164989960Y-101958792D01*
X165014744Y-101960268D01*
X165043043Y-101961557D01*
X165075496Y-101962678D01*
X165112741Y-101963651D01*
X165155418Y-101964495D01*
X165204164Y-101965231D01*
X165259620Y-101965876D01*
X165322424Y-101966453D01*
X165393215Y-101966979D01*
X165472631Y-101967475D01*
X165561311Y-101967960D01*
X165642073Y-101968368D01*
X166241868Y-101971314D01*
X166243240Y-102152556D01*
X166244611Y-102333799D01*
X165573034Y-102332813D01*
X165489584Y-102332678D01*
X165408640Y-102332522D01*
X165330854Y-102332350D01*
X165256883Y-102332161D01*
X165187379Y-102331961D01*
X165122997Y-102331749D01*
X165064392Y-102331530D01*
X165012217Y-102331306D01*
X164967126Y-102331079D01*
X164929774Y-102330851D01*
X164900814Y-102330625D01*
X164880902Y-102330404D01*
X164870691Y-102330189D01*
X164870164Y-102330165D01*
X164838609Y-102327874D01*
X164799539Y-102324076D01*
X164755703Y-102319105D01*
X164709854Y-102313295D01*
X164664742Y-102306979D01*
X164623120Y-102300491D01*
X164617207Y-102299500D01*
X164554367Y-102287599D01*
X164495978Y-102273678D01*
X164439627Y-102256923D01*
X164382902Y-102236520D01*
X164323388Y-102211654D01*
X164258672Y-102181511D01*
X164239076Y-102171908D01*
X164162260Y-102130610D01*
X164093976Y-102086630D01*
X164032408Y-102038625D01*
X163975743Y-101985252D01*
X163950549Y-101958220D01*
X163921381Y-101924878D01*
X163897866Y-101895791D01*
X163878035Y-101868093D01*
X163859921Y-101838915D01*
X163841555Y-101805391D01*
X163829632Y-101782071D01*
X163794828Y-101704420D01*
X163767896Y-101625220D01*
X163748574Y-101543123D01*
X163736601Y-101456780D01*
X163731715Y-101364841D01*
X163732874Y-101282854D01*
X163738846Y-101193128D01*
X163749312Y-101111064D01*
X163764737Y-101034704D01*
X163785583Y-100962090D01*
X163812314Y-100891264D01*
X163839482Y-100832065D01*
X163860754Y-100790868D01*
X163881452Y-100755273D01*
X163903794Y-100721903D01*
X163930001Y-100687381D01*
X163953046Y-100659275D01*
X163998287Y-100611156D01*
X164052013Y-100563848D01*
X164112291Y-100518631D01*
X164177186Y-100476787D01*
X164244762Y-100439599D01*
X164313086Y-100408347D01*
X164356427Y-100392014D01*
X164497091Y-100349245D01*
X164640877Y-100316413D01*
X164737166Y-100300243D01*
X164761169Y-100296803D01*
X164783522Y-100293708D01*
X164804876Y-100290941D01*
X164825886Y-100288482D01*
X164847203Y-100286314D01*
X164869480Y-100284418D01*
X164893371Y-100282776D01*
X164919527Y-100281370D01*
X164948603Y-100280181D01*
X164981250Y-100279192D01*
X165018122Y-100278384D01*
X165059872Y-100277738D01*
X165107151Y-100277238D01*
X165160613Y-100276863D01*
X165220912Y-100276596D01*
X165288699Y-100276419D01*
X165364627Y-100276313D01*
X165449350Y-100276261D01*
X165543519Y-100276244D01*
X165595133Y-100276242D01*
X166241868Y-100276242D01*
X166243239Y-100457013D01*
G37*
G36*
X161261220Y-100316663D02*
G01*
X161273515Y-100338005D01*
X161285191Y-100358165D01*
X161294351Y-100373874D01*
X161296921Y-100378238D01*
X161317014Y-100412085D01*
X161340147Y-100450925D01*
X161364989Y-100492532D01*
X161390208Y-100534682D01*
X161414472Y-100575149D01*
X161436449Y-100611707D01*
X161454808Y-100642131D01*
X161459065Y-100649158D01*
X161474224Y-100674281D01*
X161493285Y-100706056D01*
X161514853Y-100742150D01*
X161537533Y-100780227D01*
X161559933Y-100817953D01*
X161571164Y-100836920D01*
X161592587Y-100873085D01*
X161614773Y-100910436D01*
X161636394Y-100946742D01*
X161656119Y-100979773D01*
X161672620Y-101007298D01*
X161679951Y-101019466D01*
X161698156Y-101049793D01*
X161718333Y-101083716D01*
X161737985Y-101117019D01*
X161754123Y-101144641D01*
X161769973Y-101171744D01*
X161789109Y-101204124D01*
X161809379Y-101238154D01*
X161828629Y-101270210D01*
X161833119Y-101277639D01*
X161848765Y-101303571D01*
X161868302Y-101336094D01*
X161890306Y-101372828D01*
X161913349Y-101411389D01*
X161936007Y-101449396D01*
X161947079Y-101468008D01*
X161969548Y-101505766D01*
X161993657Y-101546205D01*
X162017841Y-101586703D01*
X162040535Y-101624642D01*
X162060174Y-101657400D01*
X162067558Y-101669689D01*
X162084419Y-101697893D01*
X162100156Y-101724537D01*
X162113670Y-101747739D01*
X162123865Y-101765615D01*
X162129321Y-101775646D01*
X162136731Y-101788077D01*
X162142992Y-101795038D01*
X162145034Y-101795629D01*
X162149292Y-101790664D01*
X162158484Y-101777355D01*
X162172216Y-101756325D01*
X162190095Y-101728198D01*
X162211727Y-101693596D01*
X162236719Y-101653145D01*
X162264678Y-101607468D01*
X162290786Y-101564497D01*
X162307271Y-101537405D01*
X162326887Y-101505359D01*
X162347244Y-101472255D01*
X162365950Y-101441989D01*
X162366966Y-101440352D01*
X162398906Y-101388860D01*
X162426113Y-101344960D01*
X162449367Y-101307387D01*
X162469448Y-101274877D01*
X162487137Y-101246165D01*
X162503214Y-101219987D01*
X162518458Y-101195078D01*
X162533318Y-101170719D01*
X162565534Y-101117973D01*
X162602325Y-101057978D01*
X162642716Y-100992317D01*
X162685730Y-100922572D01*
X162730393Y-100850325D01*
X162775726Y-100777158D01*
X162820756Y-100704655D01*
X162822314Y-100702149D01*
X162839780Y-100673980D01*
X162856001Y-100647661D01*
X162869915Y-100624929D01*
X162880459Y-100607521D01*
X162886568Y-100597173D01*
X162886665Y-100597002D01*
X162892540Y-100586999D01*
X162902878Y-100569805D01*
X162916656Y-100547103D01*
X162932853Y-100520574D01*
X162950449Y-100491902D01*
X162953174Y-100487474D01*
X162973405Y-100454600D01*
X162994790Y-100419830D01*
X163015610Y-100385957D01*
X163034150Y-100355773D01*
X163046948Y-100334918D01*
X163084526Y-100273634D01*
X163428402Y-100273634D01*
X163506819Y-100273710D01*
X163574901Y-100273937D01*
X163632744Y-100274318D01*
X163680445Y-100274854D01*
X163718098Y-100275545D01*
X163745801Y-100276395D01*
X163763648Y-100277404D01*
X163771735Y-100278574D01*
X163772279Y-100279004D01*
X163769631Y-100285197D01*
X163762385Y-100298354D01*
X163751586Y-100316662D01*
X163738278Y-100338312D01*
X163735401Y-100342895D01*
X163721197Y-100365533D01*
X163703020Y-100394650D01*
X163682365Y-100427843D01*
X163660728Y-100462708D01*
X163639604Y-100496841D01*
X163635724Y-100503121D01*
X163614640Y-100537212D01*
X163592542Y-100572845D01*
X163570985Y-100607519D01*
X163551526Y-100638730D01*
X163535721Y-100663976D01*
X163533561Y-100667413D01*
X163516021Y-100695436D01*
X163497381Y-100725439D01*
X163479870Y-100753822D01*
X163465746Y-100776940D01*
X163450149Y-100802515D01*
X163429701Y-100835796D01*
X163405099Y-100875658D01*
X163377039Y-100920973D01*
X163346221Y-100970616D01*
X163313340Y-101023461D01*
X163279095Y-101078381D01*
X163276802Y-101082053D01*
X163240039Y-101140966D01*
X163208348Y-101191812D01*
X163181254Y-101235356D01*
X163158281Y-101272365D01*
X163138955Y-101303606D01*
X163122801Y-101329844D01*
X163109342Y-101351847D01*
X163100566Y-101366304D01*
X163086145Y-101389930D01*
X163068462Y-101418567D01*
X163049865Y-101448429D01*
X163034285Y-101473224D01*
X163019825Y-101496177D01*
X163003988Y-101521458D01*
X162986192Y-101550003D01*
X162965861Y-101582745D01*
X162942413Y-101620619D01*
X162915269Y-101664560D01*
X162883851Y-101715502D01*
X162847579Y-101774379D01*
X162846539Y-101776068D01*
X162827094Y-101807575D01*
X162806765Y-101840395D01*
X162787237Y-101871814D01*
X162770197Y-101899118D01*
X162759944Y-101915453D01*
X162737840Y-101950614D01*
X162716204Y-101985229D01*
X162693823Y-102021255D01*
X162669487Y-102060645D01*
X162641983Y-102105355D01*
X162615428Y-102148645D01*
X162596142Y-102179966D01*
X162576230Y-102212046D01*
X162557259Y-102242377D01*
X162540795Y-102268454D01*
X162529844Y-102285554D01*
X162498598Y-102333799D01*
X162161245Y-102333799D01*
X161823891Y-102333799D01*
X161814130Y-102316848D01*
X161808438Y-102307513D01*
X161798039Y-102290993D01*
X161783927Y-102268842D01*
X161767090Y-102242613D01*
X161748521Y-102213859D01*
X161741746Y-102203409D01*
X161682411Y-102111951D01*
X161627313Y-102026950D01*
X161576832Y-101948992D01*
X161531345Y-101878663D01*
X161495667Y-101823418D01*
X161473768Y-101789494D01*
X161448380Y-101750184D01*
X161421679Y-101708858D01*
X161395843Y-101668885D01*
X161375708Y-101637747D01*
X161352402Y-101601695D01*
X161326330Y-101561334D01*
X161299672Y-101520036D01*
X161274604Y-101481178D01*
X161255749Y-101451926D01*
X161232856Y-101416437D01*
X161206765Y-101376066D01*
X161179914Y-101334582D01*
X161154744Y-101295757D01*
X161141006Y-101274603D01*
X161119831Y-101241989D01*
X161095007Y-101203695D01*
X161068532Y-101162807D01*
X161042405Y-101122412D01*
X161018625Y-101085600D01*
X161017169Y-101083343D01*
X160978586Y-101023557D01*
X160945092Y-100971664D01*
X160916125Y-100926793D01*
X160891119Y-100888069D01*
X160869511Y-100854622D01*
X160850736Y-100825578D01*
X160834230Y-100800065D01*
X160819428Y-100777211D01*
X160805768Y-100756143D01*
X160792684Y-100735989D01*
X160779612Y-100715876D01*
X160766747Y-100696099D01*
X160743923Y-100660932D01*
X160718385Y-100621442D01*
X160692392Y-100581127D01*
X160668201Y-100543488D01*
X160652971Y-100519702D01*
X160631234Y-100485850D01*
X160606838Y-100448130D01*
X160582090Y-100410095D01*
X160559299Y-100375296D01*
X160548071Y-100358274D01*
X160531840Y-100333319D01*
X160518071Y-100311306D01*
X160507641Y-100293712D01*
X160501432Y-100282014D01*
X160500134Y-100277802D01*
X160505646Y-100277110D01*
X160520749Y-100276455D01*
X160544602Y-100275845D01*
X160576366Y-100275289D01*
X160615199Y-100274798D01*
X160660261Y-100274381D01*
X160710713Y-100274047D01*
X160765714Y-100273805D01*
X160824423Y-100273666D01*
X160869606Y-100273634D01*
X161236503Y-100273634D01*
X161261220Y-100316663D01*
G37*
G36*
X155971394Y-100265815D02*
G01*
X156077887Y-100265833D01*
X156174988Y-100265875D01*
X156263217Y-100265953D01*
X156343095Y-100266075D01*
X156415140Y-100266253D01*
X156479873Y-100266496D01*
X156537813Y-100266815D01*
X156589480Y-100267220D01*
X156635395Y-100267721D01*
X156676076Y-100268328D01*
X156712043Y-100269052D01*
X156743817Y-100269904D01*
X156771917Y-100270892D01*
X156796864Y-100272028D01*
X156819175Y-100273322D01*
X156839373Y-100274783D01*
X156857976Y-100276423D01*
X156875504Y-100278251D01*
X156892476Y-100280277D01*
X156909414Y-100282513D01*
X156926836Y-100284968D01*
X156942443Y-100287239D01*
X157025326Y-100301298D01*
X157101458Y-100318455D01*
X157174282Y-100339605D01*
X157247242Y-100365642D01*
X157252974Y-100367879D01*
X157324458Y-100400413D01*
X157389122Y-100439050D01*
X157446088Y-100483185D01*
X157494479Y-100532214D01*
X157498530Y-100537023D01*
X157518858Y-100565199D01*
X157539754Y-100600659D01*
X157559776Y-100640452D01*
X157577479Y-100681625D01*
X157591421Y-100721228D01*
X157595423Y-100735216D01*
X157600426Y-100754981D01*
X157604058Y-100772299D01*
X157606534Y-100789494D01*
X157608070Y-100808889D01*
X157608880Y-100832811D01*
X157609182Y-100863583D01*
X157609209Y-100883860D01*
X157608700Y-100928300D01*
X157606878Y-100964912D01*
X157603271Y-100996266D01*
X157597407Y-101024933D01*
X157588813Y-101053481D01*
X157577018Y-101084480D01*
X157568738Y-101104100D01*
X157551108Y-101142096D01*
X157533115Y-101174148D01*
X157512492Y-101203652D01*
X157486975Y-101234004D01*
X157469696Y-101252648D01*
X157411411Y-101306483D01*
X157346051Y-101352733D01*
X157273571Y-101391422D01*
X157193925Y-101422572D01*
X157107071Y-101446206D01*
X157089655Y-101449868D01*
X157064079Y-101455038D01*
X157041355Y-101459690D01*
X157023928Y-101463319D01*
X157014243Y-101465422D01*
X157014157Y-101465442D01*
X157009378Y-101467240D01*
X157008228Y-101470638D01*
X157011507Y-101477117D01*
X157020016Y-101488154D01*
X157034557Y-101505229D01*
X157037627Y-101508770D01*
X157072646Y-101548963D01*
X157107174Y-101588301D01*
X157139970Y-101625387D01*
X157169792Y-101658824D01*
X157195400Y-101687216D01*
X157215554Y-101709165D01*
X157216643Y-101710332D01*
X157233950Y-101729167D01*
X157255262Y-101752807D01*
X157277791Y-101778142D01*
X157297485Y-101800601D01*
X157347189Y-101857643D01*
X157392804Y-101909686D01*
X157436962Y-101959711D01*
X157482292Y-102010700D01*
X157526591Y-102060239D01*
X157560373Y-102097998D01*
X157595093Y-102136925D01*
X157629482Y-102175589D01*
X157662269Y-102212556D01*
X157692186Y-102246395D01*
X157717962Y-102275673D01*
X157738327Y-102298959D01*
X157742141Y-102303350D01*
X157759498Y-102323368D01*
X157391949Y-102323368D01*
X157024400Y-102323368D01*
X156980814Y-102270240D01*
X156960727Y-102245893D01*
X156939419Y-102220291D01*
X156919607Y-102196689D01*
X156905666Y-102180271D01*
X156886788Y-102157880D01*
X156865588Y-102132194D01*
X156846137Y-102108155D01*
X156843078Y-102104312D01*
X156826827Y-102084191D01*
X156810398Y-102064461D01*
X156796578Y-102048449D01*
X156792776Y-102044235D01*
X156779835Y-102029536D01*
X156763832Y-102010483D01*
X156748056Y-101990999D01*
X156746849Y-101989471D01*
X156731127Y-101969874D01*
X156711850Y-101946345D01*
X156692278Y-101922849D01*
X156684754Y-101913942D01*
X156672357Y-101899238D01*
X156654505Y-101877907D01*
X156632377Y-101851368D01*
X156607156Y-101821041D01*
X156580023Y-101788346D01*
X156552160Y-101754702D01*
X156543669Y-101744435D01*
X156512980Y-101707390D01*
X156480098Y-101667830D01*
X156446782Y-101627865D01*
X156414795Y-101589604D01*
X156385898Y-101555158D01*
X156361853Y-101526636D01*
X156361653Y-101526401D01*
X156335664Y-101495659D01*
X156308290Y-101463226D01*
X156281505Y-101431445D01*
X156257287Y-101402661D01*
X156237611Y-101379220D01*
X156235729Y-101376972D01*
X156214608Y-101351829D01*
X156192466Y-101325607D01*
X156171760Y-101301209D01*
X156154949Y-101281540D01*
X156153161Y-101279462D01*
X156122105Y-101243348D01*
X156097356Y-101214423D01*
X156078359Y-101192022D01*
X156064556Y-101175481D01*
X156055391Y-101164133D01*
X156050308Y-101157314D01*
X156048836Y-101154762D01*
X156053506Y-101153565D01*
X156068024Y-101152512D01*
X156091809Y-101151617D01*
X156124278Y-101150891D01*
X156164850Y-101150348D01*
X156212944Y-101150000D01*
X156267976Y-101149859D01*
X156276806Y-101149856D01*
X156326366Y-101149744D01*
X156374015Y-101149421D01*
X156418456Y-101148914D01*
X156458391Y-101148245D01*
X156492524Y-101147439D01*
X156519556Y-101146519D01*
X156538191Y-101145509D01*
X156544540Y-101144906D01*
X156567027Y-101142112D01*
X156595232Y-101138797D01*
X156624498Y-101135504D01*
X156637330Y-101134113D01*
X156678334Y-101128824D01*
X156719269Y-101121883D01*
X156758007Y-101113776D01*
X156792418Y-101104988D01*
X156820372Y-101096002D01*
X156837544Y-101088530D01*
X156865071Y-101070285D01*
X156892470Y-101046016D01*
X156916813Y-101018735D01*
X156935169Y-100991455D01*
X156938711Y-100984498D01*
X156944837Y-100970544D01*
X156948896Y-100958005D01*
X156951307Y-100944141D01*
X156952489Y-100926209D01*
X156952859Y-100901466D01*
X156952874Y-100891684D01*
X156952706Y-100864513D01*
X156951903Y-100845041D01*
X156950020Y-100830539D01*
X156946611Y-100818275D01*
X156941228Y-100805520D01*
X156937542Y-100797869D01*
X156918953Y-100766736D01*
X156895522Y-100740106D01*
X156866354Y-100717509D01*
X156830550Y-100698475D01*
X156787214Y-100682537D01*
X156735448Y-100669224D01*
X156674357Y-100658067D01*
X156668624Y-100657191D01*
X156638975Y-100653647D01*
X156599759Y-100650443D01*
X156551838Y-100647603D01*
X156496070Y-100645149D01*
X156433316Y-100643108D01*
X156364437Y-100641501D01*
X156290291Y-100640354D01*
X156211740Y-100639691D01*
X156129644Y-100639534D01*
X156047967Y-100639886D01*
X155989874Y-100640329D01*
X155941242Y-100640760D01*
X155901103Y-100641224D01*
X155868486Y-100641765D01*
X155842423Y-100642427D01*
X155821942Y-100643254D01*
X155806076Y-100644291D01*
X155793855Y-100645581D01*
X155784308Y-100647168D01*
X155776467Y-100649098D01*
X155769362Y-100651413D01*
X155765770Y-100652734D01*
X155719936Y-100675145D01*
X155680725Y-100705039D01*
X155648884Y-100741563D01*
X155625160Y-100783860D01*
X155610386Y-100830657D01*
X155609486Y-100839027D01*
X155608668Y-100855220D01*
X155607931Y-100879457D01*
X155607273Y-100911958D01*
X155606693Y-100952944D01*
X155606189Y-101002636D01*
X155605758Y-101061254D01*
X155605401Y-101129020D01*
X155605114Y-101206153D01*
X155604896Y-101292874D01*
X155604746Y-101389405D01*
X155604661Y-101495965D01*
X155604640Y-101590832D01*
X155604640Y-102323368D01*
X155281260Y-102323368D01*
X154957879Y-102323368D01*
X154959196Y-101294589D01*
X154960513Y-100265811D01*
X155854989Y-100265811D01*
X155971394Y-100265815D01*
G37*
D12*
%TO.C,C2*%
X140990000Y-79763748D02*
X140990000Y-81186252D01*
X142810000Y-79763748D02*
X142810000Y-81186252D01*
%TO.C,R1*%
X144990000Y-90864564D02*
X144990000Y-89410436D01*
X146810000Y-90864564D02*
X146810000Y-89410436D01*
%TO.C,C6*%
X127690000Y-90333767D02*
X127690000Y-90041233D01*
X128710000Y-90333767D02*
X128710000Y-90041233D01*
D14*
%TO.C,U2*%
X147074999Y-84012500D02*
X147074999Y-83462499D01*
X147075001Y-83462502D02*
X147625000Y-83462502D01*
D15*
X147100000Y-87787502D02*
X147100000Y-87537500D01*
X147100000Y-87787502D02*
X147349999Y-87787502D01*
X150149996Y-87787502D02*
X150399998Y-87787502D01*
X150149999Y-83487500D02*
X150399998Y-83487500D01*
X150399998Y-83737502D02*
X150399998Y-83487500D01*
X150399998Y-87787502D02*
X150399998Y-87537502D01*
D12*
%TO.C,D4*%
X157428000Y-76535000D02*
X157428000Y-79395000D01*
X157428000Y-79395000D02*
X159348000Y-79395000D01*
X159348000Y-79395000D02*
X159348000Y-76535000D01*
%TD*%
M02*
