%TF.GenerationSoftware,KiCad,Pcbnew,8.0.4*%
%TF.CreationDate,2024-12-03T19:18:34-08:00*%
%TF.ProjectId,USBC_UART_Dock_Prototype,55534243-5f55-4415-9254-5f446f636b5f,rev?*%
%TF.SameCoordinates,Original*%
%TF.FileFunction,Copper,L3,Inr*%
%TF.FilePolarity,Positive*%
%FSLAX46Y46*%
G04 Gerber Fmt 4.6, Leading zero omitted, Abs format (unit mm)*
G04 Created by KiCad (PCBNEW 8.0.4) date 2024-12-03 19:18:34*
%MOMM*%
%LPD*%
G01*
G04 APERTURE LIST*
%TA.AperFunction,ComponentPad*%
%ADD10C,10.160000*%
%TD*%
%TA.AperFunction,ComponentPad*%
%ADD11C,0.700000*%
%TD*%
%TA.AperFunction,ComponentPad*%
%ADD12O,2.400000X0.900000*%
%TD*%
%TA.AperFunction,ComponentPad*%
%ADD13O,1.700000X0.900000*%
%TD*%
%TA.AperFunction,HeatsinkPad*%
%ADD14C,0.500000*%
%TD*%
%TA.AperFunction,ComponentPad*%
%ADD15R,1.700000X1.700000*%
%TD*%
%TA.AperFunction,ComponentPad*%
%ADD16O,1.700000X1.700000*%
%TD*%
%TA.AperFunction,ComponentPad*%
%ADD17C,0.499999*%
%TD*%
%TA.AperFunction,ViaPad*%
%ADD18C,0.558800*%
%TD*%
%TA.AperFunction,Conductor*%
%ADD19C,0.300000*%
%TD*%
G04 APERTURE END LIST*
D10*
%TO.N,+5V*%
%TO.C,J1*%
X122450000Y-67287500D03*
%TD*%
D11*
%TO.N,GND*%
%TO.C,J4*%
X162825000Y-97312500D03*
%TO.N,+VUSB*%
X162825000Y-96462500D03*
%TO.N,/CONN_USB_CC1*%
X162825000Y-95612500D03*
%TO.N,/CONN_USB_D+*%
X162825000Y-94762500D03*
%TO.N,/CONN_USB_D-*%
X162825000Y-93912500D03*
%TO.N,unconnected-(J4-SBU1-PadA8)*%
X162825000Y-93062500D03*
%TO.N,+VUSB*%
X162825000Y-92212500D03*
%TO.N,GND*%
X162825000Y-91362500D03*
X164175000Y-91362500D03*
%TO.N,+VUSB*%
X164175000Y-92212500D03*
%TO.N,/CONN_USB_CC2*%
X164175000Y-93062500D03*
%TO.N,/CONN_USB_D+*%
X164175000Y-93912500D03*
%TO.N,/CONN_USB_D-*%
X164175000Y-94762500D03*
%TO.N,unconnected-(J4-SBU2-PadB8)*%
X164175000Y-95612500D03*
%TO.N,+VUSB*%
X164175000Y-96462500D03*
%TO.N,GND*%
X164175000Y-97312500D03*
D12*
X163805000Y-98662500D03*
D13*
X167185000Y-98662500D03*
D12*
X163805000Y-90012500D03*
D13*
X167185000Y-90012500D03*
%TD*%
D10*
%TO.N,GND*%
%TO.C,J2*%
X140000000Y-67287500D03*
%TD*%
D14*
%TO.N,GND*%
%TO.C,U3*%
X158850000Y-94300000D03*
X158850000Y-93100000D03*
X157650000Y-94300000D03*
X157650000Y-93100000D03*
%TD*%
D15*
%TO.N,/CTS*%
%TO.C,J3*%
X150380000Y-63387500D03*
D16*
%TO.N,/RTS*%
X152920000Y-63387500D03*
%TO.N,/UART_RX*%
X155460000Y-63387500D03*
%TO.N,/UART_TX*%
X158000000Y-63387500D03*
%TO.N,GND*%
X160540000Y-63387500D03*
%TD*%
D17*
%TO.N,GND*%
%TO.C,U2*%
X148200000Y-84587501D03*
X148200000Y-85637501D03*
X148200000Y-86687501D03*
X149299998Y-84587501D03*
X149299998Y-85637501D03*
X149299998Y-86687501D03*
%TD*%
D18*
%TO.N,GND*%
X158113632Y-98350000D03*
X118800000Y-82850000D03*
X158940905Y-97200000D03*
X156459090Y-97200000D03*
X141400000Y-93700000D03*
X135200000Y-83600000D03*
X156459090Y-98350000D03*
X158113632Y-97200000D03*
X128200000Y-88237500D03*
X149700000Y-89737500D03*
X157286361Y-98350000D03*
X127500000Y-81287500D03*
X131850000Y-83600000D03*
X157286361Y-97200000D03*
X145450000Y-82237500D03*
X158940905Y-98350000D03*
X136600000Y-86400000D03*
%TO.N,+3.3V*%
X160839086Y-65700000D03*
X158028178Y-65700000D03*
X156850000Y-88700000D03*
X129750000Y-85100000D03*
X155217270Y-65700000D03*
X129750000Y-87000000D03*
X130700000Y-87000000D03*
X135800000Y-85800000D03*
X162244540Y-65700000D03*
X133800000Y-95500000D03*
X131500000Y-87000000D03*
X151000908Y-65700000D03*
X146450000Y-86600000D03*
X159433632Y-65700000D03*
X145750000Y-86600000D03*
X148190000Y-65700000D03*
X149595454Y-65700000D03*
X156622724Y-65700000D03*
X129750000Y-86000000D03*
X141400000Y-91300000D03*
X152406362Y-65700000D03*
X163650000Y-65700000D03*
X135400000Y-95500000D03*
X153811816Y-65700000D03*
X129900000Y-90600000D03*
%TO.N,/nPWR_FLT*%
X147300000Y-83700000D03*
X155000000Y-80700000D03*
%TO.N,/nUSB_ERROR*%
X146400000Y-72200000D03*
X132600000Y-87000000D03*
%TO.N,/TX_ACTIVE*%
X135000000Y-87000000D03*
X164550000Y-82250000D03*
%TO.N,/UART_TX*%
X143700000Y-86150000D03*
%TO.N,/RTS*%
X138500000Y-87000000D03*
%TO.N,/CTS*%
X137500000Y-87000000D03*
%TO.N,/UART_RX*%
X142550000Y-86150000D03*
%TO.N,/CONN_USB_CC1*%
X160658399Y-92882654D03*
%TO.N,+VUSB*%
X152100000Y-82800000D03*
X153250000Y-82800000D03*
X154750000Y-83600000D03*
X153250000Y-83600000D03*
X152100000Y-83600000D03*
X152100000Y-85350000D03*
X155900000Y-82800000D03*
X154750000Y-82800000D03*
X152100000Y-84550000D03*
X153250000Y-85350000D03*
X155900000Y-83600000D03*
X153250000Y-84550000D03*
X158750000Y-85662500D03*
%TD*%
D19*
%TO.N,+VUSB*%
X161850000Y-91453818D02*
X161850000Y-91250000D01*
X162608682Y-92212500D02*
X161850000Y-91453818D01*
X164175000Y-92212500D02*
X162825000Y-92212500D01*
X162825000Y-92212500D02*
X162608682Y-92212500D01*
%TD*%
%TA.AperFunction,Conductor*%
%TO.N,+VUSB*%
G36*
X168442091Y-73369685D02*
G01*
X168487846Y-73422489D01*
X168499048Y-73474945D01*
X168376787Y-89521604D01*
X168356593Y-89588491D01*
X168303442Y-89633843D01*
X168234209Y-89643259D01*
X168170877Y-89613751D01*
X168149688Y-89589549D01*
X168148981Y-89588491D01*
X168132221Y-89563407D01*
X168132219Y-89563404D01*
X168034096Y-89465281D01*
X168034092Y-89465278D01*
X167918712Y-89388183D01*
X167918703Y-89388178D01*
X167790495Y-89335073D01*
X167790487Y-89335071D01*
X167654391Y-89308000D01*
X167654387Y-89308000D01*
X166715613Y-89308000D01*
X166715608Y-89308000D01*
X166579512Y-89335071D01*
X166579504Y-89335073D01*
X166451296Y-89388178D01*
X166451287Y-89388183D01*
X166335907Y-89465278D01*
X166335903Y-89465281D01*
X166237781Y-89563403D01*
X166237778Y-89563407D01*
X166160683Y-89678787D01*
X166160678Y-89678796D01*
X166107573Y-89807004D01*
X166107571Y-89807012D01*
X166080500Y-89943108D01*
X166080500Y-90081891D01*
X166107571Y-90217987D01*
X166107573Y-90217995D01*
X166160678Y-90346203D01*
X166160683Y-90346212D01*
X166237778Y-90461592D01*
X166237781Y-90461596D01*
X166335903Y-90559718D01*
X166335907Y-90559721D01*
X166451287Y-90636816D01*
X166451293Y-90636819D01*
X166451294Y-90636820D01*
X166579505Y-90689927D01*
X166683543Y-90710621D01*
X166715608Y-90716999D01*
X166715612Y-90717000D01*
X166715613Y-90717000D01*
X167654388Y-90717000D01*
X167654389Y-90716999D01*
X167790495Y-90689927D01*
X167918706Y-90636820D01*
X168034093Y-90559721D01*
X168132221Y-90461593D01*
X168142107Y-90446797D01*
X168195716Y-90401992D01*
X168265041Y-90393282D01*
X168328069Y-90423434D01*
X168364791Y-90482876D01*
X168369206Y-90516631D01*
X168311472Y-98094244D01*
X168291278Y-98161131D01*
X168238127Y-98206483D01*
X168168894Y-98215899D01*
X168105562Y-98186391D01*
X168099795Y-98180980D01*
X168034096Y-98115281D01*
X168034092Y-98115278D01*
X167918712Y-98038183D01*
X167918703Y-98038178D01*
X167790495Y-97985073D01*
X167790487Y-97985071D01*
X167654391Y-97958000D01*
X167654387Y-97958000D01*
X166715613Y-97958000D01*
X166715608Y-97958000D01*
X166579512Y-97985071D01*
X166579504Y-97985073D01*
X166451296Y-98038178D01*
X166451287Y-98038183D01*
X166335907Y-98115278D01*
X166335903Y-98115281D01*
X166237781Y-98213403D01*
X166237778Y-98213407D01*
X166160683Y-98328787D01*
X166160678Y-98328796D01*
X166107573Y-98457004D01*
X166107571Y-98457012D01*
X166080500Y-98593108D01*
X166080500Y-98731891D01*
X166107571Y-98867987D01*
X166107573Y-98867995D01*
X166160678Y-98996203D01*
X166160683Y-98996212D01*
X166237778Y-99111592D01*
X166237781Y-99111596D01*
X166335903Y-99209718D01*
X166335907Y-99209721D01*
X166451287Y-99286816D01*
X166451293Y-99286819D01*
X166451294Y-99286820D01*
X166579505Y-99339927D01*
X166609960Y-99345984D01*
X166652179Y-99354383D01*
X166714090Y-99386767D01*
X166748664Y-99447483D01*
X166744925Y-99517253D01*
X166704059Y-99573925D01*
X166639041Y-99599506D01*
X166627988Y-99600000D01*
X164712012Y-99600000D01*
X164644973Y-99580315D01*
X164599218Y-99527511D01*
X164589274Y-99458353D01*
X164618299Y-99394797D01*
X164677077Y-99357023D01*
X164687821Y-99354383D01*
X164722642Y-99347456D01*
X164760495Y-99339927D01*
X164888706Y-99286820D01*
X165004093Y-99209721D01*
X165102221Y-99111593D01*
X165179320Y-98996206D01*
X165232427Y-98867995D01*
X165259500Y-98731887D01*
X165259500Y-98593113D01*
X165232427Y-98457005D01*
X165179320Y-98328794D01*
X165179319Y-98328793D01*
X165179316Y-98328787D01*
X165102221Y-98213407D01*
X165102218Y-98213403D01*
X165004096Y-98115281D01*
X165004092Y-98115278D01*
X164888712Y-98038183D01*
X164888703Y-98038178D01*
X164760495Y-97985073D01*
X164760487Y-97985071D01*
X164656451Y-97964377D01*
X164594540Y-97931992D01*
X164559966Y-97871277D01*
X164563705Y-97801507D01*
X164600913Y-97749906D01*
X164600388Y-97749381D01*
X164603632Y-97746136D01*
X164604571Y-97744835D01*
X164604928Y-97744558D01*
X164606134Y-97743634D01*
X164703030Y-97617358D01*
X164763940Y-97470306D01*
X164784716Y-97312500D01*
X164763940Y-97154694D01*
X164703030Y-97007642D01*
X164632320Y-96915492D01*
X164615339Y-96871567D01*
X164588065Y-96865634D01*
X164572005Y-96855178D01*
X164513299Y-96810131D01*
X164479858Y-96784470D01*
X164479857Y-96784469D01*
X164479855Y-96784468D01*
X164332809Y-96723561D01*
X164332807Y-96723560D01*
X164332806Y-96723560D01*
X164253903Y-96713172D01*
X164175001Y-96702784D01*
X164174997Y-96702784D01*
X164135533Y-96707979D01*
X164066497Y-96697213D01*
X164031668Y-96672721D01*
X163909127Y-96550180D01*
X163875642Y-96488857D01*
X163880372Y-96422718D01*
X163975000Y-96422718D01*
X163975000Y-96502282D01*
X164005448Y-96575791D01*
X164061709Y-96632052D01*
X164135218Y-96662500D01*
X164214782Y-96662500D01*
X164288291Y-96632052D01*
X164344552Y-96575791D01*
X164375000Y-96502282D01*
X164375000Y-96462500D01*
X164528553Y-96462500D01*
X164528553Y-96462501D01*
X164735173Y-96669121D01*
X164766468Y-96726434D01*
X164803821Y-96739862D01*
X164818378Y-96752326D01*
X164926651Y-96860599D01*
X164926652Y-96860599D01*
X164955790Y-96810131D01*
X165011003Y-96640202D01*
X165011004Y-96640200D01*
X165029681Y-96462500D01*
X165011004Y-96284799D01*
X165011003Y-96284797D01*
X164955793Y-96114875D01*
X164955790Y-96114869D01*
X164926651Y-96064399D01*
X164818380Y-96172671D01*
X164761063Y-96203968D01*
X164747636Y-96241321D01*
X164735173Y-96255879D01*
X164528553Y-96462500D01*
X164375000Y-96462500D01*
X164375000Y-96422718D01*
X164344552Y-96349209D01*
X164288291Y-96292948D01*
X164214782Y-96262500D01*
X164135218Y-96262500D01*
X164061709Y-96292948D01*
X164005448Y-96349209D01*
X163975000Y-96422718D01*
X163880372Y-96422718D01*
X163880626Y-96419165D01*
X163909127Y-96374817D01*
X164031668Y-96252277D01*
X164092991Y-96218793D01*
X164135533Y-96217020D01*
X164160334Y-96220285D01*
X164174999Y-96222216D01*
X164174999Y-96222215D01*
X164175000Y-96222216D01*
X164332806Y-96201440D01*
X164479858Y-96140530D01*
X164572004Y-96069822D01*
X164615933Y-96052839D01*
X164621867Y-96025563D01*
X164632324Y-96009503D01*
X164703029Y-95917359D01*
X164703028Y-95917359D01*
X164703030Y-95917358D01*
X164763940Y-95770306D01*
X164784716Y-95612500D01*
X164763940Y-95454694D01*
X164703030Y-95307642D01*
X164668762Y-95262985D01*
X164643569Y-95197819D01*
X164657606Y-95129374D01*
X164668758Y-95112020D01*
X164703030Y-95067358D01*
X164763940Y-94920306D01*
X164784716Y-94762500D01*
X164763940Y-94604694D01*
X164703030Y-94457642D01*
X164668762Y-94412985D01*
X164643569Y-94347819D01*
X164657606Y-94279374D01*
X164668758Y-94262020D01*
X164703030Y-94217358D01*
X164763940Y-94070306D01*
X164784716Y-93912500D01*
X164763940Y-93754694D01*
X164703030Y-93607642D01*
X164668762Y-93562985D01*
X164643569Y-93497819D01*
X164657606Y-93429374D01*
X164668758Y-93412020D01*
X164703030Y-93367358D01*
X164763940Y-93220306D01*
X164784716Y-93062500D01*
X164763940Y-92904694D01*
X164703030Y-92757642D01*
X164632320Y-92665492D01*
X164615339Y-92621567D01*
X164588065Y-92615634D01*
X164572005Y-92605178D01*
X164513299Y-92560131D01*
X164479858Y-92534470D01*
X164479857Y-92534469D01*
X164479855Y-92534468D01*
X164332809Y-92473561D01*
X164332807Y-92473560D01*
X164332806Y-92473560D01*
X164253903Y-92463172D01*
X164175001Y-92452784D01*
X164174997Y-92452784D01*
X164135533Y-92457979D01*
X164066497Y-92447213D01*
X164031668Y-92422721D01*
X163909127Y-92300180D01*
X163875642Y-92238857D01*
X163880372Y-92172718D01*
X163975000Y-92172718D01*
X163975000Y-92252282D01*
X164005448Y-92325791D01*
X164061709Y-92382052D01*
X164135218Y-92412500D01*
X164214782Y-92412500D01*
X164288291Y-92382052D01*
X164344552Y-92325791D01*
X164375000Y-92252282D01*
X164375000Y-92212500D01*
X164528553Y-92212500D01*
X164528553Y-92212501D01*
X164735173Y-92419121D01*
X164766468Y-92476434D01*
X164803821Y-92489862D01*
X164818378Y-92502326D01*
X164926651Y-92610599D01*
X164926652Y-92610599D01*
X164955790Y-92560131D01*
X165011003Y-92390202D01*
X165011004Y-92390200D01*
X165029681Y-92212500D01*
X165011004Y-92034799D01*
X165011003Y-92034797D01*
X164955793Y-91864875D01*
X164955790Y-91864869D01*
X164926651Y-91814399D01*
X164818380Y-91922671D01*
X164761063Y-91953968D01*
X164747636Y-91991321D01*
X164735173Y-92005879D01*
X164528553Y-92212500D01*
X164375000Y-92212500D01*
X164375000Y-92172718D01*
X164344552Y-92099209D01*
X164288291Y-92042948D01*
X164214782Y-92012500D01*
X164135218Y-92012500D01*
X164061709Y-92042948D01*
X164005448Y-92099209D01*
X163975000Y-92172718D01*
X163880372Y-92172718D01*
X163880626Y-92169165D01*
X163909127Y-92124817D01*
X164031668Y-92002277D01*
X164092991Y-91968793D01*
X164135533Y-91967020D01*
X164160334Y-91970285D01*
X164174999Y-91972216D01*
X164174999Y-91972215D01*
X164175000Y-91972216D01*
X164332806Y-91951440D01*
X164479858Y-91890530D01*
X164572004Y-91819822D01*
X164615933Y-91802839D01*
X164621867Y-91775563D01*
X164632324Y-91759503D01*
X164703029Y-91667359D01*
X164703028Y-91667359D01*
X164703030Y-91667358D01*
X164763940Y-91520306D01*
X164784716Y-91362500D01*
X164763940Y-91204694D01*
X164703030Y-91057642D01*
X164606134Y-90931366D01*
X164606132Y-90931364D01*
X164606131Y-90931363D01*
X164605155Y-90930614D01*
X164604538Y-90929769D01*
X164600388Y-90925619D01*
X164601035Y-90924971D01*
X164563953Y-90874186D01*
X164559798Y-90804440D01*
X164594011Y-90743520D01*
X164655728Y-90710768D01*
X164656207Y-90710670D01*
X164760495Y-90689927D01*
X164888706Y-90636820D01*
X165004093Y-90559721D01*
X165102221Y-90461593D01*
X165179320Y-90346206D01*
X165232427Y-90217995D01*
X165259500Y-90081887D01*
X165259500Y-89943113D01*
X165232427Y-89807005D01*
X165179320Y-89678794D01*
X165179319Y-89678793D01*
X165179316Y-89678787D01*
X165102221Y-89563407D01*
X165102218Y-89563403D01*
X165004096Y-89465281D01*
X165004092Y-89465278D01*
X164888712Y-89388183D01*
X164888703Y-89388178D01*
X164760495Y-89335073D01*
X164760487Y-89335071D01*
X164624391Y-89308000D01*
X164624387Y-89308000D01*
X162985613Y-89308000D01*
X162985608Y-89308000D01*
X162849512Y-89335071D01*
X162849504Y-89335073D01*
X162721296Y-89388178D01*
X162721287Y-89388183D01*
X162605907Y-89465278D01*
X162605903Y-89465281D01*
X162507781Y-89563403D01*
X162507778Y-89563407D01*
X162430683Y-89678787D01*
X162430678Y-89678796D01*
X162377573Y-89807004D01*
X162377571Y-89807012D01*
X162350500Y-89943108D01*
X162350500Y-90081891D01*
X162377571Y-90217987D01*
X162377573Y-90217995D01*
X162430678Y-90346203D01*
X162430683Y-90346212D01*
X162507778Y-90461592D01*
X162507781Y-90461596D01*
X162605903Y-90559718D01*
X162605911Y-90559724D01*
X162634030Y-90578513D01*
X162678836Y-90632125D01*
X162687543Y-90701450D01*
X162657389Y-90764477D01*
X162612592Y-90796176D01*
X162520144Y-90834468D01*
X162393866Y-90931366D01*
X162296968Y-91057644D01*
X162236061Y-91204690D01*
X162236060Y-91204694D01*
X162215284Y-91362499D01*
X162215284Y-91362500D01*
X162236060Y-91520305D01*
X162236061Y-91520309D01*
X162296968Y-91667355D01*
X162367681Y-91759509D01*
X162384660Y-91803429D01*
X162411930Y-91809362D01*
X162427985Y-91819814D01*
X162520142Y-91890530D01*
X162667194Y-91951440D01*
X162825000Y-91972216D01*
X162864464Y-91967020D01*
X162933499Y-91977785D01*
X162968331Y-92002278D01*
X163090871Y-92124818D01*
X163124356Y-92186141D01*
X163119372Y-92255833D01*
X163090871Y-92300180D01*
X162968330Y-92422721D01*
X162907007Y-92456206D01*
X162864465Y-92457979D01*
X162825003Y-92452784D01*
X162824999Y-92452784D01*
X162667194Y-92473560D01*
X162667190Y-92473561D01*
X162520143Y-92534469D01*
X162520141Y-92534470D01*
X162427989Y-92605181D01*
X162384070Y-92622159D01*
X162378138Y-92649429D01*
X162367682Y-92665488D01*
X162296970Y-92757641D01*
X162296969Y-92757643D01*
X162236061Y-92904690D01*
X162236060Y-92904694D01*
X162215284Y-93062499D01*
X162215284Y-93062500D01*
X162236060Y-93220305D01*
X162236061Y-93220309D01*
X162296968Y-93367355D01*
X162296969Y-93367357D01*
X162296970Y-93367358D01*
X162331236Y-93412014D01*
X162356430Y-93477182D01*
X162342392Y-93545627D01*
X162331239Y-93562981D01*
X162331235Y-93562988D01*
X162296968Y-93607644D01*
X162236061Y-93754690D01*
X162236060Y-93754694D01*
X162215284Y-93912499D01*
X162215284Y-93912500D01*
X162236060Y-94070305D01*
X162236061Y-94070309D01*
X162296968Y-94217355D01*
X162296969Y-94217357D01*
X162296970Y-94217358D01*
X162331236Y-94262014D01*
X162356430Y-94327182D01*
X162342392Y-94395627D01*
X162331239Y-94412981D01*
X162331235Y-94412988D01*
X162296968Y-94457644D01*
X162236061Y-94604690D01*
X162236060Y-94604694D01*
X162215284Y-94762499D01*
X162215284Y-94762500D01*
X162236060Y-94920305D01*
X162236061Y-94920309D01*
X162296968Y-95067355D01*
X162296969Y-95067357D01*
X162296970Y-95067358D01*
X162331236Y-95112014D01*
X162356430Y-95177182D01*
X162342392Y-95245627D01*
X162331239Y-95262981D01*
X162331235Y-95262988D01*
X162296968Y-95307644D01*
X162236061Y-95454690D01*
X162236060Y-95454694D01*
X162215284Y-95612499D01*
X162215284Y-95612500D01*
X162236060Y-95770305D01*
X162236061Y-95770309D01*
X162296968Y-95917355D01*
X162367681Y-96009509D01*
X162384660Y-96053429D01*
X162411930Y-96059362D01*
X162427985Y-96069814D01*
X162520142Y-96140530D01*
X162667194Y-96201440D01*
X162825000Y-96222216D01*
X162864464Y-96217020D01*
X162933499Y-96227785D01*
X162968331Y-96252278D01*
X163090871Y-96374818D01*
X163124356Y-96436141D01*
X163119372Y-96505833D01*
X163090871Y-96550180D01*
X162968330Y-96672721D01*
X162907007Y-96706206D01*
X162864465Y-96707979D01*
X162825003Y-96702784D01*
X162824999Y-96702784D01*
X162667194Y-96723560D01*
X162667190Y-96723561D01*
X162520143Y-96784469D01*
X162520141Y-96784470D01*
X162427989Y-96855181D01*
X162384070Y-96872159D01*
X162378138Y-96899429D01*
X162367682Y-96915488D01*
X162296970Y-97007641D01*
X162296969Y-97007643D01*
X162236061Y-97154690D01*
X162236060Y-97154694D01*
X162215284Y-97312500D01*
X162235921Y-97469254D01*
X162236060Y-97470305D01*
X162236061Y-97470309D01*
X162296968Y-97617355D01*
X162296969Y-97617357D01*
X162296970Y-97617358D01*
X162393866Y-97743634D01*
X162520142Y-97840530D01*
X162612593Y-97878824D01*
X162666995Y-97922663D01*
X162689061Y-97988957D01*
X162671783Y-98056656D01*
X162634032Y-98096485D01*
X162605910Y-98115276D01*
X162605903Y-98115281D01*
X162507781Y-98213403D01*
X162507778Y-98213407D01*
X162430683Y-98328787D01*
X162430678Y-98328796D01*
X162377573Y-98457004D01*
X162377571Y-98457012D01*
X162350500Y-98593108D01*
X162350500Y-98731891D01*
X162377571Y-98867987D01*
X162377573Y-98867995D01*
X162430678Y-98996203D01*
X162430683Y-98996212D01*
X162507778Y-99111592D01*
X162507781Y-99111596D01*
X162605903Y-99209718D01*
X162605907Y-99209721D01*
X162721287Y-99286816D01*
X162721293Y-99286819D01*
X162721294Y-99286820D01*
X162849505Y-99339927D01*
X162879960Y-99345984D01*
X162922179Y-99354383D01*
X162984090Y-99386767D01*
X163018664Y-99447483D01*
X163014925Y-99517253D01*
X162974059Y-99573925D01*
X162909041Y-99599506D01*
X162897988Y-99600000D01*
X161374000Y-99600000D01*
X161306961Y-99580315D01*
X161261206Y-99527511D01*
X161250000Y-99476000D01*
X161250000Y-96462500D01*
X161970318Y-96462500D01*
X161988995Y-96640200D01*
X161988996Y-96640202D01*
X162044209Y-96810131D01*
X162044210Y-96810133D01*
X162073346Y-96860598D01*
X162073347Y-96860599D01*
X162181625Y-96752321D01*
X162238932Y-96721028D01*
X162252359Y-96683681D01*
X162264822Y-96669123D01*
X162471446Y-96462499D01*
X162431665Y-96422718D01*
X162625000Y-96422718D01*
X162625000Y-96502282D01*
X162655448Y-96575791D01*
X162711709Y-96632052D01*
X162785218Y-96662500D01*
X162864782Y-96662500D01*
X162938291Y-96632052D01*
X162994552Y-96575791D01*
X163025000Y-96502282D01*
X163025000Y-96422718D01*
X162994552Y-96349209D01*
X162938291Y-96292948D01*
X162864782Y-96262500D01*
X162785218Y-96262500D01*
X162711709Y-96292948D01*
X162655448Y-96349209D01*
X162625000Y-96422718D01*
X162431665Y-96422718D01*
X162264822Y-96255875D01*
X162233529Y-96198566D01*
X162196181Y-96185141D01*
X162181624Y-96172677D01*
X162073347Y-96064400D01*
X162044208Y-96114870D01*
X161988996Y-96284797D01*
X161988995Y-96284799D01*
X161970318Y-96462500D01*
X161250000Y-96462500D01*
X161250000Y-92212500D01*
X161970318Y-92212500D01*
X161988995Y-92390200D01*
X161988996Y-92390202D01*
X162044209Y-92560131D01*
X162044210Y-92560133D01*
X162073346Y-92610598D01*
X162073347Y-92610599D01*
X162181625Y-92502321D01*
X162238932Y-92471028D01*
X162252359Y-92433681D01*
X162264822Y-92419123D01*
X162471446Y-92212499D01*
X162431665Y-92172718D01*
X162625000Y-92172718D01*
X162625000Y-92252282D01*
X162655448Y-92325791D01*
X162711709Y-92382052D01*
X162785218Y-92412500D01*
X162864782Y-92412500D01*
X162938291Y-92382052D01*
X162994552Y-92325791D01*
X163025000Y-92252282D01*
X163025000Y-92172718D01*
X162994552Y-92099209D01*
X162938291Y-92042948D01*
X162864782Y-92012500D01*
X162785218Y-92012500D01*
X162711709Y-92042948D01*
X162655448Y-92099209D01*
X162625000Y-92172718D01*
X162431665Y-92172718D01*
X162264822Y-92005875D01*
X162233529Y-91948566D01*
X162196181Y-91935141D01*
X162181624Y-91922677D01*
X162073347Y-91814400D01*
X162044208Y-91864870D01*
X161988996Y-92034797D01*
X161988995Y-92034799D01*
X161970318Y-92212500D01*
X161250000Y-92212500D01*
X161250000Y-89700000D01*
X161249999Y-89699999D01*
X160003418Y-88836981D01*
X159959503Y-88782637D01*
X159950000Y-88735029D01*
X159950000Y-87100000D01*
X151575817Y-87100000D01*
X151508778Y-87080315D01*
X151463023Y-87027511D01*
X151451830Y-86974197D01*
X151520546Y-82249998D01*
X164011493Y-82249998D01*
X164011493Y-82250001D01*
X164029841Y-82389374D01*
X164029843Y-82389379D01*
X164083637Y-82519252D01*
X164083639Y-82519255D01*
X164169217Y-82630781D01*
X164169218Y-82630782D01*
X164280744Y-82716360D01*
X164280747Y-82716362D01*
X164362644Y-82750284D01*
X164410624Y-82770158D01*
X164480312Y-82779332D01*
X164549999Y-82788507D01*
X164550000Y-82788507D01*
X164550001Y-82788507D01*
X164596458Y-82782390D01*
X164689376Y-82770158D01*
X164819254Y-82716361D01*
X164930782Y-82630782D01*
X165016361Y-82519254D01*
X165070158Y-82389376D01*
X165088507Y-82250000D01*
X165070158Y-82110624D01*
X165016361Y-81980747D01*
X164930782Y-81869218D01*
X164930780Y-81869217D01*
X164930780Y-81869216D01*
X164819254Y-81783639D01*
X164819252Y-81783637D01*
X164689379Y-81729843D01*
X164689374Y-81729841D01*
X164550001Y-81711493D01*
X164549999Y-81711493D01*
X164410625Y-81729841D01*
X164410620Y-81729843D01*
X164280751Y-81783636D01*
X164280750Y-81783637D01*
X164169218Y-81869218D01*
X164083637Y-81980750D01*
X164083636Y-81980751D01*
X164029843Y-82110620D01*
X164029841Y-82110625D01*
X164011493Y-82249998D01*
X151520546Y-82249998D01*
X151543091Y-80699998D01*
X154461493Y-80699998D01*
X154461493Y-80700001D01*
X154479841Y-80839374D01*
X154479843Y-80839379D01*
X154533637Y-80969252D01*
X154533639Y-80969255D01*
X154619217Y-81080781D01*
X154619218Y-81080782D01*
X154730744Y-81166360D01*
X154730747Y-81166362D01*
X154812644Y-81200284D01*
X154860624Y-81220158D01*
X154930312Y-81229332D01*
X154999999Y-81238507D01*
X155000000Y-81238507D01*
X155000001Y-81238507D01*
X155046458Y-81232390D01*
X155139376Y-81220158D01*
X155269254Y-81166361D01*
X155380782Y-81080782D01*
X155466361Y-80969254D01*
X155520158Y-80839376D01*
X155538507Y-80700000D01*
X155520158Y-80560624D01*
X155466361Y-80430747D01*
X155380782Y-80319218D01*
X155380780Y-80319217D01*
X155380780Y-80319216D01*
X155269254Y-80233639D01*
X155269252Y-80233637D01*
X155139379Y-80179843D01*
X155139374Y-80179841D01*
X155000001Y-80161493D01*
X154999999Y-80161493D01*
X154860625Y-80179841D01*
X154860620Y-80179843D01*
X154730751Y-80233636D01*
X154730750Y-80233637D01*
X154619218Y-80319218D01*
X154533637Y-80430750D01*
X154533636Y-80430751D01*
X154479843Y-80560620D01*
X154479841Y-80560625D01*
X154461493Y-80699998D01*
X151543091Y-80699998D01*
X151648223Y-73472197D01*
X151668881Y-73405450D01*
X151722344Y-73360468D01*
X151772210Y-73350000D01*
X168375052Y-73350000D01*
X168442091Y-73369685D01*
G37*
%TD.AperFunction*%
%TD*%
%TA.AperFunction,Conductor*%
%TO.N,+3.3V*%
G36*
X168492539Y-60020185D02*
G01*
X168538294Y-60072989D01*
X168549500Y-60124500D01*
X168549500Y-72972478D01*
X168529815Y-73039517D01*
X168477011Y-73085272D01*
X168407854Y-73095216D01*
X168375053Y-73090500D01*
X168375052Y-73090500D01*
X151772210Y-73090500D01*
X151772206Y-73090500D01*
X151718904Y-73096033D01*
X151718899Y-73096034D01*
X151669016Y-73106506D01*
X151643988Y-73113079D01*
X151643986Y-73113080D01*
X151643982Y-73113081D01*
X151643982Y-73113082D01*
X151597548Y-73138637D01*
X151555275Y-73161902D01*
X151555270Y-73161905D01*
X151501820Y-73206877D01*
X151469213Y-73239700D01*
X151469212Y-73239702D01*
X151420984Y-73328720D01*
X151420979Y-73328732D01*
X151400327Y-73395460D01*
X151400323Y-73395479D01*
X151388751Y-73468412D01*
X151388750Y-73468421D01*
X151388750Y-73468423D01*
X151283618Y-80696224D01*
X151283563Y-80699999D01*
X151282583Y-80767343D01*
X151261073Y-82246221D01*
X151261073Y-82246224D01*
X151261018Y-82250000D01*
X151192733Y-86944602D01*
X151192357Y-86970423D01*
X151195212Y-87000000D01*
X151197867Y-87027518D01*
X151209061Y-87080837D01*
X151209063Y-87080844D01*
X151216801Y-87109457D01*
X151216803Y-87109463D01*
X151266902Y-87197443D01*
X151266904Y-87197445D01*
X151266906Y-87197448D01*
X151291103Y-87225373D01*
X151312657Y-87250248D01*
X151312660Y-87250251D01*
X151312661Y-87250252D01*
X151345948Y-87282371D01*
X151435666Y-87329303D01*
X151502705Y-87348988D01*
X151502709Y-87348988D01*
X151502711Y-87348989D01*
X151514524Y-87350687D01*
X151575817Y-87359500D01*
X159566500Y-87359500D01*
X159633539Y-87379185D01*
X159679294Y-87431989D01*
X159690500Y-87483500D01*
X159690500Y-88735024D01*
X159695520Y-88785828D01*
X159695521Y-88785834D01*
X159705022Y-88833432D01*
X159710614Y-88856086D01*
X159733077Y-88898886D01*
X159757667Y-88945739D01*
X159801582Y-89000083D01*
X159855708Y-89050340D01*
X160937082Y-89798983D01*
X160980997Y-89853327D01*
X160990500Y-89900935D01*
X160990500Y-92256746D01*
X160970815Y-92323785D01*
X160918011Y-92369540D01*
X160848853Y-92379484D01*
X160819049Y-92371308D01*
X160797775Y-92362496D01*
X160797773Y-92362495D01*
X160658400Y-92344147D01*
X160658398Y-92344147D01*
X160519024Y-92362495D01*
X160519019Y-92362497D01*
X160389150Y-92416290D01*
X160389149Y-92416291D01*
X160277617Y-92501872D01*
X160192036Y-92613404D01*
X160192035Y-92613405D01*
X160138242Y-92743274D01*
X160138240Y-92743279D01*
X160119892Y-92882652D01*
X160119892Y-92882655D01*
X160138240Y-93022028D01*
X160138242Y-93022033D01*
X160192036Y-93151906D01*
X160192038Y-93151909D01*
X160277616Y-93263435D01*
X160277617Y-93263436D01*
X160389143Y-93349014D01*
X160389146Y-93349016D01*
X160471043Y-93382938D01*
X160519023Y-93402812D01*
X160588711Y-93411986D01*
X160658398Y-93421161D01*
X160658399Y-93421161D01*
X160658400Y-93421161D01*
X160704857Y-93415044D01*
X160797775Y-93402812D01*
X160819047Y-93394000D01*
X160888515Y-93386531D01*
X160950994Y-93417805D01*
X160986648Y-93477893D01*
X160990500Y-93508561D01*
X160990500Y-99476008D01*
X160996430Y-99531161D01*
X161007639Y-99582683D01*
X161014986Y-99609463D01*
X161059642Y-99687883D01*
X161065089Y-99697448D01*
X161068577Y-99701473D01*
X161110840Y-99750248D01*
X161110843Y-99750251D01*
X161110844Y-99750252D01*
X161144131Y-99782371D01*
X161233849Y-99829303D01*
X161233851Y-99829303D01*
X161233852Y-99829304D01*
X161256195Y-99835864D01*
X161300888Y-99848988D01*
X161300892Y-99848988D01*
X161300894Y-99848989D01*
X161312707Y-99850687D01*
X161374000Y-99859500D01*
X161374001Y-99859500D01*
X162897988Y-99859500D01*
X162909574Y-99859241D01*
X162920627Y-99858747D01*
X163004051Y-99840988D01*
X163069069Y-99815407D01*
X163110437Y-99794699D01*
X163184543Y-99725704D01*
X163202016Y-99701473D01*
X163257194Y-99658610D01*
X163302594Y-99650000D01*
X164305366Y-99650000D01*
X164372405Y-99669685D01*
X164397756Y-99694018D01*
X164399112Y-99692844D01*
X164448852Y-99750248D01*
X164448855Y-99750251D01*
X164448856Y-99750252D01*
X164482143Y-99782371D01*
X164571861Y-99829303D01*
X164571863Y-99829303D01*
X164571864Y-99829304D01*
X164594207Y-99835864D01*
X164638900Y-99848988D01*
X164638904Y-99848988D01*
X164638906Y-99848989D01*
X164650719Y-99850687D01*
X164712012Y-99859500D01*
X164712013Y-99859500D01*
X166627988Y-99859500D01*
X166639574Y-99859241D01*
X166650627Y-99858747D01*
X166734051Y-99840988D01*
X166799069Y-99815407D01*
X166840437Y-99794699D01*
X166914543Y-99725704D01*
X166932016Y-99701473D01*
X166987194Y-99658610D01*
X167032594Y-99650000D01*
X167335366Y-99650000D01*
X167402405Y-99669685D01*
X167427756Y-99694018D01*
X167429112Y-99692844D01*
X167478852Y-99750248D01*
X167478855Y-99750251D01*
X167478856Y-99750252D01*
X167512143Y-99782371D01*
X167601861Y-99829303D01*
X167601863Y-99829303D01*
X167601864Y-99829304D01*
X167624207Y-99835864D01*
X167668900Y-99848988D01*
X167668904Y-99848988D01*
X167668906Y-99848989D01*
X167680719Y-99850687D01*
X167742012Y-99859500D01*
X167742013Y-99859500D01*
X168176933Y-99859500D01*
X168176942Y-99859500D01*
X168200790Y-99856981D01*
X168231132Y-99853778D01*
X168231136Y-99853777D01*
X168231139Y-99853777D01*
X168281790Y-99842960D01*
X168307664Y-99836021D01*
X168315462Y-99831659D01*
X168383579Y-99816109D01*
X168449290Y-99839854D01*
X168491732Y-99895356D01*
X168500000Y-99939877D01*
X168500000Y-104375500D01*
X168480315Y-104442539D01*
X168427511Y-104488294D01*
X168376000Y-104499500D01*
X115624500Y-104499500D01*
X115557461Y-104479815D01*
X115511706Y-104427011D01*
X115500500Y-104375500D01*
X115500500Y-97199998D01*
X155920583Y-97199998D01*
X155920583Y-97200001D01*
X155938931Y-97339374D01*
X155938933Y-97339379D01*
X155992727Y-97469252D01*
X155992729Y-97469255D01*
X156078307Y-97580781D01*
X156078308Y-97580782D01*
X156189837Y-97666362D01*
X156192007Y-97667615D01*
X156193471Y-97669150D01*
X156196284Y-97671309D01*
X156195947Y-97671747D01*
X156240221Y-97718183D01*
X156253442Y-97786790D01*
X156227472Y-97851654D01*
X156196280Y-97878685D01*
X156196285Y-97878692D01*
X156196176Y-97878774D01*
X156192017Y-97882380D01*
X156189840Y-97883636D01*
X156078308Y-97969218D01*
X155992727Y-98080750D01*
X155992726Y-98080751D01*
X155938933Y-98210620D01*
X155938931Y-98210625D01*
X155920583Y-98349998D01*
X155920583Y-98350001D01*
X155938931Y-98489374D01*
X155938933Y-98489379D01*
X155992727Y-98619252D01*
X155992729Y-98619255D01*
X156078307Y-98730781D01*
X156078308Y-98730782D01*
X156189834Y-98816360D01*
X156189837Y-98816362D01*
X156271734Y-98850284D01*
X156319714Y-98870158D01*
X156389402Y-98879332D01*
X156459089Y-98888507D01*
X156459090Y-98888507D01*
X156459091Y-98888507D01*
X156505548Y-98882390D01*
X156598466Y-98870158D01*
X156728344Y-98816361D01*
X156797239Y-98763495D01*
X156862407Y-98738301D01*
X156930852Y-98752339D01*
X156948206Y-98763491D01*
X157017107Y-98816361D01*
X157146985Y-98870158D01*
X157216673Y-98879332D01*
X157286360Y-98888507D01*
X157286361Y-98888507D01*
X157286362Y-98888507D01*
X157332819Y-98882390D01*
X157425737Y-98870158D01*
X157555615Y-98816361D01*
X157624510Y-98763495D01*
X157689678Y-98738301D01*
X157758123Y-98752339D01*
X157775477Y-98763491D01*
X157844378Y-98816361D01*
X157974256Y-98870158D01*
X158043944Y-98879332D01*
X158113631Y-98888507D01*
X158113632Y-98888507D01*
X158113633Y-98888507D01*
X158160090Y-98882390D01*
X158253008Y-98870158D01*
X158382886Y-98816361D01*
X158451782Y-98763494D01*
X158516949Y-98738300D01*
X158585394Y-98752338D01*
X158602755Y-98763495D01*
X158671649Y-98816360D01*
X158671652Y-98816362D01*
X158753549Y-98850284D01*
X158801529Y-98870158D01*
X158871217Y-98879332D01*
X158940904Y-98888507D01*
X158940905Y-98888507D01*
X158940906Y-98888507D01*
X158987363Y-98882390D01*
X159080281Y-98870158D01*
X159210159Y-98816361D01*
X159321687Y-98730782D01*
X159407266Y-98619254D01*
X159461063Y-98489376D01*
X159479412Y-98350000D01*
X159476185Y-98325492D01*
X159461063Y-98210625D01*
X159461061Y-98210620D01*
X159407268Y-98080751D01*
X159407267Y-98080750D01*
X159407266Y-98080747D01*
X159321687Y-97969218D01*
X159321685Y-97969217D01*
X159321685Y-97969216D01*
X159210159Y-97883639D01*
X159207992Y-97882388D01*
X159206528Y-97880853D01*
X159203712Y-97878692D01*
X159204048Y-97878252D01*
X159159776Y-97831822D01*
X159146551Y-97763215D01*
X159172518Y-97698350D01*
X159203716Y-97671316D01*
X159203711Y-97671309D01*
X159203836Y-97671212D01*
X159207992Y-97667612D01*
X159210156Y-97666362D01*
X159210159Y-97666361D01*
X159321687Y-97580782D01*
X159407266Y-97469254D01*
X159461063Y-97339376D01*
X159479412Y-97200000D01*
X159473447Y-97154694D01*
X159461063Y-97060625D01*
X159461061Y-97060620D01*
X159407268Y-96930751D01*
X159407267Y-96930750D01*
X159407266Y-96930747D01*
X159321687Y-96819218D01*
X159321685Y-96819217D01*
X159321685Y-96819216D01*
X159210159Y-96733639D01*
X159210157Y-96733637D01*
X159080284Y-96679843D01*
X159080279Y-96679841D01*
X158940906Y-96661493D01*
X158940904Y-96661493D01*
X158801530Y-96679841D01*
X158801525Y-96679843D01*
X158671656Y-96733636D01*
X158671655Y-96733636D01*
X158602753Y-96786506D01*
X158537583Y-96811699D01*
X158469139Y-96797660D01*
X158451783Y-96786506D01*
X158382886Y-96733639D01*
X158382885Y-96733638D01*
X158382883Y-96733637D01*
X158253011Y-96679843D01*
X158253006Y-96679841D01*
X158113633Y-96661493D01*
X158113631Y-96661493D01*
X157974257Y-96679841D01*
X157974252Y-96679843D01*
X157844383Y-96733636D01*
X157775482Y-96786505D01*
X157710313Y-96811698D01*
X157641868Y-96797659D01*
X157624511Y-96786504D01*
X157555615Y-96733639D01*
X157555613Y-96733637D01*
X157425740Y-96679843D01*
X157425735Y-96679841D01*
X157286362Y-96661493D01*
X157286360Y-96661493D01*
X157146986Y-96679841D01*
X157146981Y-96679843D01*
X157017112Y-96733636D01*
X156948211Y-96786505D01*
X156883042Y-96811698D01*
X156814597Y-96797659D01*
X156797240Y-96786504D01*
X156728344Y-96733639D01*
X156728342Y-96733637D01*
X156598469Y-96679843D01*
X156598464Y-96679841D01*
X156459091Y-96661493D01*
X156459089Y-96661493D01*
X156319715Y-96679841D01*
X156319710Y-96679843D01*
X156189841Y-96733636D01*
X156189840Y-96733637D01*
X156189837Y-96733638D01*
X156189837Y-96733639D01*
X156120942Y-96786504D01*
X156078308Y-96819218D01*
X155992727Y-96930750D01*
X155992726Y-96930751D01*
X155938933Y-97060620D01*
X155938931Y-97060625D01*
X155920583Y-97199998D01*
X115500500Y-97199998D01*
X115500500Y-93699998D01*
X140861493Y-93699998D01*
X140861493Y-93700001D01*
X140879841Y-93839374D01*
X140879843Y-93839379D01*
X140933637Y-93969252D01*
X140933639Y-93969255D01*
X141019217Y-94080781D01*
X141019218Y-94080782D01*
X141130744Y-94166360D01*
X141130747Y-94166362D01*
X141212644Y-94200284D01*
X141260624Y-94220158D01*
X141296416Y-94224870D01*
X141399999Y-94238507D01*
X141400000Y-94238507D01*
X141400001Y-94238507D01*
X141446458Y-94232390D01*
X141539376Y-94220158D01*
X141669254Y-94166361D01*
X141780782Y-94080782D01*
X141866361Y-93969254D01*
X141920158Y-93839376D01*
X141938507Y-93700000D01*
X141920158Y-93560624D01*
X141866361Y-93430747D01*
X141780782Y-93319218D01*
X141780780Y-93319217D01*
X141780780Y-93319216D01*
X141669254Y-93233639D01*
X141669252Y-93233637D01*
X141539379Y-93179843D01*
X141539374Y-93179841D01*
X141400001Y-93161493D01*
X141399999Y-93161493D01*
X141260625Y-93179841D01*
X141260620Y-93179843D01*
X141130751Y-93233636D01*
X141130750Y-93233637D01*
X141130747Y-93233638D01*
X141130747Y-93233639D01*
X141019218Y-93319218D01*
X140975989Y-93375556D01*
X140933637Y-93430750D01*
X140933636Y-93430751D01*
X140879843Y-93560620D01*
X140879841Y-93560625D01*
X140861493Y-93699998D01*
X115500500Y-93699998D01*
X115500500Y-93100000D01*
X157140312Y-93100000D01*
X157160957Y-93243595D01*
X157160958Y-93243599D01*
X157221222Y-93375556D01*
X157221223Y-93375558D01*
X157316225Y-93485196D01*
X157394659Y-93535602D01*
X157438269Y-93563630D01*
X157497505Y-93581023D01*
X157556284Y-93618797D01*
X157585309Y-93682352D01*
X157575366Y-93751511D01*
X157529611Y-93804315D01*
X157497505Y-93818977D01*
X157438270Y-93836369D01*
X157438269Y-93836369D01*
X157316226Y-93914803D01*
X157316225Y-93914803D01*
X157316225Y-93914804D01*
X157269044Y-93969254D01*
X157221223Y-94024442D01*
X157221222Y-94024443D01*
X157160958Y-94156400D01*
X157160957Y-94156404D01*
X157140312Y-94300000D01*
X157160957Y-94443595D01*
X157160958Y-94443599D01*
X157221222Y-94575556D01*
X157221223Y-94575558D01*
X157316225Y-94685196D01*
X157394659Y-94735602D01*
X157438269Y-94763630D01*
X157577461Y-94804499D01*
X157577463Y-94804500D01*
X157577464Y-94804500D01*
X157722537Y-94804500D01*
X157722537Y-94804499D01*
X157861729Y-94763630D01*
X157861730Y-94763630D01*
X157861732Y-94763629D01*
X157983775Y-94685196D01*
X158078777Y-94575558D01*
X158137206Y-94447617D01*
X158182961Y-94394813D01*
X158250000Y-94375129D01*
X158317040Y-94394814D01*
X158362794Y-94447617D01*
X158421223Y-94575558D01*
X158516225Y-94685196D01*
X158594659Y-94735602D01*
X158638269Y-94763630D01*
X158777461Y-94804499D01*
X158777463Y-94804500D01*
X158777464Y-94804500D01*
X158922537Y-94804500D01*
X158922537Y-94804499D01*
X159061729Y-94763630D01*
X159061730Y-94763630D01*
X159061732Y-94763629D01*
X159183775Y-94685196D01*
X159278777Y-94575558D01*
X159339042Y-94443596D01*
X159359688Y-94300000D01*
X159339042Y-94156404D01*
X159339041Y-94156400D01*
X159278777Y-94024443D01*
X159278777Y-94024442D01*
X159183775Y-93914804D01*
X159148950Y-93892423D01*
X159061730Y-93836369D01*
X159002494Y-93818977D01*
X158943716Y-93781204D01*
X158914690Y-93717648D01*
X158924633Y-93648489D01*
X158970388Y-93595685D01*
X159002494Y-93581023D01*
X159061729Y-93563630D01*
X159061730Y-93563630D01*
X159066406Y-93560625D01*
X159183775Y-93485196D01*
X159278777Y-93375558D01*
X159321664Y-93281646D01*
X159339041Y-93243599D01*
X159339042Y-93243595D01*
X159359688Y-93100000D01*
X159339042Y-92956404D01*
X159339041Y-92956400D01*
X159278777Y-92824443D01*
X159278777Y-92824442D01*
X159183775Y-92714804D01*
X159148950Y-92692423D01*
X159061730Y-92636369D01*
X158922538Y-92595500D01*
X158922536Y-92595500D01*
X158777464Y-92595500D01*
X158777461Y-92595500D01*
X158638270Y-92636369D01*
X158638269Y-92636369D01*
X158516226Y-92714803D01*
X158421223Y-92824442D01*
X158421222Y-92824443D01*
X158362794Y-92952382D01*
X158317039Y-93005186D01*
X158249999Y-93024870D01*
X158182960Y-93005185D01*
X158137206Y-92952382D01*
X158078777Y-92824443D01*
X158078777Y-92824442D01*
X157983775Y-92714804D01*
X157948950Y-92692423D01*
X157861730Y-92636369D01*
X157722538Y-92595500D01*
X157722536Y-92595500D01*
X157577464Y-92595500D01*
X157577461Y-92595500D01*
X157438270Y-92636369D01*
X157438269Y-92636369D01*
X157316226Y-92714803D01*
X157221223Y-92824442D01*
X157221222Y-92824443D01*
X157160958Y-92956400D01*
X157160957Y-92956404D01*
X157140312Y-93100000D01*
X115500500Y-93100000D01*
X115500500Y-89737498D01*
X149161493Y-89737498D01*
X149161493Y-89737501D01*
X149179841Y-89876874D01*
X149179843Y-89876879D01*
X149233637Y-90006752D01*
X149233639Y-90006755D01*
X149319217Y-90118281D01*
X149319218Y-90118282D01*
X149430744Y-90203860D01*
X149430747Y-90203862D01*
X149512644Y-90237784D01*
X149560624Y-90257658D01*
X149630312Y-90266832D01*
X149699999Y-90276007D01*
X149700000Y-90276007D01*
X149700001Y-90276007D01*
X149746458Y-90269890D01*
X149839376Y-90257658D01*
X149969254Y-90203861D01*
X150080782Y-90118282D01*
X150166361Y-90006754D01*
X150220158Y-89876876D01*
X150238507Y-89737500D01*
X150220158Y-89598124D01*
X150166361Y-89468247D01*
X150080782Y-89356718D01*
X150080780Y-89356717D01*
X150080780Y-89356716D01*
X149969254Y-89271139D01*
X149969252Y-89271137D01*
X149839379Y-89217343D01*
X149839374Y-89217341D01*
X149700001Y-89198993D01*
X149699999Y-89198993D01*
X149560625Y-89217341D01*
X149560620Y-89217343D01*
X149430751Y-89271136D01*
X149430750Y-89271137D01*
X149319218Y-89356718D01*
X149233637Y-89468250D01*
X149233636Y-89468251D01*
X149179843Y-89598120D01*
X149179841Y-89598125D01*
X149161493Y-89737498D01*
X115500500Y-89737498D01*
X115500500Y-88237498D01*
X127661493Y-88237498D01*
X127661493Y-88237501D01*
X127679841Y-88376874D01*
X127679843Y-88376879D01*
X127733637Y-88506752D01*
X127733639Y-88506755D01*
X127819217Y-88618281D01*
X127819218Y-88618282D01*
X127930744Y-88703860D01*
X127930747Y-88703862D01*
X128012644Y-88737784D01*
X128060624Y-88757658D01*
X128130312Y-88766832D01*
X128199999Y-88776007D01*
X128200000Y-88776007D01*
X128200001Y-88776007D01*
X128246458Y-88769890D01*
X128339376Y-88757658D01*
X128469254Y-88703861D01*
X128580782Y-88618282D01*
X128666361Y-88506754D01*
X128720158Y-88376876D01*
X128738507Y-88237500D01*
X128720158Y-88098124D01*
X128666361Y-87968247D01*
X128580782Y-87856718D01*
X128580780Y-87856717D01*
X128580780Y-87856716D01*
X128469254Y-87771139D01*
X128469252Y-87771137D01*
X128339379Y-87717343D01*
X128339374Y-87717341D01*
X128200001Y-87698993D01*
X128199999Y-87698993D01*
X128060625Y-87717341D01*
X128060620Y-87717343D01*
X127930751Y-87771136D01*
X127930750Y-87771137D01*
X127819218Y-87856718D01*
X127733637Y-87968250D01*
X127733636Y-87968251D01*
X127679843Y-88098120D01*
X127679841Y-88098125D01*
X127661493Y-88237498D01*
X115500500Y-88237498D01*
X115500500Y-86999998D01*
X132061493Y-86999998D01*
X132061493Y-87000001D01*
X132079841Y-87139374D01*
X132079843Y-87139379D01*
X132133637Y-87269252D01*
X132133639Y-87269255D01*
X132219217Y-87380781D01*
X132219218Y-87380782D01*
X132330744Y-87466360D01*
X132330747Y-87466362D01*
X132372123Y-87483500D01*
X132460624Y-87520158D01*
X132530312Y-87529332D01*
X132599999Y-87538507D01*
X132600000Y-87538507D01*
X132600001Y-87538507D01*
X132646458Y-87532390D01*
X132739376Y-87520158D01*
X132869254Y-87466361D01*
X132980782Y-87380782D01*
X133066361Y-87269254D01*
X133120158Y-87139376D01*
X133138507Y-87000000D01*
X133138507Y-86999998D01*
X134461493Y-86999998D01*
X134461493Y-87000001D01*
X134479841Y-87139374D01*
X134479843Y-87139379D01*
X134533637Y-87269252D01*
X134533639Y-87269255D01*
X134619217Y-87380781D01*
X134619218Y-87380782D01*
X134730744Y-87466360D01*
X134730747Y-87466362D01*
X134772123Y-87483500D01*
X134860624Y-87520158D01*
X134930312Y-87529332D01*
X134999999Y-87538507D01*
X135000000Y-87538507D01*
X135000001Y-87538507D01*
X135046458Y-87532390D01*
X135139376Y-87520158D01*
X135269254Y-87466361D01*
X135380782Y-87380782D01*
X135466361Y-87269254D01*
X135520158Y-87139376D01*
X135538507Y-87000000D01*
X135536239Y-86982776D01*
X135524211Y-86891413D01*
X135520158Y-86860624D01*
X135466361Y-86730747D01*
X135380782Y-86619218D01*
X135380780Y-86619217D01*
X135380780Y-86619216D01*
X135269254Y-86533639D01*
X135269252Y-86533637D01*
X135139379Y-86479843D01*
X135139374Y-86479841D01*
X135000001Y-86461493D01*
X134999999Y-86461493D01*
X134860625Y-86479841D01*
X134860620Y-86479843D01*
X134730751Y-86533636D01*
X134730750Y-86533637D01*
X134730747Y-86533638D01*
X134730747Y-86533639D01*
X134619218Y-86619218D01*
X134580131Y-86670158D01*
X134533637Y-86730750D01*
X134533636Y-86730751D01*
X134479843Y-86860620D01*
X134479841Y-86860625D01*
X134461493Y-86999998D01*
X133138507Y-86999998D01*
X133136239Y-86982776D01*
X133124211Y-86891413D01*
X133120158Y-86860624D01*
X133066361Y-86730747D01*
X132980782Y-86619218D01*
X132980780Y-86619217D01*
X132980780Y-86619216D01*
X132869254Y-86533639D01*
X132869252Y-86533637D01*
X132739379Y-86479843D01*
X132739374Y-86479841D01*
X132600001Y-86461493D01*
X132599999Y-86461493D01*
X132460625Y-86479841D01*
X132460620Y-86479843D01*
X132330751Y-86533636D01*
X132330750Y-86533637D01*
X132330747Y-86533638D01*
X132330747Y-86533639D01*
X132219218Y-86619218D01*
X132180131Y-86670158D01*
X132133637Y-86730750D01*
X132133636Y-86730751D01*
X132079843Y-86860620D01*
X132079841Y-86860625D01*
X132061493Y-86999998D01*
X115500500Y-86999998D01*
X115500500Y-86399998D01*
X136061493Y-86399998D01*
X136061493Y-86400001D01*
X136079841Y-86539374D01*
X136079843Y-86539379D01*
X136133637Y-86669252D01*
X136133639Y-86669255D01*
X136219217Y-86780781D01*
X136219218Y-86780782D01*
X136330744Y-86866360D01*
X136330747Y-86866362D01*
X136409259Y-86898882D01*
X136460624Y-86920158D01*
X136530312Y-86929332D01*
X136599999Y-86938507D01*
X136600000Y-86938507D01*
X136600001Y-86938507D01*
X136646458Y-86932390D01*
X136739376Y-86920158D01*
X136790741Y-86898881D01*
X136860208Y-86891413D01*
X136922687Y-86922688D01*
X136958340Y-86982776D01*
X136961131Y-86997257D01*
X136979842Y-87139374D01*
X136979843Y-87139379D01*
X137033637Y-87269252D01*
X137033639Y-87269255D01*
X137119217Y-87380781D01*
X137119218Y-87380782D01*
X137230744Y-87466360D01*
X137230747Y-87466362D01*
X137272123Y-87483500D01*
X137360624Y-87520158D01*
X137430312Y-87529332D01*
X137499999Y-87538507D01*
X137500000Y-87538507D01*
X137500001Y-87538507D01*
X137546458Y-87532390D01*
X137639376Y-87520158D01*
X137769254Y-87466361D01*
X137880782Y-87380782D01*
X137901626Y-87353617D01*
X137958052Y-87312417D01*
X138027798Y-87308262D01*
X138088719Y-87342475D01*
X138098366Y-87353608D01*
X138119218Y-87380782D01*
X138174982Y-87423571D01*
X138230744Y-87466360D01*
X138230747Y-87466362D01*
X138272123Y-87483500D01*
X138360624Y-87520158D01*
X138430312Y-87529332D01*
X138499999Y-87538507D01*
X138500000Y-87538507D01*
X138500001Y-87538507D01*
X138546458Y-87532390D01*
X138639376Y-87520158D01*
X138769254Y-87466361D01*
X138880782Y-87380782D01*
X138966361Y-87269254D01*
X139020158Y-87139376D01*
X139038507Y-87000000D01*
X139036239Y-86982776D01*
X139024211Y-86891413D01*
X139020158Y-86860624D01*
X138966361Y-86730747D01*
X138880782Y-86619218D01*
X138880780Y-86619217D01*
X138880780Y-86619216D01*
X138769254Y-86533639D01*
X138769252Y-86533637D01*
X138639379Y-86479843D01*
X138639374Y-86479841D01*
X138500001Y-86461493D01*
X138499999Y-86461493D01*
X138360625Y-86479841D01*
X138360620Y-86479843D01*
X138230751Y-86533636D01*
X138230750Y-86533637D01*
X138230747Y-86533638D01*
X138230747Y-86533639D01*
X138217372Y-86543902D01*
X138119219Y-86619216D01*
X138111179Y-86629694D01*
X138098374Y-86646382D01*
X138041948Y-86687583D01*
X137972202Y-86691738D01*
X137911281Y-86657525D01*
X137901631Y-86646389D01*
X137880782Y-86619218D01*
X137880779Y-86619216D01*
X137880778Y-86619214D01*
X137769254Y-86533639D01*
X137769252Y-86533637D01*
X137639379Y-86479843D01*
X137639374Y-86479841D01*
X137500001Y-86461493D01*
X137499999Y-86461493D01*
X137360625Y-86479841D01*
X137360624Y-86479842D01*
X137309258Y-86501118D01*
X137239789Y-86508585D01*
X137177310Y-86477310D01*
X137141658Y-86417220D01*
X137138868Y-86402741D01*
X137120158Y-86260625D01*
X137120156Y-86260620D01*
X137074335Y-86149998D01*
X142011493Y-86149998D01*
X142011493Y-86150001D01*
X142029841Y-86289374D01*
X142029843Y-86289379D01*
X142083637Y-86419252D01*
X142083639Y-86419255D01*
X142169217Y-86530781D01*
X142169218Y-86530782D01*
X142280744Y-86616360D01*
X142280747Y-86616362D01*
X142353221Y-86646381D01*
X142410624Y-86670158D01*
X142480312Y-86679332D01*
X142549999Y-86688507D01*
X142550000Y-86688507D01*
X142550001Y-86688507D01*
X142596458Y-86682390D01*
X142689376Y-86670158D01*
X142812357Y-86619218D01*
X142819252Y-86616362D01*
X142819255Y-86616360D01*
X142930782Y-86530782D01*
X143016361Y-86419254D01*
X143016362Y-86419251D01*
X143017612Y-86417087D01*
X143019147Y-86415622D01*
X143021309Y-86412806D01*
X143021748Y-86413143D01*
X143068178Y-86368871D01*
X143136785Y-86355646D01*
X143201650Y-86381613D01*
X143228683Y-86412811D01*
X143228691Y-86412806D01*
X143228787Y-86412931D01*
X143232388Y-86417087D01*
X143233639Y-86419255D01*
X143319217Y-86530781D01*
X143319218Y-86530782D01*
X143430744Y-86616360D01*
X143430747Y-86616362D01*
X143503221Y-86646381D01*
X143560624Y-86670158D01*
X143630312Y-86679332D01*
X143699999Y-86688507D01*
X143700000Y-86688507D01*
X143700001Y-86688507D01*
X143746458Y-86682390D01*
X143839376Y-86670158D01*
X143962357Y-86619218D01*
X143969252Y-86616362D01*
X143969255Y-86616360D01*
X144080782Y-86530782D01*
X144166361Y-86419254D01*
X144167866Y-86415622D01*
X144192708Y-86355646D01*
X144220158Y-86289376D01*
X144238507Y-86150000D01*
X144235972Y-86130747D01*
X144226274Y-86057082D01*
X144220158Y-86010624D01*
X144188268Y-85933636D01*
X144166363Y-85880751D01*
X144166362Y-85880750D01*
X144166361Y-85880747D01*
X144080782Y-85769218D01*
X144080780Y-85769217D01*
X144080780Y-85769216D01*
X143969254Y-85683639D01*
X143969252Y-85683637D01*
X143839379Y-85629843D01*
X143839374Y-85629841D01*
X143700001Y-85611493D01*
X143699999Y-85611493D01*
X143560625Y-85629841D01*
X143560620Y-85629843D01*
X143430751Y-85683636D01*
X143430750Y-85683637D01*
X143319218Y-85769218D01*
X143233639Y-85880747D01*
X143232383Y-85882923D01*
X143230844Y-85884389D01*
X143228692Y-85887195D01*
X143228254Y-85886859D01*
X143181812Y-85931135D01*
X143113204Y-85944353D01*
X143048341Y-85918380D01*
X143021314Y-85887190D01*
X143021308Y-85887195D01*
X143021224Y-85887086D01*
X143017617Y-85882923D01*
X143016363Y-85880753D01*
X143016361Y-85880747D01*
X142930782Y-85769218D01*
X142930780Y-85769217D01*
X142930780Y-85769216D01*
X142819254Y-85683639D01*
X142819252Y-85683637D01*
X142689379Y-85629843D01*
X142689374Y-85629841D01*
X142550001Y-85611493D01*
X142549999Y-85611493D01*
X142410625Y-85629841D01*
X142410620Y-85629843D01*
X142280751Y-85683636D01*
X142280750Y-85683637D01*
X142280747Y-85683638D01*
X142280747Y-85683639D01*
X142169218Y-85769218D01*
X142084334Y-85879842D01*
X142083637Y-85880750D01*
X142083636Y-85880751D01*
X142029843Y-86010620D01*
X142029841Y-86010625D01*
X142011493Y-86149998D01*
X137074335Y-86149998D01*
X137066363Y-86130751D01*
X137066362Y-86130750D01*
X137066361Y-86130747D01*
X136980782Y-86019218D01*
X136980780Y-86019217D01*
X136980780Y-86019216D01*
X136869254Y-85933639D01*
X136869252Y-85933637D01*
X136739379Y-85879843D01*
X136739374Y-85879841D01*
X136600001Y-85861493D01*
X136599999Y-85861493D01*
X136460625Y-85879841D01*
X136460620Y-85879843D01*
X136330751Y-85933636D01*
X136330750Y-85933637D01*
X136330747Y-85933638D01*
X136330747Y-85933639D01*
X136230423Y-86010620D01*
X136219218Y-86019218D01*
X136133637Y-86130750D01*
X136133636Y-86130751D01*
X136079843Y-86260620D01*
X136079841Y-86260625D01*
X136061493Y-86399998D01*
X115500500Y-86399998D01*
X115500500Y-83599998D01*
X131311493Y-83599998D01*
X131311493Y-83600001D01*
X131329841Y-83739374D01*
X131329843Y-83739379D01*
X131383637Y-83869252D01*
X131383639Y-83869255D01*
X131469217Y-83980781D01*
X131469218Y-83980782D01*
X131580744Y-84066360D01*
X131580747Y-84066362D01*
X131662644Y-84100284D01*
X131710624Y-84120158D01*
X131738843Y-84123873D01*
X131849999Y-84138507D01*
X131850000Y-84138507D01*
X131850001Y-84138507D01*
X131896458Y-84132390D01*
X131989376Y-84120158D01*
X132119254Y-84066361D01*
X132230782Y-83980782D01*
X132316361Y-83869254D01*
X132370158Y-83739376D01*
X132388507Y-83600000D01*
X132388507Y-83599998D01*
X134661493Y-83599998D01*
X134661493Y-83600001D01*
X134679841Y-83739374D01*
X134679843Y-83739379D01*
X134733637Y-83869252D01*
X134733639Y-83869255D01*
X134819217Y-83980781D01*
X134819218Y-83980782D01*
X134930744Y-84066360D01*
X134930747Y-84066362D01*
X135012644Y-84100284D01*
X135060624Y-84120158D01*
X135088843Y-84123873D01*
X135199999Y-84138507D01*
X135200000Y-84138507D01*
X135200001Y-84138507D01*
X135246458Y-84132390D01*
X135339376Y-84120158D01*
X135469254Y-84066361D01*
X135580782Y-83980782D01*
X135666361Y-83869254D01*
X135720158Y-83739376D01*
X135725342Y-83699998D01*
X146761493Y-83699998D01*
X146761493Y-83700001D01*
X146779841Y-83839374D01*
X146779843Y-83839379D01*
X146833637Y-83969252D01*
X146833639Y-83969255D01*
X146919217Y-84080781D01*
X146919218Y-84080782D01*
X147030744Y-84166360D01*
X147030747Y-84166362D01*
X147112644Y-84200284D01*
X147160624Y-84220158D01*
X147230312Y-84229332D01*
X147299999Y-84238507D01*
X147300000Y-84238507D01*
X147300001Y-84238507D01*
X147346458Y-84232390D01*
X147439376Y-84220158D01*
X147569254Y-84166361D01*
X147587843Y-84152096D01*
X147653008Y-84126901D01*
X147721454Y-84140937D01*
X147771445Y-84189749D01*
X147787111Y-84257840D01*
X147772467Y-84302762D01*
X147774908Y-84303877D01*
X147710959Y-84443902D01*
X147710958Y-84443906D01*
X147690313Y-84587501D01*
X147710958Y-84731095D01*
X147710959Y-84731099D01*
X147762795Y-84844602D01*
X147771224Y-84863059D01*
X147866226Y-84972697D01*
X147866228Y-84972698D01*
X147921447Y-85008186D01*
X147967202Y-85060990D01*
X147977145Y-85130149D01*
X147948120Y-85193704D01*
X147921447Y-85216816D01*
X147866228Y-85252303D01*
X147771225Y-85361941D01*
X147771223Y-85361944D01*
X147710959Y-85493902D01*
X147710958Y-85493906D01*
X147690313Y-85637501D01*
X147710958Y-85781095D01*
X147710959Y-85781099D01*
X147762795Y-85894602D01*
X147771224Y-85913059D01*
X147866226Y-86022697D01*
X147866228Y-86022698D01*
X147921447Y-86058186D01*
X147967202Y-86110990D01*
X147977145Y-86180149D01*
X147948120Y-86243704D01*
X147921447Y-86266816D01*
X147866228Y-86302303D01*
X147771225Y-86411941D01*
X147771223Y-86411944D01*
X147710959Y-86543902D01*
X147710958Y-86543906D01*
X147690313Y-86687501D01*
X147710958Y-86831095D01*
X147710959Y-86831099D01*
X147762795Y-86944602D01*
X147771224Y-86963059D01*
X147866226Y-87072697D01*
X147866228Y-87072698D01*
X147866227Y-87072698D01*
X147988269Y-87151130D01*
X148127461Y-87191999D01*
X148127463Y-87192000D01*
X148127464Y-87192000D01*
X148272537Y-87192000D01*
X148272537Y-87191999D01*
X148411729Y-87151130D01*
X148411730Y-87151130D01*
X148430020Y-87139376D01*
X148533774Y-87072697D01*
X148628776Y-86963059D01*
X148637206Y-86944599D01*
X148682959Y-86891798D01*
X148749999Y-86872113D01*
X148817038Y-86891797D01*
X148862792Y-86944599D01*
X148871222Y-86963059D01*
X148966224Y-87072697D01*
X148966226Y-87072698D01*
X148966225Y-87072698D01*
X149088267Y-87151130D01*
X149227459Y-87191999D01*
X149227461Y-87192000D01*
X149227462Y-87192000D01*
X149372535Y-87192000D01*
X149372535Y-87191999D01*
X149511727Y-87151130D01*
X149511728Y-87151130D01*
X149530018Y-87139376D01*
X149633772Y-87072697D01*
X149728774Y-86963059D01*
X149789039Y-86831096D01*
X149809685Y-86687501D01*
X149789039Y-86543906D01*
X149789038Y-86543902D01*
X149732113Y-86419255D01*
X149728774Y-86411943D01*
X149633772Y-86302305D01*
X149578549Y-86266815D01*
X149532796Y-86214013D01*
X149522852Y-86144854D01*
X149551877Y-86081299D01*
X149578550Y-86058186D01*
X149633772Y-86022697D01*
X149728774Y-85913059D01*
X149789039Y-85781096D01*
X149809685Y-85637501D01*
X149789039Y-85493906D01*
X149789038Y-85493902D01*
X149728774Y-85361944D01*
X149728774Y-85361943D01*
X149633772Y-85252305D01*
X149578549Y-85216815D01*
X149532796Y-85164013D01*
X149522852Y-85094854D01*
X149551877Y-85031299D01*
X149578550Y-85008186D01*
X149633772Y-84972697D01*
X149728774Y-84863059D01*
X149789039Y-84731096D01*
X149809685Y-84587501D01*
X149789039Y-84443906D01*
X149789038Y-84443902D01*
X149728774Y-84311944D01*
X149728774Y-84311943D01*
X149633772Y-84202305D01*
X149633769Y-84202303D01*
X149633770Y-84202303D01*
X149511728Y-84123871D01*
X149372536Y-84083002D01*
X149372534Y-84083002D01*
X149227462Y-84083002D01*
X149227459Y-84083002D01*
X149088268Y-84123871D01*
X149088267Y-84123871D01*
X148966225Y-84202303D01*
X148871223Y-84311941D01*
X148871222Y-84311943D01*
X148871222Y-84311944D01*
X148862793Y-84330401D01*
X148817037Y-84383204D01*
X148749998Y-84402888D01*
X148682958Y-84383203D01*
X148637205Y-84330401D01*
X148628776Y-84311943D01*
X148533774Y-84202305D01*
X148533771Y-84202303D01*
X148533772Y-84202303D01*
X148411730Y-84123871D01*
X148272538Y-84083002D01*
X148272536Y-84083002D01*
X148127464Y-84083002D01*
X148127461Y-84083002D01*
X147988270Y-84123871D01*
X147988267Y-84123873D01*
X147914936Y-84170999D01*
X147847897Y-84190683D01*
X147780857Y-84170998D01*
X147735103Y-84118193D01*
X147725160Y-84049035D01*
X147749523Y-83991197D01*
X147766361Y-83969254D01*
X147820158Y-83839376D01*
X147838507Y-83700000D01*
X147820158Y-83560624D01*
X147766361Y-83430747D01*
X147680782Y-83319218D01*
X147680780Y-83319217D01*
X147680780Y-83319216D01*
X147569254Y-83233639D01*
X147569252Y-83233637D01*
X147439379Y-83179843D01*
X147439374Y-83179841D01*
X147300001Y-83161493D01*
X147299999Y-83161493D01*
X147160625Y-83179841D01*
X147160620Y-83179843D01*
X147030751Y-83233636D01*
X147030750Y-83233637D01*
X147030747Y-83233638D01*
X147030747Y-83233639D01*
X146919218Y-83319218D01*
X146880131Y-83370158D01*
X146833637Y-83430750D01*
X146833636Y-83430751D01*
X146779843Y-83560620D01*
X146779841Y-83560625D01*
X146761493Y-83699998D01*
X135725342Y-83699998D01*
X135738507Y-83600000D01*
X135720158Y-83460624D01*
X135666361Y-83330747D01*
X135580782Y-83219218D01*
X135580780Y-83219217D01*
X135580780Y-83219216D01*
X135469254Y-83133639D01*
X135469252Y-83133637D01*
X135339379Y-83079843D01*
X135339374Y-83079841D01*
X135200001Y-83061493D01*
X135199999Y-83061493D01*
X135060625Y-83079841D01*
X135060620Y-83079843D01*
X134930751Y-83133636D01*
X134930750Y-83133637D01*
X134930747Y-83133638D01*
X134930747Y-83133639D01*
X134819218Y-83219218D01*
X134742486Y-83319218D01*
X134733637Y-83330750D01*
X134733636Y-83330751D01*
X134679843Y-83460620D01*
X134679841Y-83460625D01*
X134661493Y-83599998D01*
X132388507Y-83599998D01*
X132370158Y-83460624D01*
X132316361Y-83330747D01*
X132230782Y-83219218D01*
X132230780Y-83219217D01*
X132230780Y-83219216D01*
X132119254Y-83133639D01*
X132119252Y-83133637D01*
X131989379Y-83079843D01*
X131989374Y-83079841D01*
X131850001Y-83061493D01*
X131849999Y-83061493D01*
X131710625Y-83079841D01*
X131710620Y-83079843D01*
X131580751Y-83133636D01*
X131580750Y-83133637D01*
X131580747Y-83133638D01*
X131580747Y-83133639D01*
X131469218Y-83219218D01*
X131392486Y-83319218D01*
X131383637Y-83330750D01*
X131383636Y-83330751D01*
X131329843Y-83460620D01*
X131329841Y-83460625D01*
X131311493Y-83599998D01*
X115500500Y-83599998D01*
X115500500Y-82849998D01*
X118261493Y-82849998D01*
X118261493Y-82850001D01*
X118279841Y-82989374D01*
X118279843Y-82989379D01*
X118333637Y-83119252D01*
X118333639Y-83119255D01*
X118419217Y-83230781D01*
X118419218Y-83230782D01*
X118530744Y-83316360D01*
X118530747Y-83316362D01*
X118612644Y-83350284D01*
X118660624Y-83370158D01*
X118730312Y-83379332D01*
X118799999Y-83388507D01*
X118800000Y-83388507D01*
X118800001Y-83388507D01*
X118846458Y-83382390D01*
X118939376Y-83370158D01*
X119062357Y-83319218D01*
X119069252Y-83316362D01*
X119069255Y-83316360D01*
X119180782Y-83230782D01*
X119266361Y-83119254D01*
X119320158Y-82989376D01*
X119338507Y-82850000D01*
X119320158Y-82710624D01*
X119266361Y-82580747D01*
X119180782Y-82469218D01*
X119180780Y-82469217D01*
X119180780Y-82469216D01*
X119069254Y-82383639D01*
X119069252Y-82383637D01*
X118939379Y-82329843D01*
X118939374Y-82329841D01*
X118800001Y-82311493D01*
X118799999Y-82311493D01*
X118660625Y-82329841D01*
X118660620Y-82329843D01*
X118530751Y-82383636D01*
X118530750Y-82383637D01*
X118419218Y-82469218D01*
X118333637Y-82580750D01*
X118333636Y-82580751D01*
X118279843Y-82710620D01*
X118279841Y-82710625D01*
X118261493Y-82849998D01*
X115500500Y-82849998D01*
X115500500Y-82237498D01*
X144911493Y-82237498D01*
X144911493Y-82237501D01*
X144929841Y-82376874D01*
X144929843Y-82376879D01*
X144983637Y-82506752D01*
X144983639Y-82506755D01*
X145069217Y-82618281D01*
X145069218Y-82618282D01*
X145180744Y-82703860D01*
X145180747Y-82703862D01*
X145262644Y-82737784D01*
X145310624Y-82757658D01*
X145380312Y-82766832D01*
X145449999Y-82776007D01*
X145450000Y-82776007D01*
X145450001Y-82776007D01*
X145496458Y-82769890D01*
X145589376Y-82757658D01*
X145719254Y-82703861D01*
X145830782Y-82618282D01*
X145916361Y-82506754D01*
X145970158Y-82376876D01*
X145986861Y-82250000D01*
X145988507Y-82237501D01*
X145988507Y-82237498D01*
X145970158Y-82098125D01*
X145970156Y-82098120D01*
X145916363Y-81968251D01*
X145916362Y-81968250D01*
X145916361Y-81968247D01*
X145830782Y-81856718D01*
X145830780Y-81856717D01*
X145830780Y-81856716D01*
X145719254Y-81771139D01*
X145719252Y-81771137D01*
X145589379Y-81717343D01*
X145589374Y-81717341D01*
X145450001Y-81698993D01*
X145449999Y-81698993D01*
X145310625Y-81717341D01*
X145310620Y-81717343D01*
X145180751Y-81771136D01*
X145180750Y-81771137D01*
X145180747Y-81771138D01*
X145180747Y-81771139D01*
X145069221Y-81856716D01*
X145069218Y-81856718D01*
X144983637Y-81968250D01*
X144983636Y-81968251D01*
X144929843Y-82098120D01*
X144929841Y-82098125D01*
X144911493Y-82237498D01*
X115500500Y-82237498D01*
X115500500Y-81287498D01*
X126961493Y-81287498D01*
X126961493Y-81287501D01*
X126979841Y-81426874D01*
X126979843Y-81426879D01*
X127033637Y-81556752D01*
X127033639Y-81556755D01*
X127119217Y-81668281D01*
X127119218Y-81668282D01*
X127230744Y-81753860D01*
X127230747Y-81753862D01*
X127312644Y-81787784D01*
X127360624Y-81807658D01*
X127430312Y-81816832D01*
X127499999Y-81826007D01*
X127500000Y-81826007D01*
X127500001Y-81826007D01*
X127546458Y-81819890D01*
X127639376Y-81807658D01*
X127769254Y-81753861D01*
X127880782Y-81668282D01*
X127966361Y-81556754D01*
X128020158Y-81426876D01*
X128038507Y-81287500D01*
X128020158Y-81148124D01*
X127966361Y-81018247D01*
X127880782Y-80906718D01*
X127880780Y-80906717D01*
X127880780Y-80906716D01*
X127769254Y-80821139D01*
X127769252Y-80821137D01*
X127639379Y-80767343D01*
X127639374Y-80767341D01*
X127500001Y-80748993D01*
X127499999Y-80748993D01*
X127360625Y-80767341D01*
X127360620Y-80767343D01*
X127230751Y-80821136D01*
X127230750Y-80821137D01*
X127119218Y-80906718D01*
X127033637Y-81018250D01*
X127033636Y-81018251D01*
X126979843Y-81148120D01*
X126979841Y-81148125D01*
X126961493Y-81287498D01*
X115500500Y-81287498D01*
X115500500Y-67287493D01*
X117110689Y-67287493D01*
X117110689Y-67287506D01*
X117129922Y-67740292D01*
X117187490Y-68189849D01*
X117282973Y-68632889D01*
X117282975Y-68632897D01*
X117415684Y-69066239D01*
X117415689Y-69066253D01*
X117584663Y-69486758D01*
X117584667Y-69486769D01*
X117774393Y-69863067D01*
X117788706Y-69891455D01*
X118026329Y-70277380D01*
X118295825Y-70641762D01*
X118595252Y-70981977D01*
X118922452Y-71295573D01*
X119275069Y-71580291D01*
X119650560Y-71834079D01*
X119823604Y-71930747D01*
X120046212Y-72055104D01*
X120046234Y-72055115D01*
X120459197Y-72241786D01*
X120459203Y-72241788D01*
X120886528Y-72392772D01*
X121325118Y-72506971D01*
X121771812Y-72583565D01*
X121932358Y-72597229D01*
X122223374Y-72621999D01*
X122223391Y-72621999D01*
X122223393Y-72622000D01*
X122223394Y-72622000D01*
X122676606Y-72622000D01*
X122676607Y-72622000D01*
X122676608Y-72621999D01*
X122676625Y-72621999D01*
X122927504Y-72600645D01*
X123128188Y-72583565D01*
X123574882Y-72506971D01*
X124013472Y-72392772D01*
X124440797Y-72241788D01*
X124440799Y-72241786D01*
X124440802Y-72241786D01*
X124853765Y-72055115D01*
X124853767Y-72055113D01*
X124853778Y-72055109D01*
X125249440Y-71834079D01*
X125624931Y-71580291D01*
X125977548Y-71295573D01*
X126304748Y-70981977D01*
X126604175Y-70641762D01*
X126873671Y-70277380D01*
X127111294Y-69891455D01*
X127315332Y-69486769D01*
X127484316Y-69066237D01*
X127617027Y-68632889D01*
X127712510Y-68189848D01*
X127770076Y-67740305D01*
X127789311Y-67287500D01*
X127789311Y-67287493D01*
X134660689Y-67287493D01*
X134660689Y-67287506D01*
X134679922Y-67740292D01*
X134737490Y-68189849D01*
X134832973Y-68632889D01*
X134832975Y-68632897D01*
X134965684Y-69066239D01*
X134965689Y-69066253D01*
X135134663Y-69486758D01*
X135134667Y-69486769D01*
X135324393Y-69863067D01*
X135338706Y-69891455D01*
X135576329Y-70277380D01*
X135845825Y-70641762D01*
X136145252Y-70981977D01*
X136472452Y-71295573D01*
X136825069Y-71580291D01*
X137200560Y-71834079D01*
X137373604Y-71930747D01*
X137596212Y-72055104D01*
X137596234Y-72055115D01*
X138009197Y-72241786D01*
X138009203Y-72241788D01*
X138436528Y-72392772D01*
X138875118Y-72506971D01*
X139321812Y-72583565D01*
X139482358Y-72597229D01*
X139773374Y-72621999D01*
X139773391Y-72621999D01*
X139773393Y-72622000D01*
X139773394Y-72622000D01*
X140226606Y-72622000D01*
X140226607Y-72622000D01*
X140226608Y-72621999D01*
X140226625Y-72621999D01*
X140477504Y-72600645D01*
X140678188Y-72583565D01*
X141124882Y-72506971D01*
X141563472Y-72392772D01*
X141990797Y-72241788D01*
X141990799Y-72241786D01*
X141990802Y-72241786D01*
X142083248Y-72199998D01*
X145861493Y-72199998D01*
X145861493Y-72200001D01*
X145879841Y-72339374D01*
X145879843Y-72339379D01*
X145933637Y-72469252D01*
X145933639Y-72469255D01*
X146019217Y-72580781D01*
X146019218Y-72580782D01*
X146130744Y-72666360D01*
X146130747Y-72666362D01*
X146212644Y-72700284D01*
X146260624Y-72720158D01*
X146330312Y-72729332D01*
X146399999Y-72738507D01*
X146400000Y-72738507D01*
X146400001Y-72738507D01*
X146446458Y-72732390D01*
X146539376Y-72720158D01*
X146669254Y-72666361D01*
X146780782Y-72580782D01*
X146866361Y-72469254D01*
X146920158Y-72339376D01*
X146938507Y-72200000D01*
X146920158Y-72060624D01*
X146866361Y-71930747D01*
X146780782Y-71819218D01*
X146780780Y-71819217D01*
X146780780Y-71819216D01*
X146669254Y-71733639D01*
X146669252Y-71733637D01*
X146539379Y-71679843D01*
X146539374Y-71679841D01*
X146400001Y-71661493D01*
X146399999Y-71661493D01*
X146260625Y-71679841D01*
X146260620Y-71679843D01*
X146130751Y-71733636D01*
X146130750Y-71733637D01*
X146019218Y-71819218D01*
X145933637Y-71930750D01*
X145933636Y-71930751D01*
X145879843Y-72060620D01*
X145879841Y-72060625D01*
X145861493Y-72199998D01*
X142083248Y-72199998D01*
X142403765Y-72055115D01*
X142403767Y-72055113D01*
X142403778Y-72055109D01*
X142799440Y-71834079D01*
X143174931Y-71580291D01*
X143527548Y-71295573D01*
X143854748Y-70981977D01*
X144154175Y-70641762D01*
X144423671Y-70277380D01*
X144661294Y-69891455D01*
X144865332Y-69486769D01*
X145034316Y-69066237D01*
X145167027Y-68632889D01*
X145262510Y-68189848D01*
X145320076Y-67740305D01*
X145339311Y-67287500D01*
X145320076Y-66834695D01*
X145262510Y-66385152D01*
X145167027Y-65942111D01*
X145034316Y-65508763D01*
X145034315Y-65508760D01*
X145034310Y-65508746D01*
X144865336Y-65088241D01*
X144865332Y-65088230D01*
X144769674Y-64898504D01*
X144661294Y-64683545D01*
X144423671Y-64297620D01*
X144154175Y-63933238D01*
X144026526Y-63788201D01*
X143854749Y-63593024D01*
X143854748Y-63593023D01*
X143527550Y-63279429D01*
X143527548Y-63279427D01*
X143174931Y-62994709D01*
X142799440Y-62740921D01*
X142789046Y-62735115D01*
X142403787Y-62519895D01*
X142403765Y-62519884D01*
X142387270Y-62512428D01*
X149275500Y-62512428D01*
X149275500Y-64262563D01*
X149290266Y-64336801D01*
X149346515Y-64420984D01*
X149380234Y-64443514D01*
X149430699Y-64477234D01*
X149430702Y-64477234D01*
X149430703Y-64477235D01*
X149455666Y-64482200D01*
X149504933Y-64492000D01*
X151255066Y-64491999D01*
X151329301Y-64477234D01*
X151413484Y-64420984D01*
X151469734Y-64336801D01*
X151484500Y-64262567D01*
X151484499Y-63387499D01*
X151810768Y-63387499D01*
X151810768Y-63387500D01*
X151829654Y-63591316D01*
X151829654Y-63591318D01*
X151829655Y-63591321D01*
X151830140Y-63593024D01*
X151885673Y-63788204D01*
X151976912Y-63971435D01*
X152100269Y-64134787D01*
X152251537Y-64272685D01*
X152251539Y-64272687D01*
X152425569Y-64380442D01*
X152425575Y-64380445D01*
X152466010Y-64396109D01*
X152616444Y-64454388D01*
X152817653Y-64492000D01*
X152817656Y-64492000D01*
X153022344Y-64492000D01*
X153022347Y-64492000D01*
X153223556Y-64454388D01*
X153414427Y-64380444D01*
X153588462Y-64272686D01*
X153739732Y-64134785D01*
X153863088Y-63971435D01*
X153954328Y-63788201D01*
X154010345Y-63591321D01*
X154029232Y-63387500D01*
X154029232Y-63387499D01*
X154350768Y-63387499D01*
X154350768Y-63387500D01*
X154369654Y-63591316D01*
X154369654Y-63591318D01*
X154369655Y-63591321D01*
X154370140Y-63593024D01*
X154425673Y-63788204D01*
X154516912Y-63971435D01*
X154640269Y-64134787D01*
X154791537Y-64272685D01*
X154791539Y-64272687D01*
X154965569Y-64380442D01*
X154965575Y-64380445D01*
X155006010Y-64396109D01*
X155156444Y-64454388D01*
X155357653Y-64492000D01*
X155357656Y-64492000D01*
X155562344Y-64492000D01*
X155562347Y-64492000D01*
X155763556Y-64454388D01*
X155954427Y-64380444D01*
X156128462Y-64272686D01*
X156279732Y-64134785D01*
X156403088Y-63971435D01*
X156494328Y-63788201D01*
X156550345Y-63591321D01*
X156569232Y-63387500D01*
X156569232Y-63387499D01*
X156890768Y-63387499D01*
X156890768Y-63387500D01*
X156909654Y-63591316D01*
X156909654Y-63591318D01*
X156909655Y-63591321D01*
X156910140Y-63593024D01*
X156965673Y-63788204D01*
X157056912Y-63971435D01*
X157180269Y-64134787D01*
X157331537Y-64272685D01*
X157331539Y-64272687D01*
X157505569Y-64380442D01*
X157505575Y-64380445D01*
X157546010Y-64396109D01*
X157696444Y-64454388D01*
X157897653Y-64492000D01*
X157897656Y-64492000D01*
X158102344Y-64492000D01*
X158102347Y-64492000D01*
X158303556Y-64454388D01*
X158494427Y-64380444D01*
X158668462Y-64272686D01*
X158819732Y-64134785D01*
X158943088Y-63971435D01*
X159034328Y-63788201D01*
X159090345Y-63591321D01*
X159109232Y-63387500D01*
X159109232Y-63387499D01*
X159430768Y-63387499D01*
X159430768Y-63387500D01*
X159449654Y-63591316D01*
X159449654Y-63591318D01*
X159449655Y-63591321D01*
X159450140Y-63593024D01*
X159505673Y-63788204D01*
X159596912Y-63971435D01*
X159720269Y-64134787D01*
X159871537Y-64272685D01*
X159871539Y-64272687D01*
X160045569Y-64380442D01*
X160045575Y-64380445D01*
X160086010Y-64396109D01*
X160236444Y-64454388D01*
X160437653Y-64492000D01*
X160437656Y-64492000D01*
X160642344Y-64492000D01*
X160642347Y-64492000D01*
X160843556Y-64454388D01*
X161034427Y-64380444D01*
X161208462Y-64272686D01*
X161359732Y-64134785D01*
X161483088Y-63971435D01*
X161574328Y-63788201D01*
X161630345Y-63591321D01*
X161649232Y-63387500D01*
X161630345Y-63183679D01*
X161574328Y-62986799D01*
X161483088Y-62803565D01*
X161359732Y-62640215D01*
X161359730Y-62640212D01*
X161208462Y-62502314D01*
X161208460Y-62502312D01*
X161034430Y-62394557D01*
X161034424Y-62394554D01*
X160876078Y-62333211D01*
X160843556Y-62320612D01*
X160642347Y-62283000D01*
X160437653Y-62283000D01*
X160236444Y-62320612D01*
X160236441Y-62320612D01*
X160236441Y-62320613D01*
X160045575Y-62394554D01*
X160045569Y-62394557D01*
X159871539Y-62502312D01*
X159871537Y-62502314D01*
X159720269Y-62640212D01*
X159596912Y-62803564D01*
X159505673Y-62986795D01*
X159449654Y-63183683D01*
X159430768Y-63387499D01*
X159109232Y-63387499D01*
X159090345Y-63183679D01*
X159034328Y-62986799D01*
X158943088Y-62803565D01*
X158819732Y-62640215D01*
X158819730Y-62640212D01*
X158668462Y-62502314D01*
X158668460Y-62502312D01*
X158494430Y-62394557D01*
X158494424Y-62394554D01*
X158336078Y-62333211D01*
X158303556Y-62320612D01*
X158102347Y-62283000D01*
X157897653Y-62283000D01*
X157696444Y-62320612D01*
X157696441Y-62320612D01*
X157696441Y-62320613D01*
X157505575Y-62394554D01*
X157505569Y-62394557D01*
X157331539Y-62502312D01*
X157331537Y-62502314D01*
X157180269Y-62640212D01*
X157056912Y-62803564D01*
X156965673Y-62986795D01*
X156909654Y-63183683D01*
X156890768Y-63387499D01*
X156569232Y-63387499D01*
X156550345Y-63183679D01*
X156494328Y-62986799D01*
X156403088Y-62803565D01*
X156279732Y-62640215D01*
X156279730Y-62640212D01*
X156128462Y-62502314D01*
X156128460Y-62502312D01*
X155954430Y-62394557D01*
X155954424Y-62394554D01*
X155796078Y-62333211D01*
X155763556Y-62320612D01*
X155562347Y-62283000D01*
X155357653Y-62283000D01*
X155156444Y-62320612D01*
X155156441Y-62320612D01*
X155156441Y-62320613D01*
X154965575Y-62394554D01*
X154965569Y-62394557D01*
X154791539Y-62502312D01*
X154791537Y-62502314D01*
X154640269Y-62640212D01*
X154516912Y-62803564D01*
X154425673Y-62986795D01*
X154369654Y-63183683D01*
X154350768Y-63387499D01*
X154029232Y-63387499D01*
X154010345Y-63183679D01*
X153954328Y-62986799D01*
X153863088Y-62803565D01*
X153739732Y-62640215D01*
X153739730Y-62640212D01*
X153588462Y-62502314D01*
X153588460Y-62502312D01*
X153414430Y-62394557D01*
X153414424Y-62394554D01*
X153256078Y-62333211D01*
X153223556Y-62320612D01*
X153022347Y-62283000D01*
X152817653Y-62283000D01*
X152616444Y-62320612D01*
X152616441Y-62320612D01*
X152616441Y-62320613D01*
X152425575Y-62394554D01*
X152425569Y-62394557D01*
X152251539Y-62502312D01*
X152251537Y-62502314D01*
X152100269Y-62640212D01*
X151976912Y-62803564D01*
X151885673Y-62986795D01*
X151829654Y-63183683D01*
X151810768Y-63387499D01*
X151484499Y-63387499D01*
X151484499Y-62512434D01*
X151469734Y-62438199D01*
X151440571Y-62394554D01*
X151413484Y-62354015D01*
X151363019Y-62320296D01*
X151329301Y-62297766D01*
X151329299Y-62297765D01*
X151329296Y-62297764D01*
X151255069Y-62283000D01*
X149504936Y-62283000D01*
X149430698Y-62297766D01*
X149346515Y-62354015D01*
X149290266Y-62438199D01*
X149290264Y-62438203D01*
X149275500Y-62512428D01*
X142387270Y-62512428D01*
X141990802Y-62333213D01*
X141990796Y-62333211D01*
X141563467Y-62182226D01*
X141124880Y-62068028D01*
X140678191Y-61991435D01*
X140678183Y-61991434D01*
X140226625Y-61953000D01*
X140226607Y-61953000D01*
X139773393Y-61953000D01*
X139773374Y-61953000D01*
X139321816Y-61991434D01*
X139321808Y-61991435D01*
X138875119Y-62068028D01*
X138436532Y-62182226D01*
X138009203Y-62333211D01*
X138009197Y-62333213D01*
X137596234Y-62519884D01*
X137596212Y-62519895D01*
X137200568Y-62740916D01*
X137200549Y-62740928D01*
X136825074Y-62994705D01*
X136472449Y-63279429D01*
X136145251Y-63593023D01*
X136145250Y-63593024D01*
X135845836Y-63933224D01*
X135845829Y-63933233D01*
X135845825Y-63933238D01*
X135817575Y-63971435D01*
X135576328Y-64297621D01*
X135338707Y-64683542D01*
X135338697Y-64683562D01*
X135134667Y-65088230D01*
X135134663Y-65088241D01*
X134965689Y-65508746D01*
X134965684Y-65508760D01*
X134832975Y-65942102D01*
X134832973Y-65942110D01*
X134737490Y-66385150D01*
X134679922Y-66834707D01*
X134660689Y-67287493D01*
X127789311Y-67287493D01*
X127770076Y-66834695D01*
X127712510Y-66385152D01*
X127617027Y-65942111D01*
X127484316Y-65508763D01*
X127484315Y-65508760D01*
X127484310Y-65508746D01*
X127315336Y-65088241D01*
X127315332Y-65088230D01*
X127219674Y-64898504D01*
X127111294Y-64683545D01*
X126873671Y-64297620D01*
X126604175Y-63933238D01*
X126476526Y-63788201D01*
X126304749Y-63593024D01*
X126304748Y-63593023D01*
X125977550Y-63279429D01*
X125977548Y-63279427D01*
X125624931Y-62994709D01*
X125249440Y-62740921D01*
X125239046Y-62735115D01*
X124853787Y-62519895D01*
X124853765Y-62519884D01*
X124440802Y-62333213D01*
X124440796Y-62333211D01*
X124013467Y-62182226D01*
X123574880Y-62068028D01*
X123128191Y-61991435D01*
X123128183Y-61991434D01*
X122676625Y-61953000D01*
X122676607Y-61953000D01*
X122223393Y-61953000D01*
X122223374Y-61953000D01*
X121771816Y-61991434D01*
X121771808Y-61991435D01*
X121325119Y-62068028D01*
X120886532Y-62182226D01*
X120459203Y-62333211D01*
X120459197Y-62333213D01*
X120046234Y-62519884D01*
X120046212Y-62519895D01*
X119650568Y-62740916D01*
X119650549Y-62740928D01*
X119275074Y-62994705D01*
X118922449Y-63279429D01*
X118595251Y-63593023D01*
X118595250Y-63593024D01*
X118295836Y-63933224D01*
X118295829Y-63933233D01*
X118295825Y-63933238D01*
X118267575Y-63971435D01*
X118026328Y-64297621D01*
X117788707Y-64683542D01*
X117788697Y-64683562D01*
X117584667Y-65088230D01*
X117584663Y-65088241D01*
X117415689Y-65508746D01*
X117415684Y-65508760D01*
X117282975Y-65942102D01*
X117282973Y-65942110D01*
X117187490Y-66385150D01*
X117129922Y-66834707D01*
X117110689Y-67287493D01*
X115500500Y-67287493D01*
X115500500Y-60124500D01*
X115520185Y-60057461D01*
X115572989Y-60011706D01*
X115624500Y-60000500D01*
X168425500Y-60000500D01*
X168492539Y-60020185D01*
G37*
%TD.AperFunction*%
%TD*%
M02*
