%TF.GenerationSoftware,KiCad,Pcbnew,9.0.7*%
%TF.CreationDate,2026-04-25T12:32:43-07:00*%
%TF.ProjectId,Microcontroller,4d696372-6f63-46f6-9e74-726f6c6c6572,rev?*%
%TF.SameCoordinates,Original*%
%TF.FileFunction,Copper,L2,Inr*%
%TF.FilePolarity,Positive*%
%FSLAX46Y46*%
G04 Gerber Fmt 4.6, Leading zero omitted, Abs format (unit mm)*
G04 Created by KiCad (PCBNEW 9.0.7) date 2026-04-25 12:32:43*
%MOMM*%
%LPD*%
G01*
G04 APERTURE LIST*
%TA.AperFunction,ComponentPad*%
%ADD10R,1.350000X1.350000*%
%TD*%
%TA.AperFunction,ComponentPad*%
%ADD11C,1.350000*%
%TD*%
%TA.AperFunction,ComponentPad*%
%ADD12R,1.530000X1.530000*%
%TD*%
%TA.AperFunction,ComponentPad*%
%ADD13C,1.530000*%
%TD*%
%TA.AperFunction,ViaPad*%
%ADD14C,0.600000*%
%TD*%
%TA.AperFunction,Conductor*%
%ADD15C,0.200000*%
%TD*%
G04 APERTURE END LIST*
D10*
%TO.N,/CANH*%
%TO.C,J4*%
X38500000Y-40750000D03*
D11*
%TO.N,/CANL*%
X40500000Y-40750000D03*
%TD*%
D12*
%TO.N,Net-(J2-Pin_1)*%
%TO.C,U2*%
X101567700Y-41522000D03*
D13*
%TO.N,Net-(J2-Pin_2)*%
X101567700Y-44062000D03*
%TO.N,Net-(J2-Pin_3)*%
X101567700Y-46602000D03*
%TO.N,Net-(J2-Pin_4)*%
X101567700Y-49142000D03*
%TO.N,Net-(J2-Pin_5)*%
X101567700Y-51682000D03*
%TO.N,Net-(J2-Pin_6)*%
X101567700Y-54222000D03*
%TO.N,Net-(J2-Pin_7)*%
X101567700Y-56762000D03*
%TO.N,Net-(J2-Pin_8)*%
X101567700Y-59302000D03*
%TO.N,Net-(J2-Pin_9)*%
X101567700Y-61842000D03*
%TO.N,Net-(J2-Pin_10)*%
X101567700Y-64382000D03*
%TO.N,Net-(J2-Pin_11)*%
X101567700Y-66922000D03*
%TO.N,Net-(J2-Pin_12)*%
X101567700Y-69462000D03*
%TO.N,Net-(J2-Pin_13)*%
X101567700Y-72002000D03*
%TO.N,Net-(J2-Pin_14)*%
X101567700Y-74542000D03*
%TO.N,Net-(J2-Pin_15)*%
X101567700Y-77082000D03*
%TO.N,Net-(J2-Pin_16)*%
X101567700Y-79622000D03*
%TO.N,Net-(J2-Pin_17)*%
X101567700Y-82162000D03*
%TO.N,Net-(J2-Pin_18)*%
X101567700Y-84702000D03*
%TO.N,5.3V OUT*%
X101567700Y-87242000D03*
%TO.N,Net-(J3-Pin_19)*%
X126967700Y-87242000D03*
%TO.N,Net-(J3-Pin_18)*%
X126967700Y-84702000D03*
%TO.N,Net-(J3-Pin_17)*%
X126967700Y-82162000D03*
%TO.N,Net-(J3-Pin_16)*%
X126967700Y-79622000D03*
%TO.N,Net-(J3-Pin_15)*%
X126967700Y-77082000D03*
%TO.N,Net-(J3-Pin_14)*%
X126967700Y-74542000D03*
%TO.N,Net-(J3-Pin_13)*%
X126967700Y-72002000D03*
%TO.N,Net-(J3-Pin_12)*%
X126967700Y-69462000D03*
%TO.N,Net-(J3-Pin_11)*%
X126967700Y-66922000D03*
%TO.N,Net-(J3-Pin_10)*%
X126967700Y-64382000D03*
%TO.N,Net-(J3-Pin_9)*%
X126967700Y-61842000D03*
%TO.N,Net-(J3-Pin_8)*%
X126967700Y-59302000D03*
%TO.N,GND*%
X126967700Y-56762000D03*
%TO.N,Net-(J3-Pin_6)*%
X126967700Y-54222000D03*
%TO.N,Net-(J3-Pin_5)*%
X126967700Y-51682000D03*
%TO.N,Net-(J3-Pin_4)*%
X126967700Y-49142000D03*
%TO.N,Net-(J3-Pin_3)*%
X126967700Y-46602000D03*
%TO.N,Net-(J3-Pin_2)*%
X126967700Y-44062000D03*
%TO.N,GND*%
X126967700Y-41522000D03*
%TD*%
D10*
%TO.N,/24V*%
%TO.C,J1*%
X38500000Y-33500000D03*
D11*
%TO.N,GND*%
X40500000Y-33500000D03*
%TD*%
D14*
%TO.N,GND*%
X90500000Y-36750000D03*
X54000000Y-33250000D03*
X54250000Y-37750000D03*
X46750000Y-61500000D03*
X70250000Y-100500000D03*
X70250000Y-84750000D03*
X127000000Y-36500000D03*
X68250000Y-38750000D03*
X40250000Y-81000000D03*
X70500000Y-52000000D03*
%TO.N,Net-(U1-MISO)*%
X38250000Y-95250000D03*
X80000000Y-90000000D03*
%TO.N,Net-(U1-NSS)*%
X65750000Y-121250000D03*
X80000000Y-102500000D03*
%TO.N,Net-(J3-Pin_2)*%
X97500000Y-57500000D03*
%TO.N,Net-(J3-Pin_9)*%
X87500000Y-95000000D03*
%TO.N,Net-(J3-Pin_11)*%
X72500000Y-57500000D03*
%TO.N,Net-(J2-Pin_5)*%
X37550000Y-87500000D03*
X85000000Y-65000000D03*
%TO.N,Net-(J2-Pin_6)*%
X80250000Y-59500000D03*
%TO.N,Net-(J2-Pin_15)*%
X92500000Y-75000000D03*
X37750000Y-92750000D03*
X85000000Y-112500000D03*
%TO.N,Net-(J3-Pin_8)*%
X87500000Y-90000000D03*
%TO.N,Net-(U1-MOSI)*%
X67500000Y-117500000D03*
X69000000Y-115000000D03*
%TO.N,Net-(U1-SCK)*%
X80000000Y-95000000D03*
X66750000Y-118500000D03*
%TO.N,5.3V OUT*%
X100000000Y-95000000D03*
X89500000Y-32750000D03*
X70250000Y-87500000D03*
X77000000Y-51250000D03*
%TO.N,Net-(U3-FB)*%
X85000000Y-35000000D03*
X62500000Y-35000000D03*
%TD*%
D15*
%TO.N,5.3V OUT*%
X77000000Y-51250000D02*
X96500000Y-70750000D01*
X90250000Y-85250000D02*
X92500000Y-87500000D01*
X72500000Y-85250000D02*
X90250000Y-85250000D01*
X96500000Y-70750000D02*
X96500000Y-83500000D01*
X89500000Y-38750000D02*
X77000000Y-51250000D01*
X70250000Y-87500000D02*
X72500000Y-85250000D01*
X92500000Y-87500000D02*
X100000000Y-95000000D01*
X89500000Y-32750000D02*
X89500000Y-38750000D01*
X96500000Y-83500000D02*
X92500000Y-87500000D01*
%TD*%
%TA.AperFunction,Conductor*%
%TO.N,5.3V OUT*%
G36*
X134951739Y-25208985D02*
G01*
X134997494Y-25261789D01*
X135008700Y-25313300D01*
X135008700Y-124064300D01*
X134989015Y-124131339D01*
X134936211Y-124177094D01*
X134884700Y-124188300D01*
X36133700Y-124188300D01*
X36066661Y-124168615D01*
X36020906Y-124115811D01*
X36009700Y-124064300D01*
X36009700Y-121171153D01*
X64949500Y-121171153D01*
X64949500Y-121328846D01*
X64980261Y-121483489D01*
X64980264Y-121483501D01*
X65040602Y-121629172D01*
X65040609Y-121629185D01*
X65128210Y-121760288D01*
X65128213Y-121760292D01*
X65239707Y-121871786D01*
X65239711Y-121871789D01*
X65370814Y-121959390D01*
X65370827Y-121959397D01*
X65516498Y-122019735D01*
X65516503Y-122019737D01*
X65671153Y-122050499D01*
X65671156Y-122050500D01*
X65671158Y-122050500D01*
X65828844Y-122050500D01*
X65828845Y-122050499D01*
X65983497Y-122019737D01*
X66129179Y-121959394D01*
X66260289Y-121871789D01*
X66371789Y-121760289D01*
X66459394Y-121629179D01*
X66519737Y-121483497D01*
X66550500Y-121328842D01*
X66550500Y-121171158D01*
X66550500Y-121171155D01*
X66550499Y-121171153D01*
X66519738Y-121016510D01*
X66519737Y-121016503D01*
X66519735Y-121016498D01*
X66459397Y-120870827D01*
X66459390Y-120870814D01*
X66371789Y-120739711D01*
X66371786Y-120739707D01*
X66260292Y-120628213D01*
X66260288Y-120628210D01*
X66129185Y-120540609D01*
X66129172Y-120540602D01*
X65983501Y-120480264D01*
X65983489Y-120480261D01*
X65828845Y-120449500D01*
X65828842Y-120449500D01*
X65671158Y-120449500D01*
X65671155Y-120449500D01*
X65516510Y-120480261D01*
X65516498Y-120480264D01*
X65370827Y-120540602D01*
X65370814Y-120540609D01*
X65239711Y-120628210D01*
X65239707Y-120628213D01*
X65128213Y-120739707D01*
X65128210Y-120739711D01*
X65040609Y-120870814D01*
X65040602Y-120870827D01*
X64980264Y-121016498D01*
X64980261Y-121016510D01*
X64949500Y-121171153D01*
X36009700Y-121171153D01*
X36009700Y-118421153D01*
X65949500Y-118421153D01*
X65949500Y-118578846D01*
X65980261Y-118733489D01*
X65980264Y-118733501D01*
X66040602Y-118879172D01*
X66040609Y-118879185D01*
X66128210Y-119010288D01*
X66128213Y-119010292D01*
X66239707Y-119121786D01*
X66239711Y-119121789D01*
X66370814Y-119209390D01*
X66370827Y-119209397D01*
X66516498Y-119269735D01*
X66516503Y-119269737D01*
X66671153Y-119300499D01*
X66671156Y-119300500D01*
X66671158Y-119300500D01*
X66828844Y-119300500D01*
X66828845Y-119300499D01*
X66983497Y-119269737D01*
X67129179Y-119209394D01*
X67260289Y-119121789D01*
X67371789Y-119010289D01*
X67459394Y-118879179D01*
X67519737Y-118733497D01*
X67550500Y-118578842D01*
X67550500Y-118421158D01*
X67550500Y-118421155D01*
X67550405Y-118420191D01*
X67550500Y-118419690D01*
X67550500Y-118415066D01*
X67551377Y-118415066D01*
X67563425Y-118351546D01*
X67611490Y-118300836D01*
X67649617Y-118286422D01*
X67663560Y-118283648D01*
X67733497Y-118269737D01*
X67879179Y-118209394D01*
X68010289Y-118121789D01*
X68121789Y-118010289D01*
X68209394Y-117879179D01*
X68269737Y-117733497D01*
X68300500Y-117578842D01*
X68300500Y-117421158D01*
X68300500Y-117421155D01*
X68300499Y-117421153D01*
X68269738Y-117266510D01*
X68269737Y-117266503D01*
X68269735Y-117266498D01*
X68209397Y-117120827D01*
X68209390Y-117120814D01*
X68121789Y-116989711D01*
X68121786Y-116989707D01*
X68010292Y-116878213D01*
X68010288Y-116878210D01*
X67879185Y-116790609D01*
X67879172Y-116790602D01*
X67733501Y-116730264D01*
X67733489Y-116730261D01*
X67578845Y-116699500D01*
X67578842Y-116699500D01*
X67421158Y-116699500D01*
X67421155Y-116699500D01*
X67266510Y-116730261D01*
X67266498Y-116730264D01*
X67120827Y-116790602D01*
X67120814Y-116790609D01*
X66989711Y-116878210D01*
X66989707Y-116878213D01*
X66878213Y-116989707D01*
X66878210Y-116989711D01*
X66790609Y-117120814D01*
X66790602Y-117120827D01*
X66730264Y-117266498D01*
X66730261Y-117266510D01*
X66699500Y-117421153D01*
X66699500Y-117578846D01*
X66699596Y-117579823D01*
X66699500Y-117580328D01*
X66699500Y-117584934D01*
X66698626Y-117584934D01*
X66686567Y-117648468D01*
X66638495Y-117699171D01*
X66600383Y-117713577D01*
X66516508Y-117730261D01*
X66516498Y-117730264D01*
X66370827Y-117790602D01*
X66370814Y-117790609D01*
X66239711Y-117878210D01*
X66239707Y-117878213D01*
X66128213Y-117989707D01*
X66128210Y-117989711D01*
X66040609Y-118120814D01*
X66040602Y-118120827D01*
X65980264Y-118266498D01*
X65980261Y-118266510D01*
X65949500Y-118421153D01*
X36009700Y-118421153D01*
X36009700Y-114921153D01*
X68199500Y-114921153D01*
X68199500Y-115078846D01*
X68230261Y-115233489D01*
X68230264Y-115233501D01*
X68290602Y-115379172D01*
X68290609Y-115379185D01*
X68378210Y-115510288D01*
X68378213Y-115510292D01*
X68489707Y-115621786D01*
X68489711Y-115621789D01*
X68620814Y-115709390D01*
X68620827Y-115709397D01*
X68766498Y-115769735D01*
X68766503Y-115769737D01*
X68921153Y-115800499D01*
X68921156Y-115800500D01*
X68921158Y-115800500D01*
X69078844Y-115800500D01*
X69078845Y-115800499D01*
X69233497Y-115769737D01*
X69379179Y-115709394D01*
X69510289Y-115621789D01*
X69621789Y-115510289D01*
X69709394Y-115379179D01*
X69769737Y-115233497D01*
X69800500Y-115078842D01*
X69800500Y-114921158D01*
X69800500Y-114921155D01*
X69800499Y-114921153D01*
X69769738Y-114766510D01*
X69769737Y-114766503D01*
X69769735Y-114766498D01*
X69709397Y-114620827D01*
X69709390Y-114620814D01*
X69621789Y-114489711D01*
X69621786Y-114489707D01*
X69510292Y-114378213D01*
X69510288Y-114378210D01*
X69379185Y-114290609D01*
X69379172Y-114290602D01*
X69233501Y-114230264D01*
X69233489Y-114230261D01*
X69078845Y-114199500D01*
X69078842Y-114199500D01*
X68921158Y-114199500D01*
X68921155Y-114199500D01*
X68766510Y-114230261D01*
X68766498Y-114230264D01*
X68620827Y-114290602D01*
X68620814Y-114290609D01*
X68489711Y-114378210D01*
X68489707Y-114378213D01*
X68378213Y-114489707D01*
X68378210Y-114489711D01*
X68290609Y-114620814D01*
X68290602Y-114620827D01*
X68230264Y-114766498D01*
X68230261Y-114766510D01*
X68199500Y-114921153D01*
X36009700Y-114921153D01*
X36009700Y-112421153D01*
X84199500Y-112421153D01*
X84199500Y-112578846D01*
X84230261Y-112733489D01*
X84230264Y-112733501D01*
X84290602Y-112879172D01*
X84290609Y-112879185D01*
X84378210Y-113010288D01*
X84378213Y-113010292D01*
X84489707Y-113121786D01*
X84489711Y-113121789D01*
X84620814Y-113209390D01*
X84620827Y-113209397D01*
X84766498Y-113269735D01*
X84766503Y-113269737D01*
X84921153Y-113300499D01*
X84921156Y-113300500D01*
X84921158Y-113300500D01*
X85078844Y-113300500D01*
X85078845Y-113300499D01*
X85233497Y-113269737D01*
X85379179Y-113209394D01*
X85510289Y-113121789D01*
X85621789Y-113010289D01*
X85709394Y-112879179D01*
X85769737Y-112733497D01*
X85800500Y-112578842D01*
X85800500Y-112421158D01*
X85800500Y-112421155D01*
X85800499Y-112421153D01*
X85769738Y-112266510D01*
X85769737Y-112266503D01*
X85769735Y-112266498D01*
X85709397Y-112120827D01*
X85709390Y-112120814D01*
X85621789Y-111989711D01*
X85621786Y-111989707D01*
X85510292Y-111878213D01*
X85510288Y-111878210D01*
X85379185Y-111790609D01*
X85379172Y-111790602D01*
X85233501Y-111730264D01*
X85233489Y-111730261D01*
X85078845Y-111699500D01*
X85078842Y-111699500D01*
X84921158Y-111699500D01*
X84921155Y-111699500D01*
X84766510Y-111730261D01*
X84766498Y-111730264D01*
X84620827Y-111790602D01*
X84620814Y-111790609D01*
X84489711Y-111878210D01*
X84489707Y-111878213D01*
X84378213Y-111989707D01*
X84378210Y-111989711D01*
X84290609Y-112120814D01*
X84290602Y-112120827D01*
X84230264Y-112266498D01*
X84230261Y-112266510D01*
X84199500Y-112421153D01*
X36009700Y-112421153D01*
X36009700Y-102421153D01*
X79199500Y-102421153D01*
X79199500Y-102578846D01*
X79230261Y-102733489D01*
X79230264Y-102733501D01*
X79290602Y-102879172D01*
X79290609Y-102879185D01*
X79378210Y-103010288D01*
X79378213Y-103010292D01*
X79489707Y-103121786D01*
X79489711Y-103121789D01*
X79620814Y-103209390D01*
X79620827Y-103209397D01*
X79766498Y-103269735D01*
X79766503Y-103269737D01*
X79921153Y-103300499D01*
X79921156Y-103300500D01*
X79921158Y-103300500D01*
X80078844Y-103300500D01*
X80078845Y-103300499D01*
X80233497Y-103269737D01*
X80379179Y-103209394D01*
X80510289Y-103121789D01*
X80621789Y-103010289D01*
X80709394Y-102879179D01*
X80769737Y-102733497D01*
X80800500Y-102578842D01*
X80800500Y-102421158D01*
X80800500Y-102421155D01*
X80800499Y-102421153D01*
X80769738Y-102266510D01*
X80769737Y-102266503D01*
X80769735Y-102266498D01*
X80709397Y-102120827D01*
X80709390Y-102120814D01*
X80621789Y-101989711D01*
X80621786Y-101989707D01*
X80510292Y-101878213D01*
X80510288Y-101878210D01*
X80379185Y-101790609D01*
X80379172Y-101790602D01*
X80233501Y-101730264D01*
X80233489Y-101730261D01*
X80078845Y-101699500D01*
X80078842Y-101699500D01*
X79921158Y-101699500D01*
X79921155Y-101699500D01*
X79766510Y-101730261D01*
X79766498Y-101730264D01*
X79620827Y-101790602D01*
X79620814Y-101790609D01*
X79489711Y-101878210D01*
X79489707Y-101878213D01*
X79378213Y-101989707D01*
X79378210Y-101989711D01*
X79290609Y-102120814D01*
X79290602Y-102120827D01*
X79230264Y-102266498D01*
X79230261Y-102266510D01*
X79199500Y-102421153D01*
X36009700Y-102421153D01*
X36009700Y-100421153D01*
X69449500Y-100421153D01*
X69449500Y-100578846D01*
X69480261Y-100733489D01*
X69480264Y-100733501D01*
X69540602Y-100879172D01*
X69540609Y-100879185D01*
X69628210Y-101010288D01*
X69628213Y-101010292D01*
X69739707Y-101121786D01*
X69739711Y-101121789D01*
X69870814Y-101209390D01*
X69870827Y-101209397D01*
X70016498Y-101269735D01*
X70016503Y-101269737D01*
X70171153Y-101300499D01*
X70171156Y-101300500D01*
X70171158Y-101300500D01*
X70328844Y-101300500D01*
X70328845Y-101300499D01*
X70483497Y-101269737D01*
X70629179Y-101209394D01*
X70760289Y-101121789D01*
X70871789Y-101010289D01*
X70959394Y-100879179D01*
X71019737Y-100733497D01*
X71050500Y-100578842D01*
X71050500Y-100421158D01*
X71050500Y-100421155D01*
X71050499Y-100421153D01*
X71019738Y-100266510D01*
X71019737Y-100266503D01*
X71019735Y-100266498D01*
X70959397Y-100120827D01*
X70959390Y-100120814D01*
X70871789Y-99989711D01*
X70871786Y-99989707D01*
X70760292Y-99878213D01*
X70760288Y-99878210D01*
X70629185Y-99790609D01*
X70629172Y-99790602D01*
X70483501Y-99730264D01*
X70483489Y-99730261D01*
X70328845Y-99699500D01*
X70328842Y-99699500D01*
X70171158Y-99699500D01*
X70171155Y-99699500D01*
X70016510Y-99730261D01*
X70016498Y-99730264D01*
X69870827Y-99790602D01*
X69870814Y-99790609D01*
X69739711Y-99878210D01*
X69739707Y-99878213D01*
X69628213Y-99989707D01*
X69628210Y-99989711D01*
X69540609Y-100120814D01*
X69540602Y-100120827D01*
X69480264Y-100266498D01*
X69480261Y-100266510D01*
X69449500Y-100421153D01*
X36009700Y-100421153D01*
X36009700Y-95171153D01*
X37449500Y-95171153D01*
X37449500Y-95328846D01*
X37480261Y-95483489D01*
X37480264Y-95483501D01*
X37540602Y-95629172D01*
X37540609Y-95629185D01*
X37628210Y-95760288D01*
X37628213Y-95760292D01*
X37739707Y-95871786D01*
X37739711Y-95871789D01*
X37870814Y-95959390D01*
X37870827Y-95959397D01*
X38016498Y-96019735D01*
X38016503Y-96019737D01*
X38171153Y-96050499D01*
X38171156Y-96050500D01*
X38171158Y-96050500D01*
X38328844Y-96050500D01*
X38328845Y-96050499D01*
X38483497Y-96019737D01*
X38629179Y-95959394D01*
X38760289Y-95871789D01*
X38871789Y-95760289D01*
X38959394Y-95629179D01*
X39019737Y-95483497D01*
X39050500Y-95328842D01*
X39050500Y-95171158D01*
X39050500Y-95171155D01*
X39050499Y-95171153D01*
X39019738Y-95016510D01*
X39019737Y-95016503D01*
X38980242Y-94921153D01*
X79199500Y-94921153D01*
X79199500Y-95078846D01*
X79230261Y-95233489D01*
X79230264Y-95233501D01*
X79290602Y-95379172D01*
X79290609Y-95379185D01*
X79378210Y-95510288D01*
X79378213Y-95510292D01*
X79489707Y-95621786D01*
X79489711Y-95621789D01*
X79620814Y-95709390D01*
X79620827Y-95709397D01*
X79766498Y-95769735D01*
X79766503Y-95769737D01*
X79921153Y-95800499D01*
X79921156Y-95800500D01*
X79921158Y-95800500D01*
X80078844Y-95800500D01*
X80078845Y-95800499D01*
X80233497Y-95769737D01*
X80379179Y-95709394D01*
X80510289Y-95621789D01*
X80621789Y-95510289D01*
X80709394Y-95379179D01*
X80769737Y-95233497D01*
X80800500Y-95078842D01*
X80800500Y-94921158D01*
X80800500Y-94921155D01*
X80800499Y-94921153D01*
X86699500Y-94921153D01*
X86699500Y-95078846D01*
X86730261Y-95233489D01*
X86730264Y-95233501D01*
X86790602Y-95379172D01*
X86790609Y-95379185D01*
X86878210Y-95510288D01*
X86878213Y-95510292D01*
X86989707Y-95621786D01*
X86989711Y-95621789D01*
X87120814Y-95709390D01*
X87120827Y-95709397D01*
X87266498Y-95769735D01*
X87266503Y-95769737D01*
X87421153Y-95800499D01*
X87421156Y-95800500D01*
X87421158Y-95800500D01*
X87578844Y-95800500D01*
X87578845Y-95800499D01*
X87733497Y-95769737D01*
X87879179Y-95709394D01*
X88010289Y-95621789D01*
X88121789Y-95510289D01*
X88209394Y-95379179D01*
X88269737Y-95233497D01*
X88300500Y-95078842D01*
X88300500Y-94921158D01*
X88300500Y-94921155D01*
X88300499Y-94921153D01*
X88269738Y-94766510D01*
X88269737Y-94766503D01*
X88269735Y-94766498D01*
X88209397Y-94620827D01*
X88209390Y-94620814D01*
X88121789Y-94489711D01*
X88121786Y-94489707D01*
X88010292Y-94378213D01*
X88010288Y-94378210D01*
X87879185Y-94290609D01*
X87879172Y-94290602D01*
X87733501Y-94230264D01*
X87733489Y-94230261D01*
X87578845Y-94199500D01*
X87578842Y-94199500D01*
X87421158Y-94199500D01*
X87421155Y-94199500D01*
X87266510Y-94230261D01*
X87266498Y-94230264D01*
X87120827Y-94290602D01*
X87120814Y-94290609D01*
X86989711Y-94378210D01*
X86989707Y-94378213D01*
X86878213Y-94489707D01*
X86878210Y-94489711D01*
X86790609Y-94620814D01*
X86790602Y-94620827D01*
X86730264Y-94766498D01*
X86730261Y-94766510D01*
X86699500Y-94921153D01*
X80800499Y-94921153D01*
X80769738Y-94766510D01*
X80769737Y-94766503D01*
X80769735Y-94766498D01*
X80709397Y-94620827D01*
X80709390Y-94620814D01*
X80621789Y-94489711D01*
X80621786Y-94489707D01*
X80510292Y-94378213D01*
X80510288Y-94378210D01*
X80379185Y-94290609D01*
X80379172Y-94290602D01*
X80233501Y-94230264D01*
X80233489Y-94230261D01*
X80078845Y-94199500D01*
X80078842Y-94199500D01*
X79921158Y-94199500D01*
X79921155Y-94199500D01*
X79766510Y-94230261D01*
X79766498Y-94230264D01*
X79620827Y-94290602D01*
X79620814Y-94290609D01*
X79489711Y-94378210D01*
X79489707Y-94378213D01*
X79378213Y-94489707D01*
X79378210Y-94489711D01*
X79290609Y-94620814D01*
X79290602Y-94620827D01*
X79230264Y-94766498D01*
X79230261Y-94766510D01*
X79199500Y-94921153D01*
X38980242Y-94921153D01*
X38979933Y-94920408D01*
X38959397Y-94870827D01*
X38959390Y-94870814D01*
X38871789Y-94739711D01*
X38871786Y-94739707D01*
X38760292Y-94628213D01*
X38760288Y-94628210D01*
X38629185Y-94540609D01*
X38629172Y-94540602D01*
X38483501Y-94480264D01*
X38483489Y-94480261D01*
X38328845Y-94449500D01*
X38328842Y-94449500D01*
X38171158Y-94449500D01*
X38171155Y-94449500D01*
X38016510Y-94480261D01*
X38016498Y-94480264D01*
X37870827Y-94540602D01*
X37870814Y-94540609D01*
X37739711Y-94628210D01*
X37739707Y-94628213D01*
X37628213Y-94739707D01*
X37628210Y-94739711D01*
X37540609Y-94870814D01*
X37540602Y-94870827D01*
X37480264Y-95016498D01*
X37480261Y-95016510D01*
X37449500Y-95171153D01*
X36009700Y-95171153D01*
X36009700Y-92671153D01*
X36949500Y-92671153D01*
X36949500Y-92828846D01*
X36980261Y-92983489D01*
X36980264Y-92983501D01*
X37040602Y-93129172D01*
X37040609Y-93129185D01*
X37128210Y-93260288D01*
X37128213Y-93260292D01*
X37239707Y-93371786D01*
X37239711Y-93371789D01*
X37370814Y-93459390D01*
X37370827Y-93459397D01*
X37516498Y-93519735D01*
X37516503Y-93519737D01*
X37671153Y-93550499D01*
X37671156Y-93550500D01*
X37671158Y-93550500D01*
X37828844Y-93550500D01*
X37828845Y-93550499D01*
X37983497Y-93519737D01*
X38129179Y-93459394D01*
X38260289Y-93371789D01*
X38371789Y-93260289D01*
X38459394Y-93129179D01*
X38519737Y-92983497D01*
X38550500Y-92828842D01*
X38550500Y-92671158D01*
X38550500Y-92671155D01*
X38550499Y-92671153D01*
X38519738Y-92516510D01*
X38519737Y-92516503D01*
X38519735Y-92516498D01*
X38459397Y-92370827D01*
X38459390Y-92370814D01*
X38371789Y-92239711D01*
X38371786Y-92239707D01*
X38260292Y-92128213D01*
X38260288Y-92128210D01*
X38129185Y-92040609D01*
X38129172Y-92040602D01*
X37983501Y-91980264D01*
X37983489Y-91980261D01*
X37828845Y-91949500D01*
X37828842Y-91949500D01*
X37671158Y-91949500D01*
X37671155Y-91949500D01*
X37516510Y-91980261D01*
X37516498Y-91980264D01*
X37370827Y-92040602D01*
X37370814Y-92040609D01*
X37239711Y-92128210D01*
X37239707Y-92128213D01*
X37128213Y-92239707D01*
X37128210Y-92239711D01*
X37040609Y-92370814D01*
X37040602Y-92370827D01*
X36980264Y-92516498D01*
X36980261Y-92516510D01*
X36949500Y-92671153D01*
X36009700Y-92671153D01*
X36009700Y-89921153D01*
X79199500Y-89921153D01*
X79199500Y-90078846D01*
X79230261Y-90233489D01*
X79230264Y-90233501D01*
X79290602Y-90379172D01*
X79290609Y-90379185D01*
X79378210Y-90510288D01*
X79378213Y-90510292D01*
X79489707Y-90621786D01*
X79489711Y-90621789D01*
X79620814Y-90709390D01*
X79620827Y-90709397D01*
X79766498Y-90769735D01*
X79766503Y-90769737D01*
X79921153Y-90800499D01*
X79921156Y-90800500D01*
X79921158Y-90800500D01*
X80078844Y-90800500D01*
X80078845Y-90800499D01*
X80233497Y-90769737D01*
X80379179Y-90709394D01*
X80510289Y-90621789D01*
X80621789Y-90510289D01*
X80709394Y-90379179D01*
X80769737Y-90233497D01*
X80800500Y-90078842D01*
X80800500Y-89921158D01*
X80800500Y-89921155D01*
X80800499Y-89921153D01*
X86699500Y-89921153D01*
X86699500Y-90078846D01*
X86730261Y-90233489D01*
X86730264Y-90233501D01*
X86790602Y-90379172D01*
X86790609Y-90379185D01*
X86878210Y-90510288D01*
X86878213Y-90510292D01*
X86989707Y-90621786D01*
X86989711Y-90621789D01*
X87120814Y-90709390D01*
X87120827Y-90709397D01*
X87266498Y-90769735D01*
X87266503Y-90769737D01*
X87421153Y-90800499D01*
X87421156Y-90800500D01*
X87421158Y-90800500D01*
X87578844Y-90800500D01*
X87578845Y-90800499D01*
X87733497Y-90769737D01*
X87879179Y-90709394D01*
X88010289Y-90621789D01*
X88121789Y-90510289D01*
X88209394Y-90379179D01*
X88269737Y-90233497D01*
X88300500Y-90078842D01*
X88300500Y-89921158D01*
X88300500Y-89921155D01*
X88300499Y-89921153D01*
X88269738Y-89766510D01*
X88269737Y-89766503D01*
X88269735Y-89766498D01*
X88209397Y-89620827D01*
X88209390Y-89620814D01*
X88121789Y-89489711D01*
X88121786Y-89489707D01*
X88010292Y-89378213D01*
X88010288Y-89378210D01*
X87879185Y-89290609D01*
X87879172Y-89290602D01*
X87733501Y-89230264D01*
X87733489Y-89230261D01*
X87578845Y-89199500D01*
X87578842Y-89199500D01*
X87421158Y-89199500D01*
X87421155Y-89199500D01*
X87266510Y-89230261D01*
X87266498Y-89230264D01*
X87120827Y-89290602D01*
X87120814Y-89290609D01*
X86989711Y-89378210D01*
X86989707Y-89378213D01*
X86878213Y-89489707D01*
X86878210Y-89489711D01*
X86790609Y-89620814D01*
X86790602Y-89620827D01*
X86730264Y-89766498D01*
X86730261Y-89766510D01*
X86699500Y-89921153D01*
X80800499Y-89921153D01*
X80769738Y-89766510D01*
X80769737Y-89766503D01*
X80769735Y-89766498D01*
X80709397Y-89620827D01*
X80709390Y-89620814D01*
X80621789Y-89489711D01*
X80621786Y-89489707D01*
X80510292Y-89378213D01*
X80510288Y-89378210D01*
X80379185Y-89290609D01*
X80379172Y-89290602D01*
X80233501Y-89230264D01*
X80233489Y-89230261D01*
X80078845Y-89199500D01*
X80078842Y-89199500D01*
X79921158Y-89199500D01*
X79921155Y-89199500D01*
X79766510Y-89230261D01*
X79766498Y-89230264D01*
X79620827Y-89290602D01*
X79620814Y-89290609D01*
X79489711Y-89378210D01*
X79489707Y-89378213D01*
X79378213Y-89489707D01*
X79378210Y-89489711D01*
X79290609Y-89620814D01*
X79290602Y-89620827D01*
X79230264Y-89766498D01*
X79230261Y-89766510D01*
X79199500Y-89921153D01*
X36009700Y-89921153D01*
X36009700Y-87421153D01*
X36749500Y-87421153D01*
X36749500Y-87578846D01*
X36780261Y-87733489D01*
X36780264Y-87733501D01*
X36840602Y-87879172D01*
X36840609Y-87879185D01*
X36928210Y-88010288D01*
X36928213Y-88010292D01*
X37039707Y-88121786D01*
X37039711Y-88121789D01*
X37170814Y-88209390D01*
X37170827Y-88209397D01*
X37316498Y-88269735D01*
X37316503Y-88269737D01*
X37450632Y-88296417D01*
X37471153Y-88300499D01*
X37471156Y-88300500D01*
X37471158Y-88300500D01*
X37628844Y-88300500D01*
X37628845Y-88300499D01*
X37783497Y-88269737D01*
X37929179Y-88209394D01*
X37932364Y-88207266D01*
X38023972Y-88146056D01*
X38042920Y-88133393D01*
X38060289Y-88121789D01*
X38171789Y-88010289D01*
X38259394Y-87879179D01*
X38319737Y-87733497D01*
X38350500Y-87578842D01*
X38350500Y-87421158D01*
X38350500Y-87421155D01*
X38350499Y-87421153D01*
X38334667Y-87341563D01*
X38319737Y-87266503D01*
X38285987Y-87185022D01*
X38259397Y-87120827D01*
X38259390Y-87120814D01*
X38171789Y-86989711D01*
X38171786Y-86989707D01*
X38060292Y-86878213D01*
X38060288Y-86878210D01*
X37929185Y-86790609D01*
X37929172Y-86790602D01*
X37783501Y-86730264D01*
X37783489Y-86730261D01*
X37628845Y-86699500D01*
X37628842Y-86699500D01*
X37471158Y-86699500D01*
X37471155Y-86699500D01*
X37316510Y-86730261D01*
X37316498Y-86730264D01*
X37170827Y-86790602D01*
X37170814Y-86790609D01*
X37039711Y-86878210D01*
X37039707Y-86878213D01*
X36928213Y-86989707D01*
X36928210Y-86989711D01*
X36840609Y-87120814D01*
X36840602Y-87120827D01*
X36780264Y-87266498D01*
X36780261Y-87266510D01*
X36749500Y-87421153D01*
X36009700Y-87421153D01*
X36009700Y-84671153D01*
X69449500Y-84671153D01*
X69449500Y-84828846D01*
X69480261Y-84983489D01*
X69480264Y-84983501D01*
X69540602Y-85129172D01*
X69540609Y-85129185D01*
X69628210Y-85260288D01*
X69628213Y-85260292D01*
X69739707Y-85371786D01*
X69739711Y-85371789D01*
X69870814Y-85459390D01*
X69870827Y-85459397D01*
X70016498Y-85519735D01*
X70016503Y-85519737D01*
X70171153Y-85550499D01*
X70171156Y-85550500D01*
X70171158Y-85550500D01*
X70328844Y-85550500D01*
X70328845Y-85550499D01*
X70483497Y-85519737D01*
X70629179Y-85459394D01*
X70760289Y-85371789D01*
X70871789Y-85260289D01*
X70959394Y-85129179D01*
X71019737Y-84983497D01*
X71050500Y-84828842D01*
X71050500Y-84671158D01*
X71050500Y-84671155D01*
X71050499Y-84671153D01*
X71019738Y-84516510D01*
X71019737Y-84516503D01*
X70973825Y-84405661D01*
X70959397Y-84370827D01*
X70959390Y-84370814D01*
X70871789Y-84239711D01*
X70871786Y-84239707D01*
X70760292Y-84128213D01*
X70760288Y-84128210D01*
X70629185Y-84040609D01*
X70629172Y-84040602D01*
X70483501Y-83980264D01*
X70483489Y-83980261D01*
X70328845Y-83949500D01*
X70328842Y-83949500D01*
X70171158Y-83949500D01*
X70171155Y-83949500D01*
X70016510Y-83980261D01*
X70016498Y-83980264D01*
X69870827Y-84040602D01*
X69870814Y-84040609D01*
X69739711Y-84128210D01*
X69739707Y-84128213D01*
X69628213Y-84239707D01*
X69628210Y-84239711D01*
X69540609Y-84370814D01*
X69540602Y-84370827D01*
X69480264Y-84516498D01*
X69480261Y-84516510D01*
X69449500Y-84671153D01*
X36009700Y-84671153D01*
X36009700Y-80921153D01*
X39449500Y-80921153D01*
X39449500Y-81078846D01*
X39480261Y-81233489D01*
X39480264Y-81233501D01*
X39540602Y-81379172D01*
X39540609Y-81379185D01*
X39628210Y-81510288D01*
X39628213Y-81510292D01*
X39739707Y-81621786D01*
X39739711Y-81621789D01*
X39870814Y-81709390D01*
X39870827Y-81709397D01*
X40016498Y-81769735D01*
X40016503Y-81769737D01*
X40171153Y-81800499D01*
X40171156Y-81800500D01*
X40171158Y-81800500D01*
X40328844Y-81800500D01*
X40328845Y-81800499D01*
X40483497Y-81769737D01*
X40629179Y-81709394D01*
X40760289Y-81621789D01*
X40871789Y-81510289D01*
X40959394Y-81379179D01*
X41019737Y-81233497D01*
X41050500Y-81078842D01*
X41050500Y-80921158D01*
X41050500Y-80921155D01*
X41050499Y-80921153D01*
X41019737Y-80766503D01*
X40993994Y-80704353D01*
X40959397Y-80620827D01*
X40959390Y-80620814D01*
X40871789Y-80489711D01*
X40871786Y-80489707D01*
X40760292Y-80378213D01*
X40760288Y-80378210D01*
X40629185Y-80290609D01*
X40629172Y-80290602D01*
X40483501Y-80230264D01*
X40483489Y-80230261D01*
X40328845Y-80199500D01*
X40328842Y-80199500D01*
X40171158Y-80199500D01*
X40171155Y-80199500D01*
X40016510Y-80230261D01*
X40016498Y-80230264D01*
X39870827Y-80290602D01*
X39870814Y-80290609D01*
X39739711Y-80378210D01*
X39739707Y-80378213D01*
X39628213Y-80489707D01*
X39628210Y-80489711D01*
X39540609Y-80620814D01*
X39540602Y-80620827D01*
X39480264Y-80766498D01*
X39480261Y-80766510D01*
X39449500Y-80921153D01*
X36009700Y-80921153D01*
X36009700Y-74921153D01*
X91699500Y-74921153D01*
X91699500Y-75078846D01*
X91730261Y-75233489D01*
X91730264Y-75233501D01*
X91790602Y-75379172D01*
X91790609Y-75379185D01*
X91878210Y-75510288D01*
X91878213Y-75510292D01*
X91989707Y-75621786D01*
X91989711Y-75621789D01*
X92120814Y-75709390D01*
X92120827Y-75709397D01*
X92196048Y-75740554D01*
X92266503Y-75769737D01*
X92421153Y-75800499D01*
X92421156Y-75800500D01*
X92421158Y-75800500D01*
X92578844Y-75800500D01*
X92578845Y-75800499D01*
X92733497Y-75769737D01*
X92879179Y-75709394D01*
X93010289Y-75621789D01*
X93121789Y-75510289D01*
X93209394Y-75379179D01*
X93269737Y-75233497D01*
X93300500Y-75078842D01*
X93300500Y-74921158D01*
X93300500Y-74921155D01*
X93300499Y-74921153D01*
X93269738Y-74766510D01*
X93269737Y-74766503D01*
X93218000Y-74641597D01*
X93209397Y-74620827D01*
X93209390Y-74620814D01*
X93121789Y-74489711D01*
X93121786Y-74489707D01*
X93010292Y-74378213D01*
X93010288Y-74378210D01*
X92879185Y-74290609D01*
X92879172Y-74290602D01*
X92733501Y-74230264D01*
X92733489Y-74230261D01*
X92578845Y-74199500D01*
X92578842Y-74199500D01*
X92421158Y-74199500D01*
X92421155Y-74199500D01*
X92266510Y-74230261D01*
X92266498Y-74230264D01*
X92120827Y-74290602D01*
X92120814Y-74290609D01*
X91989711Y-74378210D01*
X91989707Y-74378213D01*
X91878213Y-74489707D01*
X91878210Y-74489711D01*
X91790609Y-74620814D01*
X91790602Y-74620827D01*
X91730264Y-74766498D01*
X91730261Y-74766510D01*
X91699500Y-74921153D01*
X36009700Y-74921153D01*
X36009700Y-64921153D01*
X84199500Y-64921153D01*
X84199500Y-65078846D01*
X84230261Y-65233489D01*
X84230264Y-65233501D01*
X84290602Y-65379172D01*
X84290609Y-65379185D01*
X84378210Y-65510288D01*
X84378213Y-65510292D01*
X84489707Y-65621786D01*
X84489711Y-65621789D01*
X84620814Y-65709390D01*
X84620827Y-65709397D01*
X84716958Y-65749215D01*
X84766503Y-65769737D01*
X84921153Y-65800499D01*
X84921156Y-65800500D01*
X84921158Y-65800500D01*
X85078844Y-65800500D01*
X85078845Y-65800499D01*
X85233497Y-65769737D01*
X85379179Y-65709394D01*
X85510289Y-65621789D01*
X85621789Y-65510289D01*
X85709394Y-65379179D01*
X85769737Y-65233497D01*
X85800500Y-65078842D01*
X85800500Y-64921158D01*
X85800500Y-64921155D01*
X85800499Y-64921153D01*
X85769738Y-64766510D01*
X85769737Y-64766503D01*
X85769735Y-64766498D01*
X85709397Y-64620827D01*
X85709390Y-64620814D01*
X85621789Y-64489711D01*
X85621786Y-64489707D01*
X85510292Y-64378213D01*
X85510288Y-64378210D01*
X85379185Y-64290609D01*
X85379172Y-64290602D01*
X85233501Y-64230264D01*
X85233489Y-64230261D01*
X85078845Y-64199500D01*
X85078842Y-64199500D01*
X84921158Y-64199500D01*
X84921155Y-64199500D01*
X84766510Y-64230261D01*
X84766498Y-64230264D01*
X84620827Y-64290602D01*
X84620814Y-64290609D01*
X84489711Y-64378210D01*
X84489707Y-64378213D01*
X84378213Y-64489707D01*
X84378210Y-64489711D01*
X84290609Y-64620814D01*
X84290602Y-64620827D01*
X84230264Y-64766498D01*
X84230261Y-64766510D01*
X84199500Y-64921153D01*
X36009700Y-64921153D01*
X36009700Y-61421153D01*
X45949500Y-61421153D01*
X45949500Y-61578846D01*
X45980261Y-61733489D01*
X45980264Y-61733501D01*
X46040602Y-61879172D01*
X46040609Y-61879185D01*
X46128210Y-62010288D01*
X46128213Y-62010292D01*
X46239707Y-62121786D01*
X46239711Y-62121789D01*
X46370814Y-62209390D01*
X46370827Y-62209397D01*
X46516498Y-62269735D01*
X46516503Y-62269737D01*
X46671153Y-62300499D01*
X46671156Y-62300500D01*
X46671158Y-62300500D01*
X46828844Y-62300500D01*
X46828845Y-62300499D01*
X46983497Y-62269737D01*
X47129179Y-62209394D01*
X47260289Y-62121789D01*
X47371789Y-62010289D01*
X47459394Y-61879179D01*
X47519737Y-61733497D01*
X47550500Y-61578842D01*
X47550500Y-61421158D01*
X47550500Y-61421155D01*
X47550499Y-61421153D01*
X47519738Y-61266510D01*
X47519737Y-61266503D01*
X47519735Y-61266498D01*
X47459397Y-61120827D01*
X47459390Y-61120814D01*
X47371789Y-60989711D01*
X47371786Y-60989707D01*
X47260292Y-60878213D01*
X47260288Y-60878210D01*
X47129185Y-60790609D01*
X47129172Y-60790602D01*
X46983501Y-60730264D01*
X46983489Y-60730261D01*
X46828845Y-60699500D01*
X46828842Y-60699500D01*
X46671158Y-60699500D01*
X46671155Y-60699500D01*
X46516510Y-60730261D01*
X46516498Y-60730264D01*
X46370827Y-60790602D01*
X46370814Y-60790609D01*
X46239711Y-60878210D01*
X46239707Y-60878213D01*
X46128213Y-60989707D01*
X46128210Y-60989711D01*
X46040609Y-61120814D01*
X46040602Y-61120827D01*
X45980264Y-61266498D01*
X45980261Y-61266510D01*
X45949500Y-61421153D01*
X36009700Y-61421153D01*
X36009700Y-59421153D01*
X79449500Y-59421153D01*
X79449500Y-59578846D01*
X79480261Y-59733489D01*
X79480264Y-59733501D01*
X79540602Y-59879172D01*
X79540609Y-59879185D01*
X79628210Y-60010288D01*
X79628213Y-60010292D01*
X79739707Y-60121786D01*
X79739711Y-60121789D01*
X79870814Y-60209390D01*
X79870827Y-60209397D01*
X80016498Y-60269735D01*
X80016503Y-60269737D01*
X80171153Y-60300499D01*
X80171156Y-60300500D01*
X80171158Y-60300500D01*
X80328844Y-60300500D01*
X80328845Y-60300499D01*
X80483497Y-60269737D01*
X80629179Y-60209394D01*
X80760289Y-60121789D01*
X80871789Y-60010289D01*
X80959394Y-59879179D01*
X81019737Y-59733497D01*
X81050500Y-59578842D01*
X81050500Y-59421158D01*
X81050500Y-59421155D01*
X81050499Y-59421153D01*
X81019738Y-59266510D01*
X81019737Y-59266503D01*
X80993186Y-59202403D01*
X80959397Y-59120827D01*
X80959390Y-59120814D01*
X80871789Y-58989711D01*
X80871786Y-58989707D01*
X80760292Y-58878213D01*
X80760288Y-58878210D01*
X80629185Y-58790609D01*
X80629172Y-58790602D01*
X80483501Y-58730264D01*
X80483489Y-58730261D01*
X80328845Y-58699500D01*
X80328842Y-58699500D01*
X80171158Y-58699500D01*
X80171155Y-58699500D01*
X80016510Y-58730261D01*
X80016498Y-58730264D01*
X79870827Y-58790602D01*
X79870814Y-58790609D01*
X79739711Y-58878210D01*
X79739707Y-58878213D01*
X79628213Y-58989707D01*
X79628210Y-58989711D01*
X79540609Y-59120814D01*
X79540602Y-59120827D01*
X79480264Y-59266498D01*
X79480261Y-59266510D01*
X79449500Y-59421153D01*
X36009700Y-59421153D01*
X36009700Y-57421153D01*
X71699500Y-57421153D01*
X71699500Y-57578846D01*
X71730261Y-57733489D01*
X71730264Y-57733501D01*
X71790602Y-57879172D01*
X71790609Y-57879185D01*
X71878210Y-58010288D01*
X71878213Y-58010292D01*
X71989707Y-58121786D01*
X71989711Y-58121789D01*
X72120814Y-58209390D01*
X72120827Y-58209397D01*
X72266498Y-58269735D01*
X72266503Y-58269737D01*
X72421153Y-58300499D01*
X72421156Y-58300500D01*
X72421158Y-58300500D01*
X72578844Y-58300500D01*
X72578845Y-58300499D01*
X72733497Y-58269737D01*
X72879179Y-58209394D01*
X73010289Y-58121789D01*
X73121789Y-58010289D01*
X73209394Y-57879179D01*
X73269737Y-57733497D01*
X73300500Y-57578842D01*
X73300500Y-57421158D01*
X73300500Y-57421155D01*
X73300499Y-57421153D01*
X96699500Y-57421153D01*
X96699500Y-57578846D01*
X96730261Y-57733489D01*
X96730264Y-57733501D01*
X96790602Y-57879172D01*
X96790609Y-57879185D01*
X96878210Y-58010288D01*
X96878213Y-58010292D01*
X96989707Y-58121786D01*
X96989711Y-58121789D01*
X97120814Y-58209390D01*
X97120827Y-58209397D01*
X97266498Y-58269735D01*
X97266503Y-58269737D01*
X97421153Y-58300499D01*
X97421156Y-58300500D01*
X97421158Y-58300500D01*
X97578844Y-58300500D01*
X97578845Y-58300499D01*
X97733497Y-58269737D01*
X97879179Y-58209394D01*
X98010289Y-58121789D01*
X98121789Y-58010289D01*
X98209394Y-57879179D01*
X98269737Y-57733497D01*
X98300500Y-57578842D01*
X98300500Y-57421158D01*
X98300500Y-57421155D01*
X98300499Y-57421153D01*
X98269738Y-57266510D01*
X98269737Y-57266503D01*
X98261982Y-57247780D01*
X98209397Y-57120827D01*
X98209390Y-57120814D01*
X98121789Y-56989711D01*
X98121786Y-56989707D01*
X98010292Y-56878213D01*
X98010288Y-56878210D01*
X97879185Y-56790609D01*
X97879172Y-56790602D01*
X97733501Y-56730264D01*
X97733489Y-56730261D01*
X97578845Y-56699500D01*
X97578842Y-56699500D01*
X97421158Y-56699500D01*
X97421155Y-56699500D01*
X97266510Y-56730261D01*
X97266498Y-56730264D01*
X97120827Y-56790602D01*
X97120814Y-56790609D01*
X96989711Y-56878210D01*
X96989707Y-56878213D01*
X96878213Y-56989707D01*
X96878210Y-56989711D01*
X96790609Y-57120814D01*
X96790602Y-57120827D01*
X96730264Y-57266498D01*
X96730261Y-57266510D01*
X96699500Y-57421153D01*
X73300499Y-57421153D01*
X73269738Y-57266510D01*
X73269737Y-57266503D01*
X73261982Y-57247780D01*
X73209397Y-57120827D01*
X73209390Y-57120814D01*
X73121789Y-56989711D01*
X73121786Y-56989707D01*
X73010292Y-56878213D01*
X73010288Y-56878210D01*
X72879185Y-56790609D01*
X72879172Y-56790602D01*
X72733501Y-56730264D01*
X72733489Y-56730261D01*
X72578845Y-56699500D01*
X72578842Y-56699500D01*
X72421158Y-56699500D01*
X72421155Y-56699500D01*
X72266510Y-56730261D01*
X72266498Y-56730264D01*
X72120827Y-56790602D01*
X72120814Y-56790609D01*
X71989711Y-56878210D01*
X71989707Y-56878213D01*
X71878213Y-56989707D01*
X71878210Y-56989711D01*
X71790609Y-57120814D01*
X71790602Y-57120827D01*
X71730264Y-57266498D01*
X71730261Y-57266510D01*
X71699500Y-57421153D01*
X36009700Y-57421153D01*
X36009700Y-51921153D01*
X69699500Y-51921153D01*
X69699500Y-52078846D01*
X69730261Y-52233489D01*
X69730264Y-52233501D01*
X69790602Y-52379172D01*
X69790609Y-52379185D01*
X69878210Y-52510288D01*
X69878213Y-52510292D01*
X69989707Y-52621786D01*
X69989711Y-52621789D01*
X70120814Y-52709390D01*
X70120827Y-52709397D01*
X70253502Y-52764352D01*
X70266503Y-52769737D01*
X70421153Y-52800499D01*
X70421156Y-52800500D01*
X70421158Y-52800500D01*
X70578844Y-52800500D01*
X70578845Y-52800499D01*
X70733497Y-52769737D01*
X70879179Y-52709394D01*
X71010289Y-52621789D01*
X71121789Y-52510289D01*
X71209394Y-52379179D01*
X71269737Y-52233497D01*
X71300500Y-52078842D01*
X71300500Y-51921158D01*
X71300500Y-51921155D01*
X71300499Y-51921153D01*
X71269738Y-51766510D01*
X71269737Y-51766503D01*
X71269735Y-51766498D01*
X71209397Y-51620827D01*
X71209390Y-51620814D01*
X71121789Y-51489711D01*
X71121786Y-51489707D01*
X71010292Y-51378213D01*
X71010288Y-51378210D01*
X70879185Y-51290609D01*
X70879172Y-51290602D01*
X70733501Y-51230264D01*
X70733489Y-51230261D01*
X70578845Y-51199500D01*
X70578842Y-51199500D01*
X70421158Y-51199500D01*
X70421155Y-51199500D01*
X70266510Y-51230261D01*
X70266498Y-51230264D01*
X70120827Y-51290602D01*
X70120814Y-51290609D01*
X69989711Y-51378210D01*
X69989707Y-51378213D01*
X69878213Y-51489707D01*
X69878210Y-51489711D01*
X69790609Y-51620814D01*
X69790602Y-51620827D01*
X69730264Y-51766498D01*
X69730261Y-51766510D01*
X69699500Y-51921153D01*
X36009700Y-51921153D01*
X36009700Y-40027135D01*
X37324500Y-40027135D01*
X37324500Y-41472870D01*
X37324501Y-41472876D01*
X37330908Y-41532483D01*
X37381202Y-41667328D01*
X37381206Y-41667335D01*
X37467452Y-41782544D01*
X37467455Y-41782547D01*
X37582664Y-41868793D01*
X37582671Y-41868797D01*
X37717517Y-41919091D01*
X37717516Y-41919091D01*
X37724444Y-41919835D01*
X37777127Y-41925500D01*
X39222872Y-41925499D01*
X39282483Y-41919091D01*
X39417331Y-41868796D01*
X39532546Y-41782546D01*
X39596241Y-41697459D01*
X39652174Y-41655590D01*
X39721866Y-41650606D01*
X39768392Y-41671453D01*
X39883904Y-41755378D01*
X39937224Y-41782546D01*
X40048764Y-41839379D01*
X40048767Y-41839380D01*
X40136750Y-41867967D01*
X40224736Y-41896555D01*
X40407486Y-41925500D01*
X40407487Y-41925500D01*
X40592513Y-41925500D01*
X40592514Y-41925500D01*
X40775264Y-41896555D01*
X40951235Y-41839379D01*
X41116096Y-41755378D01*
X41265787Y-41646621D01*
X41396621Y-41515787D01*
X41505378Y-41366096D01*
X41589379Y-41201235D01*
X41646555Y-41025264D01*
X41675500Y-40842514D01*
X41675500Y-40709135D01*
X100302200Y-40709135D01*
X100302200Y-42334870D01*
X100302201Y-42334876D01*
X100308608Y-42394483D01*
X100358902Y-42529328D01*
X100358906Y-42529335D01*
X100445152Y-42644544D01*
X100445155Y-42644547D01*
X100560364Y-42730793D01*
X100560371Y-42730797D01*
X100695217Y-42781091D01*
X100695216Y-42781091D01*
X100702144Y-42781835D01*
X100754827Y-42787500D01*
X100787268Y-42787499D01*
X100854305Y-42807182D01*
X100900061Y-42859984D01*
X100910006Y-42929143D01*
X100880983Y-42992699D01*
X100860155Y-43011816D01*
X100743282Y-43096730D01*
X100602433Y-43237579D01*
X100602433Y-43237580D01*
X100602431Y-43237582D01*
X100552147Y-43306790D01*
X100485347Y-43398733D01*
X100394913Y-43576219D01*
X100333361Y-43765656D01*
X100333361Y-43765659D01*
X100302200Y-43962403D01*
X100302200Y-44161596D01*
X100333361Y-44358340D01*
X100333361Y-44358343D01*
X100394913Y-44547780D01*
X100394915Y-44547783D01*
X100485347Y-44725266D01*
X100602431Y-44886418D01*
X100743282Y-45027269D01*
X100904434Y-45144353D01*
X100974153Y-45179877D01*
X101055872Y-45221515D01*
X101106668Y-45269490D01*
X101123463Y-45337311D01*
X101100925Y-45403446D01*
X101055872Y-45442485D01*
X100904433Y-45519647D01*
X100812490Y-45586447D01*
X100743282Y-45636731D01*
X100743280Y-45636733D01*
X100743279Y-45636733D01*
X100602433Y-45777579D01*
X100602433Y-45777580D01*
X100602431Y-45777582D01*
X100552147Y-45846790D01*
X100485347Y-45938733D01*
X100394913Y-46116219D01*
X100333361Y-46305656D01*
X100333361Y-46305659D01*
X100302200Y-46502403D01*
X100302200Y-46701596D01*
X100333361Y-46898340D01*
X100333361Y-46898343D01*
X100394913Y-47087780D01*
X100394915Y-47087783D01*
X100485347Y-47265266D01*
X100602431Y-47426418D01*
X100743282Y-47567269D01*
X100904434Y-47684353D01*
X100974153Y-47719877D01*
X101055872Y-47761515D01*
X101106668Y-47809490D01*
X101123463Y-47877311D01*
X101100925Y-47943446D01*
X101055872Y-47982485D01*
X100904433Y-48059647D01*
X100812490Y-48126447D01*
X100743282Y-48176731D01*
X100743280Y-48176733D01*
X100743279Y-48176733D01*
X100602433Y-48317579D01*
X100602433Y-48317580D01*
X100602431Y-48317582D01*
X100552147Y-48386790D01*
X100485347Y-48478733D01*
X100394913Y-48656219D01*
X100333361Y-48845656D01*
X100333361Y-48845659D01*
X100302200Y-49042403D01*
X100302200Y-49241596D01*
X100333361Y-49438340D01*
X100333361Y-49438343D01*
X100394913Y-49627780D01*
X100394915Y-49627783D01*
X100485347Y-49805266D01*
X100602431Y-49966418D01*
X100743282Y-50107269D01*
X100904434Y-50224353D01*
X100974153Y-50259877D01*
X101055872Y-50301515D01*
X101106668Y-50349490D01*
X101123463Y-50417311D01*
X101100925Y-50483446D01*
X101055872Y-50522485D01*
X100904433Y-50599647D01*
X100812490Y-50666447D01*
X100743282Y-50716731D01*
X100743280Y-50716733D01*
X100743279Y-50716733D01*
X100602433Y-50857579D01*
X100602433Y-50857580D01*
X100602431Y-50857582D01*
X100552147Y-50926790D01*
X100485347Y-51018733D01*
X100394913Y-51196219D01*
X100333361Y-51385656D01*
X100333361Y-51385659D01*
X100302200Y-51582403D01*
X100302200Y-51781596D01*
X100333361Y-51978340D01*
X100333361Y-51978343D01*
X100394913Y-52167780D01*
X100394915Y-52167783D01*
X100485347Y-52345266D01*
X100602431Y-52506418D01*
X100743282Y-52647269D01*
X100904434Y-52764353D01*
X100915003Y-52769738D01*
X101055872Y-52841515D01*
X101106668Y-52889490D01*
X101123463Y-52957311D01*
X101100925Y-53023446D01*
X101055872Y-53062485D01*
X100904433Y-53139647D01*
X100812490Y-53206447D01*
X100743282Y-53256731D01*
X100743280Y-53256733D01*
X100743279Y-53256733D01*
X100602433Y-53397579D01*
X100602433Y-53397580D01*
X100602431Y-53397582D01*
X100552147Y-53466790D01*
X100485347Y-53558733D01*
X100394913Y-53736219D01*
X100333361Y-53925656D01*
X100333361Y-53925659D01*
X100302200Y-54122403D01*
X100302200Y-54321596D01*
X100333361Y-54518340D01*
X100333361Y-54518343D01*
X100394913Y-54707780D01*
X100394915Y-54707783D01*
X100485347Y-54885266D01*
X100602431Y-55046418D01*
X100743282Y-55187269D01*
X100904434Y-55304353D01*
X100974153Y-55339877D01*
X101055872Y-55381515D01*
X101106668Y-55429490D01*
X101123463Y-55497311D01*
X101100925Y-55563446D01*
X101055872Y-55602485D01*
X100904433Y-55679647D01*
X100812490Y-55746447D01*
X100743282Y-55796731D01*
X100743280Y-55796733D01*
X100743279Y-55796733D01*
X100602433Y-55937579D01*
X100602433Y-55937580D01*
X100602431Y-55937582D01*
X100552147Y-56006790D01*
X100485347Y-56098733D01*
X100394913Y-56276219D01*
X100333361Y-56465656D01*
X100333361Y-56465659D01*
X100333361Y-56465661D01*
X100302200Y-56662403D01*
X100302200Y-56861597D01*
X100304832Y-56878213D01*
X100333361Y-57058340D01*
X100333361Y-57058343D01*
X100394913Y-57247780D01*
X100483251Y-57421153D01*
X100485347Y-57425266D01*
X100602431Y-57586418D01*
X100743282Y-57727269D01*
X100904434Y-57844353D01*
X100972770Y-57879172D01*
X101055872Y-57921515D01*
X101106668Y-57969490D01*
X101123463Y-58037311D01*
X101100925Y-58103446D01*
X101055872Y-58142485D01*
X100904433Y-58219647D01*
X100835494Y-58269735D01*
X100743282Y-58336731D01*
X100743280Y-58336733D01*
X100743279Y-58336733D01*
X100602433Y-58477579D01*
X100602433Y-58477580D01*
X100602431Y-58477582D01*
X100552147Y-58546790D01*
X100485347Y-58638733D01*
X100394913Y-58816219D01*
X100333361Y-59005656D01*
X100333361Y-59005659D01*
X100333361Y-59005661D01*
X100302200Y-59202403D01*
X100302200Y-59401597D01*
X100305298Y-59421155D01*
X100333361Y-59598340D01*
X100333361Y-59598343D01*
X100394913Y-59787780D01*
X100485347Y-59965266D01*
X100602431Y-60126418D01*
X100743282Y-60267269D01*
X100904434Y-60384353D01*
X100974153Y-60419877D01*
X101055872Y-60461515D01*
X101106668Y-60509490D01*
X101123463Y-60577311D01*
X101100925Y-60643446D01*
X101055872Y-60682485D01*
X100904433Y-60759647D01*
X100812490Y-60826447D01*
X100743282Y-60876731D01*
X100743280Y-60876733D01*
X100743279Y-60876733D01*
X100602433Y-61017579D01*
X100602433Y-61017580D01*
X100602431Y-61017582D01*
X100552147Y-61086790D01*
X100485347Y-61178733D01*
X100394913Y-61356219D01*
X100333361Y-61545656D01*
X100333361Y-61545659D01*
X100302200Y-61742403D01*
X100302200Y-61941596D01*
X100333361Y-62138340D01*
X100333361Y-62138343D01*
X100394913Y-62327780D01*
X100394915Y-62327783D01*
X100485347Y-62505266D01*
X100602431Y-62666418D01*
X100743282Y-62807269D01*
X100904434Y-62924353D01*
X100974153Y-62959877D01*
X101055872Y-63001515D01*
X101106668Y-63049490D01*
X101123463Y-63117311D01*
X101100925Y-63183446D01*
X101055872Y-63222485D01*
X100904433Y-63299647D01*
X100812490Y-63366447D01*
X100743282Y-63416731D01*
X100743280Y-63416733D01*
X100743279Y-63416733D01*
X100602433Y-63557579D01*
X100602433Y-63557580D01*
X100602431Y-63557582D01*
X100552147Y-63626790D01*
X100485347Y-63718733D01*
X100394913Y-63896219D01*
X100333361Y-64085656D01*
X100333361Y-64085659D01*
X100302200Y-64282403D01*
X100302200Y-64481596D01*
X100333361Y-64678340D01*
X100333361Y-64678343D01*
X100394913Y-64867780D01*
X100394915Y-64867783D01*
X100485347Y-65045266D01*
X100602431Y-65206418D01*
X100743282Y-65347269D01*
X100904434Y-65464353D01*
X100974153Y-65499877D01*
X101055872Y-65541515D01*
X101106668Y-65589490D01*
X101123463Y-65657311D01*
X101100925Y-65723446D01*
X101055872Y-65762485D01*
X100904433Y-65839647D01*
X100812490Y-65906447D01*
X100743282Y-65956731D01*
X100743280Y-65956733D01*
X100743279Y-65956733D01*
X100602433Y-66097579D01*
X100602433Y-66097580D01*
X100602431Y-66097582D01*
X100552147Y-66166790D01*
X100485347Y-66258733D01*
X100394913Y-66436219D01*
X100333361Y-66625656D01*
X100333361Y-66625659D01*
X100302200Y-66822403D01*
X100302200Y-67021596D01*
X100333361Y-67218340D01*
X100333361Y-67218343D01*
X100394913Y-67407780D01*
X100394915Y-67407783D01*
X100485347Y-67585266D01*
X100602431Y-67746418D01*
X100743282Y-67887269D01*
X100904434Y-68004353D01*
X100974153Y-68039877D01*
X101055872Y-68081515D01*
X101106668Y-68129490D01*
X101123463Y-68197311D01*
X101100925Y-68263446D01*
X101055872Y-68302485D01*
X100904433Y-68379647D01*
X100812490Y-68446447D01*
X100743282Y-68496731D01*
X100743280Y-68496733D01*
X100743279Y-68496733D01*
X100602433Y-68637579D01*
X100602433Y-68637580D01*
X100602431Y-68637582D01*
X100552147Y-68706790D01*
X100485347Y-68798733D01*
X100394913Y-68976219D01*
X100333361Y-69165656D01*
X100333361Y-69165659D01*
X100302200Y-69362403D01*
X100302200Y-69561596D01*
X100333361Y-69758340D01*
X100333361Y-69758343D01*
X100394913Y-69947780D01*
X100394915Y-69947783D01*
X100485347Y-70125266D01*
X100602431Y-70286418D01*
X100743282Y-70427269D01*
X100904434Y-70544353D01*
X100974153Y-70579877D01*
X101055872Y-70621515D01*
X101106668Y-70669490D01*
X101123463Y-70737311D01*
X101100925Y-70803446D01*
X101055872Y-70842485D01*
X100904433Y-70919647D01*
X100812490Y-70986447D01*
X100743282Y-71036731D01*
X100743280Y-71036733D01*
X100743279Y-71036733D01*
X100602433Y-71177579D01*
X100602433Y-71177580D01*
X100602431Y-71177582D01*
X100552147Y-71246790D01*
X100485347Y-71338733D01*
X100394913Y-71516219D01*
X100333361Y-71705656D01*
X100333361Y-71705659D01*
X100302200Y-71902403D01*
X100302200Y-72101596D01*
X100333361Y-72298340D01*
X100333361Y-72298343D01*
X100394913Y-72487780D01*
X100394915Y-72487783D01*
X100485347Y-72665266D01*
X100602431Y-72826418D01*
X100743282Y-72967269D01*
X100904434Y-73084353D01*
X100974153Y-73119877D01*
X101055872Y-73161515D01*
X101106668Y-73209490D01*
X101123463Y-73277311D01*
X101100925Y-73343446D01*
X101055872Y-73382485D01*
X100904433Y-73459647D01*
X100812490Y-73526447D01*
X100743282Y-73576731D01*
X100743280Y-73576733D01*
X100743279Y-73576733D01*
X100602433Y-73717579D01*
X100602433Y-73717580D01*
X100602431Y-73717582D01*
X100552147Y-73786790D01*
X100485347Y-73878733D01*
X100394913Y-74056219D01*
X100333361Y-74245656D01*
X100333361Y-74245659D01*
X100302200Y-74442403D01*
X100302200Y-74641596D01*
X100333361Y-74838340D01*
X100333361Y-74838343D01*
X100394913Y-75027780D01*
X100420932Y-75078844D01*
X100485347Y-75205266D01*
X100602431Y-75366418D01*
X100743282Y-75507269D01*
X100904434Y-75624353D01*
X100974153Y-75659877D01*
X101055872Y-75701515D01*
X101106668Y-75749490D01*
X101123463Y-75817311D01*
X101100925Y-75883446D01*
X101055872Y-75922485D01*
X100904433Y-75999647D01*
X100812490Y-76066447D01*
X100743282Y-76116731D01*
X100743280Y-76116733D01*
X100743279Y-76116733D01*
X100602433Y-76257579D01*
X100602433Y-76257580D01*
X100602431Y-76257582D01*
X100552147Y-76326790D01*
X100485347Y-76418733D01*
X100394913Y-76596219D01*
X100333361Y-76785656D01*
X100333361Y-76785659D01*
X100302200Y-76982403D01*
X100302200Y-77181596D01*
X100333361Y-77378340D01*
X100333361Y-77378343D01*
X100394913Y-77567780D01*
X100394915Y-77567783D01*
X100485347Y-77745266D01*
X100602431Y-77906418D01*
X100743282Y-78047269D01*
X100904434Y-78164353D01*
X100974153Y-78199877D01*
X101055872Y-78241515D01*
X101106668Y-78289490D01*
X101123463Y-78357311D01*
X101100925Y-78423446D01*
X101055872Y-78462485D01*
X100904433Y-78539647D01*
X100812490Y-78606447D01*
X100743282Y-78656731D01*
X100743280Y-78656733D01*
X100743279Y-78656733D01*
X100602433Y-78797579D01*
X100602433Y-78797580D01*
X100602431Y-78797582D01*
X100552147Y-78866790D01*
X100485347Y-78958733D01*
X100394913Y-79136219D01*
X100333361Y-79325656D01*
X100333361Y-79325659D01*
X100302200Y-79522403D01*
X100302200Y-79721596D01*
X100333361Y-79918340D01*
X100333361Y-79918343D01*
X100394913Y-80107780D01*
X100457322Y-80230264D01*
X100485347Y-80285266D01*
X100602431Y-80446418D01*
X100743282Y-80587269D01*
X100904434Y-80704353D01*
X100974153Y-80739877D01*
X101055872Y-80781515D01*
X101106668Y-80829490D01*
X101123463Y-80897311D01*
X101100925Y-80963446D01*
X101055872Y-81002485D01*
X100904433Y-81079647D01*
X100812490Y-81146447D01*
X100743282Y-81196731D01*
X100743280Y-81196733D01*
X100743279Y-81196733D01*
X100602433Y-81337579D01*
X100602433Y-81337580D01*
X100602431Y-81337582D01*
X100572214Y-81379172D01*
X100485347Y-81498733D01*
X100394913Y-81676219D01*
X100333361Y-81865656D01*
X100333361Y-81865659D01*
X100302200Y-82062403D01*
X100302200Y-82261596D01*
X100333361Y-82458340D01*
X100333361Y-82458343D01*
X100394913Y-82647780D01*
X100394915Y-82647783D01*
X100485347Y-82825266D01*
X100602431Y-82986418D01*
X100743282Y-83127269D01*
X100904434Y-83244353D01*
X100974153Y-83279877D01*
X101055872Y-83321515D01*
X101106668Y-83369490D01*
X101123463Y-83437311D01*
X101100925Y-83503446D01*
X101055872Y-83542485D01*
X100904433Y-83619647D01*
X100812490Y-83686447D01*
X100743282Y-83736731D01*
X100743280Y-83736733D01*
X100743279Y-83736733D01*
X100602433Y-83877579D01*
X100602433Y-83877580D01*
X100602431Y-83877582D01*
X100552147Y-83946790D01*
X100485347Y-84038733D01*
X100394913Y-84216219D01*
X100333361Y-84405656D01*
X100333361Y-84405659D01*
X100302200Y-84602403D01*
X100302200Y-84801596D01*
X100333361Y-84998340D01*
X100333361Y-84998343D01*
X100394913Y-85187780D01*
X100431860Y-85260292D01*
X100485347Y-85365266D01*
X100602431Y-85526418D01*
X100743282Y-85667269D01*
X100904434Y-85784353D01*
X100994609Y-85830299D01*
X101056422Y-85861795D01*
X101107218Y-85909770D01*
X101124013Y-85977591D01*
X101101476Y-86043726D01*
X101056423Y-86082764D01*
X100904693Y-86160075D01*
X100866835Y-86187580D01*
X100866835Y-86187581D01*
X101430125Y-86750871D01*
X101370847Y-86766755D01*
X101254553Y-86833898D01*
X101159598Y-86928853D01*
X101092455Y-87045147D01*
X101076571Y-87104425D01*
X100513281Y-86541135D01*
X100513280Y-86541135D01*
X100485777Y-86578990D01*
X100395379Y-86756405D01*
X100333847Y-86945777D01*
X100302700Y-87142436D01*
X100302700Y-87341563D01*
X100333847Y-87538222D01*
X100395379Y-87727594D01*
X100485777Y-87905008D01*
X100513280Y-87942863D01*
X100513281Y-87942864D01*
X101076571Y-87379574D01*
X101092455Y-87438853D01*
X101159598Y-87555147D01*
X101254553Y-87650102D01*
X101370847Y-87717245D01*
X101430125Y-87733128D01*
X100866834Y-88296417D01*
X100904694Y-88323924D01*
X101082105Y-88414320D01*
X101271477Y-88475852D01*
X101468137Y-88507000D01*
X101667263Y-88507000D01*
X101863922Y-88475852D01*
X102053294Y-88414320D01*
X102230705Y-88323924D01*
X102268563Y-88296418D01*
X102268563Y-88296417D01*
X101705274Y-87733128D01*
X101764553Y-87717245D01*
X101880847Y-87650102D01*
X101975802Y-87555147D01*
X102042945Y-87438853D01*
X102058828Y-87379574D01*
X102622117Y-87942863D01*
X102622118Y-87942863D01*
X102649624Y-87905005D01*
X102740020Y-87727594D01*
X102801552Y-87538222D01*
X102832700Y-87341563D01*
X102832700Y-87142436D01*
X102801552Y-86945777D01*
X102740020Y-86756405D01*
X102649624Y-86578994D01*
X102622117Y-86541135D01*
X102622117Y-86541134D01*
X102058828Y-87104424D01*
X102042945Y-87045147D01*
X101975802Y-86928853D01*
X101880847Y-86833898D01*
X101764553Y-86766755D01*
X101705274Y-86750871D01*
X102268564Y-86187581D01*
X102268563Y-86187580D01*
X102230708Y-86160077D01*
X102078977Y-86082765D01*
X102028181Y-86034790D01*
X102011386Y-85966969D01*
X102033924Y-85900834D01*
X102078977Y-85861795D01*
X102079527Y-85861515D01*
X102230966Y-85784353D01*
X102392118Y-85667269D01*
X102532969Y-85526418D01*
X102650053Y-85365266D01*
X102740485Y-85187783D01*
X102802039Y-84998339D01*
X102833200Y-84801597D01*
X102833200Y-84602403D01*
X102802039Y-84405661D01*
X102802038Y-84405657D01*
X102802038Y-84405656D01*
X102740486Y-84216219D01*
X102651008Y-84040609D01*
X102650053Y-84038734D01*
X102532969Y-83877582D01*
X102392118Y-83736731D01*
X102230966Y-83619647D01*
X102079527Y-83542485D01*
X102028731Y-83494510D01*
X102011936Y-83426689D01*
X102034473Y-83360554D01*
X102079527Y-83321515D01*
X102088816Y-83316781D01*
X102230966Y-83244353D01*
X102392118Y-83127269D01*
X102532969Y-82986418D01*
X102650053Y-82825266D01*
X102740485Y-82647783D01*
X102802039Y-82458339D01*
X102833200Y-82261597D01*
X102833200Y-82062403D01*
X102802039Y-81865661D01*
X102802038Y-81865657D01*
X102802038Y-81865656D01*
X102740486Y-81676219D01*
X102740485Y-81676217D01*
X102650053Y-81498734D01*
X102532969Y-81337582D01*
X102392118Y-81196731D01*
X102230966Y-81079647D01*
X102079527Y-81002485D01*
X102028731Y-80954510D01*
X102011936Y-80886689D01*
X102034473Y-80820554D01*
X102079527Y-80781515D01*
X102108976Y-80766510D01*
X102230966Y-80704353D01*
X102392118Y-80587269D01*
X102532969Y-80446418D01*
X102650053Y-80285266D01*
X102740485Y-80107783D01*
X102802039Y-79918339D01*
X102833200Y-79721597D01*
X102833200Y-79522403D01*
X102802039Y-79325661D01*
X102802038Y-79325657D01*
X102802038Y-79325656D01*
X102740486Y-79136219D01*
X102650052Y-78958733D01*
X102532969Y-78797582D01*
X102392118Y-78656731D01*
X102230966Y-78539647D01*
X102079527Y-78462485D01*
X102028731Y-78414510D01*
X102011936Y-78346689D01*
X102034473Y-78280554D01*
X102079527Y-78241515D01*
X102088816Y-78236781D01*
X102230966Y-78164353D01*
X102392118Y-78047269D01*
X102532969Y-77906418D01*
X102650053Y-77745266D01*
X102740485Y-77567783D01*
X102802039Y-77378339D01*
X102833200Y-77181597D01*
X102833200Y-76982403D01*
X102802039Y-76785661D01*
X102802038Y-76785657D01*
X102802038Y-76785656D01*
X102740486Y-76596219D01*
X102650052Y-76418733D01*
X102532969Y-76257582D01*
X102392118Y-76116731D01*
X102230966Y-75999647D01*
X102079527Y-75922485D01*
X102028731Y-75874510D01*
X102011936Y-75806689D01*
X102034473Y-75740554D01*
X102079527Y-75701515D01*
X102088816Y-75696781D01*
X102230966Y-75624353D01*
X102392118Y-75507269D01*
X102532969Y-75366418D01*
X102650053Y-75205266D01*
X102740485Y-75027783D01*
X102775130Y-74921158D01*
X102802038Y-74838343D01*
X102802038Y-74838342D01*
X102802039Y-74838339D01*
X102833200Y-74641597D01*
X102833200Y-74442403D01*
X102802039Y-74245661D01*
X102802038Y-74245657D01*
X102802038Y-74245656D01*
X102740486Y-74056219D01*
X102650052Y-73878733D01*
X102532969Y-73717582D01*
X102392118Y-73576731D01*
X102230966Y-73459647D01*
X102079527Y-73382485D01*
X102028731Y-73334510D01*
X102011936Y-73266689D01*
X102034473Y-73200554D01*
X102079527Y-73161515D01*
X102088816Y-73156781D01*
X102230966Y-73084353D01*
X102392118Y-72967269D01*
X102532969Y-72826418D01*
X102650053Y-72665266D01*
X102740485Y-72487783D01*
X102802039Y-72298339D01*
X102833200Y-72101597D01*
X102833200Y-71902403D01*
X102802039Y-71705661D01*
X102802038Y-71705657D01*
X102802038Y-71705656D01*
X102740486Y-71516219D01*
X102650052Y-71338733D01*
X102532969Y-71177582D01*
X102392118Y-71036731D01*
X102230966Y-70919647D01*
X102079527Y-70842485D01*
X102028731Y-70794510D01*
X102011936Y-70726689D01*
X102034473Y-70660554D01*
X102079527Y-70621515D01*
X102088816Y-70616781D01*
X102230966Y-70544353D01*
X102392118Y-70427269D01*
X102532969Y-70286418D01*
X102650053Y-70125266D01*
X102740485Y-69947783D01*
X102802039Y-69758339D01*
X102833200Y-69561597D01*
X102833200Y-69362403D01*
X102802039Y-69165661D01*
X102802038Y-69165657D01*
X102802038Y-69165656D01*
X102740486Y-68976219D01*
X102650052Y-68798733D01*
X102532969Y-68637582D01*
X102392118Y-68496731D01*
X102230966Y-68379647D01*
X102079527Y-68302485D01*
X102028731Y-68254510D01*
X102011936Y-68186689D01*
X102034473Y-68120554D01*
X102079527Y-68081515D01*
X102088816Y-68076781D01*
X102230966Y-68004353D01*
X102392118Y-67887269D01*
X102532969Y-67746418D01*
X102650053Y-67585266D01*
X102740485Y-67407783D01*
X102802039Y-67218339D01*
X102833200Y-67021597D01*
X102833200Y-66822403D01*
X102802039Y-66625661D01*
X102802038Y-66625657D01*
X102802038Y-66625656D01*
X102740486Y-66436219D01*
X102650052Y-66258733D01*
X102532969Y-66097582D01*
X102392118Y-65956731D01*
X102230966Y-65839647D01*
X102079527Y-65762485D01*
X102028731Y-65714510D01*
X102011936Y-65646689D01*
X102034473Y-65580554D01*
X102079527Y-65541515D01*
X102088816Y-65536781D01*
X102230966Y-65464353D01*
X102392118Y-65347269D01*
X102532969Y-65206418D01*
X102650053Y-65045266D01*
X102740485Y-64867783D01*
X102773393Y-64766503D01*
X102802038Y-64678343D01*
X102802038Y-64678342D01*
X102802039Y-64678339D01*
X102833200Y-64481597D01*
X102833200Y-64282403D01*
X102802039Y-64085661D01*
X102802038Y-64085657D01*
X102802038Y-64085656D01*
X102740486Y-63896219D01*
X102650052Y-63718733D01*
X102532969Y-63557582D01*
X102392118Y-63416731D01*
X102230966Y-63299647D01*
X102079527Y-63222485D01*
X102028731Y-63174510D01*
X102011936Y-63106689D01*
X102034473Y-63040554D01*
X102079527Y-63001515D01*
X102088816Y-62996781D01*
X102230966Y-62924353D01*
X102392118Y-62807269D01*
X102532969Y-62666418D01*
X102650053Y-62505266D01*
X102740485Y-62327783D01*
X102802039Y-62138339D01*
X102833200Y-61941597D01*
X102833200Y-61742403D01*
X102802039Y-61545661D01*
X102802038Y-61545657D01*
X102802038Y-61545656D01*
X102740486Y-61356219D01*
X102650052Y-61178733D01*
X102532969Y-61017582D01*
X102392118Y-60876731D01*
X102230966Y-60759647D01*
X102079527Y-60682485D01*
X102028731Y-60634510D01*
X102011936Y-60566689D01*
X102034473Y-60500554D01*
X102079527Y-60461515D01*
X102088816Y-60456781D01*
X102230966Y-60384353D01*
X102392118Y-60267269D01*
X102532969Y-60126418D01*
X102650053Y-59965266D01*
X102740485Y-59787783D01*
X102802039Y-59598339D01*
X102833200Y-59401597D01*
X102833200Y-59202403D01*
X102802039Y-59005661D01*
X102802038Y-59005657D01*
X102802038Y-59005656D01*
X102740486Y-58816219D01*
X102727437Y-58790609D01*
X102650053Y-58638734D01*
X102532969Y-58477582D01*
X102392118Y-58336731D01*
X102230966Y-58219647D01*
X102079527Y-58142485D01*
X102028731Y-58094510D01*
X102011936Y-58026689D01*
X102034473Y-57960554D01*
X102079527Y-57921515D01*
X102088816Y-57916781D01*
X102230966Y-57844353D01*
X102392118Y-57727269D01*
X102532969Y-57586418D01*
X102650053Y-57425266D01*
X102740485Y-57247783D01*
X102740486Y-57247780D01*
X102802038Y-57058343D01*
X102802038Y-57058342D01*
X102802039Y-57058339D01*
X102833200Y-56861597D01*
X102833200Y-56662403D01*
X102802039Y-56465661D01*
X102802038Y-56465657D01*
X102802038Y-56465656D01*
X102740486Y-56276219D01*
X102650052Y-56098733D01*
X102532969Y-55937582D01*
X102392118Y-55796731D01*
X102230966Y-55679647D01*
X102079527Y-55602485D01*
X102028731Y-55554510D01*
X102011936Y-55486689D01*
X102034473Y-55420554D01*
X102079527Y-55381515D01*
X102088816Y-55376781D01*
X102230966Y-55304353D01*
X102392118Y-55187269D01*
X102532969Y-55046418D01*
X102650053Y-54885266D01*
X102740485Y-54707783D01*
X102802039Y-54518339D01*
X102833200Y-54321597D01*
X102833200Y-54122403D01*
X102802039Y-53925661D01*
X102802038Y-53925657D01*
X102802038Y-53925656D01*
X102740486Y-53736219D01*
X102650052Y-53558733D01*
X102532969Y-53397582D01*
X102392118Y-53256731D01*
X102230966Y-53139647D01*
X102079527Y-53062485D01*
X102028731Y-53014510D01*
X102011936Y-52946689D01*
X102034473Y-52880554D01*
X102079527Y-52841515D01*
X102088816Y-52836781D01*
X102230966Y-52764353D01*
X102392118Y-52647269D01*
X102532969Y-52506418D01*
X102650053Y-52345266D01*
X102740485Y-52167783D01*
X102802039Y-51978339D01*
X102833200Y-51781597D01*
X102833200Y-51582403D01*
X102802039Y-51385661D01*
X102802038Y-51385657D01*
X102802038Y-51385656D01*
X102740486Y-51196219D01*
X102650052Y-51018733D01*
X102532969Y-50857582D01*
X102392118Y-50716731D01*
X102230966Y-50599647D01*
X102079527Y-50522485D01*
X102028731Y-50474510D01*
X102011936Y-50406689D01*
X102034473Y-50340554D01*
X102079527Y-50301515D01*
X102088816Y-50296781D01*
X102230966Y-50224353D01*
X102392118Y-50107269D01*
X102532969Y-49966418D01*
X102650053Y-49805266D01*
X102740485Y-49627783D01*
X102802039Y-49438339D01*
X102833200Y-49241597D01*
X102833200Y-49042403D01*
X102802039Y-48845661D01*
X102802038Y-48845657D01*
X102802038Y-48845656D01*
X102740486Y-48656219D01*
X102650052Y-48478733D01*
X102532969Y-48317582D01*
X102392118Y-48176731D01*
X102230966Y-48059647D01*
X102079527Y-47982485D01*
X102028731Y-47934510D01*
X102011936Y-47866689D01*
X102034473Y-47800554D01*
X102079527Y-47761515D01*
X102088816Y-47756781D01*
X102230966Y-47684353D01*
X102392118Y-47567269D01*
X102532969Y-47426418D01*
X102650053Y-47265266D01*
X102740485Y-47087783D01*
X102802039Y-46898339D01*
X102833200Y-46701597D01*
X102833200Y-46502403D01*
X102802039Y-46305661D01*
X102802038Y-46305657D01*
X102802038Y-46305656D01*
X102740486Y-46116219D01*
X102650052Y-45938733D01*
X102532969Y-45777582D01*
X102392118Y-45636731D01*
X102230966Y-45519647D01*
X102079527Y-45442485D01*
X102028731Y-45394510D01*
X102011936Y-45326689D01*
X102034473Y-45260554D01*
X102079527Y-45221515D01*
X102088816Y-45216781D01*
X102230966Y-45144353D01*
X102392118Y-45027269D01*
X102532969Y-44886418D01*
X102650053Y-44725266D01*
X102740485Y-44547783D01*
X102802039Y-44358339D01*
X102833200Y-44161597D01*
X102833200Y-43962403D01*
X102802039Y-43765661D01*
X102802038Y-43765657D01*
X102802038Y-43765656D01*
X102740486Y-43576219D01*
X102650052Y-43398733D01*
X102532969Y-43237582D01*
X102392118Y-43096731D01*
X102275243Y-43011816D01*
X102232578Y-42956487D01*
X102226599Y-42886874D01*
X102259205Y-42825079D01*
X102320043Y-42790722D01*
X102348128Y-42787499D01*
X102380572Y-42787499D01*
X102440183Y-42781091D01*
X102575031Y-42730796D01*
X102690246Y-42644546D01*
X102776496Y-42529331D01*
X102826791Y-42394483D01*
X102833200Y-42334873D01*
X102833199Y-41422403D01*
X125702200Y-41422403D01*
X125702200Y-41621597D01*
X125706795Y-41650606D01*
X125733361Y-41818340D01*
X125733361Y-41818343D01*
X125794913Y-42007780D01*
X125794915Y-42007783D01*
X125885347Y-42185266D01*
X126002431Y-42346418D01*
X126143282Y-42487269D01*
X126304434Y-42604353D01*
X126374153Y-42639877D01*
X126455872Y-42681515D01*
X126506668Y-42729490D01*
X126523463Y-42797311D01*
X126500925Y-42863446D01*
X126455872Y-42902485D01*
X126304433Y-42979647D01*
X126212490Y-43046447D01*
X126143282Y-43096731D01*
X126143280Y-43096733D01*
X126143279Y-43096733D01*
X126002433Y-43237579D01*
X126002433Y-43237580D01*
X126002431Y-43237582D01*
X125952147Y-43306790D01*
X125885347Y-43398733D01*
X125794913Y-43576219D01*
X125733361Y-43765656D01*
X125733361Y-43765659D01*
X125702200Y-43962403D01*
X125702200Y-44161596D01*
X125733361Y-44358340D01*
X125733361Y-44358343D01*
X125794913Y-44547780D01*
X125794915Y-44547783D01*
X125885347Y-44725266D01*
X126002431Y-44886418D01*
X126143282Y-45027269D01*
X126304434Y-45144353D01*
X126374153Y-45179877D01*
X126455872Y-45221515D01*
X126506668Y-45269490D01*
X126523463Y-45337311D01*
X126500925Y-45403446D01*
X126455872Y-45442485D01*
X126304433Y-45519647D01*
X126212490Y-45586447D01*
X126143282Y-45636731D01*
X126143280Y-45636733D01*
X126143279Y-45636733D01*
X126002433Y-45777579D01*
X126002433Y-45777580D01*
X126002431Y-45777582D01*
X125952147Y-45846790D01*
X125885347Y-45938733D01*
X125794913Y-46116219D01*
X125733361Y-46305656D01*
X125733361Y-46305659D01*
X125702200Y-46502403D01*
X125702200Y-46701596D01*
X125733361Y-46898340D01*
X125733361Y-46898343D01*
X125794913Y-47087780D01*
X125794915Y-47087783D01*
X125885347Y-47265266D01*
X126002431Y-47426418D01*
X126143282Y-47567269D01*
X126304434Y-47684353D01*
X126374153Y-47719877D01*
X126455872Y-47761515D01*
X126506668Y-47809490D01*
X126523463Y-47877311D01*
X126500925Y-47943446D01*
X126455872Y-47982485D01*
X126304433Y-48059647D01*
X126212490Y-48126447D01*
X126143282Y-48176731D01*
X126143280Y-48176733D01*
X126143279Y-48176733D01*
X126002433Y-48317579D01*
X126002433Y-48317580D01*
X126002431Y-48317582D01*
X125952147Y-48386790D01*
X125885347Y-48478733D01*
X125794913Y-48656219D01*
X125733361Y-48845656D01*
X125733361Y-48845659D01*
X125702200Y-49042403D01*
X125702200Y-49241596D01*
X125733361Y-49438340D01*
X125733361Y-49438343D01*
X125794913Y-49627780D01*
X125794915Y-49627783D01*
X125885347Y-49805266D01*
X126002431Y-49966418D01*
X126143282Y-50107269D01*
X126304434Y-50224353D01*
X126374153Y-50259877D01*
X126455872Y-50301515D01*
X126506668Y-50349490D01*
X126523463Y-50417311D01*
X126500925Y-50483446D01*
X126455872Y-50522485D01*
X126304433Y-50599647D01*
X126212490Y-50666447D01*
X126143282Y-50716731D01*
X126143280Y-50716733D01*
X126143279Y-50716733D01*
X126002433Y-50857579D01*
X126002433Y-50857580D01*
X126002431Y-50857582D01*
X125952147Y-50926790D01*
X125885347Y-51018733D01*
X125794913Y-51196219D01*
X125733361Y-51385656D01*
X125733361Y-51385659D01*
X125702200Y-51582403D01*
X125702200Y-51781596D01*
X125733361Y-51978340D01*
X125733361Y-51978343D01*
X125794913Y-52167780D01*
X125794915Y-52167783D01*
X125885347Y-52345266D01*
X126002431Y-52506418D01*
X126143282Y-52647269D01*
X126304434Y-52764353D01*
X126315003Y-52769738D01*
X126455872Y-52841515D01*
X126506668Y-52889490D01*
X126523463Y-52957311D01*
X126500925Y-53023446D01*
X126455872Y-53062485D01*
X126304433Y-53139647D01*
X126212490Y-53206447D01*
X126143282Y-53256731D01*
X126143280Y-53256733D01*
X126143279Y-53256733D01*
X126002433Y-53397579D01*
X126002433Y-53397580D01*
X126002431Y-53397582D01*
X125952147Y-53466790D01*
X125885347Y-53558733D01*
X125794913Y-53736219D01*
X125733361Y-53925656D01*
X125733361Y-53925659D01*
X125702200Y-54122403D01*
X125702200Y-54321596D01*
X125733361Y-54518340D01*
X125733361Y-54518343D01*
X125794913Y-54707780D01*
X125794915Y-54707783D01*
X125885347Y-54885266D01*
X126002431Y-55046418D01*
X126143282Y-55187269D01*
X126304434Y-55304353D01*
X126374153Y-55339877D01*
X126455872Y-55381515D01*
X126506668Y-55429490D01*
X126523463Y-55497311D01*
X126500925Y-55563446D01*
X126455872Y-55602485D01*
X126304433Y-55679647D01*
X126212490Y-55746447D01*
X126143282Y-55796731D01*
X126143280Y-55796733D01*
X126143279Y-55796733D01*
X126002433Y-55937579D01*
X126002433Y-55937580D01*
X126002431Y-55937582D01*
X125952147Y-56006790D01*
X125885347Y-56098733D01*
X125794913Y-56276219D01*
X125733361Y-56465656D01*
X125733361Y-56465659D01*
X125733361Y-56465661D01*
X125702200Y-56662403D01*
X125702200Y-56861597D01*
X125704832Y-56878213D01*
X125733361Y-57058340D01*
X125733361Y-57058343D01*
X125794913Y-57247780D01*
X125883251Y-57421153D01*
X125885347Y-57425266D01*
X126002431Y-57586418D01*
X126143282Y-57727269D01*
X126304434Y-57844353D01*
X126372770Y-57879172D01*
X126455872Y-57921515D01*
X126506668Y-57969490D01*
X126523463Y-58037311D01*
X126500925Y-58103446D01*
X126455872Y-58142485D01*
X126304433Y-58219647D01*
X126235494Y-58269735D01*
X126143282Y-58336731D01*
X126143280Y-58336733D01*
X126143279Y-58336733D01*
X126002433Y-58477579D01*
X126002433Y-58477580D01*
X126002431Y-58477582D01*
X125952147Y-58546790D01*
X125885347Y-58638733D01*
X125794913Y-58816219D01*
X125733361Y-59005656D01*
X125733361Y-59005659D01*
X125733361Y-59005661D01*
X125702200Y-59202403D01*
X125702200Y-59401597D01*
X125705298Y-59421155D01*
X125733361Y-59598340D01*
X125733361Y-59598343D01*
X125794913Y-59787780D01*
X125885347Y-59965266D01*
X126002431Y-60126418D01*
X126143282Y-60267269D01*
X126304434Y-60384353D01*
X126374153Y-60419877D01*
X126455872Y-60461515D01*
X126506668Y-60509490D01*
X126523463Y-60577311D01*
X126500925Y-60643446D01*
X126455872Y-60682485D01*
X126304433Y-60759647D01*
X126212490Y-60826447D01*
X126143282Y-60876731D01*
X126143280Y-60876733D01*
X126143279Y-60876733D01*
X126002433Y-61017579D01*
X126002433Y-61017580D01*
X126002431Y-61017582D01*
X125952147Y-61086790D01*
X125885347Y-61178733D01*
X125794913Y-61356219D01*
X125733361Y-61545656D01*
X125733361Y-61545659D01*
X125702200Y-61742403D01*
X125702200Y-61941596D01*
X125733361Y-62138340D01*
X125733361Y-62138343D01*
X125794913Y-62327780D01*
X125794915Y-62327783D01*
X125885347Y-62505266D01*
X126002431Y-62666418D01*
X126143282Y-62807269D01*
X126304434Y-62924353D01*
X126374153Y-62959877D01*
X126455872Y-63001515D01*
X126506668Y-63049490D01*
X126523463Y-63117311D01*
X126500925Y-63183446D01*
X126455872Y-63222485D01*
X126304433Y-63299647D01*
X126212490Y-63366447D01*
X126143282Y-63416731D01*
X126143280Y-63416733D01*
X126143279Y-63416733D01*
X126002433Y-63557579D01*
X126002433Y-63557580D01*
X126002431Y-63557582D01*
X125952147Y-63626790D01*
X125885347Y-63718733D01*
X125794913Y-63896219D01*
X125733361Y-64085656D01*
X125733361Y-64085659D01*
X125702200Y-64282403D01*
X125702200Y-64481596D01*
X125733361Y-64678340D01*
X125733361Y-64678343D01*
X125794913Y-64867780D01*
X125794915Y-64867783D01*
X125885347Y-65045266D01*
X126002431Y-65206418D01*
X126143282Y-65347269D01*
X126304434Y-65464353D01*
X126374153Y-65499877D01*
X126455872Y-65541515D01*
X126506668Y-65589490D01*
X126523463Y-65657311D01*
X126500925Y-65723446D01*
X126455872Y-65762485D01*
X126304433Y-65839647D01*
X126212490Y-65906447D01*
X126143282Y-65956731D01*
X126143280Y-65956733D01*
X126143279Y-65956733D01*
X126002433Y-66097579D01*
X126002433Y-66097580D01*
X126002431Y-66097582D01*
X125952147Y-66166790D01*
X125885347Y-66258733D01*
X125794913Y-66436219D01*
X125733361Y-66625656D01*
X125733361Y-66625659D01*
X125702200Y-66822403D01*
X125702200Y-67021596D01*
X125733361Y-67218340D01*
X125733361Y-67218343D01*
X125794913Y-67407780D01*
X125794915Y-67407783D01*
X125885347Y-67585266D01*
X126002431Y-67746418D01*
X126143282Y-67887269D01*
X126304434Y-68004353D01*
X126374153Y-68039877D01*
X126455872Y-68081515D01*
X126506668Y-68129490D01*
X126523463Y-68197311D01*
X126500925Y-68263446D01*
X126455872Y-68302485D01*
X126304433Y-68379647D01*
X126212490Y-68446447D01*
X126143282Y-68496731D01*
X126143280Y-68496733D01*
X126143279Y-68496733D01*
X126002433Y-68637579D01*
X126002433Y-68637580D01*
X126002431Y-68637582D01*
X125952147Y-68706790D01*
X125885347Y-68798733D01*
X125794913Y-68976219D01*
X125733361Y-69165656D01*
X125733361Y-69165659D01*
X125702200Y-69362403D01*
X125702200Y-69561596D01*
X125733361Y-69758340D01*
X125733361Y-69758343D01*
X125794913Y-69947780D01*
X125794915Y-69947783D01*
X125885347Y-70125266D01*
X126002431Y-70286418D01*
X126143282Y-70427269D01*
X126304434Y-70544353D01*
X126374153Y-70579877D01*
X126455872Y-70621515D01*
X126506668Y-70669490D01*
X126523463Y-70737311D01*
X126500925Y-70803446D01*
X126455872Y-70842485D01*
X126304433Y-70919647D01*
X126212490Y-70986447D01*
X126143282Y-71036731D01*
X126143280Y-71036733D01*
X126143279Y-71036733D01*
X126002433Y-71177579D01*
X126002433Y-71177580D01*
X126002431Y-71177582D01*
X125952147Y-71246790D01*
X125885347Y-71338733D01*
X125794913Y-71516219D01*
X125733361Y-71705656D01*
X125733361Y-71705659D01*
X125702200Y-71902403D01*
X125702200Y-72101596D01*
X125733361Y-72298340D01*
X125733361Y-72298343D01*
X125794913Y-72487780D01*
X125794915Y-72487783D01*
X125885347Y-72665266D01*
X126002431Y-72826418D01*
X126143282Y-72967269D01*
X126304434Y-73084353D01*
X126374153Y-73119877D01*
X126455872Y-73161515D01*
X126506668Y-73209490D01*
X126523463Y-73277311D01*
X126500925Y-73343446D01*
X126455872Y-73382485D01*
X126304433Y-73459647D01*
X126212490Y-73526447D01*
X126143282Y-73576731D01*
X126143280Y-73576733D01*
X126143279Y-73576733D01*
X126002433Y-73717579D01*
X126002433Y-73717580D01*
X126002431Y-73717582D01*
X125952147Y-73786790D01*
X125885347Y-73878733D01*
X125794913Y-74056219D01*
X125733361Y-74245656D01*
X125733361Y-74245659D01*
X125702200Y-74442403D01*
X125702200Y-74641596D01*
X125733361Y-74838340D01*
X125733361Y-74838343D01*
X125794913Y-75027780D01*
X125820932Y-75078844D01*
X125885347Y-75205266D01*
X126002431Y-75366418D01*
X126143282Y-75507269D01*
X126304434Y-75624353D01*
X126374153Y-75659877D01*
X126455872Y-75701515D01*
X126506668Y-75749490D01*
X126523463Y-75817311D01*
X126500925Y-75883446D01*
X126455872Y-75922485D01*
X126304433Y-75999647D01*
X126212490Y-76066447D01*
X126143282Y-76116731D01*
X126143280Y-76116733D01*
X126143279Y-76116733D01*
X126002433Y-76257579D01*
X126002433Y-76257580D01*
X126002431Y-76257582D01*
X125952147Y-76326790D01*
X125885347Y-76418733D01*
X125794913Y-76596219D01*
X125733361Y-76785656D01*
X125733361Y-76785659D01*
X125702200Y-76982403D01*
X125702200Y-77181596D01*
X125733361Y-77378340D01*
X125733361Y-77378343D01*
X125794913Y-77567780D01*
X125794915Y-77567783D01*
X125885347Y-77745266D01*
X126002431Y-77906418D01*
X126143282Y-78047269D01*
X126304434Y-78164353D01*
X126374153Y-78199877D01*
X126455872Y-78241515D01*
X126506668Y-78289490D01*
X126523463Y-78357311D01*
X126500925Y-78423446D01*
X126455872Y-78462485D01*
X126304433Y-78539647D01*
X126212490Y-78606447D01*
X126143282Y-78656731D01*
X126143280Y-78656733D01*
X126143279Y-78656733D01*
X126002433Y-78797579D01*
X126002433Y-78797580D01*
X126002431Y-78797582D01*
X125952147Y-78866790D01*
X125885347Y-78958733D01*
X125794913Y-79136219D01*
X125733361Y-79325656D01*
X125733361Y-79325659D01*
X125702200Y-79522403D01*
X125702200Y-79721596D01*
X125733361Y-79918340D01*
X125733361Y-79918343D01*
X125794913Y-80107780D01*
X125857322Y-80230264D01*
X125885347Y-80285266D01*
X126002431Y-80446418D01*
X126143282Y-80587269D01*
X126304434Y-80704353D01*
X126374153Y-80739877D01*
X126455872Y-80781515D01*
X126506668Y-80829490D01*
X126523463Y-80897311D01*
X126500925Y-80963446D01*
X126455872Y-81002485D01*
X126304433Y-81079647D01*
X126212490Y-81146447D01*
X126143282Y-81196731D01*
X126143280Y-81196733D01*
X126143279Y-81196733D01*
X126002433Y-81337579D01*
X126002433Y-81337580D01*
X126002431Y-81337582D01*
X125972214Y-81379172D01*
X125885347Y-81498733D01*
X125794913Y-81676219D01*
X125733361Y-81865656D01*
X125733361Y-81865659D01*
X125702200Y-82062403D01*
X125702200Y-82261596D01*
X125733361Y-82458340D01*
X125733361Y-82458343D01*
X125794913Y-82647780D01*
X125794915Y-82647783D01*
X125885347Y-82825266D01*
X126002431Y-82986418D01*
X126143282Y-83127269D01*
X126304434Y-83244353D01*
X126374153Y-83279877D01*
X126455872Y-83321515D01*
X126506668Y-83369490D01*
X126523463Y-83437311D01*
X126500925Y-83503446D01*
X126455872Y-83542485D01*
X126304433Y-83619647D01*
X126212490Y-83686447D01*
X126143282Y-83736731D01*
X126143280Y-83736733D01*
X126143279Y-83736733D01*
X126002433Y-83877579D01*
X126002433Y-83877580D01*
X126002431Y-83877582D01*
X125952147Y-83946790D01*
X125885347Y-84038733D01*
X125794913Y-84216219D01*
X125733361Y-84405656D01*
X125733361Y-84405659D01*
X125702200Y-84602403D01*
X125702200Y-84801596D01*
X125733361Y-84998340D01*
X125733361Y-84998343D01*
X125794913Y-85187780D01*
X125831860Y-85260292D01*
X125885347Y-85365266D01*
X126002431Y-85526418D01*
X126143282Y-85667269D01*
X126304434Y-85784353D01*
X126374153Y-85819877D01*
X126455872Y-85861515D01*
X126506668Y-85909490D01*
X126523463Y-85977311D01*
X126500925Y-86043446D01*
X126455872Y-86082485D01*
X126304433Y-86159647D01*
X126265986Y-86187581D01*
X126143282Y-86276731D01*
X126143280Y-86276733D01*
X126143279Y-86276733D01*
X126002433Y-86417579D01*
X126002433Y-86417580D01*
X126002431Y-86417582D01*
X125952147Y-86486790D01*
X125885347Y-86578733D01*
X125794913Y-86756219D01*
X125733361Y-86945656D01*
X125733361Y-86945659D01*
X125726385Y-86989707D01*
X125702200Y-87142403D01*
X125702200Y-87341597D01*
X125714801Y-87421155D01*
X125733361Y-87538340D01*
X125733361Y-87538343D01*
X125794913Y-87727780D01*
X125794915Y-87727783D01*
X125885347Y-87905266D01*
X126002431Y-88066418D01*
X126143282Y-88207269D01*
X126304434Y-88324353D01*
X126481004Y-88414320D01*
X126481919Y-88414786D01*
X126671357Y-88476338D01*
X126671358Y-88476338D01*
X126671361Y-88476339D01*
X126868103Y-88507500D01*
X126868104Y-88507500D01*
X127067296Y-88507500D01*
X127067297Y-88507500D01*
X127264039Y-88476339D01*
X127264042Y-88476338D01*
X127264043Y-88476338D01*
X127453480Y-88414786D01*
X127453480Y-88414785D01*
X127453483Y-88414785D01*
X127630966Y-88324353D01*
X127792118Y-88207269D01*
X127932969Y-88066418D01*
X128050053Y-87905266D01*
X128140485Y-87727783D01*
X128183449Y-87595554D01*
X128202038Y-87538343D01*
X128202038Y-87538342D01*
X128202039Y-87538339D01*
X128233200Y-87341597D01*
X128233200Y-87142403D01*
X128202039Y-86945661D01*
X128202038Y-86945657D01*
X128202038Y-86945656D01*
X128140486Y-86756219D01*
X128050052Y-86578733D01*
X127932969Y-86417582D01*
X127792118Y-86276731D01*
X127630966Y-86159647D01*
X127479527Y-86082485D01*
X127428731Y-86034510D01*
X127411936Y-85966689D01*
X127434473Y-85900554D01*
X127479527Y-85861515D01*
X127488816Y-85856781D01*
X127630966Y-85784353D01*
X127792118Y-85667269D01*
X127932969Y-85526418D01*
X128050053Y-85365266D01*
X128140485Y-85187783D01*
X128202039Y-84998339D01*
X128233200Y-84801597D01*
X128233200Y-84602403D01*
X128202039Y-84405661D01*
X128202038Y-84405657D01*
X128202038Y-84405656D01*
X128140486Y-84216219D01*
X128051008Y-84040609D01*
X128050053Y-84038734D01*
X127932969Y-83877582D01*
X127792118Y-83736731D01*
X127630966Y-83619647D01*
X127479527Y-83542485D01*
X127428731Y-83494510D01*
X127411936Y-83426689D01*
X127434473Y-83360554D01*
X127479527Y-83321515D01*
X127488816Y-83316781D01*
X127630966Y-83244353D01*
X127792118Y-83127269D01*
X127932969Y-82986418D01*
X128050053Y-82825266D01*
X128140485Y-82647783D01*
X128202039Y-82458339D01*
X128233200Y-82261597D01*
X128233200Y-82062403D01*
X128202039Y-81865661D01*
X128202038Y-81865657D01*
X128202038Y-81865656D01*
X128140486Y-81676219D01*
X128140485Y-81676217D01*
X128050053Y-81498734D01*
X127932969Y-81337582D01*
X127792118Y-81196731D01*
X127630966Y-81079647D01*
X127479527Y-81002485D01*
X127428731Y-80954510D01*
X127411936Y-80886689D01*
X127434473Y-80820554D01*
X127479527Y-80781515D01*
X127508976Y-80766510D01*
X127630966Y-80704353D01*
X127792118Y-80587269D01*
X127932969Y-80446418D01*
X128050053Y-80285266D01*
X128140485Y-80107783D01*
X128202039Y-79918339D01*
X128233200Y-79721597D01*
X128233200Y-79522403D01*
X128202039Y-79325661D01*
X128202038Y-79325657D01*
X128202038Y-79325656D01*
X128140486Y-79136219D01*
X128050052Y-78958733D01*
X127932969Y-78797582D01*
X127792118Y-78656731D01*
X127630966Y-78539647D01*
X127479527Y-78462485D01*
X127428731Y-78414510D01*
X127411936Y-78346689D01*
X127434473Y-78280554D01*
X127479527Y-78241515D01*
X127488816Y-78236781D01*
X127630966Y-78164353D01*
X127792118Y-78047269D01*
X127932969Y-77906418D01*
X128050053Y-77745266D01*
X128140485Y-77567783D01*
X128202039Y-77378339D01*
X128233200Y-77181597D01*
X128233200Y-76982403D01*
X128202039Y-76785661D01*
X128202038Y-76785657D01*
X128202038Y-76785656D01*
X128140486Y-76596219D01*
X128050052Y-76418733D01*
X127932969Y-76257582D01*
X127792118Y-76116731D01*
X127630966Y-75999647D01*
X127479527Y-75922485D01*
X127428731Y-75874510D01*
X127411936Y-75806689D01*
X127434473Y-75740554D01*
X127479527Y-75701515D01*
X127488816Y-75696781D01*
X127630966Y-75624353D01*
X127792118Y-75507269D01*
X127932969Y-75366418D01*
X128050053Y-75205266D01*
X128140485Y-75027783D01*
X128175130Y-74921158D01*
X128202038Y-74838343D01*
X128202038Y-74838342D01*
X128202039Y-74838339D01*
X128233200Y-74641597D01*
X128233200Y-74442403D01*
X128202039Y-74245661D01*
X128202038Y-74245657D01*
X128202038Y-74245656D01*
X128140486Y-74056219D01*
X128050052Y-73878733D01*
X127932969Y-73717582D01*
X127792118Y-73576731D01*
X127630966Y-73459647D01*
X127479527Y-73382485D01*
X127428731Y-73334510D01*
X127411936Y-73266689D01*
X127434473Y-73200554D01*
X127479527Y-73161515D01*
X127488816Y-73156781D01*
X127630966Y-73084353D01*
X127792118Y-72967269D01*
X127932969Y-72826418D01*
X128050053Y-72665266D01*
X128140485Y-72487783D01*
X128202039Y-72298339D01*
X128233200Y-72101597D01*
X128233200Y-71902403D01*
X128202039Y-71705661D01*
X128202038Y-71705657D01*
X128202038Y-71705656D01*
X128140486Y-71516219D01*
X128050052Y-71338733D01*
X127932969Y-71177582D01*
X127792118Y-71036731D01*
X127630966Y-70919647D01*
X127479527Y-70842485D01*
X127428731Y-70794510D01*
X127411936Y-70726689D01*
X127434473Y-70660554D01*
X127479527Y-70621515D01*
X127488816Y-70616781D01*
X127630966Y-70544353D01*
X127792118Y-70427269D01*
X127932969Y-70286418D01*
X128050053Y-70125266D01*
X128140485Y-69947783D01*
X128202039Y-69758339D01*
X128233200Y-69561597D01*
X128233200Y-69362403D01*
X128202039Y-69165661D01*
X128202038Y-69165657D01*
X128202038Y-69165656D01*
X128140486Y-68976219D01*
X128050052Y-68798733D01*
X127932969Y-68637582D01*
X127792118Y-68496731D01*
X127630966Y-68379647D01*
X127479527Y-68302485D01*
X127428731Y-68254510D01*
X127411936Y-68186689D01*
X127434473Y-68120554D01*
X127479527Y-68081515D01*
X127488816Y-68076781D01*
X127630966Y-68004353D01*
X127792118Y-67887269D01*
X127932969Y-67746418D01*
X128050053Y-67585266D01*
X128140485Y-67407783D01*
X128202039Y-67218339D01*
X128233200Y-67021597D01*
X128233200Y-66822403D01*
X128202039Y-66625661D01*
X128202038Y-66625657D01*
X128202038Y-66625656D01*
X128140486Y-66436219D01*
X128050052Y-66258733D01*
X127932969Y-66097582D01*
X127792118Y-65956731D01*
X127630966Y-65839647D01*
X127479527Y-65762485D01*
X127428731Y-65714510D01*
X127411936Y-65646689D01*
X127434473Y-65580554D01*
X127479527Y-65541515D01*
X127488816Y-65536781D01*
X127630966Y-65464353D01*
X127792118Y-65347269D01*
X127932969Y-65206418D01*
X128050053Y-65045266D01*
X128140485Y-64867783D01*
X128173393Y-64766503D01*
X128202038Y-64678343D01*
X128202038Y-64678342D01*
X128202039Y-64678339D01*
X128233200Y-64481597D01*
X128233200Y-64282403D01*
X128202039Y-64085661D01*
X128202038Y-64085657D01*
X128202038Y-64085656D01*
X128140486Y-63896219D01*
X128050052Y-63718733D01*
X127932969Y-63557582D01*
X127792118Y-63416731D01*
X127630966Y-63299647D01*
X127479527Y-63222485D01*
X127428731Y-63174510D01*
X127411936Y-63106689D01*
X127434473Y-63040554D01*
X127479527Y-63001515D01*
X127488816Y-62996781D01*
X127630966Y-62924353D01*
X127792118Y-62807269D01*
X127932969Y-62666418D01*
X128050053Y-62505266D01*
X128140485Y-62327783D01*
X128202039Y-62138339D01*
X128233200Y-61941597D01*
X128233200Y-61742403D01*
X128202039Y-61545661D01*
X128202038Y-61545657D01*
X128202038Y-61545656D01*
X128140486Y-61356219D01*
X128050052Y-61178733D01*
X127932969Y-61017582D01*
X127792118Y-60876731D01*
X127630966Y-60759647D01*
X127479527Y-60682485D01*
X127428731Y-60634510D01*
X127411936Y-60566689D01*
X127434473Y-60500554D01*
X127479527Y-60461515D01*
X127488816Y-60456781D01*
X127630966Y-60384353D01*
X127792118Y-60267269D01*
X127932969Y-60126418D01*
X128050053Y-59965266D01*
X128140485Y-59787783D01*
X128202039Y-59598339D01*
X128233200Y-59401597D01*
X128233200Y-59202403D01*
X128202039Y-59005661D01*
X128202038Y-59005657D01*
X128202038Y-59005656D01*
X128140486Y-58816219D01*
X128127437Y-58790609D01*
X128050053Y-58638734D01*
X127932969Y-58477582D01*
X127792118Y-58336731D01*
X127630966Y-58219647D01*
X127479527Y-58142485D01*
X127428731Y-58094510D01*
X127411936Y-58026689D01*
X127434473Y-57960554D01*
X127479527Y-57921515D01*
X127488816Y-57916781D01*
X127630966Y-57844353D01*
X127792118Y-57727269D01*
X127932969Y-57586418D01*
X128050053Y-57425266D01*
X128140485Y-57247783D01*
X128140486Y-57247780D01*
X128202038Y-57058343D01*
X128202038Y-57058342D01*
X128202039Y-57058339D01*
X128233200Y-56861597D01*
X128233200Y-56662403D01*
X128202039Y-56465661D01*
X128202038Y-56465657D01*
X128202038Y-56465656D01*
X128140486Y-56276219D01*
X128050052Y-56098733D01*
X127932969Y-55937582D01*
X127792118Y-55796731D01*
X127630966Y-55679647D01*
X127479527Y-55602485D01*
X127428731Y-55554510D01*
X127411936Y-55486689D01*
X127434473Y-55420554D01*
X127479527Y-55381515D01*
X127488816Y-55376781D01*
X127630966Y-55304353D01*
X127792118Y-55187269D01*
X127932969Y-55046418D01*
X128050053Y-54885266D01*
X128140485Y-54707783D01*
X128202039Y-54518339D01*
X128233200Y-54321597D01*
X128233200Y-54122403D01*
X128202039Y-53925661D01*
X128202038Y-53925657D01*
X128202038Y-53925656D01*
X128140486Y-53736219D01*
X128050052Y-53558733D01*
X127932969Y-53397582D01*
X127792118Y-53256731D01*
X127630966Y-53139647D01*
X127479527Y-53062485D01*
X127428731Y-53014510D01*
X127411936Y-52946689D01*
X127434473Y-52880554D01*
X127479527Y-52841515D01*
X127488816Y-52836781D01*
X127630966Y-52764353D01*
X127792118Y-52647269D01*
X127932969Y-52506418D01*
X128050053Y-52345266D01*
X128140485Y-52167783D01*
X128202039Y-51978339D01*
X128233200Y-51781597D01*
X128233200Y-51582403D01*
X128202039Y-51385661D01*
X128202038Y-51385657D01*
X128202038Y-51385656D01*
X128140486Y-51196219D01*
X128050052Y-51018733D01*
X127932969Y-50857582D01*
X127792118Y-50716731D01*
X127630966Y-50599647D01*
X127479527Y-50522485D01*
X127428731Y-50474510D01*
X127411936Y-50406689D01*
X127434473Y-50340554D01*
X127479527Y-50301515D01*
X127488816Y-50296781D01*
X127630966Y-50224353D01*
X127792118Y-50107269D01*
X127932969Y-49966418D01*
X128050053Y-49805266D01*
X128140485Y-49627783D01*
X128202039Y-49438339D01*
X128233200Y-49241597D01*
X128233200Y-49042403D01*
X128202039Y-48845661D01*
X128202038Y-48845657D01*
X128202038Y-48845656D01*
X128140486Y-48656219D01*
X128050052Y-48478733D01*
X127932969Y-48317582D01*
X127792118Y-48176731D01*
X127630966Y-48059647D01*
X127479527Y-47982485D01*
X127428731Y-47934510D01*
X127411936Y-47866689D01*
X127434473Y-47800554D01*
X127479527Y-47761515D01*
X127488816Y-47756781D01*
X127630966Y-47684353D01*
X127792118Y-47567269D01*
X127932969Y-47426418D01*
X128050053Y-47265266D01*
X128140485Y-47087783D01*
X128202039Y-46898339D01*
X128233200Y-46701597D01*
X128233200Y-46502403D01*
X128202039Y-46305661D01*
X128202038Y-46305657D01*
X128202038Y-46305656D01*
X128140486Y-46116219D01*
X128050052Y-45938733D01*
X127932969Y-45777582D01*
X127792118Y-45636731D01*
X127630966Y-45519647D01*
X127479527Y-45442485D01*
X127428731Y-45394510D01*
X127411936Y-45326689D01*
X127434473Y-45260554D01*
X127479527Y-45221515D01*
X127488816Y-45216781D01*
X127630966Y-45144353D01*
X127792118Y-45027269D01*
X127932969Y-44886418D01*
X128050053Y-44725266D01*
X128140485Y-44547783D01*
X128202039Y-44358339D01*
X128233200Y-44161597D01*
X128233200Y-43962403D01*
X128202039Y-43765661D01*
X128202038Y-43765657D01*
X128202038Y-43765656D01*
X128140486Y-43576219D01*
X128050052Y-43398733D01*
X127932969Y-43237582D01*
X127792118Y-43096731D01*
X127630966Y-42979647D01*
X127479527Y-42902485D01*
X127428731Y-42854510D01*
X127411936Y-42786689D01*
X127434473Y-42720554D01*
X127479527Y-42681515D01*
X127488816Y-42676781D01*
X127630966Y-42604353D01*
X127792118Y-42487269D01*
X127932969Y-42346418D01*
X128050053Y-42185266D01*
X128140485Y-42007783D01*
X128176625Y-41896555D01*
X128202038Y-41818343D01*
X128202038Y-41818342D01*
X128202039Y-41818339D01*
X128233200Y-41621597D01*
X128233200Y-41422403D01*
X128202039Y-41225661D01*
X128202038Y-41225657D01*
X128202038Y-41225656D01*
X128140486Y-41036219D01*
X128050052Y-40858733D01*
X128038268Y-40842514D01*
X127932969Y-40697582D01*
X127792118Y-40556731D01*
X127630966Y-40439647D01*
X127552079Y-40399452D01*
X127453480Y-40349213D01*
X127264042Y-40287661D01*
X127116482Y-40264290D01*
X127067297Y-40256500D01*
X126868103Y-40256500D01*
X126802522Y-40266887D01*
X126671359Y-40287661D01*
X126671356Y-40287661D01*
X126481919Y-40349213D01*
X126304433Y-40439647D01*
X126256141Y-40474734D01*
X126143282Y-40556731D01*
X126143280Y-40556733D01*
X126143279Y-40556733D01*
X126002433Y-40697579D01*
X126002433Y-40697580D01*
X126002431Y-40697582D01*
X125952147Y-40766790D01*
X125885347Y-40858733D01*
X125794913Y-41036219D01*
X125733361Y-41225656D01*
X125733361Y-41225659D01*
X125733361Y-41225661D01*
X125702200Y-41422403D01*
X102833199Y-41422403D01*
X102833199Y-40709128D01*
X102826791Y-40649517D01*
X102776496Y-40514669D01*
X102776495Y-40514668D01*
X102776493Y-40514664D01*
X102690247Y-40399455D01*
X102690244Y-40399452D01*
X102575035Y-40313206D01*
X102575028Y-40313202D01*
X102440182Y-40262908D01*
X102440183Y-40262908D01*
X102380583Y-40256501D01*
X102380581Y-40256500D01*
X102380573Y-40256500D01*
X102380564Y-40256500D01*
X100754829Y-40256500D01*
X100754823Y-40256501D01*
X100695216Y-40262908D01*
X100560371Y-40313202D01*
X100560364Y-40313206D01*
X100445155Y-40399452D01*
X100445152Y-40399455D01*
X100358906Y-40514664D01*
X100358902Y-40514671D01*
X100308608Y-40649517D01*
X100303441Y-40697580D01*
X100302201Y-40709123D01*
X100302200Y-40709135D01*
X41675500Y-40709135D01*
X41675500Y-40657486D01*
X41646555Y-40474736D01*
X41605771Y-40349215D01*
X41589380Y-40298767D01*
X41589379Y-40298764D01*
X41505377Y-40133903D01*
X41396621Y-39984213D01*
X41265787Y-39853379D01*
X41116096Y-39744622D01*
X41062778Y-39717455D01*
X40951235Y-39660620D01*
X40951232Y-39660619D01*
X40775265Y-39603445D01*
X40632972Y-39580908D01*
X40592514Y-39574500D01*
X40407486Y-39574500D01*
X40367028Y-39580908D01*
X40224734Y-39603445D01*
X40048767Y-39660619D01*
X40048764Y-39660620D01*
X39883900Y-39744624D01*
X39768392Y-39828545D01*
X39702586Y-39852025D01*
X39634532Y-39836199D01*
X39596241Y-39802539D01*
X39552884Y-39744622D01*
X39532546Y-39717454D01*
X39532544Y-39717453D01*
X39532544Y-39717452D01*
X39417335Y-39631206D01*
X39417328Y-39631202D01*
X39282482Y-39580908D01*
X39282483Y-39580908D01*
X39222883Y-39574501D01*
X39222881Y-39574500D01*
X39222873Y-39574500D01*
X39222864Y-39574500D01*
X37777129Y-39574500D01*
X37777123Y-39574501D01*
X37717516Y-39580908D01*
X37582671Y-39631202D01*
X37582664Y-39631206D01*
X37467455Y-39717452D01*
X37467452Y-39717455D01*
X37381206Y-39832664D01*
X37381202Y-39832671D01*
X37330908Y-39967517D01*
X37324501Y-40027116D01*
X37324500Y-40027135D01*
X36009700Y-40027135D01*
X36009700Y-38671153D01*
X67449500Y-38671153D01*
X67449500Y-38828846D01*
X67480261Y-38983489D01*
X67480264Y-38983501D01*
X67540602Y-39129172D01*
X67540609Y-39129185D01*
X67628210Y-39260288D01*
X67628213Y-39260292D01*
X67739707Y-39371786D01*
X67739711Y-39371789D01*
X67870814Y-39459390D01*
X67870827Y-39459397D01*
X68016498Y-39519735D01*
X68016503Y-39519737D01*
X68171153Y-39550499D01*
X68171156Y-39550500D01*
X68171158Y-39550500D01*
X68328844Y-39550500D01*
X68328845Y-39550499D01*
X68483497Y-39519737D01*
X68629179Y-39459394D01*
X68760289Y-39371789D01*
X68871789Y-39260289D01*
X68959394Y-39129179D01*
X69019737Y-38983497D01*
X69050500Y-38828842D01*
X69050500Y-38671158D01*
X69050500Y-38671155D01*
X69050499Y-38671153D01*
X69019738Y-38516510D01*
X69019737Y-38516503D01*
X68959794Y-38371786D01*
X68959397Y-38370827D01*
X68959390Y-38370814D01*
X68871789Y-38239711D01*
X68871786Y-38239707D01*
X68760292Y-38128213D01*
X68760288Y-38128210D01*
X68629185Y-38040609D01*
X68629172Y-38040602D01*
X68483501Y-37980264D01*
X68483489Y-37980261D01*
X68328845Y-37949500D01*
X68328842Y-37949500D01*
X68171158Y-37949500D01*
X68171155Y-37949500D01*
X68016510Y-37980261D01*
X68016498Y-37980264D01*
X67870827Y-38040602D01*
X67870814Y-38040609D01*
X67739711Y-38128210D01*
X67739707Y-38128213D01*
X67628213Y-38239707D01*
X67628210Y-38239711D01*
X67540609Y-38370814D01*
X67540602Y-38370827D01*
X67480264Y-38516498D01*
X67480261Y-38516510D01*
X67449500Y-38671153D01*
X36009700Y-38671153D01*
X36009700Y-37671153D01*
X53449500Y-37671153D01*
X53449500Y-37828846D01*
X53480261Y-37983489D01*
X53480264Y-37983501D01*
X53540602Y-38129172D01*
X53540609Y-38129185D01*
X53628210Y-38260288D01*
X53628213Y-38260292D01*
X53739707Y-38371786D01*
X53739711Y-38371789D01*
X53870814Y-38459390D01*
X53870827Y-38459397D01*
X54008683Y-38516498D01*
X54016503Y-38519737D01*
X54171153Y-38550499D01*
X54171156Y-38550500D01*
X54171158Y-38550500D01*
X54328844Y-38550500D01*
X54328845Y-38550499D01*
X54339179Y-38548443D01*
X54364287Y-38543450D01*
X54364292Y-38543449D01*
X54449800Y-38526439D01*
X54483497Y-38519737D01*
X54629179Y-38459394D01*
X54760289Y-38371789D01*
X54871789Y-38260289D01*
X54959394Y-38129179D01*
X55019737Y-37983497D01*
X55050500Y-37828842D01*
X55050500Y-37671158D01*
X55050500Y-37671155D01*
X55050499Y-37671153D01*
X55019738Y-37516510D01*
X55019737Y-37516503D01*
X54959794Y-37371786D01*
X54959397Y-37370827D01*
X54959390Y-37370814D01*
X54871789Y-37239711D01*
X54871786Y-37239707D01*
X54760292Y-37128213D01*
X54760288Y-37128210D01*
X54629185Y-37040609D01*
X54629172Y-37040602D01*
X54483501Y-36980264D01*
X54483489Y-36980261D01*
X54328845Y-36949500D01*
X54328842Y-36949500D01*
X54171158Y-36949500D01*
X54171155Y-36949500D01*
X54016510Y-36980261D01*
X54016498Y-36980264D01*
X53870827Y-37040602D01*
X53870814Y-37040609D01*
X53739711Y-37128210D01*
X53739707Y-37128213D01*
X53628213Y-37239707D01*
X53628210Y-37239711D01*
X53540609Y-37370814D01*
X53540602Y-37370827D01*
X53480264Y-37516498D01*
X53480261Y-37516510D01*
X53449500Y-37671153D01*
X36009700Y-37671153D01*
X36009700Y-36671153D01*
X89699500Y-36671153D01*
X89699500Y-36828846D01*
X89730261Y-36983489D01*
X89730264Y-36983501D01*
X89790602Y-37129172D01*
X89790609Y-37129185D01*
X89878210Y-37260288D01*
X89878213Y-37260292D01*
X89989707Y-37371786D01*
X89989711Y-37371789D01*
X90120814Y-37459390D01*
X90120827Y-37459397D01*
X90258683Y-37516498D01*
X90266503Y-37519737D01*
X90421153Y-37550499D01*
X90421156Y-37550500D01*
X90421158Y-37550500D01*
X90578844Y-37550500D01*
X90578845Y-37550499D01*
X90733497Y-37519737D01*
X90879179Y-37459394D01*
X91010289Y-37371789D01*
X91121789Y-37260289D01*
X91209394Y-37129179D01*
X91269737Y-36983497D01*
X91300500Y-36828842D01*
X91300500Y-36671158D01*
X91300500Y-36671155D01*
X91300499Y-36671153D01*
X91269738Y-36516510D01*
X91269737Y-36516503D01*
X91230242Y-36421153D01*
X126199500Y-36421153D01*
X126199500Y-36578846D01*
X126230261Y-36733489D01*
X126230264Y-36733501D01*
X126290602Y-36879172D01*
X126290609Y-36879185D01*
X126378210Y-37010288D01*
X126378213Y-37010292D01*
X126489707Y-37121786D01*
X126489711Y-37121789D01*
X126620814Y-37209390D01*
X126620827Y-37209397D01*
X126766498Y-37269735D01*
X126766503Y-37269737D01*
X126921153Y-37300499D01*
X126921156Y-37300500D01*
X126921158Y-37300500D01*
X127078844Y-37300500D01*
X127078845Y-37300499D01*
X127233497Y-37269737D01*
X127379179Y-37209394D01*
X127510289Y-37121789D01*
X127621789Y-37010289D01*
X127709394Y-36879179D01*
X127769737Y-36733497D01*
X127800500Y-36578842D01*
X127800500Y-36421158D01*
X127800500Y-36421155D01*
X127800499Y-36421153D01*
X127769738Y-36266510D01*
X127769737Y-36266503D01*
X127769735Y-36266498D01*
X127709397Y-36120827D01*
X127709390Y-36120814D01*
X127621789Y-35989711D01*
X127621786Y-35989707D01*
X127510292Y-35878213D01*
X127510288Y-35878210D01*
X127379185Y-35790609D01*
X127379172Y-35790602D01*
X127233501Y-35730264D01*
X127233489Y-35730261D01*
X127078845Y-35699500D01*
X127078842Y-35699500D01*
X126921158Y-35699500D01*
X126921155Y-35699500D01*
X126766510Y-35730261D01*
X126766498Y-35730264D01*
X126620827Y-35790602D01*
X126620814Y-35790609D01*
X126489711Y-35878210D01*
X126489707Y-35878213D01*
X126378213Y-35989707D01*
X126378210Y-35989711D01*
X126290609Y-36120814D01*
X126290602Y-36120827D01*
X126230264Y-36266498D01*
X126230261Y-36266510D01*
X126199500Y-36421153D01*
X91230242Y-36421153D01*
X91229933Y-36420408D01*
X91209397Y-36370827D01*
X91209390Y-36370814D01*
X91121789Y-36239711D01*
X91121786Y-36239707D01*
X91010292Y-36128213D01*
X91010288Y-36128210D01*
X90879185Y-36040609D01*
X90879172Y-36040602D01*
X90733501Y-35980264D01*
X90733489Y-35980261D01*
X90578845Y-35949500D01*
X90578842Y-35949500D01*
X90421158Y-35949500D01*
X90421155Y-35949500D01*
X90266510Y-35980261D01*
X90266498Y-35980264D01*
X90120827Y-36040602D01*
X90120814Y-36040609D01*
X89989711Y-36128210D01*
X89989707Y-36128213D01*
X89878213Y-36239707D01*
X89878210Y-36239711D01*
X89790609Y-36370814D01*
X89790602Y-36370827D01*
X89730264Y-36516498D01*
X89730261Y-36516510D01*
X89699500Y-36671153D01*
X36009700Y-36671153D01*
X36009700Y-34921153D01*
X61699500Y-34921153D01*
X61699500Y-35078846D01*
X61730261Y-35233489D01*
X61730264Y-35233501D01*
X61790602Y-35379172D01*
X61790609Y-35379185D01*
X61878210Y-35510288D01*
X61878213Y-35510292D01*
X61989707Y-35621786D01*
X61989711Y-35621789D01*
X62120814Y-35709390D01*
X62120827Y-35709397D01*
X62266498Y-35769735D01*
X62266503Y-35769737D01*
X62421153Y-35800499D01*
X62421156Y-35800500D01*
X62421158Y-35800500D01*
X62578844Y-35800500D01*
X62578845Y-35800499D01*
X62733497Y-35769737D01*
X62879179Y-35709394D01*
X63010289Y-35621789D01*
X63121789Y-35510289D01*
X63209394Y-35379179D01*
X63269737Y-35233497D01*
X63300500Y-35078842D01*
X63300500Y-34921158D01*
X63300500Y-34921155D01*
X63300499Y-34921153D01*
X84199500Y-34921153D01*
X84199500Y-35078846D01*
X84230261Y-35233489D01*
X84230264Y-35233501D01*
X84290602Y-35379172D01*
X84290609Y-35379185D01*
X84378210Y-35510288D01*
X84378213Y-35510292D01*
X84489707Y-35621786D01*
X84489711Y-35621789D01*
X84620814Y-35709390D01*
X84620827Y-35709397D01*
X84766498Y-35769735D01*
X84766503Y-35769737D01*
X84921153Y-35800499D01*
X84921156Y-35800500D01*
X84921158Y-35800500D01*
X85078844Y-35800500D01*
X85078845Y-35800499D01*
X85233497Y-35769737D01*
X85379179Y-35709394D01*
X85510289Y-35621789D01*
X85621789Y-35510289D01*
X85709394Y-35379179D01*
X85769737Y-35233497D01*
X85800500Y-35078842D01*
X85800500Y-34921158D01*
X85800500Y-34921155D01*
X85800499Y-34921153D01*
X85769738Y-34766510D01*
X85769737Y-34766503D01*
X85732043Y-34675500D01*
X85709397Y-34620827D01*
X85709390Y-34620814D01*
X85621789Y-34489711D01*
X85621786Y-34489707D01*
X85510292Y-34378213D01*
X85510288Y-34378210D01*
X85379185Y-34290609D01*
X85379172Y-34290602D01*
X85233501Y-34230264D01*
X85233489Y-34230261D01*
X85078845Y-34199500D01*
X85078842Y-34199500D01*
X84921158Y-34199500D01*
X84921155Y-34199500D01*
X84766510Y-34230261D01*
X84766498Y-34230264D01*
X84620827Y-34290602D01*
X84620814Y-34290609D01*
X84489711Y-34378210D01*
X84489707Y-34378213D01*
X84378213Y-34489707D01*
X84378210Y-34489711D01*
X84290609Y-34620814D01*
X84290602Y-34620827D01*
X84230264Y-34766498D01*
X84230261Y-34766510D01*
X84199500Y-34921153D01*
X63300499Y-34921153D01*
X63269738Y-34766510D01*
X63269737Y-34766503D01*
X63232043Y-34675500D01*
X63209397Y-34620827D01*
X63209390Y-34620814D01*
X63121789Y-34489711D01*
X63121786Y-34489707D01*
X63010292Y-34378213D01*
X63010288Y-34378210D01*
X62879185Y-34290609D01*
X62879172Y-34290602D01*
X62733501Y-34230264D01*
X62733489Y-34230261D01*
X62578845Y-34199500D01*
X62578842Y-34199500D01*
X62421158Y-34199500D01*
X62421155Y-34199500D01*
X62266510Y-34230261D01*
X62266498Y-34230264D01*
X62120827Y-34290602D01*
X62120814Y-34290609D01*
X61989711Y-34378210D01*
X61989707Y-34378213D01*
X61878213Y-34489707D01*
X61878210Y-34489711D01*
X61790609Y-34620814D01*
X61790602Y-34620827D01*
X61730264Y-34766498D01*
X61730261Y-34766510D01*
X61699500Y-34921153D01*
X36009700Y-34921153D01*
X36009700Y-32777135D01*
X37324500Y-32777135D01*
X37324500Y-34222870D01*
X37324501Y-34222876D01*
X37330908Y-34282483D01*
X37381202Y-34417328D01*
X37381206Y-34417335D01*
X37467452Y-34532544D01*
X37467455Y-34532547D01*
X37582664Y-34618793D01*
X37582671Y-34618797D01*
X37717517Y-34669091D01*
X37717516Y-34669091D01*
X37724444Y-34669835D01*
X37777127Y-34675500D01*
X39222872Y-34675499D01*
X39282483Y-34669091D01*
X39417331Y-34618796D01*
X39532546Y-34532546D01*
X39596241Y-34447459D01*
X39652174Y-34405590D01*
X39721866Y-34400606D01*
X39768392Y-34421453D01*
X39883904Y-34505378D01*
X39937224Y-34532546D01*
X40048764Y-34589379D01*
X40048767Y-34589380D01*
X40136750Y-34617967D01*
X40224736Y-34646555D01*
X40407486Y-34675500D01*
X40407487Y-34675500D01*
X40592513Y-34675500D01*
X40592514Y-34675500D01*
X40775264Y-34646555D01*
X40951235Y-34589379D01*
X41116096Y-34505378D01*
X41265787Y-34396621D01*
X41396621Y-34265787D01*
X41505378Y-34116096D01*
X41589379Y-33951235D01*
X41646555Y-33775264D01*
X41675500Y-33592514D01*
X41675500Y-33407486D01*
X41646555Y-33224736D01*
X41646554Y-33224732D01*
X41639618Y-33203383D01*
X41629146Y-33171153D01*
X53199500Y-33171153D01*
X53199500Y-33328846D01*
X53230261Y-33483489D01*
X53230264Y-33483501D01*
X53290602Y-33629172D01*
X53290609Y-33629185D01*
X53378210Y-33760288D01*
X53378213Y-33760292D01*
X53489707Y-33871786D01*
X53489711Y-33871789D01*
X53620814Y-33959390D01*
X53620827Y-33959397D01*
X53766498Y-34019735D01*
X53766503Y-34019737D01*
X53921153Y-34050499D01*
X53921156Y-34050500D01*
X53921158Y-34050500D01*
X54078844Y-34050500D01*
X54078845Y-34050499D01*
X54233497Y-34019737D01*
X54379179Y-33959394D01*
X54510289Y-33871789D01*
X54621789Y-33760289D01*
X54709394Y-33629179D01*
X54769737Y-33483497D01*
X54800500Y-33328842D01*
X54800500Y-33171158D01*
X54800500Y-33171155D01*
X54800499Y-33171153D01*
X54769737Y-33016503D01*
X54769735Y-33016498D01*
X54709397Y-32870827D01*
X54709390Y-32870814D01*
X54621789Y-32739711D01*
X54621786Y-32739707D01*
X54510292Y-32628213D01*
X54510288Y-32628210D01*
X54379185Y-32540609D01*
X54379172Y-32540602D01*
X54233501Y-32480264D01*
X54233489Y-32480261D01*
X54078845Y-32449500D01*
X54078842Y-32449500D01*
X53921158Y-32449500D01*
X53921155Y-32449500D01*
X53766510Y-32480261D01*
X53766498Y-32480264D01*
X53620827Y-32540602D01*
X53620814Y-32540609D01*
X53489711Y-32628210D01*
X53489707Y-32628213D01*
X53378213Y-32739707D01*
X53378210Y-32739711D01*
X53290609Y-32870814D01*
X53290602Y-32870827D01*
X53230264Y-33016498D01*
X53230261Y-33016510D01*
X53199500Y-33171153D01*
X41629146Y-33171153D01*
X41589380Y-33048767D01*
X41589379Y-33048764D01*
X41505377Y-32883903D01*
X41495877Y-32870827D01*
X41396621Y-32734213D01*
X41265787Y-32603379D01*
X41116096Y-32494622D01*
X41062778Y-32467455D01*
X40951235Y-32410620D01*
X40951232Y-32410619D01*
X40775265Y-32353445D01*
X40632972Y-32330908D01*
X40592514Y-32324500D01*
X40407486Y-32324500D01*
X40367028Y-32330908D01*
X40224734Y-32353445D01*
X40048767Y-32410619D01*
X40048764Y-32410620D01*
X39883900Y-32494624D01*
X39768392Y-32578545D01*
X39702586Y-32602025D01*
X39634532Y-32586199D01*
X39596241Y-32552539D01*
X39552884Y-32494622D01*
X39532546Y-32467454D01*
X39532544Y-32467453D01*
X39532544Y-32467452D01*
X39417335Y-32381206D01*
X39417328Y-32381202D01*
X39282482Y-32330908D01*
X39282483Y-32330908D01*
X39222883Y-32324501D01*
X39222881Y-32324500D01*
X39222873Y-32324500D01*
X39222864Y-32324500D01*
X37777129Y-32324500D01*
X37777123Y-32324501D01*
X37717516Y-32330908D01*
X37582671Y-32381202D01*
X37582664Y-32381206D01*
X37467455Y-32467452D01*
X37467452Y-32467455D01*
X37381206Y-32582664D01*
X37381202Y-32582671D01*
X37330908Y-32717517D01*
X37324501Y-32777116D01*
X37324500Y-32777135D01*
X36009700Y-32777135D01*
X36009700Y-25313300D01*
X36029385Y-25246261D01*
X36082189Y-25200506D01*
X36133700Y-25189300D01*
X134884700Y-25189300D01*
X134951739Y-25208985D01*
G37*
%TD.AperFunction*%
%TD*%
M02*
