%TF.GenerationSoftware,KiCad,Pcbnew,9.0.7*%
%TF.CreationDate,2026-04-25T13:53:13-07:00*%
%TF.ProjectId,Microcontroller,4d696372-6f63-46f6-9e74-726f6c6c6572,rev?*%
%TF.SameCoordinates,Original*%
%TF.FileFunction,Soldermask,Bot*%
%TF.FilePolarity,Negative*%
%FSLAX46Y46*%
G04 Gerber Fmt 4.6, Leading zero omitted, Abs format (unit mm)*
G04 Created by KiCad (PCBNEW 9.0.7) date 2026-04-25 13:53:13*
%MOMM*%
%LPD*%
G01*
G04 APERTURE LIST*
G04 Aperture macros list*
%AMRoundRect*
0 Rectangle with rounded corners*
0 $1 Rounding radius*
0 $2 $3 $4 $5 $6 $7 $8 $9 X,Y pos of 4 corners*
0 Add a 4 corners polygon primitive as box body*
4,1,4,$2,$3,$4,$5,$6,$7,$8,$9,$2,$3,0*
0 Add four circle primitives for the rounded corners*
1,1,$1+$1,$2,$3*
1,1,$1+$1,$4,$5*
1,1,$1+$1,$6,$7*
1,1,$1+$1,$8,$9*
0 Add four rect primitives between the rounded corners*
20,1,$1+$1,$2,$3,$4,$5,0*
20,1,$1+$1,$4,$5,$6,$7,0*
20,1,$1+$1,$6,$7,$8,$9,0*
20,1,$1+$1,$8,$9,$2,$3,0*%
G04 Aperture macros list end*
%ADD10R,0.850000X0.850000*%
%ADD11C,0.850000*%
%ADD12RoundRect,0.102000X-0.765000X-0.765000X0.765000X-0.765000X0.765000X0.765000X-0.765000X0.765000X0*%
%ADD13C,1.734000*%
G04 APERTURE END LIST*
D10*
%TO.C,J4*%
X38500000Y-40750000D03*
D11*
X39500000Y-40750000D03*
%TD*%
D10*
%TO.C,J1*%
X38500000Y-33500000D03*
D11*
X39500000Y-33500000D03*
%TD*%
D12*
%TO.C,U2*%
X101567700Y-41522000D03*
D13*
X101567700Y-44062000D03*
X101567700Y-46602000D03*
X101567700Y-49142000D03*
X101567700Y-51682000D03*
X101567700Y-54222000D03*
X101567700Y-56762000D03*
X101567700Y-59302000D03*
X101567700Y-61842000D03*
X101567700Y-64382000D03*
X101567700Y-66922000D03*
X101567700Y-69462000D03*
X101567700Y-72002000D03*
X101567700Y-74542000D03*
X101567700Y-77082000D03*
X101567700Y-79622000D03*
X101567700Y-82162000D03*
X101567700Y-84702000D03*
X101567700Y-87242000D03*
X126967700Y-87242000D03*
X126967700Y-84702000D03*
X126967700Y-82162000D03*
X126967700Y-79622000D03*
X126967700Y-77082000D03*
X126967700Y-74542000D03*
X126967700Y-72002000D03*
X126967700Y-69462000D03*
X126967700Y-66922000D03*
X126967700Y-64382000D03*
X126967700Y-61842000D03*
X126967700Y-59302000D03*
X126967700Y-56762000D03*
X126967700Y-54222000D03*
X126967700Y-51682000D03*
X126967700Y-49142000D03*
X126967700Y-46602000D03*
X126967700Y-44062000D03*
X126967700Y-41522000D03*
%TD*%
M02*
