M48
; DRILL file {KiCad 9.0.7} date 2026-04-25T12:32:40-0700
; FORMAT={-:-/ absolute / metric / decimal}
; #@! TF.CreationDate,2026-04-25T12:32:40-07:00
; #@! TF.GenerationSoftware,Kicad,Pcbnew,9.0.7
; #@! TF.FileFunction,Plated,1,4,PTH
FMAT,2
METRIC
; #@! TA.AperFunction,Plated,PTH,ViaDrill
T1C0.300
; #@! TA.AperFunction,Plated,PTH,ComponentDrill
T2C0.800
; #@! TA.AperFunction,Plated,PTH,ComponentDrill
T3C1.020
%
G90
G05
T1
X37.55Y-87.5
X37.75Y-92.75
X38.25Y-95.25
X40.25Y-81.0
X46.75Y-61.5
X54.0Y-33.25
X54.25Y-37.75
X62.5Y-35.0
X65.75Y-121.25
X66.75Y-118.5
X67.5Y-117.5
X68.25Y-38.75
X69.0Y-115.0
X70.25Y-84.75
X70.25Y-87.5
X70.25Y-100.5
X70.5Y-52.0
X72.5Y-57.5
X77.0Y-51.25
X80.0Y-90.0
X80.0Y-95.0
X80.0Y-102.5
X80.25Y-59.5
X85.0Y-35.0
X85.0Y-65.0
X85.0Y-112.5
X87.5Y-90.0
X87.5Y-95.0
X89.5Y-32.75
X90.5Y-36.75
X92.5Y-75.0
X97.5Y-57.5
X100.0Y-95.0
X127.0Y-36.5
T2
X38.5Y-33.5
X38.5Y-40.75
X40.5Y-33.5
X40.5Y-40.75
T3
X101.568Y-41.522
X101.568Y-44.062
X101.568Y-46.602
X101.568Y-49.142
X101.568Y-51.682
X101.568Y-54.222
X101.568Y-56.762
X101.568Y-59.302
X101.568Y-61.842
X101.568Y-64.382
X101.568Y-66.922
X101.568Y-69.462
X101.568Y-72.002
X101.568Y-74.542
X101.568Y-77.082
X101.568Y-79.622
X101.568Y-82.162
X101.568Y-84.702
X101.568Y-87.242
X126.968Y-41.522
X126.968Y-44.062
X126.968Y-46.602
X126.968Y-49.142
X126.968Y-51.682
X126.968Y-54.222
X126.968Y-56.762
X126.968Y-59.302
X126.968Y-61.842
X126.968Y-64.382
X126.968Y-66.922
X126.968Y-69.462
X126.968Y-72.002
X126.968Y-74.542
X126.968Y-77.082
X126.968Y-79.622
X126.968Y-82.162
X126.968Y-84.702
X126.968Y-87.242
M30
