%TF.GenerationSoftware,KiCad,Pcbnew,9.0.7*%
%TF.CreationDate,2026-04-25T13:53:13-07:00*%
%TF.ProjectId,Microcontroller,4d696372-6f63-46f6-9e74-726f6c6c6572,rev?*%
%TF.SameCoordinates,Original*%
%TF.FileFunction,Copper,L4,Bot*%
%TF.FilePolarity,Positive*%
%FSLAX46Y46*%
G04 Gerber Fmt 4.6, Leading zero omitted, Abs format (unit mm)*
G04 Created by KiCad (PCBNEW 9.0.7) date 2026-04-25 13:53:13*
%MOMM*%
%LPD*%
G01*
G04 APERTURE LIST*
%TA.AperFunction,ComponentPad*%
%ADD10R,0.850000X0.850000*%
%TD*%
%TA.AperFunction,ComponentPad*%
%ADD11C,0.850000*%
%TD*%
%TA.AperFunction,ComponentPad*%
%ADD12R,1.530000X1.530000*%
%TD*%
%TA.AperFunction,ComponentPad*%
%ADD13C,1.530000*%
%TD*%
%TA.AperFunction,ViaPad*%
%ADD14C,0.600000*%
%TD*%
%TA.AperFunction,Conductor*%
%ADD15C,0.200000*%
%TD*%
G04 APERTURE END LIST*
D10*
%TO.P,J4,1,Pin_1*%
%TO.N,/CANH*%
X38500000Y-40750000D03*
D11*
%TO.P,J4,2,Pin_2*%
%TO.N,/CANL*%
X39500000Y-40750000D03*
%TD*%
D10*
%TO.P,J1,1,Pin_1*%
%TO.N,/24V*%
X38500000Y-33500000D03*
D11*
%TO.P,J1,2,Pin_2*%
%TO.N,GND*%
X39500000Y-33500000D03*
%TD*%
D12*
%TO.P,U2,1,3V3*%
%TO.N,Net-(J2-Pin_1)*%
X101567700Y-41522000D03*
D13*
%TO.P,U2,2,EN*%
%TO.N,Net-(J2-Pin_2)*%
X101567700Y-44062000D03*
%TO.P,U2,3,SENSOR_VP*%
%TO.N,Net-(J2-Pin_3)*%
X101567700Y-46602000D03*
%TO.P,U2,4,SENSOR_VN*%
%TO.N,Net-(J2-Pin_4)*%
X101567700Y-49142000D03*
%TO.P,U2,5,IO34*%
%TO.N,Net-(J2-Pin_5)*%
X101567700Y-51682000D03*
%TO.P,U2,6,IO35*%
%TO.N,Net-(J2-Pin_6)*%
X101567700Y-54222000D03*
%TO.P,U2,7,IO32*%
%TO.N,Net-(J2-Pin_7)*%
X101567700Y-56762000D03*
%TO.P,U2,8,IO33*%
%TO.N,Net-(J2-Pin_8)*%
X101567700Y-59302000D03*
%TO.P,U2,9,IO25*%
%TO.N,Net-(J2-Pin_9)*%
X101567700Y-61842000D03*
%TO.P,U2,10,IO26*%
%TO.N,Net-(J2-Pin_10)*%
X101567700Y-64382000D03*
%TO.P,U2,11,IO27*%
%TO.N,Net-(J2-Pin_11)*%
X101567700Y-66922000D03*
%TO.P,U2,12,IO14*%
%TO.N,Net-(J2-Pin_12)*%
X101567700Y-69462000D03*
%TO.P,U2,13,IO12*%
%TO.N,Net-(J2-Pin_13)*%
X101567700Y-72002000D03*
%TO.P,U2,14,GND1*%
%TO.N,Net-(J2-Pin_14)*%
X101567700Y-74542000D03*
%TO.P,U2,15,IO13*%
%TO.N,Net-(J2-Pin_15)*%
X101567700Y-77082000D03*
%TO.P,U2,16,SD2*%
%TO.N,Net-(J2-Pin_16)*%
X101567700Y-79622000D03*
%TO.P,U2,17,SD3*%
%TO.N,Net-(J2-Pin_17)*%
X101567700Y-82162000D03*
%TO.P,U2,18,CMD*%
%TO.N,Net-(J2-Pin_18)*%
X101567700Y-84702000D03*
%TO.P,U2,19,EXT_5V*%
%TO.N,5.3V OUT*%
X101567700Y-87242000D03*
%TO.P,U2,20,CLK*%
%TO.N,Net-(J3-Pin_19)*%
X126967700Y-87242000D03*
%TO.P,U2,21,SD0*%
%TO.N,Net-(J3-Pin_18)*%
X126967700Y-84702000D03*
%TO.P,U2,22,SD1*%
%TO.N,Net-(J3-Pin_17)*%
X126967700Y-82162000D03*
%TO.P,U2,23,IO15*%
%TO.N,Net-(J3-Pin_16)*%
X126967700Y-79622000D03*
%TO.P,U2,24,IO2*%
%TO.N,Net-(J3-Pin_15)*%
X126967700Y-77082000D03*
%TO.P,U2,25,IO0*%
%TO.N,Net-(J3-Pin_14)*%
X126967700Y-74542000D03*
%TO.P,U2,26,IO4*%
%TO.N,Net-(J3-Pin_13)*%
X126967700Y-72002000D03*
%TO.P,U2,27,IO16*%
%TO.N,Net-(J3-Pin_12)*%
X126967700Y-69462000D03*
%TO.P,U2,28,IO17*%
%TO.N,Net-(J3-Pin_11)*%
X126967700Y-66922000D03*
%TO.P,U2,29,IO5*%
%TO.N,Net-(J3-Pin_10)*%
X126967700Y-64382000D03*
%TO.P,U2,30,IO18*%
%TO.N,Net-(J3-Pin_9)*%
X126967700Y-61842000D03*
%TO.P,U2,31,IO19*%
%TO.N,Net-(J3-Pin_8)*%
X126967700Y-59302000D03*
%TO.P,U2,32,GND2*%
%TO.N,GND*%
X126967700Y-56762000D03*
%TO.P,U2,33,IO21*%
%TO.N,Net-(J3-Pin_6)*%
X126967700Y-54222000D03*
%TO.P,U2,34,RXD0*%
%TO.N,Net-(J3-Pin_5)*%
X126967700Y-51682000D03*
%TO.P,U2,35,TXD0*%
%TO.N,Net-(J3-Pin_4)*%
X126967700Y-49142000D03*
%TO.P,U2,36,IO22*%
%TO.N,Net-(J3-Pin_3)*%
X126967700Y-46602000D03*
%TO.P,U2,37,IO23*%
%TO.N,Net-(J3-Pin_2)*%
X126967700Y-44062000D03*
%TO.P,U2,38,GND3*%
%TO.N,GND*%
X126967700Y-41522000D03*
%TD*%
D14*
%TO.N,GND*%
X90500000Y-36750000D03*
X54000000Y-33250000D03*
X54250000Y-37750000D03*
X46750000Y-61500000D03*
X70250000Y-100500000D03*
X70250000Y-84750000D03*
X127000000Y-36500000D03*
X68250000Y-38750000D03*
X40250000Y-81000000D03*
X70500000Y-52000000D03*
%TO.N,Net-(U1-MISO)*%
X38250000Y-95250000D03*
X80000000Y-90000000D03*
%TO.N,Net-(U1-NSS)*%
X65750000Y-121250000D03*
X80000000Y-102500000D03*
%TO.N,Net-(J3-Pin_2)*%
X97500000Y-57500000D03*
%TO.N,Net-(J3-Pin_9)*%
X87500000Y-95000000D03*
%TO.N,Net-(J3-Pin_11)*%
X72500000Y-57500000D03*
%TO.N,Net-(J2-Pin_5)*%
X37550000Y-87500000D03*
X85000000Y-65000000D03*
%TO.N,Net-(J2-Pin_6)*%
X80250000Y-59500000D03*
%TO.N,Net-(J2-Pin_15)*%
X92500000Y-75000000D03*
X37750000Y-92750000D03*
X85000000Y-112500000D03*
%TO.N,Net-(J3-Pin_8)*%
X87500000Y-90000000D03*
%TO.N,Net-(U1-MOSI)*%
X67500000Y-117500000D03*
X69000000Y-115000000D03*
%TO.N,Net-(U1-SCK)*%
X80000000Y-95000000D03*
X66750000Y-118500000D03*
%TO.N,5.3V OUT*%
X100000000Y-95000000D03*
X91250000Y-31750000D03*
X70250000Y-87500000D03*
X77000000Y-51250000D03*
%TO.N,Net-(U3-FB)*%
X85000000Y-35000000D03*
X62500000Y-35000000D03*
%TD*%
D15*
%TO.N,Net-(U1-MISO)*%
X77500000Y-81250000D02*
X77500000Y-90000000D01*
X77750000Y-90250000D02*
X78000000Y-90000000D01*
X38500000Y-79750000D02*
X76000000Y-79750000D01*
X76000000Y-79750000D02*
X77500000Y-81250000D01*
X77500000Y-90000000D02*
X77750000Y-90250000D01*
X38500000Y-95000000D02*
X38500000Y-79750000D01*
X38250000Y-95250000D02*
X38500000Y-95000000D01*
X78000000Y-90000000D02*
X80000000Y-90000000D01*
%TO.N,Net-(U1-NSS)*%
X80000000Y-107000000D02*
X80000000Y-102500000D01*
X65750000Y-121250000D02*
X80000000Y-107000000D01*
%TO.N,Net-(J3-Pin_2)*%
X99304000Y-55696000D02*
X97500000Y-57500000D01*
X126967700Y-44062000D02*
X115333700Y-55696000D01*
X115333700Y-55696000D02*
X99304000Y-55696000D01*
%TO.N,Net-(J3-Pin_9)*%
X130000000Y-92500000D02*
X130000000Y-64874300D01*
X90000000Y-92500000D02*
X130000000Y-92500000D01*
X130000000Y-64874300D02*
X126967700Y-61842000D01*
X87500000Y-95000000D02*
X90000000Y-92500000D01*
%TO.N,Net-(J3-Pin_11)*%
X126967700Y-66922000D02*
X120821700Y-60776000D01*
X75776000Y-60776000D02*
X72500000Y-57500000D01*
X120821700Y-60776000D02*
X75776000Y-60776000D01*
%TO.N,Net-(J2-Pin_5)*%
X37550000Y-87050000D02*
X37500000Y-87000000D01*
X37550000Y-87500000D02*
X37550000Y-87050000D01*
X37500000Y-67500000D02*
X82500000Y-67500000D01*
X37500000Y-87000000D02*
X37500000Y-67500000D01*
X82500000Y-67500000D02*
X85000000Y-65000000D01*
%TO.N,Net-(J2-Pin_6)*%
X101567700Y-54222000D02*
X85528000Y-54222000D01*
X85528000Y-54222000D02*
X80250000Y-59500000D01*
%TO.N,Net-(J2-Pin_15)*%
X86750000Y-112500000D02*
X85000000Y-112500000D01*
X37500000Y-93000000D02*
X37500000Y-122250000D01*
X92500000Y-75000000D02*
X94582000Y-77082000D01*
X87250000Y-118750000D02*
X87250000Y-113000000D01*
X94582000Y-77082000D02*
X101567700Y-77082000D01*
X83500000Y-122500000D02*
X87250000Y-118750000D01*
X37750000Y-122500000D02*
X83500000Y-122500000D01*
X37750000Y-92750000D02*
X37500000Y-93000000D01*
X87250000Y-113000000D02*
X86750000Y-112500000D01*
X37500000Y-122250000D02*
X37750000Y-122500000D01*
%TO.N,Net-(J3-Pin_8)*%
X87500000Y-90000000D02*
X86899000Y-90601000D01*
X129399000Y-95601000D02*
X132500000Y-92500000D01*
X132500000Y-60000000D02*
X130000000Y-60000000D01*
X86899000Y-90601000D02*
X86899000Y-95248943D01*
X130000000Y-60000000D02*
X129302000Y-59302000D01*
X132500000Y-92500000D02*
X132500000Y-60000000D01*
X129302000Y-59302000D02*
X126967700Y-59302000D01*
X87251057Y-95601000D02*
X129399000Y-95601000D01*
X86899000Y-95248943D02*
X87251057Y-95601000D01*
%TO.N,Net-(U1-MOSI)*%
X69000000Y-115000000D02*
X69000000Y-116000000D01*
X69000000Y-116000000D02*
X67500000Y-117500000D01*
%TO.N,Net-(U1-SCK)*%
X66750000Y-108250000D02*
X80000000Y-95000000D01*
X66750000Y-118500000D02*
X66750000Y-108250000D01*
%TO.N,Net-(U3-FB)*%
X62500000Y-35000000D02*
X85000000Y-35000000D01*
%TD*%
M02*
