%TF.GenerationSoftware,KiCad,Pcbnew,9.0.7*%
%TF.CreationDate,2026-04-25T13:53:13-07:00*%
%TF.ProjectId,Microcontroller,4d696372-6f63-46f6-9e74-726f6c6c6572,rev?*%
%TF.SameCoordinates,Original*%
%TF.FileFunction,Paste,Top*%
%TF.FilePolarity,Positive*%
%FSLAX46Y46*%
G04 Gerber Fmt 4.6, Leading zero omitted, Abs format (unit mm)*
G04 Created by KiCad (PCBNEW 9.0.7) date 2026-04-25 13:53:13*
%MOMM*%
%LPD*%
G01*
G04 APERTURE LIST*
G04 Aperture macros list*
%AMRoundRect*
0 Rectangle with rounded corners*
0 $1 Rounding radius*
0 $2 $3 $4 $5 $6 $7 $8 $9 X,Y pos of 4 corners*
0 Add a 4 corners polygon primitive as box body*
4,1,4,$2,$3,$4,$5,$6,$7,$8,$9,$2,$3,0*
0 Add four circle primitives for the rounded corners*
1,1,$1+$1,$2,$3*
1,1,$1+$1,$4,$5*
1,1,$1+$1,$6,$7*
1,1,$1+$1,$8,$9*
0 Add four rect primitives between the rounded corners*
20,1,$1+$1,$2,$3,$4,$5,0*
20,1,$1+$1,$4,$5,$6,$7,0*
20,1,$1+$1,$6,$7,$8,$9,0*
20,1,$1+$1,$8,$9,$2,$3,0*%
G04 Aperture macros list end*
%ADD10C,0.010000*%
%ADD11RoundRect,0.250000X0.625000X-0.400000X0.625000X0.400000X-0.625000X0.400000X-0.625000X-0.400000X0*%
%ADD12RoundRect,0.250000X0.362500X0.700000X-0.362500X0.700000X-0.362500X-0.700000X0.362500X-0.700000X0*%
%ADD13RoundRect,0.250001X-0.624999X0.462499X-0.624999X-0.462499X0.624999X-0.462499X0.624999X0.462499X0*%
%ADD14RoundRect,0.250000X-0.650000X0.412500X-0.650000X-0.412500X0.650000X-0.412500X0.650000X0.412500X0*%
%ADD15RoundRect,0.250000X0.650000X-0.412500X0.650000X0.412500X-0.650000X0.412500X-0.650000X-0.412500X0*%
%ADD16RoundRect,0.250000X-0.412500X-0.650000X0.412500X-0.650000X0.412500X0.650000X-0.412500X0.650000X0*%
%ADD17RoundRect,0.250000X-0.625000X0.400000X-0.625000X-0.400000X0.625000X-0.400000X0.625000X0.400000X0*%
%ADD18RoundRect,0.187500X-0.437500X-0.562500X0.437500X-0.562500X0.437500X0.562500X-0.437500X0.562500X0*%
%ADD19RoundRect,0.150000X0.825000X0.150000X-0.825000X0.150000X-0.825000X-0.150000X0.825000X-0.150000X0*%
%ADD20RoundRect,0.250000X0.400000X0.625000X-0.400000X0.625000X-0.400000X-0.625000X0.400000X-0.625000X0*%
%ADD21RoundRect,0.250000X0.412500X0.650000X-0.412500X0.650000X-0.412500X-0.650000X0.412500X-0.650000X0*%
%ADD22RoundRect,0.250000X-0.400000X-0.625000X0.400000X-0.625000X0.400000X0.625000X-0.400000X0.625000X0*%
%ADD23RoundRect,0.015000X-0.760000X-0.285000X0.760000X-0.285000X0.760000X0.285000X-0.760000X0.285000X0*%
G04 APERTURE END LIST*
D10*
%TO.C,U3*%
X61258600Y-31966400D02*
X58548600Y-31966400D01*
X58548600Y-28566400D01*
X61258600Y-28566400D01*
X61258600Y-31966400D01*
G36*
X61258600Y-31966400D02*
G01*
X58548600Y-31966400D01*
X58548600Y-28566400D01*
X61258600Y-28566400D01*
X61258600Y-31966400D01*
G37*
%TD*%
D11*
%TO.C,R12*%
X88250000Y-30800000D03*
X88250000Y-27700000D03*
%TD*%
D12*
%TO.C,L1*%
X78412500Y-28000000D03*
X75087500Y-28000000D03*
%TD*%
D13*
%TO.C,CR1*%
X68986400Y-33019100D03*
X68986400Y-35994100D03*
%TD*%
D14*
%TO.C,C11*%
X79908400Y-32187500D03*
X79908400Y-35312500D03*
%TD*%
%TO.C,C10*%
X74500000Y-32437500D03*
X74500000Y-35562500D03*
%TD*%
D15*
%TO.C,C6*%
X68834000Y-29959700D03*
X68834000Y-26834700D03*
%TD*%
D14*
%TO.C,C5*%
X51765200Y-34962700D03*
X51765200Y-38087700D03*
%TD*%
D16*
%TO.C,C4*%
X42687500Y-36000000D03*
X45812500Y-36000000D03*
%TD*%
D15*
%TO.C,C3*%
X45059600Y-30670900D03*
X45059600Y-27545900D03*
%TD*%
D17*
%TO.C,R11*%
X87500000Y-36200000D03*
X87500000Y-39300000D03*
%TD*%
D11*
%TO.C,R3*%
X51500000Y-32300000D03*
X51500000Y-29200000D03*
%TD*%
%TO.C,R1*%
X47750000Y-33550000D03*
X47750000Y-30450000D03*
%TD*%
D18*
%TO.C,U1*%
X63038600Y-115541600D03*
X63038600Y-113001600D03*
X63038600Y-110461600D03*
X63038600Y-102861600D03*
X63038600Y-100321600D03*
X63038600Y-97781600D03*
X63038600Y-95241600D03*
X63038600Y-92701600D03*
X63038600Y-90161600D03*
X63038600Y-87621600D03*
X63038600Y-85081600D03*
X40288600Y-85081600D03*
X40288600Y-87621600D03*
X40288600Y-90161600D03*
X40288600Y-92701600D03*
X40288600Y-95241600D03*
X40288600Y-97781600D03*
X40288600Y-100321600D03*
X40288600Y-102861600D03*
X40288600Y-110461600D03*
X40288600Y-113001600D03*
X40288600Y-115541600D03*
%TD*%
D19*
%TO.C,U6*%
X67853400Y-53810000D03*
X67853400Y-52540000D03*
X67853400Y-51270000D03*
X67853400Y-50000000D03*
X62903400Y-50000000D03*
X62903400Y-51270000D03*
X62903400Y-52540000D03*
X62903400Y-53810000D03*
%TD*%
D20*
%TO.C,R7*%
X85191600Y-95094533D03*
X82091600Y-95094533D03*
%TD*%
D15*
%TO.C,C7*%
X75000000Y-54406800D03*
X75000000Y-51281800D03*
%TD*%
D21*
%TO.C,C2*%
X85204100Y-116257333D03*
X82079100Y-116257333D03*
%TD*%
%TO.C,C1*%
X85204100Y-109183066D03*
X82079100Y-109183066D03*
%TD*%
D22*
%TO.C,R9*%
X51950000Y-58500000D03*
X55050000Y-58500000D03*
%TD*%
D14*
%TO.C,C8*%
X46836400Y-55524400D03*
X46836400Y-58649400D03*
%TD*%
D11*
%TO.C,R8*%
X57606000Y-54050000D03*
X57606000Y-50950000D03*
%TD*%
D22*
%TO.C,R5*%
X82091600Y-102128800D03*
X85191600Y-102128800D03*
%TD*%
D20*
%TO.C,R2*%
X85191600Y-81026000D03*
X82091600Y-81026000D03*
%TD*%
D23*
%TO.C,U3*%
X57203600Y-28361400D03*
X57203600Y-29631400D03*
X57203600Y-30901400D03*
X57203600Y-32171400D03*
X62603600Y-32171400D03*
X62603600Y-30901400D03*
X62603600Y-29631400D03*
X62603600Y-28361400D03*
%TD*%
D15*
%TO.C,C9*%
X46887200Y-49062500D03*
X46887200Y-45937500D03*
%TD*%
D22*
%TO.C,R6*%
X82193200Y-73991733D03*
X85293200Y-73991733D03*
%TD*%
%TO.C,R10*%
X52700000Y-45750000D03*
X55800000Y-45750000D03*
%TD*%
D20*
%TO.C,R4*%
X85191600Y-88060266D03*
X82091600Y-88060266D03*
%TD*%
M02*
