%TF.GenerationSoftware,KiCad,Pcbnew,9.0.7*%
%TF.CreationDate,2026-04-25T12:32:43-07:00*%
%TF.ProjectId,Microcontroller,4d696372-6f63-46f6-9e74-726f6c6c6572,rev?*%
%TF.SameCoordinates,Original*%
%TF.FileFunction,Legend,Top*%
%TF.FilePolarity,Positive*%
%FSLAX46Y46*%
G04 Gerber Fmt 4.6, Leading zero omitted, Abs format (unit mm)*
G04 Created by KiCad (PCBNEW 9.0.7) date 2026-04-25 12:32:43*
%MOMM*%
%LPD*%
G01*
G04 APERTURE LIST*
%ADD10C,0.080000*%
%ADD11C,0.100000*%
%ADD12C,0.150000*%
%ADD13C,0.120000*%
%ADD14C,0.127000*%
%ADD15C,0.200000*%
G04 APERTURE END LIST*
D10*
X41107392Y-31815935D02*
X41069297Y-31796887D01*
X41069297Y-31796887D02*
X41012154Y-31796887D01*
X41012154Y-31796887D02*
X40955011Y-31815935D01*
X40955011Y-31815935D02*
X40916916Y-31854030D01*
X40916916Y-31854030D02*
X40897869Y-31892125D01*
X40897869Y-31892125D02*
X40878821Y-31968316D01*
X40878821Y-31968316D02*
X40878821Y-32025459D01*
X40878821Y-32025459D02*
X40897869Y-32101649D01*
X40897869Y-32101649D02*
X40916916Y-32139744D01*
X40916916Y-32139744D02*
X40955011Y-32177840D01*
X40955011Y-32177840D02*
X41012154Y-32196887D01*
X41012154Y-32196887D02*
X41050250Y-32196887D01*
X41050250Y-32196887D02*
X41107392Y-32177840D01*
X41107392Y-32177840D02*
X41126440Y-32158792D01*
X41126440Y-32158792D02*
X41126440Y-32025459D01*
X41126440Y-32025459D02*
X41050250Y-32025459D01*
X41297869Y-32196887D02*
X41297869Y-31796887D01*
X41297869Y-31796887D02*
X41526440Y-32196887D01*
X41526440Y-32196887D02*
X41526440Y-31796887D01*
X41716917Y-32196887D02*
X41716917Y-31796887D01*
X41716917Y-31796887D02*
X41812155Y-31796887D01*
X41812155Y-31796887D02*
X41869298Y-31815935D01*
X41869298Y-31815935D02*
X41907393Y-31854030D01*
X41907393Y-31854030D02*
X41926440Y-31892125D01*
X41926440Y-31892125D02*
X41945488Y-31968316D01*
X41945488Y-31968316D02*
X41945488Y-32025459D01*
X41945488Y-32025459D02*
X41926440Y-32101649D01*
X41926440Y-32101649D02*
X41907393Y-32139744D01*
X41907393Y-32139744D02*
X41869298Y-32177840D01*
X41869298Y-32177840D02*
X41812155Y-32196887D01*
X41812155Y-32196887D02*
X41716917Y-32196887D01*
X38378821Y-31834982D02*
X38397869Y-31815935D01*
X38397869Y-31815935D02*
X38435964Y-31796887D01*
X38435964Y-31796887D02*
X38531202Y-31796887D01*
X38531202Y-31796887D02*
X38569297Y-31815935D01*
X38569297Y-31815935D02*
X38588345Y-31834982D01*
X38588345Y-31834982D02*
X38607392Y-31873078D01*
X38607392Y-31873078D02*
X38607392Y-31911173D01*
X38607392Y-31911173D02*
X38588345Y-31968316D01*
X38588345Y-31968316D02*
X38359773Y-32196887D01*
X38359773Y-32196887D02*
X38607392Y-32196887D01*
X38950249Y-31930220D02*
X38950249Y-32196887D01*
X38855011Y-31777840D02*
X38759773Y-32063554D01*
X38759773Y-32063554D02*
X39007392Y-32063554D01*
X39102630Y-31796887D02*
X39235963Y-32196887D01*
X39235963Y-32196887D02*
X39369296Y-31796887D01*
X40126440Y-43408792D02*
X40107392Y-43427840D01*
X40107392Y-43427840D02*
X40050250Y-43446887D01*
X40050250Y-43446887D02*
X40012154Y-43446887D01*
X40012154Y-43446887D02*
X39955011Y-43427840D01*
X39955011Y-43427840D02*
X39916916Y-43389744D01*
X39916916Y-43389744D02*
X39897869Y-43351649D01*
X39897869Y-43351649D02*
X39878821Y-43275459D01*
X39878821Y-43275459D02*
X39878821Y-43218316D01*
X39878821Y-43218316D02*
X39897869Y-43142125D01*
X39897869Y-43142125D02*
X39916916Y-43104030D01*
X39916916Y-43104030D02*
X39955011Y-43065935D01*
X39955011Y-43065935D02*
X40012154Y-43046887D01*
X40012154Y-43046887D02*
X40050250Y-43046887D01*
X40050250Y-43046887D02*
X40107392Y-43065935D01*
X40107392Y-43065935D02*
X40126440Y-43084982D01*
X40278821Y-43332601D02*
X40469297Y-43332601D01*
X40240726Y-43446887D02*
X40374059Y-43046887D01*
X40374059Y-43046887D02*
X40507392Y-43446887D01*
X40640726Y-43446887D02*
X40640726Y-43046887D01*
X40640726Y-43046887D02*
X40869297Y-43446887D01*
X40869297Y-43446887D02*
X40869297Y-43046887D01*
X41250250Y-43446887D02*
X41059774Y-43446887D01*
X41059774Y-43446887D02*
X41059774Y-43046887D01*
X37376440Y-43408792D02*
X37357392Y-43427840D01*
X37357392Y-43427840D02*
X37300250Y-43446887D01*
X37300250Y-43446887D02*
X37262154Y-43446887D01*
X37262154Y-43446887D02*
X37205011Y-43427840D01*
X37205011Y-43427840D02*
X37166916Y-43389744D01*
X37166916Y-43389744D02*
X37147869Y-43351649D01*
X37147869Y-43351649D02*
X37128821Y-43275459D01*
X37128821Y-43275459D02*
X37128821Y-43218316D01*
X37128821Y-43218316D02*
X37147869Y-43142125D01*
X37147869Y-43142125D02*
X37166916Y-43104030D01*
X37166916Y-43104030D02*
X37205011Y-43065935D01*
X37205011Y-43065935D02*
X37262154Y-43046887D01*
X37262154Y-43046887D02*
X37300250Y-43046887D01*
X37300250Y-43046887D02*
X37357392Y-43065935D01*
X37357392Y-43065935D02*
X37376440Y-43084982D01*
X37528821Y-43332601D02*
X37719297Y-43332601D01*
X37490726Y-43446887D02*
X37624059Y-43046887D01*
X37624059Y-43046887D02*
X37757392Y-43446887D01*
X37890726Y-43446887D02*
X37890726Y-43046887D01*
X37890726Y-43046887D02*
X38119297Y-43446887D01*
X38119297Y-43446887D02*
X38119297Y-43046887D01*
X38309774Y-43446887D02*
X38309774Y-43046887D01*
X38309774Y-43237363D02*
X38538345Y-43237363D01*
X38538345Y-43446887D02*
X38538345Y-43046887D01*
D11*
X50901695Y-80559019D02*
X50901695Y-81368542D01*
X50901695Y-81368542D02*
X50949314Y-81463780D01*
X50949314Y-81463780D02*
X50996933Y-81511400D01*
X50996933Y-81511400D02*
X51092171Y-81559019D01*
X51092171Y-81559019D02*
X51282647Y-81559019D01*
X51282647Y-81559019D02*
X51377885Y-81511400D01*
X51377885Y-81511400D02*
X51425504Y-81463780D01*
X51425504Y-81463780D02*
X51473123Y-81368542D01*
X51473123Y-81368542D02*
X51473123Y-80559019D01*
X52473123Y-81559019D02*
X51901695Y-81559019D01*
X52187409Y-81559019D02*
X52187409Y-80559019D01*
X52187409Y-80559019D02*
X52092171Y-80701876D01*
X52092171Y-80701876D02*
X51996933Y-80797114D01*
X51996933Y-80797114D02*
X51901695Y-80844733D01*
D12*
X81427980Y-33916857D02*
X81475600Y-33964476D01*
X81475600Y-33964476D02*
X81523219Y-34107333D01*
X81523219Y-34107333D02*
X81523219Y-34202571D01*
X81523219Y-34202571D02*
X81475600Y-34345428D01*
X81475600Y-34345428D02*
X81380361Y-34440666D01*
X81380361Y-34440666D02*
X81285123Y-34488285D01*
X81285123Y-34488285D02*
X81094647Y-34535904D01*
X81094647Y-34535904D02*
X80951790Y-34535904D01*
X80951790Y-34535904D02*
X80761314Y-34488285D01*
X80761314Y-34488285D02*
X80666076Y-34440666D01*
X80666076Y-34440666D02*
X80570838Y-34345428D01*
X80570838Y-34345428D02*
X80523219Y-34202571D01*
X80523219Y-34202571D02*
X80523219Y-34107333D01*
X80523219Y-34107333D02*
X80570838Y-33964476D01*
X80570838Y-33964476D02*
X80618457Y-33916857D01*
X81523219Y-32964476D02*
X81523219Y-33535904D01*
X81523219Y-33250190D02*
X80523219Y-33250190D01*
X80523219Y-33250190D02*
X80666076Y-33345428D01*
X80666076Y-33345428D02*
X80761314Y-33440666D01*
X80761314Y-33440666D02*
X80808933Y-33535904D01*
X81523219Y-32012095D02*
X81523219Y-32583523D01*
X81523219Y-32297809D02*
X80523219Y-32297809D01*
X80523219Y-32297809D02*
X80666076Y-32393047D01*
X80666076Y-32393047D02*
X80761314Y-32488285D01*
X80761314Y-32488285D02*
X80808933Y-32583523D01*
X64616495Y-54759819D02*
X64616495Y-55569342D01*
X64616495Y-55569342D02*
X64664114Y-55664580D01*
X64664114Y-55664580D02*
X64711733Y-55712200D01*
X64711733Y-55712200D02*
X64806971Y-55759819D01*
X64806971Y-55759819D02*
X64997447Y-55759819D01*
X64997447Y-55759819D02*
X65092685Y-55712200D01*
X65092685Y-55712200D02*
X65140304Y-55664580D01*
X65140304Y-55664580D02*
X65187923Y-55569342D01*
X65187923Y-55569342D02*
X65187923Y-54759819D01*
X66092685Y-54759819D02*
X65902209Y-54759819D01*
X65902209Y-54759819D02*
X65806971Y-54807438D01*
X65806971Y-54807438D02*
X65759352Y-54855057D01*
X65759352Y-54855057D02*
X65664114Y-54997914D01*
X65664114Y-54997914D02*
X65616495Y-55188390D01*
X65616495Y-55188390D02*
X65616495Y-55569342D01*
X65616495Y-55569342D02*
X65664114Y-55664580D01*
X65664114Y-55664580D02*
X65711733Y-55712200D01*
X65711733Y-55712200D02*
X65806971Y-55759819D01*
X65806971Y-55759819D02*
X65997447Y-55759819D01*
X65997447Y-55759819D02*
X66092685Y-55712200D01*
X66092685Y-55712200D02*
X66140304Y-55664580D01*
X66140304Y-55664580D02*
X66187923Y-55569342D01*
X66187923Y-55569342D02*
X66187923Y-55331247D01*
X66187923Y-55331247D02*
X66140304Y-55236009D01*
X66140304Y-55236009D02*
X66092685Y-55188390D01*
X66092685Y-55188390D02*
X65997447Y-55140771D01*
X65997447Y-55140771D02*
X65806971Y-55140771D01*
X65806971Y-55140771D02*
X65711733Y-55188390D01*
X65711733Y-55188390D02*
X65664114Y-55236009D01*
X65664114Y-55236009D02*
X65616495Y-55331247D01*
X50904819Y-30916666D02*
X50428628Y-31249999D01*
X50904819Y-31488094D02*
X49904819Y-31488094D01*
X49904819Y-31488094D02*
X49904819Y-31107142D01*
X49904819Y-31107142D02*
X49952438Y-31011904D01*
X49952438Y-31011904D02*
X50000057Y-30964285D01*
X50000057Y-30964285D02*
X50095295Y-30916666D01*
X50095295Y-30916666D02*
X50238152Y-30916666D01*
X50238152Y-30916666D02*
X50333390Y-30964285D01*
X50333390Y-30964285D02*
X50381009Y-31011904D01*
X50381009Y-31011904D02*
X50428628Y-31107142D01*
X50428628Y-31107142D02*
X50428628Y-31488094D01*
X49904819Y-30583332D02*
X49904819Y-29964285D01*
X49904819Y-29964285D02*
X50285771Y-30297618D01*
X50285771Y-30297618D02*
X50285771Y-30154761D01*
X50285771Y-30154761D02*
X50333390Y-30059523D01*
X50333390Y-30059523D02*
X50381009Y-30011904D01*
X50381009Y-30011904D02*
X50476247Y-29964285D01*
X50476247Y-29964285D02*
X50714342Y-29964285D01*
X50714342Y-29964285D02*
X50809580Y-30011904D01*
X50809580Y-30011904D02*
X50857200Y-30059523D01*
X50857200Y-30059523D02*
X50904819Y-30154761D01*
X50904819Y-30154761D02*
X50904819Y-30440475D01*
X50904819Y-30440475D02*
X50857200Y-30535713D01*
X50857200Y-30535713D02*
X50809580Y-30583332D01*
X83296533Y-97327352D02*
X82963200Y-96851161D01*
X82725105Y-97327352D02*
X82725105Y-96327352D01*
X82725105Y-96327352D02*
X83106057Y-96327352D01*
X83106057Y-96327352D02*
X83201295Y-96374971D01*
X83201295Y-96374971D02*
X83248914Y-96422590D01*
X83248914Y-96422590D02*
X83296533Y-96517828D01*
X83296533Y-96517828D02*
X83296533Y-96660685D01*
X83296533Y-96660685D02*
X83248914Y-96755923D01*
X83248914Y-96755923D02*
X83201295Y-96803542D01*
X83201295Y-96803542D02*
X83106057Y-96851161D01*
X83106057Y-96851161D02*
X82725105Y-96851161D01*
X83629867Y-96327352D02*
X84296533Y-96327352D01*
X84296533Y-96327352D02*
X83867962Y-97327352D01*
X43929180Y-29275066D02*
X43976800Y-29322685D01*
X43976800Y-29322685D02*
X44024419Y-29465542D01*
X44024419Y-29465542D02*
X44024419Y-29560780D01*
X44024419Y-29560780D02*
X43976800Y-29703637D01*
X43976800Y-29703637D02*
X43881561Y-29798875D01*
X43881561Y-29798875D02*
X43786323Y-29846494D01*
X43786323Y-29846494D02*
X43595847Y-29894113D01*
X43595847Y-29894113D02*
X43452990Y-29894113D01*
X43452990Y-29894113D02*
X43262514Y-29846494D01*
X43262514Y-29846494D02*
X43167276Y-29798875D01*
X43167276Y-29798875D02*
X43072038Y-29703637D01*
X43072038Y-29703637D02*
X43024419Y-29560780D01*
X43024419Y-29560780D02*
X43024419Y-29465542D01*
X43024419Y-29465542D02*
X43072038Y-29322685D01*
X43072038Y-29322685D02*
X43119657Y-29275066D01*
X43024419Y-28941732D02*
X43024419Y-28322685D01*
X43024419Y-28322685D02*
X43405371Y-28656018D01*
X43405371Y-28656018D02*
X43405371Y-28513161D01*
X43405371Y-28513161D02*
X43452990Y-28417923D01*
X43452990Y-28417923D02*
X43500609Y-28370304D01*
X43500609Y-28370304D02*
X43595847Y-28322685D01*
X43595847Y-28322685D02*
X43833942Y-28322685D01*
X43833942Y-28322685D02*
X43929180Y-28370304D01*
X43929180Y-28370304D02*
X43976800Y-28417923D01*
X43976800Y-28417923D02*
X44024419Y-28513161D01*
X44024419Y-28513161D02*
X44024419Y-28798875D01*
X44024419Y-28798875D02*
X43976800Y-28894113D01*
X43976800Y-28894113D02*
X43929180Y-28941732D01*
X87654819Y-31142857D02*
X87178628Y-31476190D01*
X87654819Y-31714285D02*
X86654819Y-31714285D01*
X86654819Y-31714285D02*
X86654819Y-31333333D01*
X86654819Y-31333333D02*
X86702438Y-31238095D01*
X86702438Y-31238095D02*
X86750057Y-31190476D01*
X86750057Y-31190476D02*
X86845295Y-31142857D01*
X86845295Y-31142857D02*
X86988152Y-31142857D01*
X86988152Y-31142857D02*
X87083390Y-31190476D01*
X87083390Y-31190476D02*
X87131009Y-31238095D01*
X87131009Y-31238095D02*
X87178628Y-31333333D01*
X87178628Y-31333333D02*
X87178628Y-31714285D01*
X87654819Y-30190476D02*
X87654819Y-30761904D01*
X87654819Y-30476190D02*
X86654819Y-30476190D01*
X86654819Y-30476190D02*
X86797676Y-30571428D01*
X86797676Y-30571428D02*
X86892914Y-30666666D01*
X86892914Y-30666666D02*
X86940533Y-30761904D01*
X86750057Y-29809523D02*
X86702438Y-29761904D01*
X86702438Y-29761904D02*
X86654819Y-29666666D01*
X86654819Y-29666666D02*
X86654819Y-29428571D01*
X86654819Y-29428571D02*
X86702438Y-29333333D01*
X86702438Y-29333333D02*
X86750057Y-29285714D01*
X86750057Y-29285714D02*
X86845295Y-29238095D01*
X86845295Y-29238095D02*
X86940533Y-29238095D01*
X86940533Y-29238095D02*
X87083390Y-29285714D01*
X87083390Y-29285714D02*
X87654819Y-29857142D01*
X87654819Y-29857142D02*
X87654819Y-29238095D01*
X72909580Y-53073466D02*
X72957200Y-53121085D01*
X72957200Y-53121085D02*
X73004819Y-53263942D01*
X73004819Y-53263942D02*
X73004819Y-53359180D01*
X73004819Y-53359180D02*
X72957200Y-53502037D01*
X72957200Y-53502037D02*
X72861961Y-53597275D01*
X72861961Y-53597275D02*
X72766723Y-53644894D01*
X72766723Y-53644894D02*
X72576247Y-53692513D01*
X72576247Y-53692513D02*
X72433390Y-53692513D01*
X72433390Y-53692513D02*
X72242914Y-53644894D01*
X72242914Y-53644894D02*
X72147676Y-53597275D01*
X72147676Y-53597275D02*
X72052438Y-53502037D01*
X72052438Y-53502037D02*
X72004819Y-53359180D01*
X72004819Y-53359180D02*
X72004819Y-53263942D01*
X72004819Y-53263942D02*
X72052438Y-53121085D01*
X72052438Y-53121085D02*
X72100057Y-53073466D01*
X72004819Y-52740132D02*
X72004819Y-52073466D01*
X72004819Y-52073466D02*
X73004819Y-52502037D01*
X83474933Y-118466913D02*
X83427314Y-118514533D01*
X83427314Y-118514533D02*
X83284457Y-118562152D01*
X83284457Y-118562152D02*
X83189219Y-118562152D01*
X83189219Y-118562152D02*
X83046362Y-118514533D01*
X83046362Y-118514533D02*
X82951124Y-118419294D01*
X82951124Y-118419294D02*
X82903505Y-118324056D01*
X82903505Y-118324056D02*
X82855886Y-118133580D01*
X82855886Y-118133580D02*
X82855886Y-117990723D01*
X82855886Y-117990723D02*
X82903505Y-117800247D01*
X82903505Y-117800247D02*
X82951124Y-117705009D01*
X82951124Y-117705009D02*
X83046362Y-117609771D01*
X83046362Y-117609771D02*
X83189219Y-117562152D01*
X83189219Y-117562152D02*
X83284457Y-117562152D01*
X83284457Y-117562152D02*
X83427314Y-117609771D01*
X83427314Y-117609771D02*
X83474933Y-117657390D01*
X83855886Y-117657390D02*
X83903505Y-117609771D01*
X83903505Y-117609771D02*
X83998743Y-117562152D01*
X83998743Y-117562152D02*
X84236838Y-117562152D01*
X84236838Y-117562152D02*
X84332076Y-117609771D01*
X84332076Y-117609771D02*
X84379695Y-117657390D01*
X84379695Y-117657390D02*
X84427314Y-117752628D01*
X84427314Y-117752628D02*
X84427314Y-117847866D01*
X84427314Y-117847866D02*
X84379695Y-117990723D01*
X84379695Y-117990723D02*
X83808267Y-118562152D01*
X83808267Y-118562152D02*
X84427314Y-118562152D01*
X48071219Y-32780266D02*
X47595028Y-33113599D01*
X48071219Y-33351694D02*
X47071219Y-33351694D01*
X47071219Y-33351694D02*
X47071219Y-32970742D01*
X47071219Y-32970742D02*
X47118838Y-32875504D01*
X47118838Y-32875504D02*
X47166457Y-32827885D01*
X47166457Y-32827885D02*
X47261695Y-32780266D01*
X47261695Y-32780266D02*
X47404552Y-32780266D01*
X47404552Y-32780266D02*
X47499790Y-32827885D01*
X47499790Y-32827885D02*
X47547409Y-32875504D01*
X47547409Y-32875504D02*
X47595028Y-32970742D01*
X47595028Y-32970742D02*
X47595028Y-33351694D01*
X48071219Y-31827885D02*
X48071219Y-32399313D01*
X48071219Y-32113599D02*
X47071219Y-32113599D01*
X47071219Y-32113599D02*
X47214076Y-32208837D01*
X47214076Y-32208837D02*
X47309314Y-32304075D01*
X47309314Y-32304075D02*
X47356933Y-32399313D01*
X77821180Y-33866057D02*
X77868800Y-33913676D01*
X77868800Y-33913676D02*
X77916419Y-34056533D01*
X77916419Y-34056533D02*
X77916419Y-34151771D01*
X77916419Y-34151771D02*
X77868800Y-34294628D01*
X77868800Y-34294628D02*
X77773561Y-34389866D01*
X77773561Y-34389866D02*
X77678323Y-34437485D01*
X77678323Y-34437485D02*
X77487847Y-34485104D01*
X77487847Y-34485104D02*
X77344990Y-34485104D01*
X77344990Y-34485104D02*
X77154514Y-34437485D01*
X77154514Y-34437485D02*
X77059276Y-34389866D01*
X77059276Y-34389866D02*
X76964038Y-34294628D01*
X76964038Y-34294628D02*
X76916419Y-34151771D01*
X76916419Y-34151771D02*
X76916419Y-34056533D01*
X76916419Y-34056533D02*
X76964038Y-33913676D01*
X76964038Y-33913676D02*
X77011657Y-33866057D01*
X77916419Y-32913676D02*
X77916419Y-33485104D01*
X77916419Y-33199390D02*
X76916419Y-33199390D01*
X76916419Y-33199390D02*
X77059276Y-33294628D01*
X77059276Y-33294628D02*
X77154514Y-33389866D01*
X77154514Y-33389866D02*
X77202133Y-33485104D01*
X76916419Y-32294628D02*
X76916419Y-32199390D01*
X76916419Y-32199390D02*
X76964038Y-32104152D01*
X76964038Y-32104152D02*
X77011657Y-32056533D01*
X77011657Y-32056533D02*
X77106895Y-32008914D01*
X77106895Y-32008914D02*
X77297371Y-31961295D01*
X77297371Y-31961295D02*
X77535466Y-31961295D01*
X77535466Y-31961295D02*
X77725942Y-32008914D01*
X77725942Y-32008914D02*
X77821180Y-32056533D01*
X77821180Y-32056533D02*
X77868800Y-32104152D01*
X77868800Y-32104152D02*
X77916419Y-32199390D01*
X77916419Y-32199390D02*
X77916419Y-32294628D01*
X77916419Y-32294628D02*
X77868800Y-32389866D01*
X77868800Y-32389866D02*
X77821180Y-32437485D01*
X77821180Y-32437485D02*
X77725942Y-32485104D01*
X77725942Y-32485104D02*
X77535466Y-32532723D01*
X77535466Y-32532723D02*
X77297371Y-32532723D01*
X77297371Y-32532723D02*
X77106895Y-32485104D01*
X77106895Y-32485104D02*
X77011657Y-32437485D01*
X77011657Y-32437485D02*
X76964038Y-32389866D01*
X76964038Y-32389866D02*
X76916419Y-32294628D01*
X35844819Y-41083333D02*
X36559104Y-41083333D01*
X36559104Y-41083333D02*
X36701961Y-41130952D01*
X36701961Y-41130952D02*
X36797200Y-41226190D01*
X36797200Y-41226190D02*
X36844819Y-41369047D01*
X36844819Y-41369047D02*
X36844819Y-41464285D01*
X36178152Y-40178571D02*
X36844819Y-40178571D01*
X35797200Y-40416666D02*
X36511485Y-40654761D01*
X36511485Y-40654761D02*
X36511485Y-40035714D01*
X83474933Y-111392646D02*
X83427314Y-111440266D01*
X83427314Y-111440266D02*
X83284457Y-111487885D01*
X83284457Y-111487885D02*
X83189219Y-111487885D01*
X83189219Y-111487885D02*
X83046362Y-111440266D01*
X83046362Y-111440266D02*
X82951124Y-111345027D01*
X82951124Y-111345027D02*
X82903505Y-111249789D01*
X82903505Y-111249789D02*
X82855886Y-111059313D01*
X82855886Y-111059313D02*
X82855886Y-110916456D01*
X82855886Y-110916456D02*
X82903505Y-110725980D01*
X82903505Y-110725980D02*
X82951124Y-110630742D01*
X82951124Y-110630742D02*
X83046362Y-110535504D01*
X83046362Y-110535504D02*
X83189219Y-110487885D01*
X83189219Y-110487885D02*
X83284457Y-110487885D01*
X83284457Y-110487885D02*
X83427314Y-110535504D01*
X83427314Y-110535504D02*
X83474933Y-110583123D01*
X84427314Y-111487885D02*
X83855886Y-111487885D01*
X84141600Y-111487885D02*
X84141600Y-110487885D01*
X84141600Y-110487885D02*
X84046362Y-110630742D01*
X84046362Y-110630742D02*
X83951124Y-110725980D01*
X83951124Y-110725980D02*
X83855886Y-110773599D01*
X51860133Y-60834419D02*
X51526800Y-60358228D01*
X51288705Y-60834419D02*
X51288705Y-59834419D01*
X51288705Y-59834419D02*
X51669657Y-59834419D01*
X51669657Y-59834419D02*
X51764895Y-59882038D01*
X51764895Y-59882038D02*
X51812514Y-59929657D01*
X51812514Y-59929657D02*
X51860133Y-60024895D01*
X51860133Y-60024895D02*
X51860133Y-60167752D01*
X51860133Y-60167752D02*
X51812514Y-60262990D01*
X51812514Y-60262990D02*
X51764895Y-60310609D01*
X51764895Y-60310609D02*
X51669657Y-60358228D01*
X51669657Y-60358228D02*
X51288705Y-60358228D01*
X52336324Y-60834419D02*
X52526800Y-60834419D01*
X52526800Y-60834419D02*
X52622038Y-60786800D01*
X52622038Y-60786800D02*
X52669657Y-60739180D01*
X52669657Y-60739180D02*
X52764895Y-60596323D01*
X52764895Y-60596323D02*
X52812514Y-60405847D01*
X52812514Y-60405847D02*
X52812514Y-60024895D01*
X52812514Y-60024895D02*
X52764895Y-59929657D01*
X52764895Y-59929657D02*
X52717276Y-59882038D01*
X52717276Y-59882038D02*
X52622038Y-59834419D01*
X52622038Y-59834419D02*
X52431562Y-59834419D01*
X52431562Y-59834419D02*
X52336324Y-59882038D01*
X52336324Y-59882038D02*
X52288705Y-59929657D01*
X52288705Y-59929657D02*
X52241086Y-60024895D01*
X52241086Y-60024895D02*
X52241086Y-60262990D01*
X52241086Y-60262990D02*
X52288705Y-60358228D01*
X52288705Y-60358228D02*
X52336324Y-60405847D01*
X52336324Y-60405847D02*
X52431562Y-60453466D01*
X52431562Y-60453466D02*
X52622038Y-60453466D01*
X52622038Y-60453466D02*
X52717276Y-60405847D01*
X52717276Y-60405847D02*
X52764895Y-60358228D01*
X52764895Y-60358228D02*
X52812514Y-60262990D01*
X49045980Y-57253566D02*
X49093600Y-57301185D01*
X49093600Y-57301185D02*
X49141219Y-57444042D01*
X49141219Y-57444042D02*
X49141219Y-57539280D01*
X49141219Y-57539280D02*
X49093600Y-57682137D01*
X49093600Y-57682137D02*
X48998361Y-57777375D01*
X48998361Y-57777375D02*
X48903123Y-57824994D01*
X48903123Y-57824994D02*
X48712647Y-57872613D01*
X48712647Y-57872613D02*
X48569790Y-57872613D01*
X48569790Y-57872613D02*
X48379314Y-57824994D01*
X48379314Y-57824994D02*
X48284076Y-57777375D01*
X48284076Y-57777375D02*
X48188838Y-57682137D01*
X48188838Y-57682137D02*
X48141219Y-57539280D01*
X48141219Y-57539280D02*
X48141219Y-57444042D01*
X48141219Y-57444042D02*
X48188838Y-57301185D01*
X48188838Y-57301185D02*
X48236457Y-57253566D01*
X48569790Y-56682137D02*
X48522171Y-56777375D01*
X48522171Y-56777375D02*
X48474552Y-56824994D01*
X48474552Y-56824994D02*
X48379314Y-56872613D01*
X48379314Y-56872613D02*
X48331695Y-56872613D01*
X48331695Y-56872613D02*
X48236457Y-56824994D01*
X48236457Y-56824994D02*
X48188838Y-56777375D01*
X48188838Y-56777375D02*
X48141219Y-56682137D01*
X48141219Y-56682137D02*
X48141219Y-56491661D01*
X48141219Y-56491661D02*
X48188838Y-56396423D01*
X48188838Y-56396423D02*
X48236457Y-56348804D01*
X48236457Y-56348804D02*
X48331695Y-56301185D01*
X48331695Y-56301185D02*
X48379314Y-56301185D01*
X48379314Y-56301185D02*
X48474552Y-56348804D01*
X48474552Y-56348804D02*
X48522171Y-56396423D01*
X48522171Y-56396423D02*
X48569790Y-56491661D01*
X48569790Y-56491661D02*
X48569790Y-56682137D01*
X48569790Y-56682137D02*
X48617409Y-56777375D01*
X48617409Y-56777375D02*
X48665028Y-56824994D01*
X48665028Y-56824994D02*
X48760266Y-56872613D01*
X48760266Y-56872613D02*
X48950742Y-56872613D01*
X48950742Y-56872613D02*
X49045980Y-56824994D01*
X49045980Y-56824994D02*
X49093600Y-56777375D01*
X49093600Y-56777375D02*
X49141219Y-56682137D01*
X49141219Y-56682137D02*
X49141219Y-56491661D01*
X49141219Y-56491661D02*
X49093600Y-56396423D01*
X49093600Y-56396423D02*
X49045980Y-56348804D01*
X49045980Y-56348804D02*
X48950742Y-56301185D01*
X48950742Y-56301185D02*
X48760266Y-56301185D01*
X48760266Y-56301185D02*
X48665028Y-56348804D01*
X48665028Y-56348804D02*
X48617409Y-56396423D01*
X48617409Y-56396423D02*
X48569790Y-56491661D01*
X59838819Y-52794266D02*
X59362628Y-53127599D01*
X59838819Y-53365694D02*
X58838819Y-53365694D01*
X58838819Y-53365694D02*
X58838819Y-52984742D01*
X58838819Y-52984742D02*
X58886438Y-52889504D01*
X58886438Y-52889504D02*
X58934057Y-52841885D01*
X58934057Y-52841885D02*
X59029295Y-52794266D01*
X59029295Y-52794266D02*
X59172152Y-52794266D01*
X59172152Y-52794266D02*
X59267390Y-52841885D01*
X59267390Y-52841885D02*
X59315009Y-52889504D01*
X59315009Y-52889504D02*
X59362628Y-52984742D01*
X59362628Y-52984742D02*
X59362628Y-53365694D01*
X59267390Y-52222837D02*
X59219771Y-52318075D01*
X59219771Y-52318075D02*
X59172152Y-52365694D01*
X59172152Y-52365694D02*
X59076914Y-52413313D01*
X59076914Y-52413313D02*
X59029295Y-52413313D01*
X59029295Y-52413313D02*
X58934057Y-52365694D01*
X58934057Y-52365694D02*
X58886438Y-52318075D01*
X58886438Y-52318075D02*
X58838819Y-52222837D01*
X58838819Y-52222837D02*
X58838819Y-52032361D01*
X58838819Y-52032361D02*
X58886438Y-51937123D01*
X58886438Y-51937123D02*
X58934057Y-51889504D01*
X58934057Y-51889504D02*
X59029295Y-51841885D01*
X59029295Y-51841885D02*
X59076914Y-51841885D01*
X59076914Y-51841885D02*
X59172152Y-51889504D01*
X59172152Y-51889504D02*
X59219771Y-51937123D01*
X59219771Y-51937123D02*
X59267390Y-52032361D01*
X59267390Y-52032361D02*
X59267390Y-52222837D01*
X59267390Y-52222837D02*
X59315009Y-52318075D01*
X59315009Y-52318075D02*
X59362628Y-52365694D01*
X59362628Y-52365694D02*
X59457866Y-52413313D01*
X59457866Y-52413313D02*
X59648342Y-52413313D01*
X59648342Y-52413313D02*
X59743580Y-52365694D01*
X59743580Y-52365694D02*
X59791200Y-52318075D01*
X59791200Y-52318075D02*
X59838819Y-52222837D01*
X59838819Y-52222837D02*
X59838819Y-52032361D01*
X59838819Y-52032361D02*
X59791200Y-51937123D01*
X59791200Y-51937123D02*
X59743580Y-51889504D01*
X59743580Y-51889504D02*
X59648342Y-51841885D01*
X59648342Y-51841885D02*
X59457866Y-51841885D01*
X59457866Y-51841885D02*
X59362628Y-51889504D01*
X59362628Y-51889504D02*
X59315009Y-51937123D01*
X59315009Y-51937123D02*
X59267390Y-52032361D01*
X89504819Y-37392857D02*
X89028628Y-37726190D01*
X89504819Y-37964285D02*
X88504819Y-37964285D01*
X88504819Y-37964285D02*
X88504819Y-37583333D01*
X88504819Y-37583333D02*
X88552438Y-37488095D01*
X88552438Y-37488095D02*
X88600057Y-37440476D01*
X88600057Y-37440476D02*
X88695295Y-37392857D01*
X88695295Y-37392857D02*
X88838152Y-37392857D01*
X88838152Y-37392857D02*
X88933390Y-37440476D01*
X88933390Y-37440476D02*
X88981009Y-37488095D01*
X88981009Y-37488095D02*
X89028628Y-37583333D01*
X89028628Y-37583333D02*
X89028628Y-37964285D01*
X89504819Y-36440476D02*
X89504819Y-37011904D01*
X89504819Y-36726190D02*
X88504819Y-36726190D01*
X88504819Y-36726190D02*
X88647676Y-36821428D01*
X88647676Y-36821428D02*
X88742914Y-36916666D01*
X88742914Y-36916666D02*
X88790533Y-37011904D01*
X89504819Y-35488095D02*
X89504819Y-36059523D01*
X89504819Y-35773809D02*
X88504819Y-35773809D01*
X88504819Y-35773809D02*
X88647676Y-35869047D01*
X88647676Y-35869047D02*
X88742914Y-35964285D01*
X88742914Y-35964285D02*
X88790533Y-36059523D01*
X83474933Y-100753619D02*
X83141600Y-100277428D01*
X82903505Y-100753619D02*
X82903505Y-99753619D01*
X82903505Y-99753619D02*
X83284457Y-99753619D01*
X83284457Y-99753619D02*
X83379695Y-99801238D01*
X83379695Y-99801238D02*
X83427314Y-99848857D01*
X83427314Y-99848857D02*
X83474933Y-99944095D01*
X83474933Y-99944095D02*
X83474933Y-100086952D01*
X83474933Y-100086952D02*
X83427314Y-100182190D01*
X83427314Y-100182190D02*
X83379695Y-100229809D01*
X83379695Y-100229809D02*
X83284457Y-100277428D01*
X83284457Y-100277428D02*
X82903505Y-100277428D01*
X84379695Y-99753619D02*
X83903505Y-99753619D01*
X83903505Y-99753619D02*
X83855886Y-100229809D01*
X83855886Y-100229809D02*
X83903505Y-100182190D01*
X83903505Y-100182190D02*
X83998743Y-100134571D01*
X83998743Y-100134571D02*
X84236838Y-100134571D01*
X84236838Y-100134571D02*
X84332076Y-100182190D01*
X84332076Y-100182190D02*
X84379695Y-100229809D01*
X84379695Y-100229809D02*
X84427314Y-100325047D01*
X84427314Y-100325047D02*
X84427314Y-100563142D01*
X84427314Y-100563142D02*
X84379695Y-100658380D01*
X84379695Y-100658380D02*
X84332076Y-100706000D01*
X84332076Y-100706000D02*
X84236838Y-100753619D01*
X84236838Y-100753619D02*
X83998743Y-100753619D01*
X83998743Y-100753619D02*
X83903505Y-100706000D01*
X83903505Y-100706000D02*
X83855886Y-100658380D01*
X53554780Y-36691866D02*
X53602400Y-36739485D01*
X53602400Y-36739485D02*
X53650019Y-36882342D01*
X53650019Y-36882342D02*
X53650019Y-36977580D01*
X53650019Y-36977580D02*
X53602400Y-37120437D01*
X53602400Y-37120437D02*
X53507161Y-37215675D01*
X53507161Y-37215675D02*
X53411923Y-37263294D01*
X53411923Y-37263294D02*
X53221447Y-37310913D01*
X53221447Y-37310913D02*
X53078590Y-37310913D01*
X53078590Y-37310913D02*
X52888114Y-37263294D01*
X52888114Y-37263294D02*
X52792876Y-37215675D01*
X52792876Y-37215675D02*
X52697638Y-37120437D01*
X52697638Y-37120437D02*
X52650019Y-36977580D01*
X52650019Y-36977580D02*
X52650019Y-36882342D01*
X52650019Y-36882342D02*
X52697638Y-36739485D01*
X52697638Y-36739485D02*
X52745257Y-36691866D01*
X52650019Y-35787104D02*
X52650019Y-36263294D01*
X52650019Y-36263294D02*
X53126209Y-36310913D01*
X53126209Y-36310913D02*
X53078590Y-36263294D01*
X53078590Y-36263294D02*
X53030971Y-36168056D01*
X53030971Y-36168056D02*
X53030971Y-35929961D01*
X53030971Y-35929961D02*
X53078590Y-35834723D01*
X53078590Y-35834723D02*
X53126209Y-35787104D01*
X53126209Y-35787104D02*
X53221447Y-35739485D01*
X53221447Y-35739485D02*
X53459542Y-35739485D01*
X53459542Y-35739485D02*
X53554780Y-35787104D01*
X53554780Y-35787104D02*
X53602400Y-35834723D01*
X53602400Y-35834723D02*
X53650019Y-35929961D01*
X53650019Y-35929961D02*
X53650019Y-36168056D01*
X53650019Y-36168056D02*
X53602400Y-36263294D01*
X53602400Y-36263294D02*
X53554780Y-36310913D01*
X75880933Y-30511619D02*
X75404743Y-30511619D01*
X75404743Y-30511619D02*
X75404743Y-29511619D01*
X76738076Y-30511619D02*
X76166648Y-30511619D01*
X76452362Y-30511619D02*
X76452362Y-29511619D01*
X76452362Y-29511619D02*
X76357124Y-29654476D01*
X76357124Y-29654476D02*
X76261886Y-29749714D01*
X76261886Y-29749714D02*
X76166648Y-29797333D01*
X83652133Y-83563619D02*
X83318800Y-83087428D01*
X83080705Y-83563619D02*
X83080705Y-82563619D01*
X83080705Y-82563619D02*
X83461657Y-82563619D01*
X83461657Y-82563619D02*
X83556895Y-82611238D01*
X83556895Y-82611238D02*
X83604514Y-82658857D01*
X83604514Y-82658857D02*
X83652133Y-82754095D01*
X83652133Y-82754095D02*
X83652133Y-82896952D01*
X83652133Y-82896952D02*
X83604514Y-82992190D01*
X83604514Y-82992190D02*
X83556895Y-83039809D01*
X83556895Y-83039809D02*
X83461657Y-83087428D01*
X83461657Y-83087428D02*
X83080705Y-83087428D01*
X84033086Y-82658857D02*
X84080705Y-82611238D01*
X84080705Y-82611238D02*
X84175943Y-82563619D01*
X84175943Y-82563619D02*
X84414038Y-82563619D01*
X84414038Y-82563619D02*
X84509276Y-82611238D01*
X84509276Y-82611238D02*
X84556895Y-82658857D01*
X84556895Y-82658857D02*
X84604514Y-82754095D01*
X84604514Y-82754095D02*
X84604514Y-82849333D01*
X84604514Y-82849333D02*
X84556895Y-82992190D01*
X84556895Y-82992190D02*
X83985467Y-83563619D01*
X83985467Y-83563619D02*
X84604514Y-83563619D01*
X59066695Y-26086219D02*
X59066695Y-26895742D01*
X59066695Y-26895742D02*
X59114314Y-26990980D01*
X59114314Y-26990980D02*
X59161933Y-27038600D01*
X59161933Y-27038600D02*
X59257171Y-27086219D01*
X59257171Y-27086219D02*
X59447647Y-27086219D01*
X59447647Y-27086219D02*
X59542885Y-27038600D01*
X59542885Y-27038600D02*
X59590504Y-26990980D01*
X59590504Y-26990980D02*
X59638123Y-26895742D01*
X59638123Y-26895742D02*
X59638123Y-26086219D01*
X60019076Y-26086219D02*
X60638123Y-26086219D01*
X60638123Y-26086219D02*
X60304790Y-26467171D01*
X60304790Y-26467171D02*
X60447647Y-26467171D01*
X60447647Y-26467171D02*
X60542885Y-26514790D01*
X60542885Y-26514790D02*
X60590504Y-26562409D01*
X60590504Y-26562409D02*
X60638123Y-26657647D01*
X60638123Y-26657647D02*
X60638123Y-26895742D01*
X60638123Y-26895742D02*
X60590504Y-26990980D01*
X60590504Y-26990980D02*
X60542885Y-27038600D01*
X60542885Y-27038600D02*
X60447647Y-27086219D01*
X60447647Y-27086219D02*
X60161933Y-27086219D01*
X60161933Y-27086219D02*
X60066695Y-27038600D01*
X60066695Y-27038600D02*
X60019076Y-26990980D01*
X70395980Y-35173266D02*
X70443600Y-35220885D01*
X70443600Y-35220885D02*
X70491219Y-35363742D01*
X70491219Y-35363742D02*
X70491219Y-35458980D01*
X70491219Y-35458980D02*
X70443600Y-35601837D01*
X70443600Y-35601837D02*
X70348361Y-35697075D01*
X70348361Y-35697075D02*
X70253123Y-35744694D01*
X70253123Y-35744694D02*
X70062647Y-35792313D01*
X70062647Y-35792313D02*
X69919790Y-35792313D01*
X69919790Y-35792313D02*
X69729314Y-35744694D01*
X69729314Y-35744694D02*
X69634076Y-35697075D01*
X69634076Y-35697075D02*
X69538838Y-35601837D01*
X69538838Y-35601837D02*
X69491219Y-35458980D01*
X69491219Y-35458980D02*
X69491219Y-35363742D01*
X69491219Y-35363742D02*
X69538838Y-35220885D01*
X69538838Y-35220885D02*
X69586457Y-35173266D01*
X70491219Y-34173266D02*
X70015028Y-34506599D01*
X70491219Y-34744694D02*
X69491219Y-34744694D01*
X69491219Y-34744694D02*
X69491219Y-34363742D01*
X69491219Y-34363742D02*
X69538838Y-34268504D01*
X69538838Y-34268504D02*
X69586457Y-34220885D01*
X69586457Y-34220885D02*
X69681695Y-34173266D01*
X69681695Y-34173266D02*
X69824552Y-34173266D01*
X69824552Y-34173266D02*
X69919790Y-34220885D01*
X69919790Y-34220885D02*
X69967409Y-34268504D01*
X69967409Y-34268504D02*
X70015028Y-34363742D01*
X70015028Y-34363742D02*
X70015028Y-34744694D01*
X70491219Y-33220885D02*
X70491219Y-33792313D01*
X70491219Y-33506599D02*
X69491219Y-33506599D01*
X69491219Y-33506599D02*
X69634076Y-33601837D01*
X69634076Y-33601837D02*
X69729314Y-33697075D01*
X69729314Y-33697075D02*
X69776933Y-33792313D01*
X113353395Y-31975219D02*
X113353395Y-32784742D01*
X113353395Y-32784742D02*
X113401014Y-32879980D01*
X113401014Y-32879980D02*
X113448633Y-32927600D01*
X113448633Y-32927600D02*
X113543871Y-32975219D01*
X113543871Y-32975219D02*
X113734347Y-32975219D01*
X113734347Y-32975219D02*
X113829585Y-32927600D01*
X113829585Y-32927600D02*
X113877204Y-32879980D01*
X113877204Y-32879980D02*
X113924823Y-32784742D01*
X113924823Y-32784742D02*
X113924823Y-31975219D01*
X114353395Y-32070457D02*
X114401014Y-32022838D01*
X114401014Y-32022838D02*
X114496252Y-31975219D01*
X114496252Y-31975219D02*
X114734347Y-31975219D01*
X114734347Y-31975219D02*
X114829585Y-32022838D01*
X114829585Y-32022838D02*
X114877204Y-32070457D01*
X114877204Y-32070457D02*
X114924823Y-32165695D01*
X114924823Y-32165695D02*
X114924823Y-32260933D01*
X114924823Y-32260933D02*
X114877204Y-32403790D01*
X114877204Y-32403790D02*
X114305776Y-32975219D01*
X114305776Y-32975219D02*
X114924823Y-32975219D01*
X35844819Y-33833333D02*
X36559104Y-33833333D01*
X36559104Y-33833333D02*
X36701961Y-33880952D01*
X36701961Y-33880952D02*
X36797200Y-33976190D01*
X36797200Y-33976190D02*
X36844819Y-34119047D01*
X36844819Y-34119047D02*
X36844819Y-34214285D01*
X36844819Y-32833333D02*
X36844819Y-33404761D01*
X36844819Y-33119047D02*
X35844819Y-33119047D01*
X35844819Y-33119047D02*
X35987676Y-33214285D01*
X35987676Y-33214285D02*
X36082914Y-33309523D01*
X36082914Y-33309523D02*
X36130533Y-33404761D01*
X45396780Y-47666666D02*
X45444400Y-47714285D01*
X45444400Y-47714285D02*
X45492019Y-47857142D01*
X45492019Y-47857142D02*
X45492019Y-47952380D01*
X45492019Y-47952380D02*
X45444400Y-48095237D01*
X45444400Y-48095237D02*
X45349161Y-48190475D01*
X45349161Y-48190475D02*
X45253923Y-48238094D01*
X45253923Y-48238094D02*
X45063447Y-48285713D01*
X45063447Y-48285713D02*
X44920590Y-48285713D01*
X44920590Y-48285713D02*
X44730114Y-48238094D01*
X44730114Y-48238094D02*
X44634876Y-48190475D01*
X44634876Y-48190475D02*
X44539638Y-48095237D01*
X44539638Y-48095237D02*
X44492019Y-47952380D01*
X44492019Y-47952380D02*
X44492019Y-47857142D01*
X44492019Y-47857142D02*
X44539638Y-47714285D01*
X44539638Y-47714285D02*
X44587257Y-47666666D01*
X45492019Y-47190475D02*
X45492019Y-46999999D01*
X45492019Y-46999999D02*
X45444400Y-46904761D01*
X45444400Y-46904761D02*
X45396780Y-46857142D01*
X45396780Y-46857142D02*
X45253923Y-46761904D01*
X45253923Y-46761904D02*
X45063447Y-46714285D01*
X45063447Y-46714285D02*
X44682495Y-46714285D01*
X44682495Y-46714285D02*
X44587257Y-46761904D01*
X44587257Y-46761904D02*
X44539638Y-46809523D01*
X44539638Y-46809523D02*
X44492019Y-46904761D01*
X44492019Y-46904761D02*
X44492019Y-47095237D01*
X44492019Y-47095237D02*
X44539638Y-47190475D01*
X44539638Y-47190475D02*
X44587257Y-47238094D01*
X44587257Y-47238094D02*
X44682495Y-47285713D01*
X44682495Y-47285713D02*
X44920590Y-47285713D01*
X44920590Y-47285713D02*
X45015828Y-47238094D01*
X45015828Y-47238094D02*
X45063447Y-47190475D01*
X45063447Y-47190475D02*
X45111066Y-47095237D01*
X45111066Y-47095237D02*
X45111066Y-46904761D01*
X45111066Y-46904761D02*
X45063447Y-46809523D01*
X45063447Y-46809523D02*
X45015828Y-46761904D01*
X45015828Y-46761904D02*
X44920590Y-46714285D01*
X83576533Y-72616552D02*
X83243200Y-72140361D01*
X83005105Y-72616552D02*
X83005105Y-71616552D01*
X83005105Y-71616552D02*
X83386057Y-71616552D01*
X83386057Y-71616552D02*
X83481295Y-71664171D01*
X83481295Y-71664171D02*
X83528914Y-71711790D01*
X83528914Y-71711790D02*
X83576533Y-71807028D01*
X83576533Y-71807028D02*
X83576533Y-71949885D01*
X83576533Y-71949885D02*
X83528914Y-72045123D01*
X83528914Y-72045123D02*
X83481295Y-72092742D01*
X83481295Y-72092742D02*
X83386057Y-72140361D01*
X83386057Y-72140361D02*
X83005105Y-72140361D01*
X84433676Y-71616552D02*
X84243200Y-71616552D01*
X84243200Y-71616552D02*
X84147962Y-71664171D01*
X84147962Y-71664171D02*
X84100343Y-71711790D01*
X84100343Y-71711790D02*
X84005105Y-71854647D01*
X84005105Y-71854647D02*
X83957486Y-72045123D01*
X83957486Y-72045123D02*
X83957486Y-72426075D01*
X83957486Y-72426075D02*
X84005105Y-72521313D01*
X84005105Y-72521313D02*
X84052724Y-72568933D01*
X84052724Y-72568933D02*
X84147962Y-72616552D01*
X84147962Y-72616552D02*
X84338438Y-72616552D01*
X84338438Y-72616552D02*
X84433676Y-72568933D01*
X84433676Y-72568933D02*
X84481295Y-72521313D01*
X84481295Y-72521313D02*
X84528914Y-72426075D01*
X84528914Y-72426075D02*
X84528914Y-72187980D01*
X84528914Y-72187980D02*
X84481295Y-72092742D01*
X84481295Y-72092742D02*
X84433676Y-72045123D01*
X84433676Y-72045123D02*
X84338438Y-71997504D01*
X84338438Y-71997504D02*
X84147962Y-71997504D01*
X84147962Y-71997504D02*
X84052724Y-72045123D01*
X84052724Y-72045123D02*
X84005105Y-72092742D01*
X84005105Y-72092742D02*
X83957486Y-72187980D01*
X53607142Y-44374819D02*
X53273809Y-43898628D01*
X53035714Y-44374819D02*
X53035714Y-43374819D01*
X53035714Y-43374819D02*
X53416666Y-43374819D01*
X53416666Y-43374819D02*
X53511904Y-43422438D01*
X53511904Y-43422438D02*
X53559523Y-43470057D01*
X53559523Y-43470057D02*
X53607142Y-43565295D01*
X53607142Y-43565295D02*
X53607142Y-43708152D01*
X53607142Y-43708152D02*
X53559523Y-43803390D01*
X53559523Y-43803390D02*
X53511904Y-43851009D01*
X53511904Y-43851009D02*
X53416666Y-43898628D01*
X53416666Y-43898628D02*
X53035714Y-43898628D01*
X54559523Y-44374819D02*
X53988095Y-44374819D01*
X54273809Y-44374819D02*
X54273809Y-43374819D01*
X54273809Y-43374819D02*
X54178571Y-43517676D01*
X54178571Y-43517676D02*
X54083333Y-43612914D01*
X54083333Y-43612914D02*
X53988095Y-43660533D01*
X55178571Y-43374819D02*
X55273809Y-43374819D01*
X55273809Y-43374819D02*
X55369047Y-43422438D01*
X55369047Y-43422438D02*
X55416666Y-43470057D01*
X55416666Y-43470057D02*
X55464285Y-43565295D01*
X55464285Y-43565295D02*
X55511904Y-43755771D01*
X55511904Y-43755771D02*
X55511904Y-43993866D01*
X55511904Y-43993866D02*
X55464285Y-44184342D01*
X55464285Y-44184342D02*
X55416666Y-44279580D01*
X55416666Y-44279580D02*
X55369047Y-44327200D01*
X55369047Y-44327200D02*
X55273809Y-44374819D01*
X55273809Y-44374819D02*
X55178571Y-44374819D01*
X55178571Y-44374819D02*
X55083333Y-44327200D01*
X55083333Y-44327200D02*
X55035714Y-44279580D01*
X55035714Y-44279580D02*
X54988095Y-44184342D01*
X54988095Y-44184342D02*
X54940476Y-43993866D01*
X54940476Y-43993866D02*
X54940476Y-43755771D01*
X54940476Y-43755771D02*
X54988095Y-43565295D01*
X54988095Y-43565295D02*
X55035714Y-43470057D01*
X55035714Y-43470057D02*
X55083333Y-43422438D01*
X55083333Y-43422438D02*
X55178571Y-43374819D01*
X67703580Y-28563866D02*
X67751200Y-28611485D01*
X67751200Y-28611485D02*
X67798819Y-28754342D01*
X67798819Y-28754342D02*
X67798819Y-28849580D01*
X67798819Y-28849580D02*
X67751200Y-28992437D01*
X67751200Y-28992437D02*
X67655961Y-29087675D01*
X67655961Y-29087675D02*
X67560723Y-29135294D01*
X67560723Y-29135294D02*
X67370247Y-29182913D01*
X67370247Y-29182913D02*
X67227390Y-29182913D01*
X67227390Y-29182913D02*
X67036914Y-29135294D01*
X67036914Y-29135294D02*
X66941676Y-29087675D01*
X66941676Y-29087675D02*
X66846438Y-28992437D01*
X66846438Y-28992437D02*
X66798819Y-28849580D01*
X66798819Y-28849580D02*
X66798819Y-28754342D01*
X66798819Y-28754342D02*
X66846438Y-28611485D01*
X66846438Y-28611485D02*
X66894057Y-28563866D01*
X66798819Y-27706723D02*
X66798819Y-27897199D01*
X66798819Y-27897199D02*
X66846438Y-27992437D01*
X66846438Y-27992437D02*
X66894057Y-28040056D01*
X66894057Y-28040056D02*
X67036914Y-28135294D01*
X67036914Y-28135294D02*
X67227390Y-28182913D01*
X67227390Y-28182913D02*
X67608342Y-28182913D01*
X67608342Y-28182913D02*
X67703580Y-28135294D01*
X67703580Y-28135294D02*
X67751200Y-28087675D01*
X67751200Y-28087675D02*
X67798819Y-27992437D01*
X67798819Y-27992437D02*
X67798819Y-27801961D01*
X67798819Y-27801961D02*
X67751200Y-27706723D01*
X67751200Y-27706723D02*
X67703580Y-27659104D01*
X67703580Y-27659104D02*
X67608342Y-27611485D01*
X67608342Y-27611485D02*
X67370247Y-27611485D01*
X67370247Y-27611485D02*
X67275009Y-27659104D01*
X67275009Y-27659104D02*
X67227390Y-27706723D01*
X67227390Y-27706723D02*
X67179771Y-27801961D01*
X67179771Y-27801961D02*
X67179771Y-27992437D01*
X67179771Y-27992437D02*
X67227390Y-28087675D01*
X67227390Y-28087675D02*
X67275009Y-28135294D01*
X67275009Y-28135294D02*
X67370247Y-28182913D01*
X83474933Y-90345085D02*
X83141600Y-89868894D01*
X82903505Y-90345085D02*
X82903505Y-89345085D01*
X82903505Y-89345085D02*
X83284457Y-89345085D01*
X83284457Y-89345085D02*
X83379695Y-89392704D01*
X83379695Y-89392704D02*
X83427314Y-89440323D01*
X83427314Y-89440323D02*
X83474933Y-89535561D01*
X83474933Y-89535561D02*
X83474933Y-89678418D01*
X83474933Y-89678418D02*
X83427314Y-89773656D01*
X83427314Y-89773656D02*
X83379695Y-89821275D01*
X83379695Y-89821275D02*
X83284457Y-89868894D01*
X83284457Y-89868894D02*
X82903505Y-89868894D01*
X84332076Y-89678418D02*
X84332076Y-90345085D01*
X84093981Y-89297466D02*
X83855886Y-90011751D01*
X83855886Y-90011751D02*
X84474933Y-90011751D01*
X45400933Y-36156780D02*
X45353314Y-36204400D01*
X45353314Y-36204400D02*
X45210457Y-36252019D01*
X45210457Y-36252019D02*
X45115219Y-36252019D01*
X45115219Y-36252019D02*
X44972362Y-36204400D01*
X44972362Y-36204400D02*
X44877124Y-36109161D01*
X44877124Y-36109161D02*
X44829505Y-36013923D01*
X44829505Y-36013923D02*
X44781886Y-35823447D01*
X44781886Y-35823447D02*
X44781886Y-35680590D01*
X44781886Y-35680590D02*
X44829505Y-35490114D01*
X44829505Y-35490114D02*
X44877124Y-35394876D01*
X44877124Y-35394876D02*
X44972362Y-35299638D01*
X44972362Y-35299638D02*
X45115219Y-35252019D01*
X45115219Y-35252019D02*
X45210457Y-35252019D01*
X45210457Y-35252019D02*
X45353314Y-35299638D01*
X45353314Y-35299638D02*
X45400933Y-35347257D01*
X46258076Y-35585352D02*
X46258076Y-36252019D01*
X46019981Y-35204400D02*
X45781886Y-35918685D01*
X45781886Y-35918685D02*
X46400933Y-35918685D01*
D13*
%TO.C,U1*%
X39663600Y-82301600D02*
X39663600Y-83801600D01*
X39663600Y-82301600D02*
X41163600Y-82301600D01*
X39663600Y-121101600D02*
X39663600Y-119601600D01*
X63663600Y-82301600D02*
X63663600Y-121101600D01*
X63663600Y-121101600D02*
X39663600Y-121101600D01*
D12*
X38863600Y-85081600D02*
G75*
G02*
X38063600Y-85081600I-400000J0D01*
G01*
X38063600Y-85081600D02*
G75*
G02*
X38863600Y-85081600I400000J0D01*
G01*
D13*
%TO.C,C11*%
X79548400Y-33158165D02*
X79548400Y-33389835D01*
X80268400Y-33158165D02*
X80268400Y-33389835D01*
%TO.C,U6*%
X63318400Y-49345000D02*
X67438400Y-49345000D01*
X63318400Y-49440000D02*
X63318400Y-49345000D01*
X63318400Y-54465000D02*
X63318400Y-54370000D01*
X67438400Y-49345000D02*
X67438400Y-49440000D01*
X67438400Y-54370000D02*
X67438400Y-54465000D01*
X67438400Y-54465000D02*
X63318400Y-54465000D01*
X68218400Y-54705000D02*
X67738400Y-54705000D01*
X67978400Y-54375000D01*
X68218400Y-54705000D01*
G36*
X68218400Y-54705000D02*
G01*
X67738400Y-54705000D01*
X67978400Y-54375000D01*
X68218400Y-54705000D01*
G37*
%TO.C,R7*%
X84368664Y-94184533D02*
X82914536Y-94184533D01*
X84368664Y-96004533D02*
X82914536Y-96004533D01*
%TO.C,C3*%
X44439600Y-29210369D02*
X44439600Y-29006431D01*
X45679600Y-29210369D02*
X45679600Y-29006431D01*
%TO.C,C7*%
X74090000Y-53555552D02*
X74090000Y-52133048D01*
X75910000Y-53555552D02*
X75910000Y-52133048D01*
%TO.C,C2*%
X84352852Y-115347333D02*
X82930348Y-115347333D01*
X84352852Y-117167333D02*
X82930348Y-117167333D01*
%TO.C,C10*%
X75941600Y-33107365D02*
X75941600Y-33339035D01*
X76661600Y-33107365D02*
X76661600Y-33339035D01*
%TO.C,J4*%
X37390000Y-41860000D02*
X37390000Y-40750000D01*
X38500000Y-41860000D02*
X37390000Y-41860000D01*
X39500000Y-39640000D02*
X41610000Y-39640000D01*
X39500000Y-41860000D02*
X39500000Y-39640000D01*
X39500000Y-41860000D02*
X41610000Y-41860000D01*
X41610000Y-41860000D02*
X41610000Y-39640000D01*
%TO.C,C1*%
X84352852Y-108273066D02*
X82930348Y-108273066D01*
X84352852Y-110093066D02*
X82930348Y-110093066D01*
%TO.C,R9*%
X52772936Y-57590000D02*
X54227064Y-57590000D01*
X52772936Y-59410000D02*
X54227064Y-59410000D01*
%TO.C,C8*%
X45926400Y-56375648D02*
X45926400Y-57798152D01*
X47746400Y-56375648D02*
X47746400Y-57798152D01*
%TO.C,R8*%
X56696000Y-53227064D02*
X56696000Y-51772936D01*
X58516000Y-53227064D02*
X58516000Y-51772936D01*
%TO.C,R5*%
X82914536Y-101218800D02*
X84368664Y-101218800D01*
X82914536Y-103038800D02*
X84368664Y-103038800D01*
%TO.C,C5*%
X51255200Y-36378933D02*
X51255200Y-36671467D01*
X52275200Y-36378933D02*
X52275200Y-36671467D01*
%TO.C,R2*%
X84368664Y-80116000D02*
X82914536Y-80116000D01*
X84368664Y-81936000D02*
X82914536Y-81936000D01*
D14*
%TO.C,U3*%
X57953600Y-27741400D02*
X61853600Y-27741400D01*
X57953600Y-32791400D02*
X61853600Y-32791400D01*
D15*
X55933600Y-28361400D02*
G75*
G02*
X55733600Y-28361400I-100000J0D01*
G01*
X55733600Y-28361400D02*
G75*
G02*
X55933600Y-28361400I100000J0D01*
G01*
D11*
%TO.C,CR1*%
X69036400Y-33471600D02*
G75*
G02*
X68936400Y-33471600I-50000J0D01*
G01*
X68936400Y-33471600D02*
G75*
G02*
X69036400Y-33471600I50000J0D01*
G01*
D14*
%TO.C,U2*%
X100317700Y-40272000D02*
X100317700Y-88472000D01*
X100317700Y-88472000D02*
X110197700Y-88472000D01*
X105267700Y-34072000D02*
X123267700Y-34072000D01*
X105267700Y-40272000D02*
X100317700Y-40272000D01*
X105267700Y-40272000D02*
X105267700Y-34072000D01*
X110197700Y-88472000D02*
X110197700Y-89372000D01*
X110197700Y-89372000D02*
X118327700Y-89372000D01*
X118327700Y-88472000D02*
X128217700Y-88472000D01*
X118327700Y-89372000D02*
X118327700Y-88472000D01*
X123267700Y-34072000D02*
X123267700Y-40272000D01*
X128217700Y-40272000D02*
X123267700Y-40272000D01*
X128217700Y-88472000D02*
X128217700Y-40272000D01*
D15*
X99797700Y-41402000D02*
G75*
G02*
X99597700Y-41402000I-100000J0D01*
G01*
X99597700Y-41402000D02*
G75*
G02*
X99797700Y-41402000I100000J0D01*
G01*
D13*
%TO.C,J1*%
X37390000Y-34610000D02*
X37390000Y-33500000D01*
X38500000Y-34610000D02*
X37390000Y-34610000D01*
X39500000Y-32390000D02*
X41610000Y-32390000D01*
X39500000Y-34610000D02*
X39500000Y-32390000D01*
X39500000Y-34610000D02*
X41610000Y-34610000D01*
X41610000Y-34610000D02*
X41610000Y-32390000D01*
%TO.C,C9*%
X45977200Y-48211252D02*
X45977200Y-46788748D01*
X47797200Y-48211252D02*
X47797200Y-46788748D01*
%TO.C,R6*%
X83016136Y-73081733D02*
X84470264Y-73081733D01*
X83016136Y-74901733D02*
X84470264Y-74901733D01*
%TO.C,R10*%
X53522936Y-44840000D02*
X54977064Y-44840000D01*
X53522936Y-46660000D02*
X54977064Y-46660000D01*
%TO.C,C6*%
X68214000Y-28499169D02*
X68214000Y-28295231D01*
X69454000Y-28499169D02*
X69454000Y-28295231D01*
%TO.C,R4*%
X84368664Y-87150266D02*
X82914536Y-87150266D01*
X84368664Y-88970266D02*
X82914536Y-88970266D01*
%TO.C,C4*%
X45465631Y-36667200D02*
X45669569Y-36667200D01*
X45465631Y-37907200D02*
X45669569Y-37907200D01*
%TD*%
M02*
